  0
SECTION
  2
HEADER
  9
$ACADVER
  1
AC1009
  9
$FILLMODE
 70
 0
  9
$SPLFRAME
 70
 1
  9
$EXTMIN
 10
0
 20
0
 30
0.0
  9
$EXTMAX
 10
1058.33
 20
1058.33
 30
0.0
  0
ENDSEC
  0
SECTION
  2
TABLES
  0
TABLE
  2
LAYER
 70
1
  0
LAYER
  2
0
 70
     0
 62
     7
  6
CONTINUOUS
  0
ENDTAB
  0
ENDSEC
  0
SECTION
  2
ENTITIES
  0
LINE
  8
0
 62
     0
 10
0.0950846
 20
93.0381
 30
0.0
 11
276.32
 21
93.0381
 31
0.0
  0
LINE
  8
0
 62
     0
 10
276.32
 20
93.0381
 30
0.0
 11
276.32
 21
0.101975
 31
0.0
  0
LINE
  8
0
 62
     0
 10
276.32
 20
0.101975
 30
0.0
 11
0.0950846
 21
0.101975
 31
0.0
  0
LINE
  8
0
 62
     0
 10
0.0950846
 20
0.101975
 30
0.0
 11
0.0950846
 21
93.0381
 31
0.0
  0
LINE
  8
0
 62
     0
 10
110.342
 20
14.6775
 30
0.0
 11
122.466
 21
7.67704
 31
0.0
  0
LINE
  8
0
 62
     0
 10
122.466
 20
7.67704
 30
0.0
 11
129.467
 21
19.8024
 31
0.0
  0
LINE
  8
0
 62
     0
 10
129.467
 20
19.8024
 30
0.0
 11
117.343
 21
26.8015
 31
0.0
  0
LINE
  8
0
 62
     0
 10
117.343
 20
26.8015
 30
0.0
 11
110.342
 21
14.6775
 31
0.0
  0
LINE
  8
0
 62
     0
 10
88.6629
 20
15.3583
 30
0.0
 11
102.187
 21
11.734
 31
0.0
  0
LINE
  8
0
 62
     0
 10
102.187
 20
11.734
 30
0.0
 11
105.81
 21
25.2567
 31
0.0
  0
LINE
  8
0
 62
     0
 10
105.81
 20
25.2567
 30
0.0
 11
92.2874
 21
28.8809
 31
0.0
  0
LINE
  8
0
 62
     0
 10
92.2874
 20
28.8809
 30
0.0
 11
88.6629
 21
15.3583
 31
0.0
  0
LINE
  8
0
 62
     0
 10
144.566
 20
23.9255
 30
0.0
 11
151.565
 21
11.8015
 31
0.0
  0
LINE
  8
0
 62
     0
 10
151.565
 20
11.8015
 30
0.0
 11
163.689
 21
18.802
 31
0.0
  0
LINE
  8
0
 62
     0
 10
163.689
 20
18.802
 30
0.0
 11
156.69
 21
30.9259
 31
0.0
  0
LINE
  8
0
 62
     0
 10
156.69
 20
30.9259
 30
0.0
 11
144.566
 21
23.9255
 31
0.0
  0
LINE
  8
0
 62
     0
 10
169.37
 20
29.8566
 30
0.0
 11
172.993
 21
16.3339
 31
0.0
  0
LINE
  8
0
 62
     0
 10
172.993
 20
16.3339
 30
0.0
 11
186.516
 21
19.9581
 31
0.0
  0
LINE
  8
0
 62
     0
 10
186.516
 20
19.9581
 30
0.0
 11
182.893
 21
33.4808
 31
0.0
  0
LINE
  8
0
 62
     0
 10
182.893
 20
33.4808
 30
0.0
 11
169.37
 21
29.8566
 31
0.0
  0
LINE
  8
0
 62
     0
 10
68.913
 20
30.507
 30
0.0
 11
82.9137
 21
30.507
 31
0.0
  0
LINE
  8
0
 62
     0
 10
82.9137
 20
30.507
 30
0.0
 11
82.9137
 21
16.5075
 31
0.0
  0
LINE
  8
0
 62
     0
 10
82.9137
 20
16.5075
 30
0.0
 11
68.913
 21
16.5075
 31
0.0
  0
LINE
  8
0
 62
     0
 10
68.913
 20
16.5075
 30
0.0
 11
68.913
 21
30.507
 31
0.0
  0
LINE
  8
0
 62
     0
 10
193.5
 20
30.507
 30
0.0
 11
207.501
 21
30.507
 31
0.0
  0
LINE
  8
0
 62
     0
 10
207.501
 20
30.507
 30
0.0
 11
207.501
 21
16.5075
 31
0.0
  0
LINE
  8
0
 62
     0
 10
207.501
 20
16.5075
 30
0.0
 11
193.5
 21
16.5075
 31
0.0
  0
LINE
  8
0
 62
     0
 10
193.5
 20
16.5075
 30
0.0
 11
193.5
 21
30.507
 31
0.0
  0
LINE
  8
0
 62
     0
 10
2.61965
 20
45.5553
 30
0.0
 11
16.6192
 21
45.5553
 31
0.0
  0
LINE
  8
0
 62
     0
 10
16.6192
 20
45.5553
 30
0.0
 11
16.6192
 21
31.5557
 31
0.0
  0
LINE
  8
0
 62
     0
 10
16.6192
 20
31.5557
 30
0.0
 11
2.61965
 21
31.5557
 31
0.0
  0
LINE
  8
0
 62
     0
 10
2.61965
 20
31.5557
 30
0.0
 11
2.61965
 21
45.5553
 31
0.0
  0
LINE
  8
0
 62
     0
 10
21.6697
 20
45.5553
 30
0.0
 11
35.669
 21
45.5553
 31
0.0
  0
LINE
  8
0
 62
     0
 10
35.669
 20
45.5553
 30
0.0
 11
35.669
 21
31.5557
 31
0.0
  0
LINE
  8
0
 62
     0
 10
35.669
 20
31.5557
 30
0.0
 11
21.6697
 21
31.5557
 31
0.0
  0
LINE
  8
0
 62
     0
 10
21.6697
 20
31.5557
 30
0.0
 11
21.6697
 21
45.5553
 31
0.0
  0
LINE
  8
0
 62
     0
 10
240.745
 20
45.5553
 30
0.0
 11
254.744
 21
45.5553
 31
0.0
  0
LINE
  8
0
 62
     0
 10
254.744
 20
45.5553
 30
0.0
 11
254.744
 21
31.5557
 31
0.0
  0
LINE
  8
0
 62
     0
 10
254.744
 20
31.5557
 30
0.0
 11
240.745
 21
31.5557
 31
0.0
  0
LINE
  8
0
 62
     0
 10
240.745
 20
31.5557
 30
0.0
 11
240.745
 21
45.5553
 31
0.0
  0
LINE
  8
0
 62
     0
 10
259.795
 20
45.5553
 30
0.0
 11
273.794
 21
45.5553
 31
0.0
  0
LINE
  8
0
 62
     0
 10
273.794
 20
45.5553
 30
0.0
 11
273.794
 21
31.5557
 31
0.0
  0
LINE
  8
0
 62
     0
 10
273.794
 20
31.5557
 30
0.0
 11
259.795
 21
31.5557
 31
0.0
  0
LINE
  8
0
 62
     0
 10
259.795
 20
31.5557
 30
0.0
 11
259.795
 21
45.5553
 31
0.0
  0
LINE
  8
0
 62
     0
 10
97.8697
 20
47.6511
 30
0.0
 11
111.869
 21
47.6511
 31
0.0
  0
LINE
  8
0
 62
     0
 10
111.869
 20
47.6511
 30
0.0
 11
111.869
 21
33.6517
 31
0.0
  0
LINE
  8
0
 62
     0
 10
111.869
 20
33.6517
 30
0.0
 11
97.8697
 21
33.6517
 31
0.0
  0
LINE
  8
0
 62
     0
 10
97.8697
 20
33.6517
 30
0.0
 11
97.8697
 21
47.6511
 31
0.0
  0
LINE
  8
0
 62
     0
 10
164.545
 20
47.6511
 30
0.0
 11
178.544
 21
47.6511
 31
0.0
  0
LINE
  8
0
 62
     0
 10
178.544
 20
47.6511
 30
0.0
 11
178.544
 21
33.6517
 31
0.0
  0
LINE
  8
0
 62
     0
 10
178.544
 20
33.6517
 30
0.0
 11
164.545
 21
33.6517
 31
0.0
  0
LINE
  8
0
 62
     0
 10
164.545
 20
33.6517
 30
0.0
 11
164.545
 21
47.6511
 31
0.0
  0
LINE
  8
0
 62
     0
 10
40.7197
 20
50.3192
 30
0.0
 11
54.719
 21
50.3192
 31
0.0
  0
LINE
  8
0
 62
     0
 10
54.719
 20
50.3192
 30
0.0
 11
54.719
 21
36.3181
 31
0.0
  0
LINE
  8
0
 62
     0
 10
54.719
 20
36.3181
 30
0.0
 11
40.7197
 21
36.3181
 31
0.0
  0
LINE
  8
0
 62
     0
 10
40.7197
 20
36.3181
 30
0.0
 11
40.7197
 21
50.3192
 31
0.0
  0
LINE
  8
0
 62
     0
 10
78.8197
 20
50.3192
 30
0.0
 11
92.819
 21
50.3192
 31
0.0
  0
LINE
  8
0
 62
     0
 10
92.819
 20
50.3192
 30
0.0
 11
92.819
 21
36.3181
 31
0.0
  0
LINE
  8
0
 62
     0
 10
92.819
 20
36.3181
 30
0.0
 11
78.8197
 21
36.3181
 31
0.0
  0
LINE
  8
0
 62
     0
 10
78.8197
 20
36.3181
 30
0.0
 11
78.8197
 21
50.3192
 31
0.0
  0
LINE
  8
0
 62
     0
 10
183.595
 20
50.3192
 30
0.0
 11
197.594
 21
50.3192
 31
0.0
  0
LINE
  8
0
 62
     0
 10
197.594
 20
50.3192
 30
0.0
 11
197.594
 21
36.3181
 31
0.0
  0
LINE
  8
0
 62
     0
 10
197.594
 20
36.3181
 30
0.0
 11
183.595
 21
36.3181
 31
0.0
  0
LINE
  8
0
 62
     0
 10
183.595
 20
36.3181
 30
0.0
 11
183.595
 21
50.3192
 31
0.0
  0
LINE
  8
0
 62
     0
 10
221.695
 20
50.3192
 30
0.0
 11
235.694
 21
50.3192
 31
0.0
  0
LINE
  8
0
 62
     0
 10
235.694
 20
50.3192
 30
0.0
 11
235.694
 21
36.3181
 31
0.0
  0
LINE
  8
0
 62
     0
 10
235.694
 20
36.3181
 30
0.0
 11
221.695
 21
36.3181
 31
0.0
  0
LINE
  8
0
 62
     0
 10
221.695
 20
36.3181
 30
0.0
 11
221.695
 21
50.3192
 31
0.0
  0
LINE
  8
0
 62
     0
 10
59.7697
 20
52.4136
 30
0.0
 11
73.769
 21
52.4136
 31
0.0
  0
LINE
  8
0
 62
     0
 10
73.769
 20
52.4136
 30
0.0
 11
73.769
 21
38.4143
 31
0.0
  0
LINE
  8
0
 62
     0
 10
73.769
 20
38.4143
 30
0.0
 11
59.7697
 21
38.4143
 31
0.0
  0
LINE
  8
0
 62
     0
 10
59.7697
 20
38.4143
 30
0.0
 11
59.7697
 21
52.4136
 31
0.0
  0
LINE
  8
0
 62
     0
 10
202.645
 20
52.4136
 30
0.0
 11
216.644
 21
52.4136
 31
0.0
  0
LINE
  8
0
 62
     0
 10
216.644
 20
52.4136
 30
0.0
 11
216.644
 21
38.4143
 31
0.0
  0
LINE
  8
0
 62
     0
 10
216.644
 20
38.4143
 30
0.0
 11
202.645
 21
38.4143
 31
0.0
  0
LINE
  8
0
 62
     0
 10
202.645
 20
38.4143
 30
0.0
 11
202.645
 21
52.4136
 31
0.0
  0
LINE
  8
0
 62
     0
 10
2.61965
 20
64.6053
 30
0.0
 11
16.6192
 21
64.6053
 31
0.0
  0
LINE
  8
0
 62
     0
 10
16.6192
 20
64.6053
 30
0.0
 11
16.6192
 21
50.6056
 31
0.0
  0
LINE
  8
0
 62
     0
 10
16.6192
 20
50.6056
 30
0.0
 11
2.61965
 21
50.6056
 31
0.0
  0
LINE
  8
0
 62
     0
 10
2.61965
 20
50.6056
 30
0.0
 11
2.61965
 21
64.6053
 31
0.0
  0
LINE
  8
0
 62
     0
 10
21.6697
 20
64.6053
 30
0.0
 11
35.669
 21
64.6053
 31
0.0
  0
LINE
  8
0
 62
     0
 10
35.669
 20
64.6053
 30
0.0
 11
35.669
 21
50.6056
 31
0.0
  0
LINE
  8
0
 62
     0
 10
35.669
 20
50.6056
 30
0.0
 11
21.6697
 21
50.6056
 31
0.0
  0
LINE
  8
0
 62
     0
 10
21.6697
 20
50.6056
 30
0.0
 11
21.6697
 21
64.6053
 31
0.0
  0
LINE
  8
0
 62
     0
 10
240.745
 20
64.6053
 30
0.0
 11
254.744
 21
64.6053
 31
0.0
  0
LINE
  8
0
 62
     0
 10
254.744
 20
64.6053
 30
0.0
 11
254.744
 21
50.6056
 31
0.0
  0
LINE
  8
0
 62
     0
 10
254.744
 20
50.6056
 30
0.0
 11
240.745
 21
50.6056
 31
0.0
  0
LINE
  8
0
 62
     0
 10
240.745
 20
50.6056
 30
0.0
 11
240.745
 21
64.6053
 31
0.0
  0
LINE
  8
0
 62
     0
 10
259.795
 20
64.6053
 30
0.0
 11
273.794
 21
64.6053
 31
0.0
  0
LINE
  8
0
 62
     0
 10
273.794
 20
64.6053
 30
0.0
 11
273.794
 21
50.6056
 31
0.0
  0
LINE
  8
0
 62
     0
 10
273.794
 20
50.6056
 30
0.0
 11
259.795
 21
50.6056
 31
0.0
  0
LINE
  8
0
 62
     0
 10
259.795
 20
50.6056
 30
0.0
 11
259.795
 21
64.6053
 31
0.0
  0
LINE
  8
0
 62
     0
 10
97.8697
 20
66.7011
 30
0.0
 11
111.869
 21
66.7011
 31
0.0
  0
LINE
  8
0
 62
     0
 10
111.869
 20
66.7011
 30
0.0
 11
111.869
 21
52.7018
 31
0.0
  0
LINE
  8
0
 62
     0
 10
111.869
 20
52.7018
 30
0.0
 11
97.8697
 21
52.7018
 31
0.0
  0
LINE
  8
0
 62
     0
 10
97.8697
 20
52.7018
 30
0.0
 11
97.8697
 21
66.7011
 31
0.0
  0
LINE
  8
0
 62
     0
 10
164.545
 20
66.7011
 30
0.0
 11
178.544
 21
66.7011
 31
0.0
  0
LINE
  8
0
 62
     0
 10
178.544
 20
66.7011
 30
0.0
 11
178.544
 21
52.7018
 31
0.0
  0
LINE
  8
0
 62
     0
 10
178.544
 20
52.7018
 30
0.0
 11
164.545
 21
52.7018
 31
0.0
  0
LINE
  8
0
 62
     0
 10
164.545
 20
52.7018
 30
0.0
 11
164.545
 21
66.7011
 31
0.0
  0
LINE
  8
0
 62
     0
 10
40.7197
 20
69.3692
 30
0.0
 11
54.719
 21
69.3692
 31
0.0
  0
LINE
  8
0
 62
     0
 10
54.719
 20
69.3692
 30
0.0
 11
54.719
 21
55.3681
 31
0.0
  0
LINE
  8
0
 62
     0
 10
54.719
 20
55.3681
 30
0.0
 11
40.7197
 21
55.3681
 31
0.0
  0
LINE
  8
0
 62
     0
 10
40.7197
 20
55.3681
 30
0.0
 11
40.7197
 21
69.3692
 31
0.0
  0
LINE
  8
0
 62
     0
 10
78.8197
 20
69.3692
 30
0.0
 11
92.819
 21
69.3692
 31
0.0
  0
LINE
  8
0
 62
     0
 10
92.819
 20
69.3692
 30
0.0
 11
92.819
 21
55.3681
 31
0.0
  0
LINE
  8
0
 62
     0
 10
92.819
 20
55.3681
 30
0.0
 11
78.8197
 21
55.3681
 31
0.0
  0
LINE
  8
0
 62
     0
 10
78.8197
 20
55.3681
 30
0.0
 11
78.8197
 21
69.3692
 31
0.0
  0
LINE
  8
0
 62
     0
 10
183.595
 20
69.3692
 30
0.0
 11
197.594
 21
69.3692
 31
0.0
  0
LINE
  8
0
 62
     0
 10
197.594
 20
69.3692
 30
0.0
 11
197.594
 21
55.3681
 31
0.0
  0
LINE
  8
0
 62
     0
 10
197.594
 20
55.3681
 30
0.0
 11
183.595
 21
55.3681
 31
0.0
  0
LINE
  8
0
 62
     0
 10
183.595
 20
55.3681
 30
0.0
 11
183.595
 21
69.3692
 31
0.0
  0
LINE
  8
0
 62
     0
 10
221.695
 20
69.3692
 30
0.0
 11
235.694
 21
69.3692
 31
0.0
  0
LINE
  8
0
 62
     0
 10
235.694
 20
69.3692
 30
0.0
 11
235.694
 21
55.3681
 31
0.0
  0
LINE
  8
0
 62
     0
 10
235.694
 20
55.3681
 30
0.0
 11
221.695
 21
55.3681
 31
0.0
  0
LINE
  8
0
 62
     0
 10
221.695
 20
55.3681
 30
0.0
 11
221.695
 21
69.3692
 31
0.0
  0
LINE
  8
0
 62
     0
 10
59.7697
 20
71.4636
 30
0.0
 11
73.769
 21
71.4636
 31
0.0
  0
LINE
  8
0
 62
     0
 10
73.769
 20
71.4636
 30
0.0
 11
73.769
 21
57.4643
 31
0.0
  0
LINE
  8
0
 62
     0
 10
73.769
 20
57.4643
 30
0.0
 11
59.7697
 21
57.4643
 31
0.0
  0
LINE
  8
0
 62
     0
 10
59.7697
 20
57.4643
 30
0.0
 11
59.7697
 21
71.4636
 31
0.0
  0
LINE
  8
0
 62
     0
 10
202.645
 20
71.4636
 30
0.0
 11
216.644
 21
71.4636
 31
0.0
  0
LINE
  8
0
 62
     0
 10
216.644
 20
71.4636
 30
0.0
 11
216.644
 21
57.4643
 31
0.0
  0
LINE
  8
0
 62
     0
 10
216.644
 20
57.4643
 30
0.0
 11
202.645
 21
57.4643
 31
0.0
  0
LINE
  8
0
 62
     0
 10
202.645
 20
57.4643
 30
0.0
 11
202.645
 21
71.4636
 31
0.0
  0
LINE
  8
0
 62
     0
 10
2.61965
 20
83.6553
 30
0.0
 11
16.6192
 21
83.6553
 31
0.0
  0
LINE
  8
0
 62
     0
 10
16.6192
 20
83.6553
 30
0.0
 11
16.6192
 21
69.6556
 31
0.0
  0
LINE
  8
0
 62
     0
 10
16.6192
 20
69.6556
 30
0.0
 11
2.61965
 21
69.6556
 31
0.0
  0
LINE
  8
0
 62
     0
 10
2.61965
 20
69.6556
 30
0.0
 11
2.61965
 21
83.6553
 31
0.0
  0
LINE
  8
0
 62
     0
 10
21.6697
 20
83.6553
 30
0.0
 11
35.669
 21
83.6553
 31
0.0
  0
LINE
  8
0
 62
     0
 10
35.669
 20
83.6553
 30
0.0
 11
35.669
 21
69.6556
 31
0.0
  0
LINE
  8
0
 62
     0
 10
35.669
 20
69.6556
 30
0.0
 11
21.6697
 21
69.6556
 31
0.0
  0
LINE
  8
0
 62
     0
 10
21.6697
 20
69.6556
 30
0.0
 11
21.6697
 21
83.6553
 31
0.0
  0
LINE
  8
0
 62
     0
 10
240.745
 20
83.6553
 30
0.0
 11
254.744
 21
83.6553
 31
0.0
  0
LINE
  8
0
 62
     0
 10
254.744
 20
83.6553
 30
0.0
 11
254.744
 21
69.6556
 31
0.0
  0
LINE
  8
0
 62
     0
 10
254.744
 20
69.6556
 30
0.0
 11
240.745
 21
69.6556
 31
0.0
  0
LINE
  8
0
 62
     0
 10
240.745
 20
69.6556
 30
0.0
 11
240.745
 21
83.6553
 31
0.0
  0
LINE
  8
0
 62
     0
 10
259.795
 20
83.6553
 30
0.0
 11
273.794
 21
83.6553
 31
0.0
  0
LINE
  8
0
 62
     0
 10
273.794
 20
83.6553
 30
0.0
 11
273.794
 21
69.6556
 31
0.0
  0
LINE
  8
0
 62
     0
 10
273.794
 20
69.6556
 30
0.0
 11
259.795
 21
69.6556
 31
0.0
  0
LINE
  8
0
 62
     0
 10
259.795
 20
69.6556
 30
0.0
 11
259.795
 21
83.6553
 31
0.0
  0
LINE
  8
0
 62
     0
 10
97.8697
 20
85.7511
 30
0.0
 11
111.869
 21
85.7511
 31
0.0
  0
LINE
  8
0
 62
     0
 10
111.869
 20
85.7511
 30
0.0
 11
111.869
 21
71.7518
 31
0.0
  0
LINE
  8
0
 62
     0
 10
111.869
 20
71.7518
 30
0.0
 11
97.8697
 21
71.7518
 31
0.0
  0
LINE
  8
0
 62
     0
 10
97.8697
 20
71.7518
 30
0.0
 11
97.8697
 21
85.7511
 31
0.0
  0
LINE
  8
0
 62
     0
 10
164.545
 20
85.7511
 30
0.0
 11
178.544
 21
85.7511
 31
0.0
  0
LINE
  8
0
 62
     0
 10
178.544
 20
85.7511
 30
0.0
 11
178.544
 21
71.7518
 31
0.0
  0
LINE
  8
0
 62
     0
 10
178.544
 20
71.7518
 30
0.0
 11
164.545
 21
71.7518
 31
0.0
  0
LINE
  8
0
 62
     0
 10
164.545
 20
71.7518
 30
0.0
 11
164.545
 21
85.7511
 31
0.0
  0
LINE
  8
0
 62
     0
 10
40.7197
 20
88.4192
 30
0.0
 11
54.719
 21
88.4192
 31
0.0
  0
LINE
  8
0
 62
     0
 10
54.719
 20
88.4192
 30
0.0
 11
54.719
 21
74.4181
 31
0.0
  0
LINE
  8
0
 62
     0
 10
54.719
 20
74.4181
 30
0.0
 11
40.7197
 21
74.4181
 31
0.0
  0
LINE
  8
0
 62
     0
 10
40.7197
 20
74.4181
 30
0.0
 11
40.7197
 21
88.4192
 31
0.0
  0
LINE
  8
0
 62
     0
 10
78.8197
 20
88.4192
 30
0.0
 11
92.819
 21
88.4192
 31
0.0
  0
LINE
  8
0
 62
     0
 10
92.819
 20
88.4192
 30
0.0
 11
92.819
 21
74.4181
 31
0.0
  0
LINE
  8
0
 62
     0
 10
92.819
 20
74.4181
 30
0.0
 11
78.8197
 21
74.4181
 31
0.0
  0
LINE
  8
0
 62
     0
 10
78.8197
 20
74.4181
 30
0.0
 11
78.8197
 21
88.4192
 31
0.0
  0
LINE
  8
0
 62
     0
 10
183.595
 20
88.4192
 30
0.0
 11
197.594
 21
88.4192
 31
0.0
  0
LINE
  8
0
 62
     0
 10
197.594
 20
88.4192
 30
0.0
 11
197.594
 21
74.4181
 31
0.0
  0
LINE
  8
0
 62
     0
 10
197.594
 20
74.4181
 30
0.0
 11
183.595
 21
74.4181
 31
0.0
  0
LINE
  8
0
 62
     0
 10
183.595
 20
74.4181
 30
0.0
 11
183.595
 21
88.4192
 31
0.0
  0
LINE
  8
0
 62
     0
 10
221.695
 20
88.4192
 30
0.0
 11
235.694
 21
88.4192
 31
0.0
  0
LINE
  8
0
 62
     0
 10
235.694
 20
88.4192
 30
0.0
 11
235.694
 21
74.4181
 31
0.0
  0
LINE
  8
0
 62
     0
 10
235.694
 20
74.4181
 30
0.0
 11
221.695
 21
74.4181
 31
0.0
  0
LINE
  8
0
 62
     0
 10
221.695
 20
74.4181
 30
0.0
 11
221.695
 21
88.4192
 31
0.0
  0
LINE
  8
0
 62
     0
 10
59.7697
 20
90.5136
 30
0.0
 11
73.769
 21
90.5136
 31
0.0
  0
LINE
  8
0
 62
     0
 10
73.769
 20
90.5136
 30
0.0
 11
73.769
 21
76.5143
 31
0.0
  0
LINE
  8
0
 62
     0
 10
73.769
 20
76.5143
 30
0.0
 11
59.7697
 21
76.5143
 31
0.0
  0
LINE
  8
0
 62
     0
 10
59.7697
 20
76.5143
 30
0.0
 11
59.7697
 21
90.5136
 31
0.0
  0
LINE
  8
0
 62
     0
 10
202.645
 20
90.5136
 30
0.0
 11
216.644
 21
90.5136
 31
0.0
  0
LINE
  8
0
 62
     0
 10
216.644
 20
90.5136
 30
0.0
 11
216.644
 21
76.5143
 31
0.0
  0
LINE
  8
0
 62
     0
 10
216.644
 20
76.5143
 30
0.0
 11
202.645
 21
76.5143
 31
0.0
  0
LINE
  8
0
 62
     0
 10
202.645
 20
76.5143
 30
0.0
 11
202.645
 21
90.5136
 31
0.0
  0
ENDSEC
  0
EOF
