M48
; DRILL file {KiCad 7.0.1-0} date 2023 October 15, Sunday 20:39:48
; FORMAT={-:-/ absolute / metric / decimal}
; #@! TF.CreationDate,2023-10-15T20:39:48+08:00
; #@! TF.GenerationSoftware,Kicad,Pcbnew,7.0.1-0
; #@! TF.FileFunction,Plated,1,2,PTH
FMAT,2
METRIC
; #@! TA.AperFunction,Plated,PTH,ViaDrill
T1C0.300
; #@! TA.AperFunction,Plated,PTH,ComponentDrill
T2C0.300
; #@! TA.AperFunction,Plated,PTH,ViaDrill
T3C0.305
; #@! TA.AperFunction,Plated,PTH,ViaDrill
T4C0.400
; #@! TA.AperFunction,Plated,PTH,ComponentDrill
T5C0.600
; #@! TA.AperFunction,Plated,PTH,ComponentDrill
T6C0.850
%
G90
G05
T1
X15.062Y-44.933
X20.16Y-48.14
X21.615Y-48.11
X24.232Y-48.77
X24.867Y-48.11
X34.862Y-92.642
X39.382Y-94.852
X39.882Y-95.282
X40.382Y-94.852
X40.882Y-95.282
X45.382Y-92.642
X95.34Y-84.17
X96.501Y-83.969
X98.425Y-34.112
X99.644Y-36.551
X103.05Y-42.36
X103.57Y-43.05
X103.886Y-30.302
X104.775Y-86.501
X104.8Y-87.452
X105.308Y-87.02
X105.363Y-86.03
X105.435Y-64.364
X106.147Y-84.531
X106.248Y-85.166
X106.96Y-82.99
X108.356Y-100.152
X109.474Y-98.755
X109.898Y-100.45
X110.237Y-98.833
X110.287Y-84.506
X110.287Y-85.166
X110.287Y-86.03
X110.439Y-87.02
X110.642Y-92.227
X110.816Y-87.452
X110.827Y-86.501
X111.379Y-97.815
X111.557Y-92.812
X111.963Y-97.282
X112.255Y-103.01
X112.446Y-100.355
X112.721Y-93.904
X112.979Y-96.22
X113.182Y-93.523
X113.195Y-103.95
X113.309Y-95.377
X113.513Y-100.53
X113.64Y-92.862
X113.72Y-99.38
X114.097Y-86.284
X114.097Y-93.269
X114.249Y-95.936
X114.466Y-97.606
X114.63Y-92.964
X114.784Y-97.056
X115.016Y-97.923
X115.101Y-96.506
X115.334Y-97.374
X115.419Y-95.956
X115.566Y-98.241
X115.651Y-96.824
X115.736Y-95.406
X115.884Y-97.691
X115.969Y-96.274
X116.027Y-92.151
X116.054Y-94.856
X116.116Y-98.558
X116.201Y-97.141
X116.286Y-95.724
X116.371Y-94.306
X116.434Y-98.009
X116.519Y-96.591
X116.604Y-95.174
X116.611Y-85.623
X116.666Y-98.876
X116.751Y-97.459
X116.836Y-96.041
X116.921Y-94.624
X116.984Y-98.326
X117.069Y-96.909
X117.11Y-92.12
X117.154Y-95.491
X117.17Y-85.42
X117.216Y-99.193
X117.246Y-84.48
X117.246Y-86.258
X117.301Y-97.776
X117.386Y-96.359
X117.471Y-94.941
X117.5Y-91.262
X117.533Y-98.644
X117.551Y-92.532
X117.619Y-97.226
X117.704Y-95.809
X117.766Y-99.511
X117.851Y-98.094
X117.936Y-96.676
X118.021Y-95.259
X118.083Y-98.961
X118.135Y-89.383
X118.168Y-97.544
X118.254Y-96.126
X118.313Y-101.752
X118.401Y-98.411
X118.486Y-96.994
X118.498Y-103.665
X118.571Y-95.576
X118.718Y-97.861
X118.803Y-96.444
X119.036Y-97.311
X119.121Y-95.894
X119.202Y-89.84
X119.353Y-96.761
X119.671Y-96.211
X119.913Y-99.771
X120.129Y-100.546
X120.63Y-94.45
X120.955Y-97.993
X121.31Y-89.459
X123.469Y-89.281
X124.536Y-98.323
X124.562Y-100.736
X124.79Y-88.316
X124.943Y-89.179
X125.679Y-89.535
X126.416Y-89.916
X127.076Y-90.602
X127.737Y-90.78
X131.699Y-92.989
X132.232Y-93.421
X155.905Y-98.019
X156.642Y-97.638
X157.378Y-97.231
X157.937Y-96.85
X158.013Y-101.473
X159.029Y-94.945
X160.477Y-101.524
X160.731Y-102.768
X161.798Y-104.064
X162.103Y-102.337
X162.179Y-103.149
X162.56Y-93.726
X162.738Y-98.933
X162.763Y-95.682
X162.865Y-103.429
X163.093Y-104.648
X163.195Y-93.726
X163.474Y-93.243
X164.033Y-99.568
X164.084Y-95.606
X164.303Y-93.893
X164.617Y-100.99
X164.719Y-100.152
X166.98Y-93.32
X167.411Y-92.862
X167.665Y-92.431
X169.901Y-91.542
X169.901Y-98.603
X170.104Y-97.688
X170.459Y-91.338
X170.72Y-88.95
X170.76Y-100.69
X171.094Y-89.687
X171.577Y-90.399
X171.856Y-92.38
X171.86Y-99.94
X172.13Y-96.647
X172.237Y-91.846
X172.93Y-98.91
X173.152Y-88.087
X173.311Y-94.088
X173.457Y-88.519
X173.685Y-94.615
X173.864Y-96.965
X173.875Y-101.155
X173.939Y-87.884
X174.117Y-101.676
X174.182Y-97.514
X174.21Y-99.35
X174.371Y-94.107
X174.414Y-96.647
X174.422Y-93.574
X174.473Y-86.157
X174.499Y-98.064
X174.574Y-87.427
X174.701Y-102.337
X174.732Y-97.197
X174.777Y-86.817
X174.79Y-84.98
X174.817Y-98.614
X174.964Y-96.329
X175.049Y-97.747
X175.082Y-88.925
X175.134Y-99.164
X175.217Y-85.877
X175.282Y-96.879
X175.367Y-98.297
X175.452Y-99.714
X175.514Y-96.012
X175.599Y-97.429
X175.666Y-88.265
X175.684Y-98.847
X175.769Y-100.264
X175.832Y-96.562
X175.917Y-97.979
X176.002Y-99.397
X176.064Y-95.694
X176.073Y-103.505
X176.149Y-87.579
X176.149Y-97.112
X176.225Y-93.396
X176.234Y-98.529
X176.276Y-42.672
X176.3Y-85.71
X176.319Y-99.947
X176.32Y-84.57
X176.381Y-96.244
X176.466Y-97.662
X176.552Y-99.079
X176.614Y-95.377
X176.657Y-85.242
X176.657Y-86.055
X176.657Y-86.944
X176.699Y-96.794
X176.784Y-98.212
X176.869Y-99.629
X176.931Y-95.927
X177.016Y-97.344
X177.101Y-98.762
X177.117Y-102.314
X177.164Y-95.059
X177.249Y-96.477
X177.267Y-101.756
X177.334Y-97.894
X177.419Y-99.312
X177.46Y-83.51
X177.481Y-95.609
X177.521Y-84.43
X177.566Y-97.027
X177.571Y-85.192
X177.571Y-86.004
X177.571Y-86.893
X177.651Y-98.444
X177.799Y-96.159
X177.825Y-101.244
X177.884Y-97.577
X177.969Y-98.994
X178.0Y-83.18
X178.054Y-84.582
X178.079Y-83.896
X178.116Y-96.709
X178.13Y-86.436
X178.156Y-85.471
X178.201Y-98.127
X178.27Y-92.23
X178.295Y-93.713
X178.333Y-100.914
X178.434Y-97.259
X178.519Y-98.677
X178.624Y-100.457
X178.64Y-84.04
X178.665Y-83.309
X178.751Y-97.809
X179.069Y-98.359
X179.146Y-85.09
X179.197Y-83.49
X179.197Y-84.277
X179.273Y-95.148
X179.578Y-94.539
X179.61Y-103.48
X179.63Y-83.15
X179.781Y-84.379
X179.832Y-83.591
X179.857Y-95.987
X180.264Y-88.748
X180.32Y-97.297
X180.391Y-83.871
X180.67Y-103.47
X180.69Y-98.43
X180.721Y-88.316
X180.864Y-89.597
X181.204Y-87.808
X181.889Y-91.059
X181.991Y-90.221
X182.96Y-88.08
X182.98Y-88.79
X183.871Y-103.022
X187.985Y-61.697
X188.96Y-84.75
X189.382Y-38.837
X189.916Y-76.479
X190.144Y-44.983
X190.195Y-45.72
X190.373Y-56.896
X190.525Y-91.237
X190.779Y-92.075
X191.364Y-26.416
X192.862Y-90.526
X193.294Y-90.932
X193.396Y-91.542
X194.43Y-95.954
X198.1Y-83.68
X252.185Y-92.641
X256.705Y-94.851
X257.205Y-95.281
X257.705Y-94.851
X258.205Y-95.281
X262.705Y-92.641
T2
X122.006Y-85.865
X173.269Y-85.865
T3
X113.208Y-86.309
X113.3Y-85.61
X113.919Y-85.192
X113.97Y-87.3
X114.795Y-83.84
X114.935Y-86.106
X114.977Y-87.08
X114.986Y-88.24
X115.057Y-83.099
X115.49Y-82.38
X115.661Y-84.34
X115.923Y-83.599
X116.145Y-88.375
X116.154Y-89.357
X116.288Y-87.303
X116.344Y-82.64
X116.527Y-84.84
X116.789Y-84.099
X117.018Y-88.417
X117.136Y-89.264
X117.145Y-90.424
X117.21Y-83.14
X119.125Y-86.34
X119.233Y-82.919
X119.26Y-84.44
X119.268Y-85.268
X120.819Y-83.879
X120.857Y-87.34
X120.866Y-88.5
X120.99Y-85.36
X121.0Y-86.268
X121.581Y-83.117
X121.59Y-84.277
X121.723Y-87.84
X121.732Y-88.849
X121.866Y-86.768
X122.59Y-82.545
X122.59Y-87.16
X122.97Y-86.52
X123.464Y-90.0
X124.321Y-89.34
X124.514Y-87.42
X125.187Y-89.84
X125.33Y-88.768
X125.38Y-87.92
X126.053Y-90.34
X126.088Y-88.36
X126.196Y-89.268
X126.483Y-96.655
X126.626Y-95.583
X126.954Y-88.86
X127.062Y-89.768
X127.82Y-89.36
X128.072Y-90.268
X128.727Y-91.643
X128.838Y-89.95
X128.938Y-90.768
X129.328Y-94.42
X129.471Y-93.348
X129.593Y-92.143
X129.704Y-90.45
X129.804Y-91.268
X130.459Y-92.643
X130.521Y-95.208
X130.57Y-90.95
X130.665Y-94.136
X130.67Y-91.768
X131.478Y-91.52
X131.536Y-92.268
X131.648Y-94.539
X131.902Y-95.783
X132.156Y-97.714
X132.344Y-92.02
X132.402Y-92.768
X132.86Y-96.823
X133.147Y-101.803
X133.172Y-98.374
X133.21Y-92.52
X133.726Y-97.323
X134.488Y-98.695
X134.595Y-96.622
X134.595Y-97.79
X135.246Y-101.304
X135.354Y-99.195
X135.389Y-100.232
X135.433Y-97.384
X135.992Y-103.835
X136.169Y-98.425
X136.22Y-99.695
X137.008Y-101.651
X137.887Y-100.77
X138.031Y-99.698
X138.321Y-97.34
X138.33Y-98.5
X138.98Y-96.02
X139.187Y-97.84
X139.33Y-96.768
X140.18Y-96.69
X155.554Y-96.44
X155.646Y-97.291
X156.21Y-98.654
X156.42Y-95.94
X156.512Y-96.791
X156.71Y-99.52
X157.21Y-100.386
X157.286Y-95.44
X157.378Y-96.291
X158.244Y-95.791
X158.324Y-94.8
X159.19Y-94.3
X160.056Y-93.8
X160.784Y-93.33
X161.643Y-93.566
X161.65Y-92.83
X162.509Y-93.066
X162.516Y-92.33
X163.375Y-92.566
X163.44Y-91.78
X169.5Y-88.2
X169.97Y-89.03
X170.32Y-88.26
X170.383Y-89.687
X170.7Y-87.47
X170.883Y-90.553
X171.04Y-88.31
X171.467Y-88.979
X171.967Y-89.845
X172.35Y-86.49
X172.796Y-80.848
X173.296Y-81.714
X173.796Y-82.58
X174.346Y-83.591
X174.388Y-85.35
T4
X11.938Y-35.611
X11.938Y-54.61
X11.938Y-73.609
X12.954Y-46.761
X13.965Y-49.535
X14.757Y-79.146
X14.783Y-60.122
X15.011Y-65.329
X23.927Y-45.949
X31.013Y-35.585
X31.013Y-54.585
X31.013Y-73.584
X36.642Y-93.294
X43.642Y-93.294
X50.063Y-30.886
X50.063Y-49.886
X50.063Y-68.885
X69.113Y-28.753
X69.113Y-47.752
X69.113Y-66.751
X78.232Y-88.697
X81.382Y-93.091
X82.398Y-58.404
X85.573Y-62.509
X85.573Y-63.627
X86.69Y-62.509
X86.69Y-63.627
X88.138Y-30.836
X88.138Y-49.835
X88.138Y-68.834
X88.861Y-58.725
X88.861Y-65.532
X92.209Y-82.781
X93.771Y-63.652
X98.888Y-88.538
X103.784Y-60.427
X104.165Y-63.627
X104.343Y-43.942
X107.213Y-33.477
X107.213Y-52.476
X107.213Y-71.476
X108.179Y-97.765
X108.67Y-102.06
X119.659Y-43.536
X119.659Y-62.535
X119.659Y-81.534
X124.511Y-91.821
X125.525Y-99.033
X130.962Y-107.493
X130.962Y-107.493
X158.471Y-98.984
X171.959Y-102.539
X173.863Y-33.477
X173.863Y-52.476
X173.863Y-71.476
X174.854Y-44.475
X176.479Y-62.929
X176.708Y-38.964
X176.708Y-58.014
X176.708Y-77.064
X176.83Y-82.49
X181.077Y-93.929
X186.385Y-103.073
X192.913Y-30.988
X192.913Y-49.987
X192.913Y-68.986
X193.7Y-84.582
X193.954Y-96.622
X194.259Y-56.847
X194.26Y-63.04
X195.09Y-58.68
X196.28Y-60.84
X198.5Y-63.12
X202.895Y-88.748
X211.988Y-28.854
X211.988Y-47.854
X211.988Y-66.853
X215.621Y-99.416
X226.644Y-58.383
X228.458Y-62.508
X228.458Y-63.626
X229.576Y-62.508
X229.576Y-63.626
X230.962Y-31.039
X230.962Y-50.038
X230.962Y-69.037
X231.746Y-58.724
X231.746Y-65.531
X236.656Y-63.651
X250.063Y-35.814
X250.063Y-54.813
X250.063Y-73.812
X253.965Y-93.293
X260.965Y-93.293
X269.113Y-35.56
X269.113Y-54.559
X269.113Y-73.558
X269.863Y-46.31
X271.856Y-46.322
X272.542Y-50.317
X273.91Y-47.971
X274.059Y-50.361
X275.31Y-47.971
X279.095Y-45.974
X281.534Y-45.491
X281.534Y-64.491
X281.534Y-83.49
X282.74Y-48.27
T6
X79.985Y-61.036
X80.518Y-79.502
X80.518Y-82.042
X82.525Y-61.036
X98.196Y-61.036
X100.736Y-61.036
X118.901Y-106.69
X121.101Y-107.96
X123.3Y-109.23
X125.5Y-110.5
X127.7Y-111.77
X129.899Y-113.04
X165.376Y-113.04
X167.576Y-111.77
X169.775Y-110.5
X171.975Y-109.23
X174.175Y-107.96
X176.375Y-106.69
X214.757Y-79.502
X214.757Y-82.042
X222.848Y-61.037
X225.388Y-61.037
X241.06Y-61.037
X243.6Y-61.037
T5
G00X35.807Y-91.667
M15
G01X35.807Y-91.067
M16
G05
G00X35.807Y-96.017
M15
G01X35.807Y-95.117
M16
G05
G00X44.457Y-91.667
M15
G01X44.457Y-91.067
M16
G05
G00X44.457Y-96.017
M15
G01X44.457Y-95.117
M16
G05
G00X253.13Y-91.666
M15
G01X253.13Y-91.066
M16
G05
G00X253.13Y-96.016
M15
G01X253.13Y-95.116
M16
G05
G00X261.78Y-91.666
M15
G01X261.78Y-91.066
M16
G05
G00X261.78Y-96.016
M15
G01X261.78Y-95.116
M16
G05
T0
M30
