%TF.GenerationSoftware,KiCad,Pcbnew,7.0.1-0*%
%TF.CreationDate,2023-10-15T20:39:52+08:00*%
%TF.ProjectId,qhws42_v2,71687773-3432-45f7-9632-2e6b69636164,rev?*%
%TF.SameCoordinates,Original*%
%TF.FileFunction,Profile,NP*%
%FSLAX46Y46*%
G04 Gerber Fmt 4.6, Leading zero omitted, Abs format (unit mm)*
G04 Created by KiCad (PCBNEW 7.0.1-0) date 2023-10-15 20:39:52*
%MOMM*%
%LPD*%
G01*
G04 APERTURE LIST*
%TA.AperFunction,Profile*%
%ADD10C,0.200000*%
%TD*%
%TA.AperFunction,Profile*%
%ADD11C,0.199898*%
%TD*%
%TA.AperFunction,Profile*%
%ADD12C,0.100000*%
%TD*%
G04 APERTURE END LIST*
D10*
X47625150Y-23811450D02*
X47625150Y-31100350D01*
X250093317Y-90081017D02*
G75*
G03*
X249093317Y-91081046I83J-1000083D01*
G01*
X247650000Y-85724950D02*
X253720600Y-85725000D01*
X123825000Y-29387800D02*
X128181100Y-29387800D01*
D11*
X47625150Y-85724950D02*
X43865800Y-85725000D01*
D10*
X9525875Y-31100350D02*
X9525450Y-85724950D01*
X31771288Y-96016212D02*
G75*
G03*
X32771237Y-97016212I999912J-88D01*
G01*
X47625150Y-85724950D02*
X47625150Y-80962550D01*
X171450000Y-29387800D02*
X171450350Y-26479550D01*
X85725150Y-21717050D02*
X66675150Y-21717050D01*
D12*
X264983010Y-91853446D02*
G75*
G03*
X264983010Y-91853446I-1010000J0D01*
G01*
D10*
X48493823Y-91082226D02*
X48494623Y-96016212D01*
X75818800Y-100773150D02*
X93472983Y-100773150D01*
X264816703Y-90081046D02*
X261188200Y-90081100D01*
X130439548Y-114652265D02*
X143466001Y-92091315D01*
X104775150Y-26479550D02*
X104775150Y-23811450D01*
X219456350Y-80962550D02*
X219456350Y-100773150D01*
X123824800Y-80752588D02*
X123825000Y-77139800D01*
X164835602Y-114652265D02*
X151809149Y-92091315D01*
X66675150Y-21717050D02*
X66675150Y-23811450D01*
X219456350Y-100773150D02*
X201802167Y-100773150D01*
X250094117Y-97015032D02*
X264817503Y-97015032D01*
X171450000Y-77139800D02*
X171450350Y-80752588D01*
X201802167Y-100773150D02*
X177674300Y-107239135D01*
X171450350Y-26479550D02*
X190500000Y-26479550D01*
X47494623Y-97016223D02*
G75*
G03*
X48494623Y-96016212I-23J1000023D01*
G01*
X247650000Y-80962550D02*
X219456350Y-80962550D01*
X253720600Y-90081100D02*
X250093317Y-90081046D01*
X123824800Y-26479550D02*
X104775150Y-26479550D01*
X128181100Y-26263600D02*
X167093900Y-26263600D01*
X43865800Y-85725000D02*
X43865800Y-90081100D01*
X247650000Y-23811450D02*
X247650000Y-31100350D01*
X48493874Y-91082226D02*
G75*
G03*
X47493823Y-90082226I-1000074J-74D01*
G01*
X167093900Y-77139800D02*
X167093900Y-80086200D01*
X249094117Y-96015032D02*
X249093317Y-91081046D01*
X32770437Y-90082226D02*
X36398200Y-90081100D01*
X167093900Y-69672200D02*
X171450000Y-69672200D01*
X93472983Y-100773150D02*
X117600850Y-107239135D01*
X167093900Y-29387800D02*
X171450000Y-29387800D01*
X32770437Y-90082237D02*
G75*
G03*
X31770437Y-91082226I-37J-999963D01*
G01*
X123825000Y-69672200D02*
X123825000Y-36855400D01*
X190500000Y-23811450D02*
X209550000Y-23811450D01*
X171450000Y-36855400D02*
X171450000Y-69672200D01*
X117600850Y-107239135D02*
X130439548Y-114652265D01*
X47493823Y-90082226D02*
X43865800Y-90081100D01*
X228600000Y-21717050D02*
X228600000Y-23811450D01*
D12*
X264983010Y-95069846D02*
G75*
G03*
X264983010Y-95069846I-1010000J0D01*
G01*
D10*
X167093900Y-26263600D02*
X167093900Y-29387800D01*
X190500000Y-26479550D02*
X190500000Y-23811450D01*
D12*
X251945010Y-91853446D02*
G75*
G03*
X251945010Y-91853446I-1010000J0D01*
G01*
D10*
X123825000Y-69672200D02*
X128181100Y-69672200D01*
X209550000Y-21717050D02*
X228600000Y-21717050D01*
X128181100Y-36855400D02*
X123825000Y-36855400D01*
X47625150Y-31100350D02*
X9525875Y-31100350D01*
X128181100Y-29387800D02*
X128181100Y-26263600D01*
X167093900Y-80086200D02*
X128181100Y-80086200D01*
D12*
X47660130Y-91854626D02*
G75*
G03*
X47660130Y-91854626I-1010000J0D01*
G01*
D10*
X167093900Y-36855400D02*
X167093900Y-69672200D01*
X123825000Y-29387800D02*
X123824800Y-26479550D01*
X128181100Y-77139800D02*
X123825000Y-77139800D01*
X285749700Y-85724950D02*
X261188200Y-85725000D01*
D12*
X34622130Y-95071026D02*
G75*
G03*
X34622130Y-95071026I-1010000J0D01*
G01*
D10*
X265816754Y-91081046D02*
G75*
G03*
X264816703Y-90081046I-1000054J-54D01*
G01*
X32771237Y-97016212D02*
X47494623Y-97016212D01*
X171450000Y-36855400D02*
X167093900Y-36855400D01*
D12*
X47660130Y-95071026D02*
G75*
G03*
X47660130Y-95071026I-1010000J0D01*
G01*
D10*
X253720600Y-85725000D02*
X253720600Y-90081100D01*
X85725150Y-23811450D02*
X85725150Y-21717050D01*
X128181100Y-80086200D02*
X128181100Y-77139800D01*
X261188200Y-85725000D02*
X261188200Y-90081100D01*
X66675150Y-23811450D02*
X47625150Y-23811450D01*
X177674300Y-107239135D02*
X164835602Y-114652265D01*
X128181100Y-69672200D02*
X128181100Y-36855400D01*
X104775150Y-23811450D02*
X85725150Y-23811450D01*
X265816703Y-91081046D02*
X265817503Y-96015032D01*
X247650000Y-31100350D02*
X285749275Y-31100350D01*
D12*
X251945010Y-95069846D02*
G75*
G03*
X251945010Y-95069846I-1010000J0D01*
G01*
D10*
X249094068Y-96015032D02*
G75*
G03*
X250094117Y-97015032I1000032J32D01*
G01*
X264817503Y-97015003D02*
G75*
G03*
X265817503Y-96015032I97J999903D01*
G01*
X171450000Y-77139800D02*
X167093900Y-77139800D01*
X151809149Y-92091315D02*
X171450350Y-80752588D01*
X9525450Y-85724950D02*
X36398200Y-85725000D01*
X75818800Y-80962550D02*
X75818800Y-100773150D01*
X228600000Y-23811450D02*
X247650000Y-23811450D01*
X47625150Y-80962550D02*
X75818800Y-80962550D01*
X209550000Y-23811450D02*
X209550000Y-21717050D01*
X36398200Y-85725000D02*
X36398200Y-90081100D01*
X285749275Y-31100350D02*
X285749700Y-85724950D01*
X247650000Y-85724950D02*
X247650000Y-80962550D01*
X143466001Y-92091315D02*
X123824800Y-80752588D01*
X31771237Y-96016212D02*
X31770437Y-91082226D01*
D12*
X34622130Y-91854626D02*
G75*
G03*
X34622130Y-91854626I-1010000J0D01*
G01*
%TO.C,LED34*%
X179197000Y-80962000D02*
X182753000Y-80962000D01*
X182753000Y-80962000D02*
X182753000Y-77406000D01*
X182753000Y-77406000D02*
X179197000Y-77406000D01*
X179197000Y-77406000D02*
X179197000Y-80962000D01*
%TO.C,LED11*%
X93472000Y-59244000D02*
X97028000Y-59244000D01*
X97028000Y-59244000D02*
X97028000Y-55688000D01*
X97028000Y-55688000D02*
X93472000Y-55688000D01*
X93472000Y-55688000D02*
X93472000Y-59244000D01*
%TO.C,LED26*%
X255397000Y-44958000D02*
X258953000Y-44958000D01*
X258953000Y-44958000D02*
X258953000Y-41402000D01*
X258953000Y-41402000D02*
X255397000Y-41402000D01*
X255397000Y-41402000D02*
X255397000Y-44958000D01*
%TO.C,LED22*%
X179197000Y-42862000D02*
X182753000Y-42862000D01*
X182753000Y-42862000D02*
X182753000Y-39306000D01*
X182753000Y-39306000D02*
X179197000Y-39306000D01*
X179197000Y-39306000D02*
X179197000Y-42862000D01*
%TO.C,LED39*%
X274447000Y-83058000D02*
X278003000Y-83058000D01*
X278003000Y-83058000D02*
X278003000Y-79502000D01*
X278003000Y-79502000D02*
X274447000Y-79502000D01*
X274447000Y-79502000D02*
X274447000Y-83058000D01*
%TO.C,LED33*%
X274447000Y-64008000D02*
X278003000Y-64008000D01*
X278003000Y-64008000D02*
X278003000Y-60452000D01*
X278003000Y-60452000D02*
X274447000Y-60452000D01*
X274447000Y-60452000D02*
X274447000Y-64008000D01*
%TO.C,LED28*%
X179197000Y-61912000D02*
X182753000Y-61912000D01*
X182753000Y-61912000D02*
X182753000Y-58356000D01*
X182753000Y-58356000D02*
X179197000Y-58356000D01*
X179197000Y-58356000D02*
X179197000Y-61912000D01*
%TO.C,LED7*%
X17272000Y-64008000D02*
X20828000Y-64008000D01*
X20828000Y-64008000D02*
X20828000Y-60452000D01*
X20828000Y-60452000D02*
X17272000Y-60452000D01*
X17272000Y-60452000D02*
X17272000Y-64008000D01*
%TO.C,LED35*%
X198247000Y-78294000D02*
X201803000Y-78294000D01*
X201803000Y-78294000D02*
X201803000Y-74738000D01*
X201803000Y-74738000D02*
X198247000Y-74738000D01*
X198247000Y-74738000D02*
X198247000Y-78294000D01*
%TO.C,LED13*%
X17272000Y-83058000D02*
X20828000Y-83058000D01*
X20828000Y-83058000D02*
X20828000Y-79502000D01*
X20828000Y-79502000D02*
X17272000Y-79502000D01*
X17272000Y-79502000D02*
X17272000Y-83058000D01*
%TO.C,LED27*%
X274447000Y-44958000D02*
X278003000Y-44958000D01*
X278003000Y-44958000D02*
X278003000Y-41402000D01*
X278003000Y-41402000D02*
X274447000Y-41402000D01*
X274447000Y-41402000D02*
X274447000Y-44958000D01*
%TO.C,LED25*%
X236347000Y-40194000D02*
X239903000Y-40194000D01*
X239903000Y-40194000D02*
X239903000Y-36638000D01*
X239903000Y-36638000D02*
X236347000Y-36638000D01*
X236347000Y-36638000D02*
X236347000Y-40194000D01*
%TO.C,LED6*%
X112522000Y-42862000D02*
X116078000Y-42862000D01*
X116078000Y-42862000D02*
X116078000Y-39306000D01*
X116078000Y-39306000D02*
X112522000Y-39306000D01*
X112522000Y-39306000D02*
X112522000Y-42862000D01*
%TO.C,LED42*%
X208153000Y-98106000D02*
X211709000Y-98106000D01*
X211709000Y-98106000D02*
X211709000Y-94550000D01*
X211709000Y-94550000D02*
X208153000Y-94550000D01*
X208153000Y-94550000D02*
X208153000Y-98106000D01*
%TO.C,LED14*%
X36322000Y-83058000D02*
X39878000Y-83058000D01*
X39878000Y-83058000D02*
X39878000Y-79502000D01*
X39878000Y-79502000D02*
X36322000Y-79502000D01*
X36322000Y-79502000D02*
X36322000Y-83058000D01*
%TO.C,LED12*%
X112522000Y-61912000D02*
X116078000Y-61912000D01*
X116078000Y-61912000D02*
X116078000Y-58356000D01*
X116078000Y-58356000D02*
X112522000Y-58356000D01*
X112522000Y-58356000D02*
X112522000Y-61912000D01*
%TO.C,LED16*%
X74422000Y-76200000D02*
X77978000Y-76200000D01*
X77978000Y-76200000D02*
X77978000Y-72644000D01*
X77978000Y-72644000D02*
X74422000Y-72644000D01*
X74422000Y-72644000D02*
X74422000Y-76200000D01*
%TO.C,LED31*%
X236347000Y-59244000D02*
X239903000Y-59244000D01*
X239903000Y-59244000D02*
X239903000Y-55688000D01*
X239903000Y-55688000D02*
X236347000Y-55688000D01*
X236347000Y-55688000D02*
X236347000Y-59244000D01*
%TO.C,LED9*%
X55372000Y-59244000D02*
X58928000Y-59244000D01*
X58928000Y-59244000D02*
X58928000Y-55688000D01*
X58928000Y-55688000D02*
X55372000Y-55688000D01*
X55372000Y-55688000D02*
X55372000Y-59244000D01*
%TO.C,LED41*%
X188664952Y-101538138D02*
X192099784Y-100617778D01*
X192099784Y-100617778D02*
X191179424Y-97182946D01*
X191179424Y-97182946D02*
X187744592Y-98103306D01*
X187744592Y-98103306D02*
X188664952Y-101538138D01*
%TO.C,LED19*%
X83566000Y-98106000D02*
X87122000Y-98106000D01*
X87122000Y-98106000D02*
X87122000Y-94550000D01*
X87122000Y-94550000D02*
X83566000Y-94550000D01*
X83566000Y-94550000D02*
X83566000Y-98106000D01*
%TO.C,LED17*%
X93472000Y-78294000D02*
X97028000Y-78294000D01*
X97028000Y-78294000D02*
X97028000Y-74738000D01*
X97028000Y-74738000D02*
X93472000Y-74738000D01*
X93472000Y-74738000D02*
X93472000Y-78294000D01*
%TO.C,LED15*%
X55372000Y-78294000D02*
X58928000Y-78294000D01*
X58928000Y-78294000D02*
X58928000Y-74738000D01*
X58928000Y-74738000D02*
X55372000Y-74738000D01*
X55372000Y-74738000D02*
X55372000Y-78294000D01*
%TO.C,LED38*%
X255397000Y-83058000D02*
X258953000Y-83058000D01*
X258953000Y-83058000D02*
X258953000Y-79502000D01*
X258953000Y-79502000D02*
X255397000Y-79502000D01*
X255397000Y-79502000D02*
X255397000Y-83058000D01*
%TO.C,LED23*%
X198247000Y-40194000D02*
X201803000Y-40194000D01*
X201803000Y-40194000D02*
X201803000Y-36638000D01*
X201803000Y-36638000D02*
X198247000Y-36638000D01*
X198247000Y-36638000D02*
X198247000Y-40194000D01*
%TO.C,LED8*%
X36322000Y-64008000D02*
X39878000Y-64008000D01*
X39878000Y-64008000D02*
X39878000Y-60452000D01*
X39878000Y-60452000D02*
X36322000Y-60452000D01*
X36322000Y-60452000D02*
X36322000Y-64008000D01*
%TO.C,LED40*%
X167831897Y-104354399D02*
X170911483Y-102576399D01*
X170911483Y-102576399D02*
X169133483Y-99496813D01*
X169133483Y-99496813D02*
X166053897Y-101274813D01*
X166053897Y-101274813D02*
X167831897Y-104354399D01*
%TO.C,LED18*%
X112522000Y-80962000D02*
X116078000Y-80962000D01*
X116078000Y-80962000D02*
X116078000Y-77406000D01*
X116078000Y-77406000D02*
X112522000Y-77406000D01*
X112522000Y-77406000D02*
X112522000Y-80962000D01*
%TO.C,LED32*%
X255397000Y-64008000D02*
X258953000Y-64008000D01*
X258953000Y-64008000D02*
X258953000Y-60452000D01*
X258953000Y-60452000D02*
X255397000Y-60452000D01*
X255397000Y-60452000D02*
X255397000Y-64008000D01*
%TO.C,LED21*%
X124368541Y-102557649D02*
X127448127Y-104335649D01*
X127448127Y-104335649D02*
X129226127Y-101256063D01*
X129226127Y-101256063D02*
X126146541Y-99478063D01*
X126146541Y-99478063D02*
X124368541Y-102557649D01*
%TO.C,LED30*%
X217297000Y-57150000D02*
X220853000Y-57150000D01*
X220853000Y-57150000D02*
X220853000Y-53594000D01*
X220853000Y-53594000D02*
X217297000Y-53594000D01*
X217297000Y-53594000D02*
X217297000Y-57150000D01*
%TO.C,LED4*%
X74422000Y-38100000D02*
X77978000Y-38100000D01*
X77978000Y-38100000D02*
X77978000Y-34544000D01*
X77978000Y-34544000D02*
X74422000Y-34544000D01*
X74422000Y-34544000D02*
X74422000Y-38100000D01*
%TO.C,LED20*%
X103176494Y-100608072D02*
X106611326Y-101528432D01*
X106611326Y-101528432D02*
X107531686Y-98093600D01*
X107531686Y-98093600D02*
X104096854Y-97173240D01*
X104096854Y-97173240D02*
X103176494Y-100608072D01*
%TO.C,LED10*%
X74422000Y-57150000D02*
X77978000Y-57150000D01*
X77978000Y-57150000D02*
X77978000Y-53594000D01*
X77978000Y-53594000D02*
X74422000Y-53594000D01*
X74422000Y-53594000D02*
X74422000Y-57150000D01*
%TO.C,LED37*%
X236347000Y-78294000D02*
X239903000Y-78294000D01*
X239903000Y-78294000D02*
X239903000Y-74738000D01*
X239903000Y-74738000D02*
X236347000Y-74738000D01*
X236347000Y-74738000D02*
X236347000Y-78294000D01*
%TO.C,LED36*%
X217297000Y-76200000D02*
X220853000Y-76200000D01*
X220853000Y-76200000D02*
X220853000Y-72644000D01*
X220853000Y-72644000D02*
X217297000Y-72644000D01*
X217297000Y-72644000D02*
X217297000Y-76200000D01*
%TO.C,LED3*%
X55372000Y-40194000D02*
X58928000Y-40194000D01*
X58928000Y-40194000D02*
X58928000Y-36638000D01*
X58928000Y-36638000D02*
X55372000Y-36638000D01*
X55372000Y-36638000D02*
X55372000Y-40194000D01*
%TO.C,LED2*%
X36322000Y-44958000D02*
X39878000Y-44958000D01*
X39878000Y-44958000D02*
X39878000Y-41402000D01*
X39878000Y-41402000D02*
X36322000Y-41402000D01*
X36322000Y-41402000D02*
X36322000Y-44958000D01*
%TO.C,LED24*%
X217297000Y-38100000D02*
X220853000Y-38100000D01*
X220853000Y-38100000D02*
X220853000Y-34544000D01*
X220853000Y-34544000D02*
X217297000Y-34544000D01*
X217297000Y-34544000D02*
X217297000Y-38100000D01*
%TO.C,LED29*%
X198247000Y-59244000D02*
X201803000Y-59244000D01*
X201803000Y-59244000D02*
X201803000Y-55688000D01*
X201803000Y-55688000D02*
X198247000Y-55688000D01*
X198247000Y-55688000D02*
X198247000Y-59244000D01*
%TO.C,LED1*%
X17272000Y-44958000D02*
X20828000Y-44958000D01*
X20828000Y-44958000D02*
X20828000Y-41402000D01*
X20828000Y-41402000D02*
X17272000Y-41402000D01*
X17272000Y-41402000D02*
X17272000Y-44958000D01*
%TO.C,LED5*%
X93472000Y-40194000D02*
X97028000Y-40194000D01*
X97028000Y-40194000D02*
X97028000Y-36638000D01*
X97028000Y-36638000D02*
X93472000Y-36638000D01*
X93472000Y-36638000D02*
X93472000Y-40194000D01*
%TD*%
M02*
