%TF.GenerationSoftware,KiCad,Pcbnew,7.0.1-0*%
%TF.CreationDate,2023-10-15T20:39:52+08:00*%
%TF.ProjectId,qhws42_v2,71687773-3432-45f7-9632-2e6b69636164,rev?*%
%TF.SameCoordinates,Original*%
%TF.FileFunction,Soldermask,Top*%
%TF.FilePolarity,Negative*%
%FSLAX46Y46*%
G04 Gerber Fmt 4.6, Leading zero omitted, Abs format (unit mm)*
G04 Created by KiCad (PCBNEW 7.0.1-0) date 2023-10-15 20:39:52*
%MOMM*%
%LPD*%
G01*
G04 APERTURE LIST*
G04 Aperture macros list*
%AMHorizOval*
0 Thick line with rounded ends*
0 $1 width*
0 $2 $3 position (X,Y) of the first rounded end (center of the circle)*
0 $4 $5 position (X,Y) of the second rounded end (center of the circle)*
0 Add line between two ends*
20,1,$1,$2,$3,$4,$5,0*
0 Add two circle primitives to create the rounded ends*
1,1,$1,$2,$3*
1,1,$1,$4,$5*%
%AMRotRect*
0 Rectangle, with rotation*
0 The origin of the aperture is its center*
0 $1 length*
0 $2 width*
0 $3 Rotation angle, in degrees counterclockwise*
0 Add horizontal line*
21,1,$1,$2,0,0,$3*%
G04 Aperture macros list end*
%ADD10C,1.900000*%
%ADD11C,3.000000*%
%ADD12C,4.100000*%
%ADD13C,0.300000*%
%ADD14C,0.700000*%
%ADD15R,0.600000X1.100000*%
%ADD16R,0.300000X1.100000*%
%ADD17O,1.200000X2.000000*%
%ADD18O,1.200000X1.800000*%
%ADD19R,1.270000X1.270000*%
%ADD20O,1.270000X1.270000*%
%ADD21RotRect,1.270000X1.270000X60.000000*%
%ADD22HorizOval,1.270000X0.000000X0.000000X0.000000X0.000000X0*%
%ADD23RotRect,1.270000X1.270000X300.000000*%
%ADD24HorizOval,1.270000X0.000000X0.000000X0.000000X0.000000X0*%
G04 APERTURE END LIST*
D10*
%TO.C,SW19*%
X80264000Y-91248000D03*
D11*
X81534000Y-88708000D03*
D12*
X85344000Y-91248000D03*
D11*
X87884000Y-86168000D03*
D10*
X90424000Y-91248000D03*
%TD*%
%TO.C,SW2*%
X33020000Y-38100000D03*
D11*
X34290000Y-35560000D03*
D12*
X38100000Y-38100000D03*
D11*
X40640000Y-33020000D03*
D10*
X43180000Y-38100000D03*
%TD*%
%TO.C,SW4*%
X71120000Y-31242000D03*
D11*
X72390000Y-28702000D03*
D12*
X76200000Y-31242000D03*
D11*
X78740000Y-26162000D03*
D10*
X81280000Y-31242000D03*
%TD*%
%TO.C,SW15*%
X52070000Y-71436000D03*
D11*
X53340000Y-68896000D03*
D12*
X57150000Y-71436000D03*
D11*
X59690000Y-66356000D03*
D10*
X62230000Y-71436000D03*
%TD*%
%TO.C,SW9*%
X52070000Y-52386000D03*
D11*
X53340000Y-49846000D03*
D12*
X57150000Y-52386000D03*
D11*
X59690000Y-47306000D03*
D10*
X62230000Y-52386000D03*
%TD*%
%TO.C,SW39*%
X271145000Y-76200000D03*
D11*
X272415000Y-73660000D03*
D12*
X276225000Y-76200000D03*
D11*
X278765000Y-71120000D03*
D10*
X281305000Y-76200000D03*
%TD*%
%TO.C,SW34*%
X175895000Y-74104000D03*
D11*
X177165000Y-71564000D03*
D12*
X180975000Y-74104000D03*
D11*
X183515000Y-69024000D03*
D10*
X186055000Y-74104000D03*
%TD*%
%TO.C,SW1*%
X13970000Y-38100000D03*
D11*
X15240000Y-35560000D03*
D12*
X19050000Y-38100000D03*
D11*
X21590000Y-33020000D03*
D10*
X24130000Y-38100000D03*
%TD*%
%TO.C,SW29*%
X194945000Y-52386000D03*
D11*
X196215000Y-49846000D03*
D12*
X200025000Y-52386000D03*
D11*
X202565000Y-47306000D03*
D10*
X205105000Y-52386000D03*
%TD*%
D13*
%TO.C,REF\u002A\u002A*%
X253888640Y-90017600D03*
X254483000Y-90017600D03*
X255079800Y-90017600D03*
X255673550Y-90017600D03*
X256267300Y-90017600D03*
X256861050Y-90017600D03*
X257454800Y-90017600D03*
X258048550Y-90017600D03*
X258642300Y-90017600D03*
X259236050Y-90017600D03*
X259829800Y-90017600D03*
X260426600Y-90017600D03*
X261020960Y-90017600D03*
%TD*%
D10*
%TO.C,SW32*%
X252095000Y-57150000D03*
D11*
X253365000Y-54610000D03*
D12*
X257175000Y-57150000D03*
D11*
X259715000Y-52070000D03*
D10*
X262255000Y-57150000D03*
%TD*%
%TO.C,SW42*%
X204851000Y-91248000D03*
D11*
X206121000Y-88708000D03*
D12*
X209931000Y-91248000D03*
D11*
X212471000Y-86168000D03*
D10*
X215011000Y-91248000D03*
%TD*%
%TO.C,SW36*%
X213995000Y-69342000D03*
D11*
X215265000Y-66802000D03*
D12*
X219075000Y-69342000D03*
D11*
X221615000Y-64262000D03*
D10*
X224155000Y-69342000D03*
%TD*%
D13*
%TO.C,REF\u002A\u002A*%
X36565040Y-90017600D03*
X37159400Y-90017600D03*
X37756200Y-90017600D03*
X38349950Y-90017600D03*
X38943700Y-90017600D03*
X39537450Y-90017600D03*
X40131200Y-90017600D03*
X40724950Y-90017600D03*
X41318700Y-90017600D03*
X41912450Y-90017600D03*
X42506200Y-90017600D03*
X43103000Y-90017600D03*
X43697360Y-90017600D03*
%TD*%
D10*
%TO.C,SW16*%
X71120000Y-69342000D03*
D11*
X72390000Y-66802000D03*
D12*
X76200000Y-69342000D03*
D11*
X78740000Y-64262000D03*
D10*
X81280000Y-69342000D03*
%TD*%
%TO.C,SW23*%
X194945000Y-33336000D03*
D11*
X196215000Y-30796000D03*
D12*
X200025000Y-33336000D03*
D11*
X202565000Y-28256000D03*
D10*
X205105000Y-33336000D03*
%TD*%
D13*
%TO.C,REF\u002A\u002A*%
X123926600Y-36687760D03*
X123926600Y-36093400D03*
X123926600Y-35496600D03*
X123926600Y-34902850D03*
X123926600Y-34309100D03*
X123926600Y-33715350D03*
X123926600Y-33121600D03*
X123926600Y-32527850D03*
X123926600Y-31934100D03*
X123926600Y-31340350D03*
X123926600Y-30746600D03*
X123926600Y-30149800D03*
X123926600Y-29555440D03*
%TD*%
%TO.C,REF\u002A\u002A*%
X123926600Y-76972160D03*
X123926600Y-76377800D03*
X123926600Y-75781000D03*
X123926600Y-75187250D03*
X123926600Y-74593500D03*
X123926600Y-73999750D03*
X123926600Y-73406000D03*
X123926600Y-72812250D03*
X123926600Y-72218500D03*
X123926600Y-71624750D03*
X123926600Y-71031000D03*
X123926600Y-70434200D03*
X123926600Y-69839840D03*
%TD*%
%TO.C,*%
X171323000Y-30149800D03*
%TD*%
%TO.C,*%
X123926600Y-30149800D03*
%TD*%
D10*
%TO.C,SW37*%
X233045000Y-71436000D03*
D11*
X234315000Y-68896000D03*
D12*
X238125000Y-71436000D03*
D11*
X240665000Y-66356000D03*
D10*
X243205000Y-71436000D03*
%TD*%
%TO.C,SW31*%
X233045000Y-52386000D03*
D11*
X234315000Y-49846000D03*
D12*
X238125000Y-52386000D03*
D11*
X240665000Y-47306000D03*
D10*
X243205000Y-52386000D03*
%TD*%
D13*
%TO.C,REF\u002A\u002A*%
X171323000Y-36687760D03*
X171323000Y-36093400D03*
X171323000Y-35496600D03*
X171323000Y-34902850D03*
X171323000Y-34309100D03*
X171323000Y-33715350D03*
X171323000Y-33121600D03*
X171323000Y-32527850D03*
X171323000Y-31934100D03*
X171323000Y-31340350D03*
X171323000Y-30746600D03*
X171323000Y-30149800D03*
X171323000Y-29555440D03*
%TD*%
D14*
%TO.C,USB1*%
X43022130Y-95047226D03*
X37242130Y-95047226D03*
D15*
X43332130Y-96117226D03*
X42532130Y-96117226D03*
D16*
X41882130Y-96117226D03*
X41382130Y-96117226D03*
X40882130Y-96117226D03*
X40382130Y-96117226D03*
X39882130Y-96117226D03*
X39382130Y-96117226D03*
X38882130Y-96117226D03*
X38382130Y-96117226D03*
D15*
X37732130Y-96117226D03*
X36932130Y-96117226D03*
D17*
X44457130Y-95567226D03*
D18*
X44457130Y-91367226D03*
D17*
X35807130Y-95567226D03*
D18*
X35807130Y-91367226D03*
%TD*%
D10*
%TO.C,SW22*%
X175895000Y-36004000D03*
D11*
X177165000Y-33464000D03*
D12*
X180975000Y-36004000D03*
D11*
X183515000Y-30924000D03*
D10*
X186055000Y-36004000D03*
%TD*%
%TO.C,SW14*%
X33020000Y-76200000D03*
D11*
X34290000Y-73660000D03*
D12*
X38100000Y-76200000D03*
D11*
X40640000Y-71120000D03*
D10*
X43180000Y-76200000D03*
%TD*%
%TO.C,SW30*%
X213995000Y-50292000D03*
D11*
X215265000Y-47752000D03*
D12*
X219075000Y-50292000D03*
D11*
X221615000Y-45212000D03*
D10*
X224155000Y-50292000D03*
%TD*%
D13*
%TO.C,REF\u002A\u002A*%
X36565040Y-85826600D03*
X37159400Y-85826600D03*
X37756200Y-85826600D03*
X38349950Y-85826600D03*
X38943700Y-85826600D03*
X39537450Y-85826600D03*
X40131200Y-85826600D03*
X40724950Y-85826600D03*
X41318700Y-85826600D03*
X41912450Y-85826600D03*
X42506200Y-85826600D03*
X43103000Y-85826600D03*
X43697360Y-85826600D03*
%TD*%
D10*
%TO.C,SW38*%
X252095000Y-76200000D03*
D11*
X253365000Y-73660000D03*
D12*
X257175000Y-76200000D03*
D11*
X259715000Y-71120000D03*
D10*
X262255000Y-76200000D03*
%TD*%
%TO.C,SW17*%
X90170000Y-71436000D03*
D11*
X91440000Y-68896000D03*
D12*
X95250000Y-71436000D03*
D11*
X97790000Y-66356000D03*
D10*
X100330000Y-71436000D03*
%TD*%
%TO.C,SW25*%
X233045000Y-33336000D03*
D11*
X234315000Y-30796000D03*
D12*
X238125000Y-33336000D03*
D11*
X240665000Y-28256000D03*
D10*
X243205000Y-33336000D03*
%TD*%
%TO.C,SW28*%
X175895000Y-55054000D03*
D11*
X177165000Y-52514000D03*
D12*
X180975000Y-55054000D03*
D11*
X183515000Y-49974000D03*
D10*
X186055000Y-55054000D03*
%TD*%
%TO.C,SW21*%
X124937925Y-94967447D03*
D11*
X127307777Y-93402742D03*
D12*
X129337334Y-97507447D03*
D11*
X134077039Y-94378038D03*
D10*
X133736743Y-100047447D03*
%TD*%
D14*
%TO.C,USB2*%
X260345010Y-95046046D03*
X254565010Y-95046046D03*
D15*
X260655010Y-96116046D03*
X259855010Y-96116046D03*
D16*
X259205010Y-96116046D03*
X258705010Y-96116046D03*
X258205010Y-96116046D03*
X257705010Y-96116046D03*
X257205010Y-96116046D03*
X256705010Y-96116046D03*
X256205010Y-96116046D03*
X255705010Y-96116046D03*
D15*
X255055010Y-96116046D03*
X254255010Y-96116046D03*
D17*
X261780010Y-95566046D03*
D18*
X261780010Y-91366046D03*
D17*
X253130010Y-95566046D03*
D18*
X253130010Y-91366046D03*
%TD*%
D10*
%TO.C,SW41*%
X183700484Y-95768440D03*
D11*
X184269809Y-92986288D03*
D12*
X188607387Y-94453639D03*
D11*
X189746038Y-88889335D03*
D10*
X193514290Y-93138838D03*
%TD*%
%TO.C,SW33*%
X271145000Y-57150000D03*
D11*
X272415000Y-54610000D03*
D12*
X276225000Y-57150000D03*
D11*
X278765000Y-52070000D03*
D10*
X281305000Y-57150000D03*
%TD*%
D13*
%TO.C,REF\u002A\u002A*%
X171323000Y-76972160D03*
X171323000Y-76377800D03*
X171323000Y-75781000D03*
X171323000Y-75187250D03*
X171323000Y-74593500D03*
X171323000Y-73999750D03*
X171323000Y-73406000D03*
X171323000Y-72812250D03*
X171323000Y-72218500D03*
X171323000Y-71624750D03*
X171323000Y-71031000D03*
X171323000Y-70434200D03*
X171323000Y-69839840D03*
%TD*%
%TO.C,REF\u002A\u002A*%
X253888640Y-85826600D03*
X254483000Y-85826600D03*
X255079800Y-85826600D03*
X255673550Y-85826600D03*
X256267300Y-85826600D03*
X256861050Y-85826600D03*
X257454800Y-85826600D03*
X258048550Y-85826600D03*
X258642300Y-85826600D03*
X259236050Y-85826600D03*
X259829800Y-85826600D03*
X260426600Y-85826600D03*
X261020960Y-85826600D03*
%TD*%
D10*
%TO.C,SW20*%
X101761988Y-93129132D03*
D11*
X103646114Y-91004381D03*
D12*
X106668891Y-94443933D03*
D11*
X110437143Y-90194430D03*
D10*
X111575794Y-95758734D03*
%TD*%
%TO.C,SW11*%
X90170000Y-52386000D03*
D11*
X91440000Y-49846000D03*
D12*
X95250000Y-52386000D03*
D11*
X97790000Y-47306000D03*
D10*
X100330000Y-52386000D03*
%TD*%
%TO.C,SW3*%
X52070000Y-33336000D03*
D11*
X53340000Y-30796000D03*
D12*
X57150000Y-33336000D03*
D11*
X59690000Y-28256000D03*
D10*
X62230000Y-33336000D03*
%TD*%
%TO.C,SW7*%
X13970000Y-57150000D03*
D11*
X15240000Y-54610000D03*
D12*
X19050000Y-57150000D03*
D11*
X21590000Y-52070000D03*
D10*
X24130000Y-57150000D03*
%TD*%
%TO.C,SW6*%
X109220000Y-36004000D03*
D11*
X110490000Y-33464000D03*
D12*
X114300000Y-36004000D03*
D11*
X116840000Y-30924000D03*
D10*
X119380000Y-36004000D03*
%TD*%
%TO.C,SW24*%
X213995000Y-31242000D03*
D11*
X215265000Y-28702000D03*
D12*
X219075000Y-31242000D03*
D11*
X221615000Y-26162000D03*
D10*
X224155000Y-31242000D03*
%TD*%
%TO.C,SW18*%
X109220000Y-74104000D03*
D11*
X110490000Y-71564000D03*
D12*
X114300000Y-74104000D03*
D11*
X116840000Y-69024000D03*
D10*
X119380000Y-74104000D03*
%TD*%
%TO.C,SW35*%
X194945000Y-71436000D03*
D11*
X196215000Y-68896000D03*
D12*
X200025000Y-71436000D03*
D11*
X202565000Y-66356000D03*
D10*
X205105000Y-71436000D03*
%TD*%
%TO.C,SW12*%
X109220000Y-55054000D03*
D11*
X110490000Y-52514000D03*
D12*
X114300000Y-55054000D03*
D11*
X116840000Y-49974000D03*
D10*
X119380000Y-55054000D03*
%TD*%
%TO.C,SW40*%
X161543281Y-100066197D03*
D11*
X161373133Y-97231492D03*
D12*
X165942690Y-97526197D03*
D11*
X165602395Y-91856788D03*
D10*
X170342099Y-94986197D03*
%TD*%
%TO.C,SW13*%
X13970000Y-76200000D03*
D11*
X15240000Y-73660000D03*
D12*
X19050000Y-76200000D03*
D11*
X21590000Y-71120000D03*
D10*
X24130000Y-76200000D03*
%TD*%
%TO.C,SW26*%
X252095000Y-38100000D03*
D11*
X253365000Y-35560000D03*
D12*
X257175000Y-38100000D03*
D11*
X259715000Y-33020000D03*
D10*
X262255000Y-38100000D03*
%TD*%
%TO.C,SW10*%
X71120000Y-50292000D03*
D11*
X72390000Y-47752000D03*
D12*
X76200000Y-50292000D03*
D11*
X78740000Y-45212000D03*
D10*
X81280000Y-50292000D03*
%TD*%
%TO.C,SW5*%
X90170000Y-33336000D03*
D11*
X91440000Y-30796000D03*
D12*
X95250000Y-33336000D03*
D11*
X97790000Y-28256000D03*
D10*
X100330000Y-33336000D03*
%TD*%
%TO.C,SW8*%
X33020000Y-57150000D03*
D11*
X34290000Y-54610000D03*
D12*
X38100000Y-57150000D03*
D11*
X40640000Y-52070000D03*
D10*
X43180000Y-57150000D03*
%TD*%
%TO.C,SW27*%
X271145000Y-38100000D03*
D11*
X272415000Y-35560000D03*
D12*
X276225000Y-38100000D03*
D11*
X278765000Y-33020000D03*
D10*
X281305000Y-38100000D03*
%TD*%
D19*
%TO.C,J1*%
X98196400Y-61036200D03*
D20*
X100736400Y-61036200D03*
%TD*%
D19*
%TO.C,J2*%
X79984600Y-61036200D03*
D20*
X82524600Y-61036200D03*
%TD*%
D21*
%TO.C,J5*%
X125500000Y-110500000D03*
D22*
X123300295Y-109230000D03*
X121100591Y-107960000D03*
X118900886Y-106690000D03*
%TD*%
D21*
%TO.C,J6*%
X129899409Y-113040000D03*
D22*
X127699704Y-111770000D03*
%TD*%
D19*
%TO.C,J4*%
X222848400Y-61037200D03*
D20*
X225388400Y-61037200D03*
%TD*%
D23*
%TO.C,J8*%
X165376000Y-113039787D03*
D24*
X167575705Y-111769787D03*
%TD*%
D19*
%TO.C,J10*%
X214757500Y-79502000D03*
D20*
X214757500Y-82042000D03*
%TD*%
D19*
%TO.C,J3*%
X241060200Y-61037200D03*
D20*
X243600200Y-61037200D03*
%TD*%
D19*
%TO.C,J9*%
X80518000Y-79502000D03*
D20*
X80518000Y-82042000D03*
%TD*%
D23*
%TO.C,J7*%
X169775409Y-110499787D03*
D24*
X171975114Y-109229787D03*
X174174818Y-107959787D03*
X176374523Y-106689787D03*
%TD*%
M02*
