%TF.GenerationSoftware,KiCad,Pcbnew,7.0.1-0*%
%TF.CreationDate,2023-10-15T20:39:52+08:00*%
%TF.ProjectId,qhws42_v2,71687773-3432-45f7-9632-2e6b69636164,rev?*%
%TF.SameCoordinates,Original*%
%TF.FileFunction,Legend,Top*%
%TF.FilePolarity,Positive*%
%FSLAX46Y46*%
G04 Gerber Fmt 4.6, Leading zero omitted, Abs format (unit mm)*
G04 Created by KiCad (PCBNEW 7.0.1-0) date 2023-10-15 20:39:52*
%MOMM*%
%LPD*%
G01*
G04 APERTURE LIST*
%ADD10C,0.150000*%
%ADD11C,0.100000*%
G04 APERTURE END LIST*
D10*
X275982380Y-47678095D02*
X276982380Y-47678095D01*
X276982380Y-47678095D02*
X276982380Y-47916190D01*
X276982380Y-47916190D02*
X276934761Y-48059047D01*
X276934761Y-48059047D02*
X276839523Y-48154285D01*
X276839523Y-48154285D02*
X276744285Y-48201904D01*
X276744285Y-48201904D02*
X276553809Y-48249523D01*
X276553809Y-48249523D02*
X276410952Y-48249523D01*
X276410952Y-48249523D02*
X276220476Y-48201904D01*
X276220476Y-48201904D02*
X276125238Y-48154285D01*
X276125238Y-48154285D02*
X276030000Y-48059047D01*
X276030000Y-48059047D02*
X275982380Y-47916190D01*
X275982380Y-47916190D02*
X275982380Y-47678095D01*
X276363333Y-48678095D02*
X276363333Y-49440000D01*
X275982380Y-49059047D02*
X276744285Y-49059047D01*
X270171904Y-45635238D02*
X270076666Y-45587619D01*
X270076666Y-45587619D02*
X269933809Y-45587619D01*
X269933809Y-45587619D02*
X269790952Y-45635238D01*
X269790952Y-45635238D02*
X269695714Y-45730476D01*
X269695714Y-45730476D02*
X269648095Y-45825714D01*
X269648095Y-45825714D02*
X269600476Y-46016190D01*
X269600476Y-46016190D02*
X269600476Y-46159047D01*
X269600476Y-46159047D02*
X269648095Y-46349523D01*
X269648095Y-46349523D02*
X269695714Y-46444761D01*
X269695714Y-46444761D02*
X269790952Y-46540000D01*
X269790952Y-46540000D02*
X269933809Y-46587619D01*
X269933809Y-46587619D02*
X270029047Y-46587619D01*
X270029047Y-46587619D02*
X270171904Y-46540000D01*
X270171904Y-46540000D02*
X270219523Y-46492380D01*
X270219523Y-46492380D02*
X270219523Y-46159047D01*
X270219523Y-46159047D02*
X270029047Y-46159047D01*
X270648095Y-46587619D02*
X270648095Y-45587619D01*
X270648095Y-45587619D02*
X271219523Y-46587619D01*
X271219523Y-46587619D02*
X271219523Y-45587619D01*
X271695714Y-46587619D02*
X271695714Y-45587619D01*
X271695714Y-45587619D02*
X271933809Y-45587619D01*
X271933809Y-45587619D02*
X272076666Y-45635238D01*
X272076666Y-45635238D02*
X272171904Y-45730476D01*
X272171904Y-45730476D02*
X272219523Y-45825714D01*
X272219523Y-45825714D02*
X272267142Y-46016190D01*
X272267142Y-46016190D02*
X272267142Y-46159047D01*
X272267142Y-46159047D02*
X272219523Y-46349523D01*
X272219523Y-46349523D02*
X272171904Y-46444761D01*
X272171904Y-46444761D02*
X272076666Y-46540000D01*
X272076666Y-46540000D02*
X271933809Y-46587619D01*
X271933809Y-46587619D02*
X271695714Y-46587619D01*
X216271904Y-79065238D02*
X216176666Y-79017619D01*
X216176666Y-79017619D02*
X216033809Y-79017619D01*
X216033809Y-79017619D02*
X215890952Y-79065238D01*
X215890952Y-79065238D02*
X215795714Y-79160476D01*
X215795714Y-79160476D02*
X215748095Y-79255714D01*
X215748095Y-79255714D02*
X215700476Y-79446190D01*
X215700476Y-79446190D02*
X215700476Y-79589047D01*
X215700476Y-79589047D02*
X215748095Y-79779523D01*
X215748095Y-79779523D02*
X215795714Y-79874761D01*
X215795714Y-79874761D02*
X215890952Y-79970000D01*
X215890952Y-79970000D02*
X216033809Y-80017619D01*
X216033809Y-80017619D02*
X216129047Y-80017619D01*
X216129047Y-80017619D02*
X216271904Y-79970000D01*
X216271904Y-79970000D02*
X216319523Y-79922380D01*
X216319523Y-79922380D02*
X216319523Y-79589047D01*
X216319523Y-79589047D02*
X216129047Y-79589047D01*
X216748095Y-80017619D02*
X216748095Y-79017619D01*
X216748095Y-79017619D02*
X217319523Y-80017619D01*
X217319523Y-80017619D02*
X217319523Y-79017619D01*
X217795714Y-80017619D02*
X217795714Y-79017619D01*
X217795714Y-79017619D02*
X218033809Y-79017619D01*
X218033809Y-79017619D02*
X218176666Y-79065238D01*
X218176666Y-79065238D02*
X218271904Y-79160476D01*
X218271904Y-79160476D02*
X218319523Y-79255714D01*
X218319523Y-79255714D02*
X218367142Y-79446190D01*
X218367142Y-79446190D02*
X218367142Y-79589047D01*
X218367142Y-79589047D02*
X218319523Y-79779523D01*
X218319523Y-79779523D02*
X218271904Y-79874761D01*
X218271904Y-79874761D02*
X218176666Y-79970000D01*
X218176666Y-79970000D02*
X218033809Y-80017619D01*
X218033809Y-80017619D02*
X217795714Y-80017619D01*
X83425238Y-60577619D02*
X83758571Y-61577619D01*
X83758571Y-61577619D02*
X84091904Y-60577619D01*
X84758571Y-61053809D02*
X84901428Y-61101428D01*
X84901428Y-61101428D02*
X84949047Y-61149047D01*
X84949047Y-61149047D02*
X84996666Y-61244285D01*
X84996666Y-61244285D02*
X84996666Y-61387142D01*
X84996666Y-61387142D02*
X84949047Y-61482380D01*
X84949047Y-61482380D02*
X84901428Y-61530000D01*
X84901428Y-61530000D02*
X84806190Y-61577619D01*
X84806190Y-61577619D02*
X84425238Y-61577619D01*
X84425238Y-61577619D02*
X84425238Y-60577619D01*
X84425238Y-60577619D02*
X84758571Y-60577619D01*
X84758571Y-60577619D02*
X84853809Y-60625238D01*
X84853809Y-60625238D02*
X84901428Y-60672857D01*
X84901428Y-60672857D02*
X84949047Y-60768095D01*
X84949047Y-60768095D02*
X84949047Y-60863333D01*
X84949047Y-60863333D02*
X84901428Y-60958571D01*
X84901428Y-60958571D02*
X84853809Y-61006190D01*
X84853809Y-61006190D02*
X84758571Y-61053809D01*
X84758571Y-61053809D02*
X84425238Y-61053809D01*
X85425238Y-60577619D02*
X85425238Y-61387142D01*
X85425238Y-61387142D02*
X85472857Y-61482380D01*
X85472857Y-61482380D02*
X85520476Y-61530000D01*
X85520476Y-61530000D02*
X85615714Y-61577619D01*
X85615714Y-61577619D02*
X85806190Y-61577619D01*
X85806190Y-61577619D02*
X85901428Y-61530000D01*
X85901428Y-61530000D02*
X85949047Y-61482380D01*
X85949047Y-61482380D02*
X85996666Y-61387142D01*
X85996666Y-61387142D02*
X85996666Y-60577619D01*
X86425238Y-61530000D02*
X86568095Y-61577619D01*
X86568095Y-61577619D02*
X86806190Y-61577619D01*
X86806190Y-61577619D02*
X86901428Y-61530000D01*
X86901428Y-61530000D02*
X86949047Y-61482380D01*
X86949047Y-61482380D02*
X86996666Y-61387142D01*
X86996666Y-61387142D02*
X86996666Y-61291904D01*
X86996666Y-61291904D02*
X86949047Y-61196666D01*
X86949047Y-61196666D02*
X86901428Y-61149047D01*
X86901428Y-61149047D02*
X86806190Y-61101428D01*
X86806190Y-61101428D02*
X86615714Y-61053809D01*
X86615714Y-61053809D02*
X86520476Y-61006190D01*
X86520476Y-61006190D02*
X86472857Y-60958571D01*
X86472857Y-60958571D02*
X86425238Y-60863333D01*
X86425238Y-60863333D02*
X86425238Y-60768095D01*
X86425238Y-60768095D02*
X86472857Y-60672857D01*
X86472857Y-60672857D02*
X86520476Y-60625238D01*
X86520476Y-60625238D02*
X86615714Y-60577619D01*
X86615714Y-60577619D02*
X86853809Y-60577619D01*
X86853809Y-60577619D02*
X86996666Y-60625238D01*
X172785238Y-106980000D02*
X172928095Y-107027619D01*
X172928095Y-107027619D02*
X173166190Y-107027619D01*
X173166190Y-107027619D02*
X173261428Y-106980000D01*
X173261428Y-106980000D02*
X173309047Y-106932380D01*
X173309047Y-106932380D02*
X173356666Y-106837142D01*
X173356666Y-106837142D02*
X173356666Y-106741904D01*
X173356666Y-106741904D02*
X173309047Y-106646666D01*
X173309047Y-106646666D02*
X173261428Y-106599047D01*
X173261428Y-106599047D02*
X173166190Y-106551428D01*
X173166190Y-106551428D02*
X172975714Y-106503809D01*
X172975714Y-106503809D02*
X172880476Y-106456190D01*
X172880476Y-106456190D02*
X172832857Y-106408571D01*
X172832857Y-106408571D02*
X172785238Y-106313333D01*
X172785238Y-106313333D02*
X172785238Y-106218095D01*
X172785238Y-106218095D02*
X172832857Y-106122857D01*
X172832857Y-106122857D02*
X172880476Y-106075238D01*
X172880476Y-106075238D02*
X172975714Y-106027619D01*
X172975714Y-106027619D02*
X173213809Y-106027619D01*
X173213809Y-106027619D02*
X173356666Y-106075238D01*
X173690000Y-106027619D02*
X173928095Y-107027619D01*
X173928095Y-107027619D02*
X174118571Y-106313333D01*
X174118571Y-106313333D02*
X174309047Y-107027619D01*
X174309047Y-107027619D02*
X174547143Y-106027619D01*
X174928095Y-107027619D02*
X174928095Y-106027619D01*
X174928095Y-106027619D02*
X175166190Y-106027619D01*
X175166190Y-106027619D02*
X175309047Y-106075238D01*
X175309047Y-106075238D02*
X175404285Y-106170476D01*
X175404285Y-106170476D02*
X175451904Y-106265714D01*
X175451904Y-106265714D02*
X175499523Y-106456190D01*
X175499523Y-106456190D02*
X175499523Y-106599047D01*
X175499523Y-106599047D02*
X175451904Y-106789523D01*
X175451904Y-106789523D02*
X175404285Y-106884761D01*
X175404285Y-106884761D02*
X175309047Y-106980000D01*
X175309047Y-106980000D02*
X175166190Y-107027619D01*
X175166190Y-107027619D02*
X174928095Y-107027619D01*
X164684285Y-111105238D02*
X164589047Y-111057619D01*
X164589047Y-111057619D02*
X164446190Y-111057619D01*
X164446190Y-111057619D02*
X164303333Y-111105238D01*
X164303333Y-111105238D02*
X164208095Y-111200476D01*
X164208095Y-111200476D02*
X164160476Y-111295714D01*
X164160476Y-111295714D02*
X164112857Y-111486190D01*
X164112857Y-111486190D02*
X164112857Y-111629047D01*
X164112857Y-111629047D02*
X164160476Y-111819523D01*
X164160476Y-111819523D02*
X164208095Y-111914761D01*
X164208095Y-111914761D02*
X164303333Y-112010000D01*
X164303333Y-112010000D02*
X164446190Y-112057619D01*
X164446190Y-112057619D02*
X164541428Y-112057619D01*
X164541428Y-112057619D02*
X164684285Y-112010000D01*
X164684285Y-112010000D02*
X164731904Y-111962380D01*
X164731904Y-111962380D02*
X164731904Y-111629047D01*
X164731904Y-111629047D02*
X164541428Y-111629047D01*
X165160476Y-112057619D02*
X165160476Y-111057619D01*
X165160476Y-111057619D02*
X165731904Y-112057619D01*
X165731904Y-112057619D02*
X165731904Y-111057619D01*
X166208095Y-112057619D02*
X166208095Y-111057619D01*
X166208095Y-111057619D02*
X166446190Y-111057619D01*
X166446190Y-111057619D02*
X166589047Y-111105238D01*
X166589047Y-111105238D02*
X166684285Y-111200476D01*
X166684285Y-111200476D02*
X166731904Y-111295714D01*
X166731904Y-111295714D02*
X166779523Y-111486190D01*
X166779523Y-111486190D02*
X166779523Y-111629047D01*
X166779523Y-111629047D02*
X166731904Y-111819523D01*
X166731904Y-111819523D02*
X166684285Y-111914761D01*
X166684285Y-111914761D02*
X166589047Y-112010000D01*
X166589047Y-112010000D02*
X166446190Y-112057619D01*
X166446190Y-112057619D02*
X166208095Y-112057619D01*
X274072380Y-47638095D02*
X275072380Y-47638095D01*
X275072380Y-47638095D02*
X275072380Y-47876190D01*
X275072380Y-47876190D02*
X275024761Y-48019047D01*
X275024761Y-48019047D02*
X274929523Y-48114285D01*
X274929523Y-48114285D02*
X274834285Y-48161904D01*
X274834285Y-48161904D02*
X274643809Y-48209523D01*
X274643809Y-48209523D02*
X274500952Y-48209523D01*
X274500952Y-48209523D02*
X274310476Y-48161904D01*
X274310476Y-48161904D02*
X274215238Y-48114285D01*
X274215238Y-48114285D02*
X274120000Y-48019047D01*
X274120000Y-48019047D02*
X274072380Y-47876190D01*
X274072380Y-47876190D02*
X274072380Y-47638095D01*
X274453333Y-48638095D02*
X274453333Y-49400000D01*
X241978095Y-63047619D02*
X241978095Y-62047619D01*
X241978095Y-62523809D02*
X242549523Y-62523809D01*
X242549523Y-63047619D02*
X242549523Y-62047619D01*
X14591904Y-45895238D02*
X14496666Y-45847619D01*
X14496666Y-45847619D02*
X14353809Y-45847619D01*
X14353809Y-45847619D02*
X14210952Y-45895238D01*
X14210952Y-45895238D02*
X14115714Y-45990476D01*
X14115714Y-45990476D02*
X14068095Y-46085714D01*
X14068095Y-46085714D02*
X14020476Y-46276190D01*
X14020476Y-46276190D02*
X14020476Y-46419047D01*
X14020476Y-46419047D02*
X14068095Y-46609523D01*
X14068095Y-46609523D02*
X14115714Y-46704761D01*
X14115714Y-46704761D02*
X14210952Y-46800000D01*
X14210952Y-46800000D02*
X14353809Y-46847619D01*
X14353809Y-46847619D02*
X14449047Y-46847619D01*
X14449047Y-46847619D02*
X14591904Y-46800000D01*
X14591904Y-46800000D02*
X14639523Y-46752380D01*
X14639523Y-46752380D02*
X14639523Y-46419047D01*
X14639523Y-46419047D02*
X14449047Y-46419047D01*
X15068095Y-46847619D02*
X15068095Y-45847619D01*
X15068095Y-45847619D02*
X15639523Y-46847619D01*
X15639523Y-46847619D02*
X15639523Y-45847619D01*
X16115714Y-46847619D02*
X16115714Y-45847619D01*
X16115714Y-45847619D02*
X16353809Y-45847619D01*
X16353809Y-45847619D02*
X16496666Y-45895238D01*
X16496666Y-45895238D02*
X16591904Y-45990476D01*
X16591904Y-45990476D02*
X16639523Y-46085714D01*
X16639523Y-46085714D02*
X16687142Y-46276190D01*
X16687142Y-46276190D02*
X16687142Y-46419047D01*
X16687142Y-46419047D02*
X16639523Y-46609523D01*
X16639523Y-46609523D02*
X16591904Y-46704761D01*
X16591904Y-46704761D02*
X16496666Y-46800000D01*
X16496666Y-46800000D02*
X16353809Y-46847619D01*
X16353809Y-46847619D02*
X16115714Y-46847619D01*
X38882780Y-94599095D02*
X39882780Y-94599095D01*
X39882780Y-94599095D02*
X39882780Y-94837190D01*
X39882780Y-94837190D02*
X39835161Y-94980047D01*
X39835161Y-94980047D02*
X39739923Y-95075285D01*
X39739923Y-95075285D02*
X39644685Y-95122904D01*
X39644685Y-95122904D02*
X39454209Y-95170523D01*
X39454209Y-95170523D02*
X39311352Y-95170523D01*
X39311352Y-95170523D02*
X39120876Y-95122904D01*
X39120876Y-95122904D02*
X39025638Y-95075285D01*
X39025638Y-95075285D02*
X38930400Y-94980047D01*
X38930400Y-94980047D02*
X38882780Y-94837190D01*
X38882780Y-94837190D02*
X38882780Y-94599095D01*
X39263733Y-95599095D02*
X39263733Y-96361000D01*
X252191504Y-92916038D02*
X252096266Y-92868419D01*
X252096266Y-92868419D02*
X251953409Y-92868419D01*
X251953409Y-92868419D02*
X251810552Y-92916038D01*
X251810552Y-92916038D02*
X251715314Y-93011276D01*
X251715314Y-93011276D02*
X251667695Y-93106514D01*
X251667695Y-93106514D02*
X251620076Y-93296990D01*
X251620076Y-93296990D02*
X251620076Y-93439847D01*
X251620076Y-93439847D02*
X251667695Y-93630323D01*
X251667695Y-93630323D02*
X251715314Y-93725561D01*
X251715314Y-93725561D02*
X251810552Y-93820800D01*
X251810552Y-93820800D02*
X251953409Y-93868419D01*
X251953409Y-93868419D02*
X252048647Y-93868419D01*
X252048647Y-93868419D02*
X252191504Y-93820800D01*
X252191504Y-93820800D02*
X252239123Y-93773180D01*
X252239123Y-93773180D02*
X252239123Y-93439847D01*
X252239123Y-93439847D02*
X252048647Y-93439847D01*
X252667695Y-93868419D02*
X252667695Y-92868419D01*
X252667695Y-92868419D02*
X253239123Y-93868419D01*
X253239123Y-93868419D02*
X253239123Y-92868419D01*
X253715314Y-93868419D02*
X253715314Y-92868419D01*
X253715314Y-92868419D02*
X253953409Y-92868419D01*
X253953409Y-92868419D02*
X254096266Y-92916038D01*
X254096266Y-92916038D02*
X254191504Y-93011276D01*
X254191504Y-93011276D02*
X254239123Y-93106514D01*
X254239123Y-93106514D02*
X254286742Y-93296990D01*
X254286742Y-93296990D02*
X254286742Y-93439847D01*
X254286742Y-93439847D02*
X254239123Y-93630323D01*
X254239123Y-93630323D02*
X254191504Y-93725561D01*
X254191504Y-93725561D02*
X254096266Y-93820800D01*
X254096266Y-93820800D02*
X253953409Y-93868419D01*
X253953409Y-93868419D02*
X253715314Y-93868419D01*
X119980476Y-106960000D02*
X120123333Y-107007619D01*
X120123333Y-107007619D02*
X120361428Y-107007619D01*
X120361428Y-107007619D02*
X120456666Y-106960000D01*
X120456666Y-106960000D02*
X120504285Y-106912380D01*
X120504285Y-106912380D02*
X120551904Y-106817142D01*
X120551904Y-106817142D02*
X120551904Y-106721904D01*
X120551904Y-106721904D02*
X120504285Y-106626666D01*
X120504285Y-106626666D02*
X120456666Y-106579047D01*
X120456666Y-106579047D02*
X120361428Y-106531428D01*
X120361428Y-106531428D02*
X120170952Y-106483809D01*
X120170952Y-106483809D02*
X120075714Y-106436190D01*
X120075714Y-106436190D02*
X120028095Y-106388571D01*
X120028095Y-106388571D02*
X119980476Y-106293333D01*
X119980476Y-106293333D02*
X119980476Y-106198095D01*
X119980476Y-106198095D02*
X120028095Y-106102857D01*
X120028095Y-106102857D02*
X120075714Y-106055238D01*
X120075714Y-106055238D02*
X120170952Y-106007619D01*
X120170952Y-106007619D02*
X120409047Y-106007619D01*
X120409047Y-106007619D02*
X120551904Y-106055238D01*
X120885238Y-106007619D02*
X121123333Y-107007619D01*
X121123333Y-107007619D02*
X121313809Y-106293333D01*
X121313809Y-106293333D02*
X121504285Y-107007619D01*
X121504285Y-107007619D02*
X121742381Y-106007619D01*
X122123333Y-107007619D02*
X122123333Y-106007619D01*
X122123333Y-106007619D02*
X122361428Y-106007619D01*
X122361428Y-106007619D02*
X122504285Y-106055238D01*
X122504285Y-106055238D02*
X122599523Y-106150476D01*
X122599523Y-106150476D02*
X122647142Y-106245714D01*
X122647142Y-106245714D02*
X122694761Y-106436190D01*
X122694761Y-106436190D02*
X122694761Y-106579047D01*
X122694761Y-106579047D02*
X122647142Y-106769523D01*
X122647142Y-106769523D02*
X122599523Y-106864761D01*
X122599523Y-106864761D02*
X122504285Y-106960000D01*
X122504285Y-106960000D02*
X122361428Y-107007619D01*
X122361428Y-107007619D02*
X122123333Y-107007619D01*
X34899504Y-92956038D02*
X34804266Y-92908419D01*
X34804266Y-92908419D02*
X34661409Y-92908419D01*
X34661409Y-92908419D02*
X34518552Y-92956038D01*
X34518552Y-92956038D02*
X34423314Y-93051276D01*
X34423314Y-93051276D02*
X34375695Y-93146514D01*
X34375695Y-93146514D02*
X34328076Y-93336990D01*
X34328076Y-93336990D02*
X34328076Y-93479847D01*
X34328076Y-93479847D02*
X34375695Y-93670323D01*
X34375695Y-93670323D02*
X34423314Y-93765561D01*
X34423314Y-93765561D02*
X34518552Y-93860800D01*
X34518552Y-93860800D02*
X34661409Y-93908419D01*
X34661409Y-93908419D02*
X34756647Y-93908419D01*
X34756647Y-93908419D02*
X34899504Y-93860800D01*
X34899504Y-93860800D02*
X34947123Y-93813180D01*
X34947123Y-93813180D02*
X34947123Y-93479847D01*
X34947123Y-93479847D02*
X34756647Y-93479847D01*
X35375695Y-93908419D02*
X35375695Y-92908419D01*
X35375695Y-92908419D02*
X35947123Y-93908419D01*
X35947123Y-93908419D02*
X35947123Y-92908419D01*
X36423314Y-93908419D02*
X36423314Y-92908419D01*
X36423314Y-92908419D02*
X36661409Y-92908419D01*
X36661409Y-92908419D02*
X36804266Y-92956038D01*
X36804266Y-92956038D02*
X36899504Y-93051276D01*
X36899504Y-93051276D02*
X36947123Y-93146514D01*
X36947123Y-93146514D02*
X36994742Y-93336990D01*
X36994742Y-93336990D02*
X36994742Y-93479847D01*
X36994742Y-93479847D02*
X36947123Y-93670323D01*
X36947123Y-93670323D02*
X36899504Y-93765561D01*
X36899504Y-93765561D02*
X36804266Y-93860800D01*
X36804266Y-93860800D02*
X36661409Y-93908419D01*
X36661409Y-93908419D02*
X36423314Y-93908419D01*
X173271428Y-104617619D02*
X173604761Y-105617619D01*
X173604761Y-105617619D02*
X173938094Y-104617619D01*
X174271428Y-105617619D02*
X174271428Y-104617619D01*
X174271428Y-104617619D02*
X174509523Y-104617619D01*
X174509523Y-104617619D02*
X174652380Y-104665238D01*
X174652380Y-104665238D02*
X174747618Y-104760476D01*
X174747618Y-104760476D02*
X174795237Y-104855714D01*
X174795237Y-104855714D02*
X174842856Y-105046190D01*
X174842856Y-105046190D02*
X174842856Y-105189047D01*
X174842856Y-105189047D02*
X174795237Y-105379523D01*
X174795237Y-105379523D02*
X174747618Y-105474761D01*
X174747618Y-105474761D02*
X174652380Y-105570000D01*
X174652380Y-105570000D02*
X174509523Y-105617619D01*
X174509523Y-105617619D02*
X174271428Y-105617619D01*
X175271428Y-105617619D02*
X175271428Y-104617619D01*
X175271428Y-104617619D02*
X175509523Y-104617619D01*
X175509523Y-104617619D02*
X175652380Y-104665238D01*
X175652380Y-104665238D02*
X175747618Y-104760476D01*
X175747618Y-104760476D02*
X175795237Y-104855714D01*
X175795237Y-104855714D02*
X175842856Y-105046190D01*
X175842856Y-105046190D02*
X175842856Y-105189047D01*
X175842856Y-105189047D02*
X175795237Y-105379523D01*
X175795237Y-105379523D02*
X175747618Y-105474761D01*
X175747618Y-105474761D02*
X175652380Y-105570000D01*
X175652380Y-105570000D02*
X175509523Y-105617619D01*
X175509523Y-105617619D02*
X175271428Y-105617619D01*
X176033333Y-105712857D02*
X176795237Y-105712857D01*
X177033333Y-105617619D02*
X177033333Y-104617619D01*
X177033333Y-104617619D02*
X177604761Y-105617619D01*
X177604761Y-105617619D02*
X177604761Y-104617619D01*
X178652380Y-105617619D02*
X178319047Y-105141428D01*
X178080952Y-105617619D02*
X178080952Y-104617619D01*
X178080952Y-104617619D02*
X178461904Y-104617619D01*
X178461904Y-104617619D02*
X178557142Y-104665238D01*
X178557142Y-104665238D02*
X178604761Y-104712857D01*
X178604761Y-104712857D02*
X178652380Y-104808095D01*
X178652380Y-104808095D02*
X178652380Y-104950952D01*
X178652380Y-104950952D02*
X178604761Y-105046190D01*
X178604761Y-105046190D02*
X178557142Y-105093809D01*
X178557142Y-105093809D02*
X178461904Y-105141428D01*
X178461904Y-105141428D02*
X178080952Y-105141428D01*
X179414285Y-105093809D02*
X179080952Y-105093809D01*
X179080952Y-105617619D02*
X179080952Y-104617619D01*
X179080952Y-104617619D02*
X179557142Y-104617619D01*
X168954285Y-108525238D02*
X168859047Y-108477619D01*
X168859047Y-108477619D02*
X168716190Y-108477619D01*
X168716190Y-108477619D02*
X168573333Y-108525238D01*
X168573333Y-108525238D02*
X168478095Y-108620476D01*
X168478095Y-108620476D02*
X168430476Y-108715714D01*
X168430476Y-108715714D02*
X168382857Y-108906190D01*
X168382857Y-108906190D02*
X168382857Y-109049047D01*
X168382857Y-109049047D02*
X168430476Y-109239523D01*
X168430476Y-109239523D02*
X168478095Y-109334761D01*
X168478095Y-109334761D02*
X168573333Y-109430000D01*
X168573333Y-109430000D02*
X168716190Y-109477619D01*
X168716190Y-109477619D02*
X168811428Y-109477619D01*
X168811428Y-109477619D02*
X168954285Y-109430000D01*
X168954285Y-109430000D02*
X169001904Y-109382380D01*
X169001904Y-109382380D02*
X169001904Y-109049047D01*
X169001904Y-109049047D02*
X168811428Y-109049047D01*
X169430476Y-109477619D02*
X169430476Y-108477619D01*
X169430476Y-108477619D02*
X170001904Y-109477619D01*
X170001904Y-109477619D02*
X170001904Y-108477619D01*
X170478095Y-109477619D02*
X170478095Y-108477619D01*
X170478095Y-108477619D02*
X170716190Y-108477619D01*
X170716190Y-108477619D02*
X170859047Y-108525238D01*
X170859047Y-108525238D02*
X170954285Y-108620476D01*
X170954285Y-108620476D02*
X171001904Y-108715714D01*
X171001904Y-108715714D02*
X171049523Y-108906190D01*
X171049523Y-108906190D02*
X171049523Y-109049047D01*
X171049523Y-109049047D02*
X171001904Y-109239523D01*
X171001904Y-109239523D02*
X170954285Y-109334761D01*
X170954285Y-109334761D02*
X170859047Y-109430000D01*
X170859047Y-109430000D02*
X170716190Y-109477619D01*
X170716190Y-109477619D02*
X170478095Y-109477619D01*
X165495713Y-110797619D02*
X165162380Y-110321428D01*
X164924285Y-110797619D02*
X164924285Y-109797619D01*
X164924285Y-109797619D02*
X165305237Y-109797619D01*
X165305237Y-109797619D02*
X165400475Y-109845238D01*
X165400475Y-109845238D02*
X165448094Y-109892857D01*
X165448094Y-109892857D02*
X165495713Y-109988095D01*
X165495713Y-109988095D02*
X165495713Y-110130952D01*
X165495713Y-110130952D02*
X165448094Y-110226190D01*
X165448094Y-110226190D02*
X165400475Y-110273809D01*
X165400475Y-110273809D02*
X165305237Y-110321428D01*
X165305237Y-110321428D02*
X164924285Y-110321428D01*
X165924285Y-110273809D02*
X166257618Y-110273809D01*
X166400475Y-110797619D02*
X165924285Y-110797619D01*
X165924285Y-110797619D02*
X165924285Y-109797619D01*
X165924285Y-109797619D02*
X166400475Y-109797619D01*
X166781428Y-110750000D02*
X166924285Y-110797619D01*
X166924285Y-110797619D02*
X167162380Y-110797619D01*
X167162380Y-110797619D02*
X167257618Y-110750000D01*
X167257618Y-110750000D02*
X167305237Y-110702380D01*
X167305237Y-110702380D02*
X167352856Y-110607142D01*
X167352856Y-110607142D02*
X167352856Y-110511904D01*
X167352856Y-110511904D02*
X167305237Y-110416666D01*
X167305237Y-110416666D02*
X167257618Y-110369047D01*
X167257618Y-110369047D02*
X167162380Y-110321428D01*
X167162380Y-110321428D02*
X166971904Y-110273809D01*
X166971904Y-110273809D02*
X166876666Y-110226190D01*
X166876666Y-110226190D02*
X166829047Y-110178571D01*
X166829047Y-110178571D02*
X166781428Y-110083333D01*
X166781428Y-110083333D02*
X166781428Y-109988095D01*
X166781428Y-109988095D02*
X166829047Y-109892857D01*
X166829047Y-109892857D02*
X166876666Y-109845238D01*
X166876666Y-109845238D02*
X166971904Y-109797619D01*
X166971904Y-109797619D02*
X167209999Y-109797619D01*
X167209999Y-109797619D02*
X167352856Y-109845238D01*
X167781428Y-110273809D02*
X168114761Y-110273809D01*
X168257618Y-110797619D02*
X167781428Y-110797619D01*
X167781428Y-110797619D02*
X167781428Y-109797619D01*
X167781428Y-109797619D02*
X168257618Y-109797619D01*
X168543333Y-109797619D02*
X169114761Y-109797619D01*
X168829047Y-110797619D02*
X168829047Y-109797619D01*
X260414838Y-92944619D02*
X260748171Y-93944619D01*
X260748171Y-93944619D02*
X261081504Y-92944619D01*
X261748171Y-93420809D02*
X261891028Y-93468428D01*
X261891028Y-93468428D02*
X261938647Y-93516047D01*
X261938647Y-93516047D02*
X261986266Y-93611285D01*
X261986266Y-93611285D02*
X261986266Y-93754142D01*
X261986266Y-93754142D02*
X261938647Y-93849380D01*
X261938647Y-93849380D02*
X261891028Y-93897000D01*
X261891028Y-93897000D02*
X261795790Y-93944619D01*
X261795790Y-93944619D02*
X261414838Y-93944619D01*
X261414838Y-93944619D02*
X261414838Y-92944619D01*
X261414838Y-92944619D02*
X261748171Y-92944619D01*
X261748171Y-92944619D02*
X261843409Y-92992238D01*
X261843409Y-92992238D02*
X261891028Y-93039857D01*
X261891028Y-93039857D02*
X261938647Y-93135095D01*
X261938647Y-93135095D02*
X261938647Y-93230333D01*
X261938647Y-93230333D02*
X261891028Y-93325571D01*
X261891028Y-93325571D02*
X261843409Y-93373190D01*
X261843409Y-93373190D02*
X261748171Y-93420809D01*
X261748171Y-93420809D02*
X261414838Y-93420809D01*
X262414838Y-92944619D02*
X262414838Y-93754142D01*
X262414838Y-93754142D02*
X262462457Y-93849380D01*
X262462457Y-93849380D02*
X262510076Y-93897000D01*
X262510076Y-93897000D02*
X262605314Y-93944619D01*
X262605314Y-93944619D02*
X262795790Y-93944619D01*
X262795790Y-93944619D02*
X262891028Y-93897000D01*
X262891028Y-93897000D02*
X262938647Y-93849380D01*
X262938647Y-93849380D02*
X262986266Y-93754142D01*
X262986266Y-93754142D02*
X262986266Y-92944619D01*
X263414838Y-93897000D02*
X263557695Y-93944619D01*
X263557695Y-93944619D02*
X263795790Y-93944619D01*
X263795790Y-93944619D02*
X263891028Y-93897000D01*
X263891028Y-93897000D02*
X263938647Y-93849380D01*
X263938647Y-93849380D02*
X263986266Y-93754142D01*
X263986266Y-93754142D02*
X263986266Y-93658904D01*
X263986266Y-93658904D02*
X263938647Y-93563666D01*
X263938647Y-93563666D02*
X263891028Y-93516047D01*
X263891028Y-93516047D02*
X263795790Y-93468428D01*
X263795790Y-93468428D02*
X263605314Y-93420809D01*
X263605314Y-93420809D02*
X263510076Y-93373190D01*
X263510076Y-93373190D02*
X263462457Y-93325571D01*
X263462457Y-93325571D02*
X263414838Y-93230333D01*
X263414838Y-93230333D02*
X263414838Y-93135095D01*
X263414838Y-93135095D02*
X263462457Y-93039857D01*
X263462457Y-93039857D02*
X263510076Y-92992238D01*
X263510076Y-92992238D02*
X263605314Y-92944619D01*
X263605314Y-92944619D02*
X263843409Y-92944619D01*
X263843409Y-92944619D02*
X263986266Y-92992238D01*
X81695238Y-81527619D02*
X82028571Y-82527619D01*
X82028571Y-82527619D02*
X82361904Y-81527619D01*
X83028571Y-82003809D02*
X83171428Y-82051428D01*
X83171428Y-82051428D02*
X83219047Y-82099047D01*
X83219047Y-82099047D02*
X83266666Y-82194285D01*
X83266666Y-82194285D02*
X83266666Y-82337142D01*
X83266666Y-82337142D02*
X83219047Y-82432380D01*
X83219047Y-82432380D02*
X83171428Y-82480000D01*
X83171428Y-82480000D02*
X83076190Y-82527619D01*
X83076190Y-82527619D02*
X82695238Y-82527619D01*
X82695238Y-82527619D02*
X82695238Y-81527619D01*
X82695238Y-81527619D02*
X83028571Y-81527619D01*
X83028571Y-81527619D02*
X83123809Y-81575238D01*
X83123809Y-81575238D02*
X83171428Y-81622857D01*
X83171428Y-81622857D02*
X83219047Y-81718095D01*
X83219047Y-81718095D02*
X83219047Y-81813333D01*
X83219047Y-81813333D02*
X83171428Y-81908571D01*
X83171428Y-81908571D02*
X83123809Y-81956190D01*
X83123809Y-81956190D02*
X83028571Y-82003809D01*
X83028571Y-82003809D02*
X82695238Y-82003809D01*
X83647619Y-82241904D02*
X84123809Y-82241904D01*
X83552381Y-82527619D02*
X83885714Y-81527619D01*
X83885714Y-81527619D02*
X84219047Y-82527619D01*
X84409524Y-81527619D02*
X84980952Y-81527619D01*
X84695238Y-82527619D02*
X84695238Y-81527619D01*
X20402380Y-47938095D02*
X21402380Y-47938095D01*
X21402380Y-47938095D02*
X21402380Y-48176190D01*
X21402380Y-48176190D02*
X21354761Y-48319047D01*
X21354761Y-48319047D02*
X21259523Y-48414285D01*
X21259523Y-48414285D02*
X21164285Y-48461904D01*
X21164285Y-48461904D02*
X20973809Y-48509523D01*
X20973809Y-48509523D02*
X20830952Y-48509523D01*
X20830952Y-48509523D02*
X20640476Y-48461904D01*
X20640476Y-48461904D02*
X20545238Y-48414285D01*
X20545238Y-48414285D02*
X20450000Y-48319047D01*
X20450000Y-48319047D02*
X20402380Y-48176190D01*
X20402380Y-48176190D02*
X20402380Y-47938095D01*
X20783333Y-48938095D02*
X20783333Y-49700000D01*
X20402380Y-49319047D02*
X21164285Y-49319047D01*
X256174780Y-94559095D02*
X257174780Y-94559095D01*
X257174780Y-94559095D02*
X257174780Y-94797190D01*
X257174780Y-94797190D02*
X257127161Y-94940047D01*
X257127161Y-94940047D02*
X257031923Y-95035285D01*
X257031923Y-95035285D02*
X256936685Y-95082904D01*
X256936685Y-95082904D02*
X256746209Y-95130523D01*
X256746209Y-95130523D02*
X256603352Y-95130523D01*
X256603352Y-95130523D02*
X256412876Y-95082904D01*
X256412876Y-95082904D02*
X256317638Y-95035285D01*
X256317638Y-95035285D02*
X256222400Y-94940047D01*
X256222400Y-94940047D02*
X256174780Y-94797190D01*
X256174780Y-94797190D02*
X256174780Y-94559095D01*
X256555733Y-95559095D02*
X256555733Y-96321000D01*
X82271904Y-79015238D02*
X82176666Y-78967619D01*
X82176666Y-78967619D02*
X82033809Y-78967619D01*
X82033809Y-78967619D02*
X81890952Y-79015238D01*
X81890952Y-79015238D02*
X81795714Y-79110476D01*
X81795714Y-79110476D02*
X81748095Y-79205714D01*
X81748095Y-79205714D02*
X81700476Y-79396190D01*
X81700476Y-79396190D02*
X81700476Y-79539047D01*
X81700476Y-79539047D02*
X81748095Y-79729523D01*
X81748095Y-79729523D02*
X81795714Y-79824761D01*
X81795714Y-79824761D02*
X81890952Y-79920000D01*
X81890952Y-79920000D02*
X82033809Y-79967619D01*
X82033809Y-79967619D02*
X82129047Y-79967619D01*
X82129047Y-79967619D02*
X82271904Y-79920000D01*
X82271904Y-79920000D02*
X82319523Y-79872380D01*
X82319523Y-79872380D02*
X82319523Y-79539047D01*
X82319523Y-79539047D02*
X82129047Y-79539047D01*
X82748095Y-79967619D02*
X82748095Y-78967619D01*
X82748095Y-78967619D02*
X83319523Y-79967619D01*
X83319523Y-79967619D02*
X83319523Y-78967619D01*
X83795714Y-79967619D02*
X83795714Y-78967619D01*
X83795714Y-78967619D02*
X84033809Y-78967619D01*
X84033809Y-78967619D02*
X84176666Y-79015238D01*
X84176666Y-79015238D02*
X84271904Y-79110476D01*
X84271904Y-79110476D02*
X84319523Y-79205714D01*
X84319523Y-79205714D02*
X84367142Y-79396190D01*
X84367142Y-79396190D02*
X84367142Y-79539047D01*
X84367142Y-79539047D02*
X84319523Y-79729523D01*
X84319523Y-79729523D02*
X84271904Y-79824761D01*
X84271904Y-79824761D02*
X84176666Y-79920000D01*
X84176666Y-79920000D02*
X84033809Y-79967619D01*
X84033809Y-79967619D02*
X83795714Y-79967619D01*
X129271904Y-111085238D02*
X129176666Y-111037619D01*
X129176666Y-111037619D02*
X129033809Y-111037619D01*
X129033809Y-111037619D02*
X128890952Y-111085238D01*
X128890952Y-111085238D02*
X128795714Y-111180476D01*
X128795714Y-111180476D02*
X128748095Y-111275714D01*
X128748095Y-111275714D02*
X128700476Y-111466190D01*
X128700476Y-111466190D02*
X128700476Y-111609047D01*
X128700476Y-111609047D02*
X128748095Y-111799523D01*
X128748095Y-111799523D02*
X128795714Y-111894761D01*
X128795714Y-111894761D02*
X128890952Y-111990000D01*
X128890952Y-111990000D02*
X129033809Y-112037619D01*
X129033809Y-112037619D02*
X129129047Y-112037619D01*
X129129047Y-112037619D02*
X129271904Y-111990000D01*
X129271904Y-111990000D02*
X129319523Y-111942380D01*
X129319523Y-111942380D02*
X129319523Y-111609047D01*
X129319523Y-111609047D02*
X129129047Y-111609047D01*
X129748095Y-112037619D02*
X129748095Y-111037619D01*
X129748095Y-111037619D02*
X130319523Y-112037619D01*
X130319523Y-112037619D02*
X130319523Y-111037619D01*
X130795714Y-112037619D02*
X130795714Y-111037619D01*
X130795714Y-111037619D02*
X131033809Y-111037619D01*
X131033809Y-111037619D02*
X131176666Y-111085238D01*
X131176666Y-111085238D02*
X131271904Y-111180476D01*
X131271904Y-111180476D02*
X131319523Y-111275714D01*
X131319523Y-111275714D02*
X131367142Y-111466190D01*
X131367142Y-111466190D02*
X131367142Y-111609047D01*
X131367142Y-111609047D02*
X131319523Y-111799523D01*
X131319523Y-111799523D02*
X131271904Y-111894761D01*
X131271904Y-111894761D02*
X131176666Y-111990000D01*
X131176666Y-111990000D02*
X131033809Y-112037619D01*
X131033809Y-112037619D02*
X130795714Y-112037619D01*
X125001904Y-108505238D02*
X124906666Y-108457619D01*
X124906666Y-108457619D02*
X124763809Y-108457619D01*
X124763809Y-108457619D02*
X124620952Y-108505238D01*
X124620952Y-108505238D02*
X124525714Y-108600476D01*
X124525714Y-108600476D02*
X124478095Y-108695714D01*
X124478095Y-108695714D02*
X124430476Y-108886190D01*
X124430476Y-108886190D02*
X124430476Y-109029047D01*
X124430476Y-109029047D02*
X124478095Y-109219523D01*
X124478095Y-109219523D02*
X124525714Y-109314761D01*
X124525714Y-109314761D02*
X124620952Y-109410000D01*
X124620952Y-109410000D02*
X124763809Y-109457619D01*
X124763809Y-109457619D02*
X124859047Y-109457619D01*
X124859047Y-109457619D02*
X125001904Y-109410000D01*
X125001904Y-109410000D02*
X125049523Y-109362380D01*
X125049523Y-109362380D02*
X125049523Y-109029047D01*
X125049523Y-109029047D02*
X124859047Y-109029047D01*
X125478095Y-109457619D02*
X125478095Y-108457619D01*
X125478095Y-108457619D02*
X126049523Y-109457619D01*
X126049523Y-109457619D02*
X126049523Y-108457619D01*
X126525714Y-109457619D02*
X126525714Y-108457619D01*
X126525714Y-108457619D02*
X126763809Y-108457619D01*
X126763809Y-108457619D02*
X126906666Y-108505238D01*
X126906666Y-108505238D02*
X127001904Y-108600476D01*
X127001904Y-108600476D02*
X127049523Y-108695714D01*
X127049523Y-108695714D02*
X127097142Y-108886190D01*
X127097142Y-108886190D02*
X127097142Y-109029047D01*
X127097142Y-109029047D02*
X127049523Y-109219523D01*
X127049523Y-109219523D02*
X127001904Y-109314761D01*
X127001904Y-109314761D02*
X126906666Y-109410000D01*
X126906666Y-109410000D02*
X126763809Y-109457619D01*
X126763809Y-109457619D02*
X126525714Y-109457619D01*
X122030476Y-108260000D02*
X122173333Y-108307619D01*
X122173333Y-108307619D02*
X122411428Y-108307619D01*
X122411428Y-108307619D02*
X122506666Y-108260000D01*
X122506666Y-108260000D02*
X122554285Y-108212380D01*
X122554285Y-108212380D02*
X122601904Y-108117142D01*
X122601904Y-108117142D02*
X122601904Y-108021904D01*
X122601904Y-108021904D02*
X122554285Y-107926666D01*
X122554285Y-107926666D02*
X122506666Y-107879047D01*
X122506666Y-107879047D02*
X122411428Y-107831428D01*
X122411428Y-107831428D02*
X122220952Y-107783809D01*
X122220952Y-107783809D02*
X122125714Y-107736190D01*
X122125714Y-107736190D02*
X122078095Y-107688571D01*
X122078095Y-107688571D02*
X122030476Y-107593333D01*
X122030476Y-107593333D02*
X122030476Y-107498095D01*
X122030476Y-107498095D02*
X122078095Y-107402857D01*
X122078095Y-107402857D02*
X122125714Y-107355238D01*
X122125714Y-107355238D02*
X122220952Y-107307619D01*
X122220952Y-107307619D02*
X122459047Y-107307619D01*
X122459047Y-107307619D02*
X122601904Y-107355238D01*
X122935238Y-107307619D02*
X123173333Y-108307619D01*
X123173333Y-108307619D02*
X123363809Y-107593333D01*
X123363809Y-107593333D02*
X123554285Y-108307619D01*
X123554285Y-108307619D02*
X123792381Y-107307619D01*
X124744761Y-108212380D02*
X124697142Y-108260000D01*
X124697142Y-108260000D02*
X124554285Y-108307619D01*
X124554285Y-108307619D02*
X124459047Y-108307619D01*
X124459047Y-108307619D02*
X124316190Y-108260000D01*
X124316190Y-108260000D02*
X124220952Y-108164761D01*
X124220952Y-108164761D02*
X124173333Y-108069523D01*
X124173333Y-108069523D02*
X124125714Y-107879047D01*
X124125714Y-107879047D02*
X124125714Y-107736190D01*
X124125714Y-107736190D02*
X124173333Y-107545714D01*
X124173333Y-107545714D02*
X124220952Y-107450476D01*
X124220952Y-107450476D02*
X124316190Y-107355238D01*
X124316190Y-107355238D02*
X124459047Y-107307619D01*
X124459047Y-107307619D02*
X124554285Y-107307619D01*
X124554285Y-107307619D02*
X124697142Y-107355238D01*
X124697142Y-107355238D02*
X124744761Y-107402857D01*
X127079523Y-110777619D02*
X126746190Y-110301428D01*
X126508095Y-110777619D02*
X126508095Y-109777619D01*
X126508095Y-109777619D02*
X126889047Y-109777619D01*
X126889047Y-109777619D02*
X126984285Y-109825238D01*
X126984285Y-109825238D02*
X127031904Y-109872857D01*
X127031904Y-109872857D02*
X127079523Y-109968095D01*
X127079523Y-109968095D02*
X127079523Y-110110952D01*
X127079523Y-110110952D02*
X127031904Y-110206190D01*
X127031904Y-110206190D02*
X126984285Y-110253809D01*
X126984285Y-110253809D02*
X126889047Y-110301428D01*
X126889047Y-110301428D02*
X126508095Y-110301428D01*
X127508095Y-110253809D02*
X127841428Y-110253809D01*
X127984285Y-110777619D02*
X127508095Y-110777619D01*
X127508095Y-110777619D02*
X127508095Y-109777619D01*
X127508095Y-109777619D02*
X127984285Y-109777619D01*
X128365238Y-110730000D02*
X128508095Y-110777619D01*
X128508095Y-110777619D02*
X128746190Y-110777619D01*
X128746190Y-110777619D02*
X128841428Y-110730000D01*
X128841428Y-110730000D02*
X128889047Y-110682380D01*
X128889047Y-110682380D02*
X128936666Y-110587142D01*
X128936666Y-110587142D02*
X128936666Y-110491904D01*
X128936666Y-110491904D02*
X128889047Y-110396666D01*
X128889047Y-110396666D02*
X128841428Y-110349047D01*
X128841428Y-110349047D02*
X128746190Y-110301428D01*
X128746190Y-110301428D02*
X128555714Y-110253809D01*
X128555714Y-110253809D02*
X128460476Y-110206190D01*
X128460476Y-110206190D02*
X128412857Y-110158571D01*
X128412857Y-110158571D02*
X128365238Y-110063333D01*
X128365238Y-110063333D02*
X128365238Y-109968095D01*
X128365238Y-109968095D02*
X128412857Y-109872857D01*
X128412857Y-109872857D02*
X128460476Y-109825238D01*
X128460476Y-109825238D02*
X128555714Y-109777619D01*
X128555714Y-109777619D02*
X128793809Y-109777619D01*
X128793809Y-109777619D02*
X128936666Y-109825238D01*
X129365238Y-110253809D02*
X129698571Y-110253809D01*
X129841428Y-110777619D02*
X129365238Y-110777619D01*
X129365238Y-110777619D02*
X129365238Y-109777619D01*
X129365238Y-109777619D02*
X129841428Y-109777619D01*
X130127143Y-109777619D02*
X130698571Y-109777619D01*
X130412857Y-110777619D02*
X130412857Y-109777619D01*
X226295238Y-60567619D02*
X226628571Y-61567619D01*
X226628571Y-61567619D02*
X226961904Y-60567619D01*
X227628571Y-61043809D02*
X227771428Y-61091428D01*
X227771428Y-61091428D02*
X227819047Y-61139047D01*
X227819047Y-61139047D02*
X227866666Y-61234285D01*
X227866666Y-61234285D02*
X227866666Y-61377142D01*
X227866666Y-61377142D02*
X227819047Y-61472380D01*
X227819047Y-61472380D02*
X227771428Y-61520000D01*
X227771428Y-61520000D02*
X227676190Y-61567619D01*
X227676190Y-61567619D02*
X227295238Y-61567619D01*
X227295238Y-61567619D02*
X227295238Y-60567619D01*
X227295238Y-60567619D02*
X227628571Y-60567619D01*
X227628571Y-60567619D02*
X227723809Y-60615238D01*
X227723809Y-60615238D02*
X227771428Y-60662857D01*
X227771428Y-60662857D02*
X227819047Y-60758095D01*
X227819047Y-60758095D02*
X227819047Y-60853333D01*
X227819047Y-60853333D02*
X227771428Y-60948571D01*
X227771428Y-60948571D02*
X227723809Y-60996190D01*
X227723809Y-60996190D02*
X227628571Y-61043809D01*
X227628571Y-61043809D02*
X227295238Y-61043809D01*
X228295238Y-60567619D02*
X228295238Y-61377142D01*
X228295238Y-61377142D02*
X228342857Y-61472380D01*
X228342857Y-61472380D02*
X228390476Y-61520000D01*
X228390476Y-61520000D02*
X228485714Y-61567619D01*
X228485714Y-61567619D02*
X228676190Y-61567619D01*
X228676190Y-61567619D02*
X228771428Y-61520000D01*
X228771428Y-61520000D02*
X228819047Y-61472380D01*
X228819047Y-61472380D02*
X228866666Y-61377142D01*
X228866666Y-61377142D02*
X228866666Y-60567619D01*
X229295238Y-61520000D02*
X229438095Y-61567619D01*
X229438095Y-61567619D02*
X229676190Y-61567619D01*
X229676190Y-61567619D02*
X229771428Y-61520000D01*
X229771428Y-61520000D02*
X229819047Y-61472380D01*
X229819047Y-61472380D02*
X229866666Y-61377142D01*
X229866666Y-61377142D02*
X229866666Y-61281904D01*
X229866666Y-61281904D02*
X229819047Y-61186666D01*
X229819047Y-61186666D02*
X229771428Y-61139047D01*
X229771428Y-61139047D02*
X229676190Y-61091428D01*
X229676190Y-61091428D02*
X229485714Y-61043809D01*
X229485714Y-61043809D02*
X229390476Y-60996190D01*
X229390476Y-60996190D02*
X229342857Y-60948571D01*
X229342857Y-60948571D02*
X229295238Y-60853333D01*
X229295238Y-60853333D02*
X229295238Y-60758095D01*
X229295238Y-60758095D02*
X229342857Y-60662857D01*
X229342857Y-60662857D02*
X229390476Y-60615238D01*
X229390476Y-60615238D02*
X229485714Y-60567619D01*
X229485714Y-60567619D02*
X229723809Y-60567619D01*
X229723809Y-60567619D02*
X229866666Y-60615238D01*
X115875238Y-104597619D02*
X116208571Y-105597619D01*
X116208571Y-105597619D02*
X116541904Y-104597619D01*
X116875238Y-105597619D02*
X116875238Y-104597619D01*
X116875238Y-104597619D02*
X117113333Y-104597619D01*
X117113333Y-104597619D02*
X117256190Y-104645238D01*
X117256190Y-104645238D02*
X117351428Y-104740476D01*
X117351428Y-104740476D02*
X117399047Y-104835714D01*
X117399047Y-104835714D02*
X117446666Y-105026190D01*
X117446666Y-105026190D02*
X117446666Y-105169047D01*
X117446666Y-105169047D02*
X117399047Y-105359523D01*
X117399047Y-105359523D02*
X117351428Y-105454761D01*
X117351428Y-105454761D02*
X117256190Y-105550000D01*
X117256190Y-105550000D02*
X117113333Y-105597619D01*
X117113333Y-105597619D02*
X116875238Y-105597619D01*
X117875238Y-105597619D02*
X117875238Y-104597619D01*
X117875238Y-104597619D02*
X118113333Y-104597619D01*
X118113333Y-104597619D02*
X118256190Y-104645238D01*
X118256190Y-104645238D02*
X118351428Y-104740476D01*
X118351428Y-104740476D02*
X118399047Y-104835714D01*
X118399047Y-104835714D02*
X118446666Y-105026190D01*
X118446666Y-105026190D02*
X118446666Y-105169047D01*
X118446666Y-105169047D02*
X118399047Y-105359523D01*
X118399047Y-105359523D02*
X118351428Y-105454761D01*
X118351428Y-105454761D02*
X118256190Y-105550000D01*
X118256190Y-105550000D02*
X118113333Y-105597619D01*
X118113333Y-105597619D02*
X117875238Y-105597619D01*
X118637143Y-105692857D02*
X119399047Y-105692857D01*
X119637143Y-105597619D02*
X119637143Y-104597619D01*
X119637143Y-104597619D02*
X120208571Y-105597619D01*
X120208571Y-105597619D02*
X120208571Y-104597619D01*
X121256190Y-105597619D02*
X120922857Y-105121428D01*
X120684762Y-105597619D02*
X120684762Y-104597619D01*
X120684762Y-104597619D02*
X121065714Y-104597619D01*
X121065714Y-104597619D02*
X121160952Y-104645238D01*
X121160952Y-104645238D02*
X121208571Y-104692857D01*
X121208571Y-104692857D02*
X121256190Y-104788095D01*
X121256190Y-104788095D02*
X121256190Y-104930952D01*
X121256190Y-104930952D02*
X121208571Y-105026190D01*
X121208571Y-105026190D02*
X121160952Y-105073809D01*
X121160952Y-105073809D02*
X121065714Y-105121428D01*
X121065714Y-105121428D02*
X120684762Y-105121428D01*
X122018095Y-105073809D02*
X121684762Y-105073809D01*
X121684762Y-105597619D02*
X121684762Y-104597619D01*
X121684762Y-104597619D02*
X122160952Y-104597619D01*
X219731904Y-60585238D02*
X219636666Y-60537619D01*
X219636666Y-60537619D02*
X219493809Y-60537619D01*
X219493809Y-60537619D02*
X219350952Y-60585238D01*
X219350952Y-60585238D02*
X219255714Y-60680476D01*
X219255714Y-60680476D02*
X219208095Y-60775714D01*
X219208095Y-60775714D02*
X219160476Y-60966190D01*
X219160476Y-60966190D02*
X219160476Y-61109047D01*
X219160476Y-61109047D02*
X219208095Y-61299523D01*
X219208095Y-61299523D02*
X219255714Y-61394761D01*
X219255714Y-61394761D02*
X219350952Y-61490000D01*
X219350952Y-61490000D02*
X219493809Y-61537619D01*
X219493809Y-61537619D02*
X219589047Y-61537619D01*
X219589047Y-61537619D02*
X219731904Y-61490000D01*
X219731904Y-61490000D02*
X219779523Y-61442380D01*
X219779523Y-61442380D02*
X219779523Y-61109047D01*
X219779523Y-61109047D02*
X219589047Y-61109047D01*
X220208095Y-61537619D02*
X220208095Y-60537619D01*
X220208095Y-60537619D02*
X220779523Y-61537619D01*
X220779523Y-61537619D02*
X220779523Y-60537619D01*
X221255714Y-61537619D02*
X221255714Y-60537619D01*
X221255714Y-60537619D02*
X221493809Y-60537619D01*
X221493809Y-60537619D02*
X221636666Y-60585238D01*
X221636666Y-60585238D02*
X221731904Y-60680476D01*
X221731904Y-60680476D02*
X221779523Y-60775714D01*
X221779523Y-60775714D02*
X221827142Y-60966190D01*
X221827142Y-60966190D02*
X221827142Y-61109047D01*
X221827142Y-61109047D02*
X221779523Y-61299523D01*
X221779523Y-61299523D02*
X221731904Y-61394761D01*
X221731904Y-61394761D02*
X221636666Y-61490000D01*
X221636666Y-61490000D02*
X221493809Y-61537619D01*
X221493809Y-61537619D02*
X221255714Y-61537619D01*
X22885238Y-46677619D02*
X23218571Y-47677619D01*
X23218571Y-47677619D02*
X23551904Y-46677619D01*
X24218571Y-47153809D02*
X24361428Y-47201428D01*
X24361428Y-47201428D02*
X24409047Y-47249047D01*
X24409047Y-47249047D02*
X24456666Y-47344285D01*
X24456666Y-47344285D02*
X24456666Y-47487142D01*
X24456666Y-47487142D02*
X24409047Y-47582380D01*
X24409047Y-47582380D02*
X24361428Y-47630000D01*
X24361428Y-47630000D02*
X24266190Y-47677619D01*
X24266190Y-47677619D02*
X23885238Y-47677619D01*
X23885238Y-47677619D02*
X23885238Y-46677619D01*
X23885238Y-46677619D02*
X24218571Y-46677619D01*
X24218571Y-46677619D02*
X24313809Y-46725238D01*
X24313809Y-46725238D02*
X24361428Y-46772857D01*
X24361428Y-46772857D02*
X24409047Y-46868095D01*
X24409047Y-46868095D02*
X24409047Y-46963333D01*
X24409047Y-46963333D02*
X24361428Y-47058571D01*
X24361428Y-47058571D02*
X24313809Y-47106190D01*
X24313809Y-47106190D02*
X24218571Y-47153809D01*
X24218571Y-47153809D02*
X23885238Y-47153809D01*
X24885238Y-46677619D02*
X24885238Y-47487142D01*
X24885238Y-47487142D02*
X24932857Y-47582380D01*
X24932857Y-47582380D02*
X24980476Y-47630000D01*
X24980476Y-47630000D02*
X25075714Y-47677619D01*
X25075714Y-47677619D02*
X25266190Y-47677619D01*
X25266190Y-47677619D02*
X25361428Y-47630000D01*
X25361428Y-47630000D02*
X25409047Y-47582380D01*
X25409047Y-47582380D02*
X25456666Y-47487142D01*
X25456666Y-47487142D02*
X25456666Y-46677619D01*
X25885238Y-47630000D02*
X26028095Y-47677619D01*
X26028095Y-47677619D02*
X26266190Y-47677619D01*
X26266190Y-47677619D02*
X26361428Y-47630000D01*
X26361428Y-47630000D02*
X26409047Y-47582380D01*
X26409047Y-47582380D02*
X26456666Y-47487142D01*
X26456666Y-47487142D02*
X26456666Y-47391904D01*
X26456666Y-47391904D02*
X26409047Y-47296666D01*
X26409047Y-47296666D02*
X26361428Y-47249047D01*
X26361428Y-47249047D02*
X26266190Y-47201428D01*
X26266190Y-47201428D02*
X26075714Y-47153809D01*
X26075714Y-47153809D02*
X25980476Y-47106190D01*
X25980476Y-47106190D02*
X25932857Y-47058571D01*
X25932857Y-47058571D02*
X25885238Y-46963333D01*
X25885238Y-46963333D02*
X25885238Y-46868095D01*
X25885238Y-46868095D02*
X25932857Y-46772857D01*
X25932857Y-46772857D02*
X25980476Y-46725238D01*
X25980476Y-46725238D02*
X26075714Y-46677619D01*
X26075714Y-46677619D02*
X26313809Y-46677619D01*
X26313809Y-46677619D02*
X26456666Y-46725238D01*
X43122838Y-92984619D02*
X43456171Y-93984619D01*
X43456171Y-93984619D02*
X43789504Y-92984619D01*
X44456171Y-93460809D02*
X44599028Y-93508428D01*
X44599028Y-93508428D02*
X44646647Y-93556047D01*
X44646647Y-93556047D02*
X44694266Y-93651285D01*
X44694266Y-93651285D02*
X44694266Y-93794142D01*
X44694266Y-93794142D02*
X44646647Y-93889380D01*
X44646647Y-93889380D02*
X44599028Y-93937000D01*
X44599028Y-93937000D02*
X44503790Y-93984619D01*
X44503790Y-93984619D02*
X44122838Y-93984619D01*
X44122838Y-93984619D02*
X44122838Y-92984619D01*
X44122838Y-92984619D02*
X44456171Y-92984619D01*
X44456171Y-92984619D02*
X44551409Y-93032238D01*
X44551409Y-93032238D02*
X44599028Y-93079857D01*
X44599028Y-93079857D02*
X44646647Y-93175095D01*
X44646647Y-93175095D02*
X44646647Y-93270333D01*
X44646647Y-93270333D02*
X44599028Y-93365571D01*
X44599028Y-93365571D02*
X44551409Y-93413190D01*
X44551409Y-93413190D02*
X44456171Y-93460809D01*
X44456171Y-93460809D02*
X44122838Y-93460809D01*
X45122838Y-92984619D02*
X45122838Y-93794142D01*
X45122838Y-93794142D02*
X45170457Y-93889380D01*
X45170457Y-93889380D02*
X45218076Y-93937000D01*
X45218076Y-93937000D02*
X45313314Y-93984619D01*
X45313314Y-93984619D02*
X45503790Y-93984619D01*
X45503790Y-93984619D02*
X45599028Y-93937000D01*
X45599028Y-93937000D02*
X45646647Y-93889380D01*
X45646647Y-93889380D02*
X45694266Y-93794142D01*
X45694266Y-93794142D02*
X45694266Y-92984619D01*
X46122838Y-93937000D02*
X46265695Y-93984619D01*
X46265695Y-93984619D02*
X46503790Y-93984619D01*
X46503790Y-93984619D02*
X46599028Y-93937000D01*
X46599028Y-93937000D02*
X46646647Y-93889380D01*
X46646647Y-93889380D02*
X46694266Y-93794142D01*
X46694266Y-93794142D02*
X46694266Y-93698904D01*
X46694266Y-93698904D02*
X46646647Y-93603666D01*
X46646647Y-93603666D02*
X46599028Y-93556047D01*
X46599028Y-93556047D02*
X46503790Y-93508428D01*
X46503790Y-93508428D02*
X46313314Y-93460809D01*
X46313314Y-93460809D02*
X46218076Y-93413190D01*
X46218076Y-93413190D02*
X46170457Y-93365571D01*
X46170457Y-93365571D02*
X46122838Y-93270333D01*
X46122838Y-93270333D02*
X46122838Y-93175095D01*
X46122838Y-93175095D02*
X46170457Y-93079857D01*
X46170457Y-93079857D02*
X46218076Y-93032238D01*
X46218076Y-93032238D02*
X46313314Y-92984619D01*
X46313314Y-92984619D02*
X46551409Y-92984619D01*
X46551409Y-92984619D02*
X46694266Y-93032238D01*
X258084780Y-94599095D02*
X259084780Y-94599095D01*
X259084780Y-94599095D02*
X259084780Y-94837190D01*
X259084780Y-94837190D02*
X259037161Y-94980047D01*
X259037161Y-94980047D02*
X258941923Y-95075285D01*
X258941923Y-95075285D02*
X258846685Y-95122904D01*
X258846685Y-95122904D02*
X258656209Y-95170523D01*
X258656209Y-95170523D02*
X258513352Y-95170523D01*
X258513352Y-95170523D02*
X258322876Y-95122904D01*
X258322876Y-95122904D02*
X258227638Y-95075285D01*
X258227638Y-95075285D02*
X258132400Y-94980047D01*
X258132400Y-94980047D02*
X258084780Y-94837190D01*
X258084780Y-94837190D02*
X258084780Y-94599095D01*
X258465733Y-95599095D02*
X258465733Y-96361000D01*
X258084780Y-95980047D02*
X258846685Y-95980047D01*
X170735238Y-108280000D02*
X170878095Y-108327619D01*
X170878095Y-108327619D02*
X171116190Y-108327619D01*
X171116190Y-108327619D02*
X171211428Y-108280000D01*
X171211428Y-108280000D02*
X171259047Y-108232380D01*
X171259047Y-108232380D02*
X171306666Y-108137142D01*
X171306666Y-108137142D02*
X171306666Y-108041904D01*
X171306666Y-108041904D02*
X171259047Y-107946666D01*
X171259047Y-107946666D02*
X171211428Y-107899047D01*
X171211428Y-107899047D02*
X171116190Y-107851428D01*
X171116190Y-107851428D02*
X170925714Y-107803809D01*
X170925714Y-107803809D02*
X170830476Y-107756190D01*
X170830476Y-107756190D02*
X170782857Y-107708571D01*
X170782857Y-107708571D02*
X170735238Y-107613333D01*
X170735238Y-107613333D02*
X170735238Y-107518095D01*
X170735238Y-107518095D02*
X170782857Y-107422857D01*
X170782857Y-107422857D02*
X170830476Y-107375238D01*
X170830476Y-107375238D02*
X170925714Y-107327619D01*
X170925714Y-107327619D02*
X171163809Y-107327619D01*
X171163809Y-107327619D02*
X171306666Y-107375238D01*
X171640000Y-107327619D02*
X171878095Y-108327619D01*
X171878095Y-108327619D02*
X172068571Y-107613333D01*
X172068571Y-107613333D02*
X172259047Y-108327619D01*
X172259047Y-108327619D02*
X172497143Y-107327619D01*
X173449523Y-108232380D02*
X173401904Y-108280000D01*
X173401904Y-108280000D02*
X173259047Y-108327619D01*
X173259047Y-108327619D02*
X173163809Y-108327619D01*
X173163809Y-108327619D02*
X173020952Y-108280000D01*
X173020952Y-108280000D02*
X172925714Y-108184761D01*
X172925714Y-108184761D02*
X172878095Y-108089523D01*
X172878095Y-108089523D02*
X172830476Y-107899047D01*
X172830476Y-107899047D02*
X172830476Y-107756190D01*
X172830476Y-107756190D02*
X172878095Y-107565714D01*
X172878095Y-107565714D02*
X172925714Y-107470476D01*
X172925714Y-107470476D02*
X173020952Y-107375238D01*
X173020952Y-107375238D02*
X173163809Y-107327619D01*
X173163809Y-107327619D02*
X173259047Y-107327619D01*
X173259047Y-107327619D02*
X173401904Y-107375238D01*
X173401904Y-107375238D02*
X173449523Y-107422857D01*
X40792780Y-94639095D02*
X41792780Y-94639095D01*
X41792780Y-94639095D02*
X41792780Y-94877190D01*
X41792780Y-94877190D02*
X41745161Y-95020047D01*
X41745161Y-95020047D02*
X41649923Y-95115285D01*
X41649923Y-95115285D02*
X41554685Y-95162904D01*
X41554685Y-95162904D02*
X41364209Y-95210523D01*
X41364209Y-95210523D02*
X41221352Y-95210523D01*
X41221352Y-95210523D02*
X41030876Y-95162904D01*
X41030876Y-95162904D02*
X40935638Y-95115285D01*
X40935638Y-95115285D02*
X40840400Y-95020047D01*
X40840400Y-95020047D02*
X40792780Y-94877190D01*
X40792780Y-94877190D02*
X40792780Y-94639095D01*
X41173733Y-95639095D02*
X41173733Y-96401000D01*
X40792780Y-96020047D02*
X41554685Y-96020047D01*
X76861904Y-60595238D02*
X76766666Y-60547619D01*
X76766666Y-60547619D02*
X76623809Y-60547619D01*
X76623809Y-60547619D02*
X76480952Y-60595238D01*
X76480952Y-60595238D02*
X76385714Y-60690476D01*
X76385714Y-60690476D02*
X76338095Y-60785714D01*
X76338095Y-60785714D02*
X76290476Y-60976190D01*
X76290476Y-60976190D02*
X76290476Y-61119047D01*
X76290476Y-61119047D02*
X76338095Y-61309523D01*
X76338095Y-61309523D02*
X76385714Y-61404761D01*
X76385714Y-61404761D02*
X76480952Y-61500000D01*
X76480952Y-61500000D02*
X76623809Y-61547619D01*
X76623809Y-61547619D02*
X76719047Y-61547619D01*
X76719047Y-61547619D02*
X76861904Y-61500000D01*
X76861904Y-61500000D02*
X76909523Y-61452380D01*
X76909523Y-61452380D02*
X76909523Y-61119047D01*
X76909523Y-61119047D02*
X76719047Y-61119047D01*
X77338095Y-61547619D02*
X77338095Y-60547619D01*
X77338095Y-60547619D02*
X77909523Y-61547619D01*
X77909523Y-61547619D02*
X77909523Y-60547619D01*
X78385714Y-61547619D02*
X78385714Y-60547619D01*
X78385714Y-60547619D02*
X78623809Y-60547619D01*
X78623809Y-60547619D02*
X78766666Y-60595238D01*
X78766666Y-60595238D02*
X78861904Y-60690476D01*
X78861904Y-60690476D02*
X78909523Y-60785714D01*
X78909523Y-60785714D02*
X78957142Y-60976190D01*
X78957142Y-60976190D02*
X78957142Y-61119047D01*
X78957142Y-61119047D02*
X78909523Y-61309523D01*
X78909523Y-61309523D02*
X78861904Y-61404761D01*
X78861904Y-61404761D02*
X78766666Y-61500000D01*
X78766666Y-61500000D02*
X78623809Y-61547619D01*
X78623809Y-61547619D02*
X78385714Y-61547619D01*
X18492380Y-47898095D02*
X19492380Y-47898095D01*
X19492380Y-47898095D02*
X19492380Y-48136190D01*
X19492380Y-48136190D02*
X19444761Y-48279047D01*
X19444761Y-48279047D02*
X19349523Y-48374285D01*
X19349523Y-48374285D02*
X19254285Y-48421904D01*
X19254285Y-48421904D02*
X19063809Y-48469523D01*
X19063809Y-48469523D02*
X18920952Y-48469523D01*
X18920952Y-48469523D02*
X18730476Y-48421904D01*
X18730476Y-48421904D02*
X18635238Y-48374285D01*
X18635238Y-48374285D02*
X18540000Y-48279047D01*
X18540000Y-48279047D02*
X18492380Y-48136190D01*
X18492380Y-48136190D02*
X18492380Y-47898095D01*
X18873333Y-48898095D02*
X18873333Y-49660000D01*
X215695238Y-81577619D02*
X216028571Y-82577619D01*
X216028571Y-82577619D02*
X216361904Y-81577619D01*
X217028571Y-82053809D02*
X217171428Y-82101428D01*
X217171428Y-82101428D02*
X217219047Y-82149047D01*
X217219047Y-82149047D02*
X217266666Y-82244285D01*
X217266666Y-82244285D02*
X217266666Y-82387142D01*
X217266666Y-82387142D02*
X217219047Y-82482380D01*
X217219047Y-82482380D02*
X217171428Y-82530000D01*
X217171428Y-82530000D02*
X217076190Y-82577619D01*
X217076190Y-82577619D02*
X216695238Y-82577619D01*
X216695238Y-82577619D02*
X216695238Y-81577619D01*
X216695238Y-81577619D02*
X217028571Y-81577619D01*
X217028571Y-81577619D02*
X217123809Y-81625238D01*
X217123809Y-81625238D02*
X217171428Y-81672857D01*
X217171428Y-81672857D02*
X217219047Y-81768095D01*
X217219047Y-81768095D02*
X217219047Y-81863333D01*
X217219047Y-81863333D02*
X217171428Y-81958571D01*
X217171428Y-81958571D02*
X217123809Y-82006190D01*
X217123809Y-82006190D02*
X217028571Y-82053809D01*
X217028571Y-82053809D02*
X216695238Y-82053809D01*
X217647619Y-82291904D02*
X218123809Y-82291904D01*
X217552381Y-82577619D02*
X217885714Y-81577619D01*
X217885714Y-81577619D02*
X218219047Y-82577619D01*
X218409524Y-81577619D02*
X218980952Y-81577619D01*
X218695238Y-82577619D02*
X218695238Y-81577619D01*
X278465238Y-46417619D02*
X278798571Y-47417619D01*
X278798571Y-47417619D02*
X279131904Y-46417619D01*
X279798571Y-46893809D02*
X279941428Y-46941428D01*
X279941428Y-46941428D02*
X279989047Y-46989047D01*
X279989047Y-46989047D02*
X280036666Y-47084285D01*
X280036666Y-47084285D02*
X280036666Y-47227142D01*
X280036666Y-47227142D02*
X279989047Y-47322380D01*
X279989047Y-47322380D02*
X279941428Y-47370000D01*
X279941428Y-47370000D02*
X279846190Y-47417619D01*
X279846190Y-47417619D02*
X279465238Y-47417619D01*
X279465238Y-47417619D02*
X279465238Y-46417619D01*
X279465238Y-46417619D02*
X279798571Y-46417619D01*
X279798571Y-46417619D02*
X279893809Y-46465238D01*
X279893809Y-46465238D02*
X279941428Y-46512857D01*
X279941428Y-46512857D02*
X279989047Y-46608095D01*
X279989047Y-46608095D02*
X279989047Y-46703333D01*
X279989047Y-46703333D02*
X279941428Y-46798571D01*
X279941428Y-46798571D02*
X279893809Y-46846190D01*
X279893809Y-46846190D02*
X279798571Y-46893809D01*
X279798571Y-46893809D02*
X279465238Y-46893809D01*
X280465238Y-46417619D02*
X280465238Y-47227142D01*
X280465238Y-47227142D02*
X280512857Y-47322380D01*
X280512857Y-47322380D02*
X280560476Y-47370000D01*
X280560476Y-47370000D02*
X280655714Y-47417619D01*
X280655714Y-47417619D02*
X280846190Y-47417619D01*
X280846190Y-47417619D02*
X280941428Y-47370000D01*
X280941428Y-47370000D02*
X280989047Y-47322380D01*
X280989047Y-47322380D02*
X281036666Y-47227142D01*
X281036666Y-47227142D02*
X281036666Y-46417619D01*
X281465238Y-47370000D02*
X281608095Y-47417619D01*
X281608095Y-47417619D02*
X281846190Y-47417619D01*
X281846190Y-47417619D02*
X281941428Y-47370000D01*
X281941428Y-47370000D02*
X281989047Y-47322380D01*
X281989047Y-47322380D02*
X282036666Y-47227142D01*
X282036666Y-47227142D02*
X282036666Y-47131904D01*
X282036666Y-47131904D02*
X281989047Y-47036666D01*
X281989047Y-47036666D02*
X281941428Y-46989047D01*
X281941428Y-46989047D02*
X281846190Y-46941428D01*
X281846190Y-46941428D02*
X281655714Y-46893809D01*
X281655714Y-46893809D02*
X281560476Y-46846190D01*
X281560476Y-46846190D02*
X281512857Y-46798571D01*
X281512857Y-46798571D02*
X281465238Y-46703333D01*
X281465238Y-46703333D02*
X281465238Y-46608095D01*
X281465238Y-46608095D02*
X281512857Y-46512857D01*
X281512857Y-46512857D02*
X281560476Y-46465238D01*
X281560476Y-46465238D02*
X281655714Y-46417619D01*
X281655714Y-46417619D02*
X281893809Y-46417619D01*
X281893809Y-46417619D02*
X282036666Y-46465238D01*
X99058095Y-62937619D02*
X99058095Y-61937619D01*
X99058095Y-62413809D02*
X99629523Y-62413809D01*
X99629523Y-62937619D02*
X99629523Y-61937619D01*
D11*
%TO.C,SW19*%
X83534476Y-91163000D02*
X83677333Y-91210619D01*
X83677333Y-91210619D02*
X83915428Y-91210619D01*
X83915428Y-91210619D02*
X84010666Y-91163000D01*
X84010666Y-91163000D02*
X84058285Y-91115380D01*
X84058285Y-91115380D02*
X84105904Y-91020142D01*
X84105904Y-91020142D02*
X84105904Y-90924904D01*
X84105904Y-90924904D02*
X84058285Y-90829666D01*
X84058285Y-90829666D02*
X84010666Y-90782047D01*
X84010666Y-90782047D02*
X83915428Y-90734428D01*
X83915428Y-90734428D02*
X83724952Y-90686809D01*
X83724952Y-90686809D02*
X83629714Y-90639190D01*
X83629714Y-90639190D02*
X83582095Y-90591571D01*
X83582095Y-90591571D02*
X83534476Y-90496333D01*
X83534476Y-90496333D02*
X83534476Y-90401095D01*
X83534476Y-90401095D02*
X83582095Y-90305857D01*
X83582095Y-90305857D02*
X83629714Y-90258238D01*
X83629714Y-90258238D02*
X83724952Y-90210619D01*
X83724952Y-90210619D02*
X83963047Y-90210619D01*
X83963047Y-90210619D02*
X84105904Y-90258238D01*
X84439238Y-90210619D02*
X84677333Y-91210619D01*
X84677333Y-91210619D02*
X84867809Y-90496333D01*
X84867809Y-90496333D02*
X85058285Y-91210619D01*
X85058285Y-91210619D02*
X85296381Y-90210619D01*
X86201142Y-91210619D02*
X85629714Y-91210619D01*
X85915428Y-91210619D02*
X85915428Y-90210619D01*
X85915428Y-90210619D02*
X85820190Y-90353476D01*
X85820190Y-90353476D02*
X85724952Y-90448714D01*
X85724952Y-90448714D02*
X85629714Y-90496333D01*
X86677333Y-91210619D02*
X86867809Y-91210619D01*
X86867809Y-91210619D02*
X86963047Y-91163000D01*
X86963047Y-91163000D02*
X87010666Y-91115380D01*
X87010666Y-91115380D02*
X87105904Y-90972523D01*
X87105904Y-90972523D02*
X87153523Y-90782047D01*
X87153523Y-90782047D02*
X87153523Y-90401095D01*
X87153523Y-90401095D02*
X87105904Y-90305857D01*
X87105904Y-90305857D02*
X87058285Y-90258238D01*
X87058285Y-90258238D02*
X86963047Y-90210619D01*
X86963047Y-90210619D02*
X86772571Y-90210619D01*
X86772571Y-90210619D02*
X86677333Y-90258238D01*
X86677333Y-90258238D02*
X86629714Y-90305857D01*
X86629714Y-90305857D02*
X86582095Y-90401095D01*
X86582095Y-90401095D02*
X86582095Y-90639190D01*
X86582095Y-90639190D02*
X86629714Y-90734428D01*
X86629714Y-90734428D02*
X86677333Y-90782047D01*
X86677333Y-90782047D02*
X86772571Y-90829666D01*
X86772571Y-90829666D02*
X86963047Y-90829666D01*
X86963047Y-90829666D02*
X87058285Y-90782047D01*
X87058285Y-90782047D02*
X87105904Y-90734428D01*
X87105904Y-90734428D02*
X87153523Y-90639190D01*
%TO.C,SW2*%
X36766667Y-38015000D02*
X36909524Y-38062619D01*
X36909524Y-38062619D02*
X37147619Y-38062619D01*
X37147619Y-38062619D02*
X37242857Y-38015000D01*
X37242857Y-38015000D02*
X37290476Y-37967380D01*
X37290476Y-37967380D02*
X37338095Y-37872142D01*
X37338095Y-37872142D02*
X37338095Y-37776904D01*
X37338095Y-37776904D02*
X37290476Y-37681666D01*
X37290476Y-37681666D02*
X37242857Y-37634047D01*
X37242857Y-37634047D02*
X37147619Y-37586428D01*
X37147619Y-37586428D02*
X36957143Y-37538809D01*
X36957143Y-37538809D02*
X36861905Y-37491190D01*
X36861905Y-37491190D02*
X36814286Y-37443571D01*
X36814286Y-37443571D02*
X36766667Y-37348333D01*
X36766667Y-37348333D02*
X36766667Y-37253095D01*
X36766667Y-37253095D02*
X36814286Y-37157857D01*
X36814286Y-37157857D02*
X36861905Y-37110238D01*
X36861905Y-37110238D02*
X36957143Y-37062619D01*
X36957143Y-37062619D02*
X37195238Y-37062619D01*
X37195238Y-37062619D02*
X37338095Y-37110238D01*
X37671429Y-37062619D02*
X37909524Y-38062619D01*
X37909524Y-38062619D02*
X38100000Y-37348333D01*
X38100000Y-37348333D02*
X38290476Y-38062619D01*
X38290476Y-38062619D02*
X38528572Y-37062619D01*
X38861905Y-37157857D02*
X38909524Y-37110238D01*
X38909524Y-37110238D02*
X39004762Y-37062619D01*
X39004762Y-37062619D02*
X39242857Y-37062619D01*
X39242857Y-37062619D02*
X39338095Y-37110238D01*
X39338095Y-37110238D02*
X39385714Y-37157857D01*
X39385714Y-37157857D02*
X39433333Y-37253095D01*
X39433333Y-37253095D02*
X39433333Y-37348333D01*
X39433333Y-37348333D02*
X39385714Y-37491190D01*
X39385714Y-37491190D02*
X38814286Y-38062619D01*
X38814286Y-38062619D02*
X39433333Y-38062619D01*
%TO.C,SW4*%
X74866667Y-31157000D02*
X75009524Y-31204619D01*
X75009524Y-31204619D02*
X75247619Y-31204619D01*
X75247619Y-31204619D02*
X75342857Y-31157000D01*
X75342857Y-31157000D02*
X75390476Y-31109380D01*
X75390476Y-31109380D02*
X75438095Y-31014142D01*
X75438095Y-31014142D02*
X75438095Y-30918904D01*
X75438095Y-30918904D02*
X75390476Y-30823666D01*
X75390476Y-30823666D02*
X75342857Y-30776047D01*
X75342857Y-30776047D02*
X75247619Y-30728428D01*
X75247619Y-30728428D02*
X75057143Y-30680809D01*
X75057143Y-30680809D02*
X74961905Y-30633190D01*
X74961905Y-30633190D02*
X74914286Y-30585571D01*
X74914286Y-30585571D02*
X74866667Y-30490333D01*
X74866667Y-30490333D02*
X74866667Y-30395095D01*
X74866667Y-30395095D02*
X74914286Y-30299857D01*
X74914286Y-30299857D02*
X74961905Y-30252238D01*
X74961905Y-30252238D02*
X75057143Y-30204619D01*
X75057143Y-30204619D02*
X75295238Y-30204619D01*
X75295238Y-30204619D02*
X75438095Y-30252238D01*
X75771429Y-30204619D02*
X76009524Y-31204619D01*
X76009524Y-31204619D02*
X76200000Y-30490333D01*
X76200000Y-30490333D02*
X76390476Y-31204619D01*
X76390476Y-31204619D02*
X76628572Y-30204619D01*
X77438095Y-30537952D02*
X77438095Y-31204619D01*
X77200000Y-30157000D02*
X76961905Y-30871285D01*
X76961905Y-30871285D02*
X77580952Y-30871285D01*
%TO.C,SW15*%
X55340476Y-71351000D02*
X55483333Y-71398619D01*
X55483333Y-71398619D02*
X55721428Y-71398619D01*
X55721428Y-71398619D02*
X55816666Y-71351000D01*
X55816666Y-71351000D02*
X55864285Y-71303380D01*
X55864285Y-71303380D02*
X55911904Y-71208142D01*
X55911904Y-71208142D02*
X55911904Y-71112904D01*
X55911904Y-71112904D02*
X55864285Y-71017666D01*
X55864285Y-71017666D02*
X55816666Y-70970047D01*
X55816666Y-70970047D02*
X55721428Y-70922428D01*
X55721428Y-70922428D02*
X55530952Y-70874809D01*
X55530952Y-70874809D02*
X55435714Y-70827190D01*
X55435714Y-70827190D02*
X55388095Y-70779571D01*
X55388095Y-70779571D02*
X55340476Y-70684333D01*
X55340476Y-70684333D02*
X55340476Y-70589095D01*
X55340476Y-70589095D02*
X55388095Y-70493857D01*
X55388095Y-70493857D02*
X55435714Y-70446238D01*
X55435714Y-70446238D02*
X55530952Y-70398619D01*
X55530952Y-70398619D02*
X55769047Y-70398619D01*
X55769047Y-70398619D02*
X55911904Y-70446238D01*
X56245238Y-70398619D02*
X56483333Y-71398619D01*
X56483333Y-71398619D02*
X56673809Y-70684333D01*
X56673809Y-70684333D02*
X56864285Y-71398619D01*
X56864285Y-71398619D02*
X57102381Y-70398619D01*
X58007142Y-71398619D02*
X57435714Y-71398619D01*
X57721428Y-71398619D02*
X57721428Y-70398619D01*
X57721428Y-70398619D02*
X57626190Y-70541476D01*
X57626190Y-70541476D02*
X57530952Y-70636714D01*
X57530952Y-70636714D02*
X57435714Y-70684333D01*
X58911904Y-70398619D02*
X58435714Y-70398619D01*
X58435714Y-70398619D02*
X58388095Y-70874809D01*
X58388095Y-70874809D02*
X58435714Y-70827190D01*
X58435714Y-70827190D02*
X58530952Y-70779571D01*
X58530952Y-70779571D02*
X58769047Y-70779571D01*
X58769047Y-70779571D02*
X58864285Y-70827190D01*
X58864285Y-70827190D02*
X58911904Y-70874809D01*
X58911904Y-70874809D02*
X58959523Y-70970047D01*
X58959523Y-70970047D02*
X58959523Y-71208142D01*
X58959523Y-71208142D02*
X58911904Y-71303380D01*
X58911904Y-71303380D02*
X58864285Y-71351000D01*
X58864285Y-71351000D02*
X58769047Y-71398619D01*
X58769047Y-71398619D02*
X58530952Y-71398619D01*
X58530952Y-71398619D02*
X58435714Y-71351000D01*
X58435714Y-71351000D02*
X58388095Y-71303380D01*
%TO.C,SW9*%
X55816667Y-52301000D02*
X55959524Y-52348619D01*
X55959524Y-52348619D02*
X56197619Y-52348619D01*
X56197619Y-52348619D02*
X56292857Y-52301000D01*
X56292857Y-52301000D02*
X56340476Y-52253380D01*
X56340476Y-52253380D02*
X56388095Y-52158142D01*
X56388095Y-52158142D02*
X56388095Y-52062904D01*
X56388095Y-52062904D02*
X56340476Y-51967666D01*
X56340476Y-51967666D02*
X56292857Y-51920047D01*
X56292857Y-51920047D02*
X56197619Y-51872428D01*
X56197619Y-51872428D02*
X56007143Y-51824809D01*
X56007143Y-51824809D02*
X55911905Y-51777190D01*
X55911905Y-51777190D02*
X55864286Y-51729571D01*
X55864286Y-51729571D02*
X55816667Y-51634333D01*
X55816667Y-51634333D02*
X55816667Y-51539095D01*
X55816667Y-51539095D02*
X55864286Y-51443857D01*
X55864286Y-51443857D02*
X55911905Y-51396238D01*
X55911905Y-51396238D02*
X56007143Y-51348619D01*
X56007143Y-51348619D02*
X56245238Y-51348619D01*
X56245238Y-51348619D02*
X56388095Y-51396238D01*
X56721429Y-51348619D02*
X56959524Y-52348619D01*
X56959524Y-52348619D02*
X57150000Y-51634333D01*
X57150000Y-51634333D02*
X57340476Y-52348619D01*
X57340476Y-52348619D02*
X57578572Y-51348619D01*
X58007143Y-52348619D02*
X58197619Y-52348619D01*
X58197619Y-52348619D02*
X58292857Y-52301000D01*
X58292857Y-52301000D02*
X58340476Y-52253380D01*
X58340476Y-52253380D02*
X58435714Y-52110523D01*
X58435714Y-52110523D02*
X58483333Y-51920047D01*
X58483333Y-51920047D02*
X58483333Y-51539095D01*
X58483333Y-51539095D02*
X58435714Y-51443857D01*
X58435714Y-51443857D02*
X58388095Y-51396238D01*
X58388095Y-51396238D02*
X58292857Y-51348619D01*
X58292857Y-51348619D02*
X58102381Y-51348619D01*
X58102381Y-51348619D02*
X58007143Y-51396238D01*
X58007143Y-51396238D02*
X57959524Y-51443857D01*
X57959524Y-51443857D02*
X57911905Y-51539095D01*
X57911905Y-51539095D02*
X57911905Y-51777190D01*
X57911905Y-51777190D02*
X57959524Y-51872428D01*
X57959524Y-51872428D02*
X58007143Y-51920047D01*
X58007143Y-51920047D02*
X58102381Y-51967666D01*
X58102381Y-51967666D02*
X58292857Y-51967666D01*
X58292857Y-51967666D02*
X58388095Y-51920047D01*
X58388095Y-51920047D02*
X58435714Y-51872428D01*
X58435714Y-51872428D02*
X58483333Y-51777190D01*
%TO.C,SW39*%
X274415476Y-76115000D02*
X274558333Y-76162619D01*
X274558333Y-76162619D02*
X274796428Y-76162619D01*
X274796428Y-76162619D02*
X274891666Y-76115000D01*
X274891666Y-76115000D02*
X274939285Y-76067380D01*
X274939285Y-76067380D02*
X274986904Y-75972142D01*
X274986904Y-75972142D02*
X274986904Y-75876904D01*
X274986904Y-75876904D02*
X274939285Y-75781666D01*
X274939285Y-75781666D02*
X274891666Y-75734047D01*
X274891666Y-75734047D02*
X274796428Y-75686428D01*
X274796428Y-75686428D02*
X274605952Y-75638809D01*
X274605952Y-75638809D02*
X274510714Y-75591190D01*
X274510714Y-75591190D02*
X274463095Y-75543571D01*
X274463095Y-75543571D02*
X274415476Y-75448333D01*
X274415476Y-75448333D02*
X274415476Y-75353095D01*
X274415476Y-75353095D02*
X274463095Y-75257857D01*
X274463095Y-75257857D02*
X274510714Y-75210238D01*
X274510714Y-75210238D02*
X274605952Y-75162619D01*
X274605952Y-75162619D02*
X274844047Y-75162619D01*
X274844047Y-75162619D02*
X274986904Y-75210238D01*
X275320238Y-75162619D02*
X275558333Y-76162619D01*
X275558333Y-76162619D02*
X275748809Y-75448333D01*
X275748809Y-75448333D02*
X275939285Y-76162619D01*
X275939285Y-76162619D02*
X276177381Y-75162619D01*
X276463095Y-75162619D02*
X277082142Y-75162619D01*
X277082142Y-75162619D02*
X276748809Y-75543571D01*
X276748809Y-75543571D02*
X276891666Y-75543571D01*
X276891666Y-75543571D02*
X276986904Y-75591190D01*
X276986904Y-75591190D02*
X277034523Y-75638809D01*
X277034523Y-75638809D02*
X277082142Y-75734047D01*
X277082142Y-75734047D02*
X277082142Y-75972142D01*
X277082142Y-75972142D02*
X277034523Y-76067380D01*
X277034523Y-76067380D02*
X276986904Y-76115000D01*
X276986904Y-76115000D02*
X276891666Y-76162619D01*
X276891666Y-76162619D02*
X276605952Y-76162619D01*
X276605952Y-76162619D02*
X276510714Y-76115000D01*
X276510714Y-76115000D02*
X276463095Y-76067380D01*
X277558333Y-76162619D02*
X277748809Y-76162619D01*
X277748809Y-76162619D02*
X277844047Y-76115000D01*
X277844047Y-76115000D02*
X277891666Y-76067380D01*
X277891666Y-76067380D02*
X277986904Y-75924523D01*
X277986904Y-75924523D02*
X278034523Y-75734047D01*
X278034523Y-75734047D02*
X278034523Y-75353095D01*
X278034523Y-75353095D02*
X277986904Y-75257857D01*
X277986904Y-75257857D02*
X277939285Y-75210238D01*
X277939285Y-75210238D02*
X277844047Y-75162619D01*
X277844047Y-75162619D02*
X277653571Y-75162619D01*
X277653571Y-75162619D02*
X277558333Y-75210238D01*
X277558333Y-75210238D02*
X277510714Y-75257857D01*
X277510714Y-75257857D02*
X277463095Y-75353095D01*
X277463095Y-75353095D02*
X277463095Y-75591190D01*
X277463095Y-75591190D02*
X277510714Y-75686428D01*
X277510714Y-75686428D02*
X277558333Y-75734047D01*
X277558333Y-75734047D02*
X277653571Y-75781666D01*
X277653571Y-75781666D02*
X277844047Y-75781666D01*
X277844047Y-75781666D02*
X277939285Y-75734047D01*
X277939285Y-75734047D02*
X277986904Y-75686428D01*
X277986904Y-75686428D02*
X278034523Y-75591190D01*
%TO.C,SW34*%
X179165476Y-74019000D02*
X179308333Y-74066619D01*
X179308333Y-74066619D02*
X179546428Y-74066619D01*
X179546428Y-74066619D02*
X179641666Y-74019000D01*
X179641666Y-74019000D02*
X179689285Y-73971380D01*
X179689285Y-73971380D02*
X179736904Y-73876142D01*
X179736904Y-73876142D02*
X179736904Y-73780904D01*
X179736904Y-73780904D02*
X179689285Y-73685666D01*
X179689285Y-73685666D02*
X179641666Y-73638047D01*
X179641666Y-73638047D02*
X179546428Y-73590428D01*
X179546428Y-73590428D02*
X179355952Y-73542809D01*
X179355952Y-73542809D02*
X179260714Y-73495190D01*
X179260714Y-73495190D02*
X179213095Y-73447571D01*
X179213095Y-73447571D02*
X179165476Y-73352333D01*
X179165476Y-73352333D02*
X179165476Y-73257095D01*
X179165476Y-73257095D02*
X179213095Y-73161857D01*
X179213095Y-73161857D02*
X179260714Y-73114238D01*
X179260714Y-73114238D02*
X179355952Y-73066619D01*
X179355952Y-73066619D02*
X179594047Y-73066619D01*
X179594047Y-73066619D02*
X179736904Y-73114238D01*
X180070238Y-73066619D02*
X180308333Y-74066619D01*
X180308333Y-74066619D02*
X180498809Y-73352333D01*
X180498809Y-73352333D02*
X180689285Y-74066619D01*
X180689285Y-74066619D02*
X180927381Y-73066619D01*
X181213095Y-73066619D02*
X181832142Y-73066619D01*
X181832142Y-73066619D02*
X181498809Y-73447571D01*
X181498809Y-73447571D02*
X181641666Y-73447571D01*
X181641666Y-73447571D02*
X181736904Y-73495190D01*
X181736904Y-73495190D02*
X181784523Y-73542809D01*
X181784523Y-73542809D02*
X181832142Y-73638047D01*
X181832142Y-73638047D02*
X181832142Y-73876142D01*
X181832142Y-73876142D02*
X181784523Y-73971380D01*
X181784523Y-73971380D02*
X181736904Y-74019000D01*
X181736904Y-74019000D02*
X181641666Y-74066619D01*
X181641666Y-74066619D02*
X181355952Y-74066619D01*
X181355952Y-74066619D02*
X181260714Y-74019000D01*
X181260714Y-74019000D02*
X181213095Y-73971380D01*
X182689285Y-73399952D02*
X182689285Y-74066619D01*
X182451190Y-73019000D02*
X182213095Y-73733285D01*
X182213095Y-73733285D02*
X182832142Y-73733285D01*
%TO.C,SW1*%
X17716667Y-38015000D02*
X17859524Y-38062619D01*
X17859524Y-38062619D02*
X18097619Y-38062619D01*
X18097619Y-38062619D02*
X18192857Y-38015000D01*
X18192857Y-38015000D02*
X18240476Y-37967380D01*
X18240476Y-37967380D02*
X18288095Y-37872142D01*
X18288095Y-37872142D02*
X18288095Y-37776904D01*
X18288095Y-37776904D02*
X18240476Y-37681666D01*
X18240476Y-37681666D02*
X18192857Y-37634047D01*
X18192857Y-37634047D02*
X18097619Y-37586428D01*
X18097619Y-37586428D02*
X17907143Y-37538809D01*
X17907143Y-37538809D02*
X17811905Y-37491190D01*
X17811905Y-37491190D02*
X17764286Y-37443571D01*
X17764286Y-37443571D02*
X17716667Y-37348333D01*
X17716667Y-37348333D02*
X17716667Y-37253095D01*
X17716667Y-37253095D02*
X17764286Y-37157857D01*
X17764286Y-37157857D02*
X17811905Y-37110238D01*
X17811905Y-37110238D02*
X17907143Y-37062619D01*
X17907143Y-37062619D02*
X18145238Y-37062619D01*
X18145238Y-37062619D02*
X18288095Y-37110238D01*
X18621429Y-37062619D02*
X18859524Y-38062619D01*
X18859524Y-38062619D02*
X19050000Y-37348333D01*
X19050000Y-37348333D02*
X19240476Y-38062619D01*
X19240476Y-38062619D02*
X19478572Y-37062619D01*
X20383333Y-38062619D02*
X19811905Y-38062619D01*
X20097619Y-38062619D02*
X20097619Y-37062619D01*
X20097619Y-37062619D02*
X20002381Y-37205476D01*
X20002381Y-37205476D02*
X19907143Y-37300714D01*
X19907143Y-37300714D02*
X19811905Y-37348333D01*
%TO.C,SW29*%
X198215476Y-52301000D02*
X198358333Y-52348619D01*
X198358333Y-52348619D02*
X198596428Y-52348619D01*
X198596428Y-52348619D02*
X198691666Y-52301000D01*
X198691666Y-52301000D02*
X198739285Y-52253380D01*
X198739285Y-52253380D02*
X198786904Y-52158142D01*
X198786904Y-52158142D02*
X198786904Y-52062904D01*
X198786904Y-52062904D02*
X198739285Y-51967666D01*
X198739285Y-51967666D02*
X198691666Y-51920047D01*
X198691666Y-51920047D02*
X198596428Y-51872428D01*
X198596428Y-51872428D02*
X198405952Y-51824809D01*
X198405952Y-51824809D02*
X198310714Y-51777190D01*
X198310714Y-51777190D02*
X198263095Y-51729571D01*
X198263095Y-51729571D02*
X198215476Y-51634333D01*
X198215476Y-51634333D02*
X198215476Y-51539095D01*
X198215476Y-51539095D02*
X198263095Y-51443857D01*
X198263095Y-51443857D02*
X198310714Y-51396238D01*
X198310714Y-51396238D02*
X198405952Y-51348619D01*
X198405952Y-51348619D02*
X198644047Y-51348619D01*
X198644047Y-51348619D02*
X198786904Y-51396238D01*
X199120238Y-51348619D02*
X199358333Y-52348619D01*
X199358333Y-52348619D02*
X199548809Y-51634333D01*
X199548809Y-51634333D02*
X199739285Y-52348619D01*
X199739285Y-52348619D02*
X199977381Y-51348619D01*
X200310714Y-51443857D02*
X200358333Y-51396238D01*
X200358333Y-51396238D02*
X200453571Y-51348619D01*
X200453571Y-51348619D02*
X200691666Y-51348619D01*
X200691666Y-51348619D02*
X200786904Y-51396238D01*
X200786904Y-51396238D02*
X200834523Y-51443857D01*
X200834523Y-51443857D02*
X200882142Y-51539095D01*
X200882142Y-51539095D02*
X200882142Y-51634333D01*
X200882142Y-51634333D02*
X200834523Y-51777190D01*
X200834523Y-51777190D02*
X200263095Y-52348619D01*
X200263095Y-52348619D02*
X200882142Y-52348619D01*
X201358333Y-52348619D02*
X201548809Y-52348619D01*
X201548809Y-52348619D02*
X201644047Y-52301000D01*
X201644047Y-52301000D02*
X201691666Y-52253380D01*
X201691666Y-52253380D02*
X201786904Y-52110523D01*
X201786904Y-52110523D02*
X201834523Y-51920047D01*
X201834523Y-51920047D02*
X201834523Y-51539095D01*
X201834523Y-51539095D02*
X201786904Y-51443857D01*
X201786904Y-51443857D02*
X201739285Y-51396238D01*
X201739285Y-51396238D02*
X201644047Y-51348619D01*
X201644047Y-51348619D02*
X201453571Y-51348619D01*
X201453571Y-51348619D02*
X201358333Y-51396238D01*
X201358333Y-51396238D02*
X201310714Y-51443857D01*
X201310714Y-51443857D02*
X201263095Y-51539095D01*
X201263095Y-51539095D02*
X201263095Y-51777190D01*
X201263095Y-51777190D02*
X201310714Y-51872428D01*
X201310714Y-51872428D02*
X201358333Y-51920047D01*
X201358333Y-51920047D02*
X201453571Y-51967666D01*
X201453571Y-51967666D02*
X201644047Y-51967666D01*
X201644047Y-51967666D02*
X201739285Y-51920047D01*
X201739285Y-51920047D02*
X201786904Y-51872428D01*
X201786904Y-51872428D02*
X201834523Y-51777190D01*
%TO.C,SW32*%
X255365476Y-57065000D02*
X255508333Y-57112619D01*
X255508333Y-57112619D02*
X255746428Y-57112619D01*
X255746428Y-57112619D02*
X255841666Y-57065000D01*
X255841666Y-57065000D02*
X255889285Y-57017380D01*
X255889285Y-57017380D02*
X255936904Y-56922142D01*
X255936904Y-56922142D02*
X255936904Y-56826904D01*
X255936904Y-56826904D02*
X255889285Y-56731666D01*
X255889285Y-56731666D02*
X255841666Y-56684047D01*
X255841666Y-56684047D02*
X255746428Y-56636428D01*
X255746428Y-56636428D02*
X255555952Y-56588809D01*
X255555952Y-56588809D02*
X255460714Y-56541190D01*
X255460714Y-56541190D02*
X255413095Y-56493571D01*
X255413095Y-56493571D02*
X255365476Y-56398333D01*
X255365476Y-56398333D02*
X255365476Y-56303095D01*
X255365476Y-56303095D02*
X255413095Y-56207857D01*
X255413095Y-56207857D02*
X255460714Y-56160238D01*
X255460714Y-56160238D02*
X255555952Y-56112619D01*
X255555952Y-56112619D02*
X255794047Y-56112619D01*
X255794047Y-56112619D02*
X255936904Y-56160238D01*
X256270238Y-56112619D02*
X256508333Y-57112619D01*
X256508333Y-57112619D02*
X256698809Y-56398333D01*
X256698809Y-56398333D02*
X256889285Y-57112619D01*
X256889285Y-57112619D02*
X257127381Y-56112619D01*
X257413095Y-56112619D02*
X258032142Y-56112619D01*
X258032142Y-56112619D02*
X257698809Y-56493571D01*
X257698809Y-56493571D02*
X257841666Y-56493571D01*
X257841666Y-56493571D02*
X257936904Y-56541190D01*
X257936904Y-56541190D02*
X257984523Y-56588809D01*
X257984523Y-56588809D02*
X258032142Y-56684047D01*
X258032142Y-56684047D02*
X258032142Y-56922142D01*
X258032142Y-56922142D02*
X257984523Y-57017380D01*
X257984523Y-57017380D02*
X257936904Y-57065000D01*
X257936904Y-57065000D02*
X257841666Y-57112619D01*
X257841666Y-57112619D02*
X257555952Y-57112619D01*
X257555952Y-57112619D02*
X257460714Y-57065000D01*
X257460714Y-57065000D02*
X257413095Y-57017380D01*
X258413095Y-56207857D02*
X258460714Y-56160238D01*
X258460714Y-56160238D02*
X258555952Y-56112619D01*
X258555952Y-56112619D02*
X258794047Y-56112619D01*
X258794047Y-56112619D02*
X258889285Y-56160238D01*
X258889285Y-56160238D02*
X258936904Y-56207857D01*
X258936904Y-56207857D02*
X258984523Y-56303095D01*
X258984523Y-56303095D02*
X258984523Y-56398333D01*
X258984523Y-56398333D02*
X258936904Y-56541190D01*
X258936904Y-56541190D02*
X258365476Y-57112619D01*
X258365476Y-57112619D02*
X258984523Y-57112619D01*
%TO.C,SW42*%
X208121476Y-91163000D02*
X208264333Y-91210619D01*
X208264333Y-91210619D02*
X208502428Y-91210619D01*
X208502428Y-91210619D02*
X208597666Y-91163000D01*
X208597666Y-91163000D02*
X208645285Y-91115380D01*
X208645285Y-91115380D02*
X208692904Y-91020142D01*
X208692904Y-91020142D02*
X208692904Y-90924904D01*
X208692904Y-90924904D02*
X208645285Y-90829666D01*
X208645285Y-90829666D02*
X208597666Y-90782047D01*
X208597666Y-90782047D02*
X208502428Y-90734428D01*
X208502428Y-90734428D02*
X208311952Y-90686809D01*
X208311952Y-90686809D02*
X208216714Y-90639190D01*
X208216714Y-90639190D02*
X208169095Y-90591571D01*
X208169095Y-90591571D02*
X208121476Y-90496333D01*
X208121476Y-90496333D02*
X208121476Y-90401095D01*
X208121476Y-90401095D02*
X208169095Y-90305857D01*
X208169095Y-90305857D02*
X208216714Y-90258238D01*
X208216714Y-90258238D02*
X208311952Y-90210619D01*
X208311952Y-90210619D02*
X208550047Y-90210619D01*
X208550047Y-90210619D02*
X208692904Y-90258238D01*
X209026238Y-90210619D02*
X209264333Y-91210619D01*
X209264333Y-91210619D02*
X209454809Y-90496333D01*
X209454809Y-90496333D02*
X209645285Y-91210619D01*
X209645285Y-91210619D02*
X209883381Y-90210619D01*
X210692904Y-90543952D02*
X210692904Y-91210619D01*
X210454809Y-90163000D02*
X210216714Y-90877285D01*
X210216714Y-90877285D02*
X210835761Y-90877285D01*
X211169095Y-90305857D02*
X211216714Y-90258238D01*
X211216714Y-90258238D02*
X211311952Y-90210619D01*
X211311952Y-90210619D02*
X211550047Y-90210619D01*
X211550047Y-90210619D02*
X211645285Y-90258238D01*
X211645285Y-90258238D02*
X211692904Y-90305857D01*
X211692904Y-90305857D02*
X211740523Y-90401095D01*
X211740523Y-90401095D02*
X211740523Y-90496333D01*
X211740523Y-90496333D02*
X211692904Y-90639190D01*
X211692904Y-90639190D02*
X211121476Y-91210619D01*
X211121476Y-91210619D02*
X211740523Y-91210619D01*
%TO.C,SW36*%
X217265476Y-69257000D02*
X217408333Y-69304619D01*
X217408333Y-69304619D02*
X217646428Y-69304619D01*
X217646428Y-69304619D02*
X217741666Y-69257000D01*
X217741666Y-69257000D02*
X217789285Y-69209380D01*
X217789285Y-69209380D02*
X217836904Y-69114142D01*
X217836904Y-69114142D02*
X217836904Y-69018904D01*
X217836904Y-69018904D02*
X217789285Y-68923666D01*
X217789285Y-68923666D02*
X217741666Y-68876047D01*
X217741666Y-68876047D02*
X217646428Y-68828428D01*
X217646428Y-68828428D02*
X217455952Y-68780809D01*
X217455952Y-68780809D02*
X217360714Y-68733190D01*
X217360714Y-68733190D02*
X217313095Y-68685571D01*
X217313095Y-68685571D02*
X217265476Y-68590333D01*
X217265476Y-68590333D02*
X217265476Y-68495095D01*
X217265476Y-68495095D02*
X217313095Y-68399857D01*
X217313095Y-68399857D02*
X217360714Y-68352238D01*
X217360714Y-68352238D02*
X217455952Y-68304619D01*
X217455952Y-68304619D02*
X217694047Y-68304619D01*
X217694047Y-68304619D02*
X217836904Y-68352238D01*
X218170238Y-68304619D02*
X218408333Y-69304619D01*
X218408333Y-69304619D02*
X218598809Y-68590333D01*
X218598809Y-68590333D02*
X218789285Y-69304619D01*
X218789285Y-69304619D02*
X219027381Y-68304619D01*
X219313095Y-68304619D02*
X219932142Y-68304619D01*
X219932142Y-68304619D02*
X219598809Y-68685571D01*
X219598809Y-68685571D02*
X219741666Y-68685571D01*
X219741666Y-68685571D02*
X219836904Y-68733190D01*
X219836904Y-68733190D02*
X219884523Y-68780809D01*
X219884523Y-68780809D02*
X219932142Y-68876047D01*
X219932142Y-68876047D02*
X219932142Y-69114142D01*
X219932142Y-69114142D02*
X219884523Y-69209380D01*
X219884523Y-69209380D02*
X219836904Y-69257000D01*
X219836904Y-69257000D02*
X219741666Y-69304619D01*
X219741666Y-69304619D02*
X219455952Y-69304619D01*
X219455952Y-69304619D02*
X219360714Y-69257000D01*
X219360714Y-69257000D02*
X219313095Y-69209380D01*
X220789285Y-68304619D02*
X220598809Y-68304619D01*
X220598809Y-68304619D02*
X220503571Y-68352238D01*
X220503571Y-68352238D02*
X220455952Y-68399857D01*
X220455952Y-68399857D02*
X220360714Y-68542714D01*
X220360714Y-68542714D02*
X220313095Y-68733190D01*
X220313095Y-68733190D02*
X220313095Y-69114142D01*
X220313095Y-69114142D02*
X220360714Y-69209380D01*
X220360714Y-69209380D02*
X220408333Y-69257000D01*
X220408333Y-69257000D02*
X220503571Y-69304619D01*
X220503571Y-69304619D02*
X220694047Y-69304619D01*
X220694047Y-69304619D02*
X220789285Y-69257000D01*
X220789285Y-69257000D02*
X220836904Y-69209380D01*
X220836904Y-69209380D02*
X220884523Y-69114142D01*
X220884523Y-69114142D02*
X220884523Y-68876047D01*
X220884523Y-68876047D02*
X220836904Y-68780809D01*
X220836904Y-68780809D02*
X220789285Y-68733190D01*
X220789285Y-68733190D02*
X220694047Y-68685571D01*
X220694047Y-68685571D02*
X220503571Y-68685571D01*
X220503571Y-68685571D02*
X220408333Y-68733190D01*
X220408333Y-68733190D02*
X220360714Y-68780809D01*
X220360714Y-68780809D02*
X220313095Y-68876047D01*
%TO.C,SW16*%
X74390476Y-69257000D02*
X74533333Y-69304619D01*
X74533333Y-69304619D02*
X74771428Y-69304619D01*
X74771428Y-69304619D02*
X74866666Y-69257000D01*
X74866666Y-69257000D02*
X74914285Y-69209380D01*
X74914285Y-69209380D02*
X74961904Y-69114142D01*
X74961904Y-69114142D02*
X74961904Y-69018904D01*
X74961904Y-69018904D02*
X74914285Y-68923666D01*
X74914285Y-68923666D02*
X74866666Y-68876047D01*
X74866666Y-68876047D02*
X74771428Y-68828428D01*
X74771428Y-68828428D02*
X74580952Y-68780809D01*
X74580952Y-68780809D02*
X74485714Y-68733190D01*
X74485714Y-68733190D02*
X74438095Y-68685571D01*
X74438095Y-68685571D02*
X74390476Y-68590333D01*
X74390476Y-68590333D02*
X74390476Y-68495095D01*
X74390476Y-68495095D02*
X74438095Y-68399857D01*
X74438095Y-68399857D02*
X74485714Y-68352238D01*
X74485714Y-68352238D02*
X74580952Y-68304619D01*
X74580952Y-68304619D02*
X74819047Y-68304619D01*
X74819047Y-68304619D02*
X74961904Y-68352238D01*
X75295238Y-68304619D02*
X75533333Y-69304619D01*
X75533333Y-69304619D02*
X75723809Y-68590333D01*
X75723809Y-68590333D02*
X75914285Y-69304619D01*
X75914285Y-69304619D02*
X76152381Y-68304619D01*
X77057142Y-69304619D02*
X76485714Y-69304619D01*
X76771428Y-69304619D02*
X76771428Y-68304619D01*
X76771428Y-68304619D02*
X76676190Y-68447476D01*
X76676190Y-68447476D02*
X76580952Y-68542714D01*
X76580952Y-68542714D02*
X76485714Y-68590333D01*
X77914285Y-68304619D02*
X77723809Y-68304619D01*
X77723809Y-68304619D02*
X77628571Y-68352238D01*
X77628571Y-68352238D02*
X77580952Y-68399857D01*
X77580952Y-68399857D02*
X77485714Y-68542714D01*
X77485714Y-68542714D02*
X77438095Y-68733190D01*
X77438095Y-68733190D02*
X77438095Y-69114142D01*
X77438095Y-69114142D02*
X77485714Y-69209380D01*
X77485714Y-69209380D02*
X77533333Y-69257000D01*
X77533333Y-69257000D02*
X77628571Y-69304619D01*
X77628571Y-69304619D02*
X77819047Y-69304619D01*
X77819047Y-69304619D02*
X77914285Y-69257000D01*
X77914285Y-69257000D02*
X77961904Y-69209380D01*
X77961904Y-69209380D02*
X78009523Y-69114142D01*
X78009523Y-69114142D02*
X78009523Y-68876047D01*
X78009523Y-68876047D02*
X77961904Y-68780809D01*
X77961904Y-68780809D02*
X77914285Y-68733190D01*
X77914285Y-68733190D02*
X77819047Y-68685571D01*
X77819047Y-68685571D02*
X77628571Y-68685571D01*
X77628571Y-68685571D02*
X77533333Y-68733190D01*
X77533333Y-68733190D02*
X77485714Y-68780809D01*
X77485714Y-68780809D02*
X77438095Y-68876047D01*
%TO.C,SW23*%
X198215476Y-33251000D02*
X198358333Y-33298619D01*
X198358333Y-33298619D02*
X198596428Y-33298619D01*
X198596428Y-33298619D02*
X198691666Y-33251000D01*
X198691666Y-33251000D02*
X198739285Y-33203380D01*
X198739285Y-33203380D02*
X198786904Y-33108142D01*
X198786904Y-33108142D02*
X198786904Y-33012904D01*
X198786904Y-33012904D02*
X198739285Y-32917666D01*
X198739285Y-32917666D02*
X198691666Y-32870047D01*
X198691666Y-32870047D02*
X198596428Y-32822428D01*
X198596428Y-32822428D02*
X198405952Y-32774809D01*
X198405952Y-32774809D02*
X198310714Y-32727190D01*
X198310714Y-32727190D02*
X198263095Y-32679571D01*
X198263095Y-32679571D02*
X198215476Y-32584333D01*
X198215476Y-32584333D02*
X198215476Y-32489095D01*
X198215476Y-32489095D02*
X198263095Y-32393857D01*
X198263095Y-32393857D02*
X198310714Y-32346238D01*
X198310714Y-32346238D02*
X198405952Y-32298619D01*
X198405952Y-32298619D02*
X198644047Y-32298619D01*
X198644047Y-32298619D02*
X198786904Y-32346238D01*
X199120238Y-32298619D02*
X199358333Y-33298619D01*
X199358333Y-33298619D02*
X199548809Y-32584333D01*
X199548809Y-32584333D02*
X199739285Y-33298619D01*
X199739285Y-33298619D02*
X199977381Y-32298619D01*
X200310714Y-32393857D02*
X200358333Y-32346238D01*
X200358333Y-32346238D02*
X200453571Y-32298619D01*
X200453571Y-32298619D02*
X200691666Y-32298619D01*
X200691666Y-32298619D02*
X200786904Y-32346238D01*
X200786904Y-32346238D02*
X200834523Y-32393857D01*
X200834523Y-32393857D02*
X200882142Y-32489095D01*
X200882142Y-32489095D02*
X200882142Y-32584333D01*
X200882142Y-32584333D02*
X200834523Y-32727190D01*
X200834523Y-32727190D02*
X200263095Y-33298619D01*
X200263095Y-33298619D02*
X200882142Y-33298619D01*
X201215476Y-32298619D02*
X201834523Y-32298619D01*
X201834523Y-32298619D02*
X201501190Y-32679571D01*
X201501190Y-32679571D02*
X201644047Y-32679571D01*
X201644047Y-32679571D02*
X201739285Y-32727190D01*
X201739285Y-32727190D02*
X201786904Y-32774809D01*
X201786904Y-32774809D02*
X201834523Y-32870047D01*
X201834523Y-32870047D02*
X201834523Y-33108142D01*
X201834523Y-33108142D02*
X201786904Y-33203380D01*
X201786904Y-33203380D02*
X201739285Y-33251000D01*
X201739285Y-33251000D02*
X201644047Y-33298619D01*
X201644047Y-33298619D02*
X201358333Y-33298619D01*
X201358333Y-33298619D02*
X201263095Y-33251000D01*
X201263095Y-33251000D02*
X201215476Y-33203380D01*
D10*
%TO.C,*%
D11*
%TO.C,SW37*%
X236315476Y-71351000D02*
X236458333Y-71398619D01*
X236458333Y-71398619D02*
X236696428Y-71398619D01*
X236696428Y-71398619D02*
X236791666Y-71351000D01*
X236791666Y-71351000D02*
X236839285Y-71303380D01*
X236839285Y-71303380D02*
X236886904Y-71208142D01*
X236886904Y-71208142D02*
X236886904Y-71112904D01*
X236886904Y-71112904D02*
X236839285Y-71017666D01*
X236839285Y-71017666D02*
X236791666Y-70970047D01*
X236791666Y-70970047D02*
X236696428Y-70922428D01*
X236696428Y-70922428D02*
X236505952Y-70874809D01*
X236505952Y-70874809D02*
X236410714Y-70827190D01*
X236410714Y-70827190D02*
X236363095Y-70779571D01*
X236363095Y-70779571D02*
X236315476Y-70684333D01*
X236315476Y-70684333D02*
X236315476Y-70589095D01*
X236315476Y-70589095D02*
X236363095Y-70493857D01*
X236363095Y-70493857D02*
X236410714Y-70446238D01*
X236410714Y-70446238D02*
X236505952Y-70398619D01*
X236505952Y-70398619D02*
X236744047Y-70398619D01*
X236744047Y-70398619D02*
X236886904Y-70446238D01*
X237220238Y-70398619D02*
X237458333Y-71398619D01*
X237458333Y-71398619D02*
X237648809Y-70684333D01*
X237648809Y-70684333D02*
X237839285Y-71398619D01*
X237839285Y-71398619D02*
X238077381Y-70398619D01*
X238363095Y-70398619D02*
X238982142Y-70398619D01*
X238982142Y-70398619D02*
X238648809Y-70779571D01*
X238648809Y-70779571D02*
X238791666Y-70779571D01*
X238791666Y-70779571D02*
X238886904Y-70827190D01*
X238886904Y-70827190D02*
X238934523Y-70874809D01*
X238934523Y-70874809D02*
X238982142Y-70970047D01*
X238982142Y-70970047D02*
X238982142Y-71208142D01*
X238982142Y-71208142D02*
X238934523Y-71303380D01*
X238934523Y-71303380D02*
X238886904Y-71351000D01*
X238886904Y-71351000D02*
X238791666Y-71398619D01*
X238791666Y-71398619D02*
X238505952Y-71398619D01*
X238505952Y-71398619D02*
X238410714Y-71351000D01*
X238410714Y-71351000D02*
X238363095Y-71303380D01*
X239315476Y-70398619D02*
X239982142Y-70398619D01*
X239982142Y-70398619D02*
X239553571Y-71398619D01*
%TO.C,SW31*%
X236315476Y-52301000D02*
X236458333Y-52348619D01*
X236458333Y-52348619D02*
X236696428Y-52348619D01*
X236696428Y-52348619D02*
X236791666Y-52301000D01*
X236791666Y-52301000D02*
X236839285Y-52253380D01*
X236839285Y-52253380D02*
X236886904Y-52158142D01*
X236886904Y-52158142D02*
X236886904Y-52062904D01*
X236886904Y-52062904D02*
X236839285Y-51967666D01*
X236839285Y-51967666D02*
X236791666Y-51920047D01*
X236791666Y-51920047D02*
X236696428Y-51872428D01*
X236696428Y-51872428D02*
X236505952Y-51824809D01*
X236505952Y-51824809D02*
X236410714Y-51777190D01*
X236410714Y-51777190D02*
X236363095Y-51729571D01*
X236363095Y-51729571D02*
X236315476Y-51634333D01*
X236315476Y-51634333D02*
X236315476Y-51539095D01*
X236315476Y-51539095D02*
X236363095Y-51443857D01*
X236363095Y-51443857D02*
X236410714Y-51396238D01*
X236410714Y-51396238D02*
X236505952Y-51348619D01*
X236505952Y-51348619D02*
X236744047Y-51348619D01*
X236744047Y-51348619D02*
X236886904Y-51396238D01*
X237220238Y-51348619D02*
X237458333Y-52348619D01*
X237458333Y-52348619D02*
X237648809Y-51634333D01*
X237648809Y-51634333D02*
X237839285Y-52348619D01*
X237839285Y-52348619D02*
X238077381Y-51348619D01*
X238363095Y-51348619D02*
X238982142Y-51348619D01*
X238982142Y-51348619D02*
X238648809Y-51729571D01*
X238648809Y-51729571D02*
X238791666Y-51729571D01*
X238791666Y-51729571D02*
X238886904Y-51777190D01*
X238886904Y-51777190D02*
X238934523Y-51824809D01*
X238934523Y-51824809D02*
X238982142Y-51920047D01*
X238982142Y-51920047D02*
X238982142Y-52158142D01*
X238982142Y-52158142D02*
X238934523Y-52253380D01*
X238934523Y-52253380D02*
X238886904Y-52301000D01*
X238886904Y-52301000D02*
X238791666Y-52348619D01*
X238791666Y-52348619D02*
X238505952Y-52348619D01*
X238505952Y-52348619D02*
X238410714Y-52301000D01*
X238410714Y-52301000D02*
X238363095Y-52253380D01*
X239934523Y-52348619D02*
X239363095Y-52348619D01*
X239648809Y-52348619D02*
X239648809Y-51348619D01*
X239648809Y-51348619D02*
X239553571Y-51491476D01*
X239553571Y-51491476D02*
X239458333Y-51586714D01*
X239458333Y-51586714D02*
X239363095Y-51634333D01*
%TO.C,SW22*%
X179165476Y-35919000D02*
X179308333Y-35966619D01*
X179308333Y-35966619D02*
X179546428Y-35966619D01*
X179546428Y-35966619D02*
X179641666Y-35919000D01*
X179641666Y-35919000D02*
X179689285Y-35871380D01*
X179689285Y-35871380D02*
X179736904Y-35776142D01*
X179736904Y-35776142D02*
X179736904Y-35680904D01*
X179736904Y-35680904D02*
X179689285Y-35585666D01*
X179689285Y-35585666D02*
X179641666Y-35538047D01*
X179641666Y-35538047D02*
X179546428Y-35490428D01*
X179546428Y-35490428D02*
X179355952Y-35442809D01*
X179355952Y-35442809D02*
X179260714Y-35395190D01*
X179260714Y-35395190D02*
X179213095Y-35347571D01*
X179213095Y-35347571D02*
X179165476Y-35252333D01*
X179165476Y-35252333D02*
X179165476Y-35157095D01*
X179165476Y-35157095D02*
X179213095Y-35061857D01*
X179213095Y-35061857D02*
X179260714Y-35014238D01*
X179260714Y-35014238D02*
X179355952Y-34966619D01*
X179355952Y-34966619D02*
X179594047Y-34966619D01*
X179594047Y-34966619D02*
X179736904Y-35014238D01*
X180070238Y-34966619D02*
X180308333Y-35966619D01*
X180308333Y-35966619D02*
X180498809Y-35252333D01*
X180498809Y-35252333D02*
X180689285Y-35966619D01*
X180689285Y-35966619D02*
X180927381Y-34966619D01*
X181260714Y-35061857D02*
X181308333Y-35014238D01*
X181308333Y-35014238D02*
X181403571Y-34966619D01*
X181403571Y-34966619D02*
X181641666Y-34966619D01*
X181641666Y-34966619D02*
X181736904Y-35014238D01*
X181736904Y-35014238D02*
X181784523Y-35061857D01*
X181784523Y-35061857D02*
X181832142Y-35157095D01*
X181832142Y-35157095D02*
X181832142Y-35252333D01*
X181832142Y-35252333D02*
X181784523Y-35395190D01*
X181784523Y-35395190D02*
X181213095Y-35966619D01*
X181213095Y-35966619D02*
X181832142Y-35966619D01*
X182213095Y-35061857D02*
X182260714Y-35014238D01*
X182260714Y-35014238D02*
X182355952Y-34966619D01*
X182355952Y-34966619D02*
X182594047Y-34966619D01*
X182594047Y-34966619D02*
X182689285Y-35014238D01*
X182689285Y-35014238D02*
X182736904Y-35061857D01*
X182736904Y-35061857D02*
X182784523Y-35157095D01*
X182784523Y-35157095D02*
X182784523Y-35252333D01*
X182784523Y-35252333D02*
X182736904Y-35395190D01*
X182736904Y-35395190D02*
X182165476Y-35966619D01*
X182165476Y-35966619D02*
X182784523Y-35966619D01*
%TO.C,SW14*%
X36290476Y-76115000D02*
X36433333Y-76162619D01*
X36433333Y-76162619D02*
X36671428Y-76162619D01*
X36671428Y-76162619D02*
X36766666Y-76115000D01*
X36766666Y-76115000D02*
X36814285Y-76067380D01*
X36814285Y-76067380D02*
X36861904Y-75972142D01*
X36861904Y-75972142D02*
X36861904Y-75876904D01*
X36861904Y-75876904D02*
X36814285Y-75781666D01*
X36814285Y-75781666D02*
X36766666Y-75734047D01*
X36766666Y-75734047D02*
X36671428Y-75686428D01*
X36671428Y-75686428D02*
X36480952Y-75638809D01*
X36480952Y-75638809D02*
X36385714Y-75591190D01*
X36385714Y-75591190D02*
X36338095Y-75543571D01*
X36338095Y-75543571D02*
X36290476Y-75448333D01*
X36290476Y-75448333D02*
X36290476Y-75353095D01*
X36290476Y-75353095D02*
X36338095Y-75257857D01*
X36338095Y-75257857D02*
X36385714Y-75210238D01*
X36385714Y-75210238D02*
X36480952Y-75162619D01*
X36480952Y-75162619D02*
X36719047Y-75162619D01*
X36719047Y-75162619D02*
X36861904Y-75210238D01*
X37195238Y-75162619D02*
X37433333Y-76162619D01*
X37433333Y-76162619D02*
X37623809Y-75448333D01*
X37623809Y-75448333D02*
X37814285Y-76162619D01*
X37814285Y-76162619D02*
X38052381Y-75162619D01*
X38957142Y-76162619D02*
X38385714Y-76162619D01*
X38671428Y-76162619D02*
X38671428Y-75162619D01*
X38671428Y-75162619D02*
X38576190Y-75305476D01*
X38576190Y-75305476D02*
X38480952Y-75400714D01*
X38480952Y-75400714D02*
X38385714Y-75448333D01*
X39814285Y-75495952D02*
X39814285Y-76162619D01*
X39576190Y-75115000D02*
X39338095Y-75829285D01*
X39338095Y-75829285D02*
X39957142Y-75829285D01*
%TO.C,SW30*%
X217265476Y-50207000D02*
X217408333Y-50254619D01*
X217408333Y-50254619D02*
X217646428Y-50254619D01*
X217646428Y-50254619D02*
X217741666Y-50207000D01*
X217741666Y-50207000D02*
X217789285Y-50159380D01*
X217789285Y-50159380D02*
X217836904Y-50064142D01*
X217836904Y-50064142D02*
X217836904Y-49968904D01*
X217836904Y-49968904D02*
X217789285Y-49873666D01*
X217789285Y-49873666D02*
X217741666Y-49826047D01*
X217741666Y-49826047D02*
X217646428Y-49778428D01*
X217646428Y-49778428D02*
X217455952Y-49730809D01*
X217455952Y-49730809D02*
X217360714Y-49683190D01*
X217360714Y-49683190D02*
X217313095Y-49635571D01*
X217313095Y-49635571D02*
X217265476Y-49540333D01*
X217265476Y-49540333D02*
X217265476Y-49445095D01*
X217265476Y-49445095D02*
X217313095Y-49349857D01*
X217313095Y-49349857D02*
X217360714Y-49302238D01*
X217360714Y-49302238D02*
X217455952Y-49254619D01*
X217455952Y-49254619D02*
X217694047Y-49254619D01*
X217694047Y-49254619D02*
X217836904Y-49302238D01*
X218170238Y-49254619D02*
X218408333Y-50254619D01*
X218408333Y-50254619D02*
X218598809Y-49540333D01*
X218598809Y-49540333D02*
X218789285Y-50254619D01*
X218789285Y-50254619D02*
X219027381Y-49254619D01*
X219313095Y-49254619D02*
X219932142Y-49254619D01*
X219932142Y-49254619D02*
X219598809Y-49635571D01*
X219598809Y-49635571D02*
X219741666Y-49635571D01*
X219741666Y-49635571D02*
X219836904Y-49683190D01*
X219836904Y-49683190D02*
X219884523Y-49730809D01*
X219884523Y-49730809D02*
X219932142Y-49826047D01*
X219932142Y-49826047D02*
X219932142Y-50064142D01*
X219932142Y-50064142D02*
X219884523Y-50159380D01*
X219884523Y-50159380D02*
X219836904Y-50207000D01*
X219836904Y-50207000D02*
X219741666Y-50254619D01*
X219741666Y-50254619D02*
X219455952Y-50254619D01*
X219455952Y-50254619D02*
X219360714Y-50207000D01*
X219360714Y-50207000D02*
X219313095Y-50159380D01*
X220551190Y-49254619D02*
X220646428Y-49254619D01*
X220646428Y-49254619D02*
X220741666Y-49302238D01*
X220741666Y-49302238D02*
X220789285Y-49349857D01*
X220789285Y-49349857D02*
X220836904Y-49445095D01*
X220836904Y-49445095D02*
X220884523Y-49635571D01*
X220884523Y-49635571D02*
X220884523Y-49873666D01*
X220884523Y-49873666D02*
X220836904Y-50064142D01*
X220836904Y-50064142D02*
X220789285Y-50159380D01*
X220789285Y-50159380D02*
X220741666Y-50207000D01*
X220741666Y-50207000D02*
X220646428Y-50254619D01*
X220646428Y-50254619D02*
X220551190Y-50254619D01*
X220551190Y-50254619D02*
X220455952Y-50207000D01*
X220455952Y-50207000D02*
X220408333Y-50159380D01*
X220408333Y-50159380D02*
X220360714Y-50064142D01*
X220360714Y-50064142D02*
X220313095Y-49873666D01*
X220313095Y-49873666D02*
X220313095Y-49635571D01*
X220313095Y-49635571D02*
X220360714Y-49445095D01*
X220360714Y-49445095D02*
X220408333Y-49349857D01*
X220408333Y-49349857D02*
X220455952Y-49302238D01*
X220455952Y-49302238D02*
X220551190Y-49254619D01*
%TO.C,SW38*%
X255365476Y-76115000D02*
X255508333Y-76162619D01*
X255508333Y-76162619D02*
X255746428Y-76162619D01*
X255746428Y-76162619D02*
X255841666Y-76115000D01*
X255841666Y-76115000D02*
X255889285Y-76067380D01*
X255889285Y-76067380D02*
X255936904Y-75972142D01*
X255936904Y-75972142D02*
X255936904Y-75876904D01*
X255936904Y-75876904D02*
X255889285Y-75781666D01*
X255889285Y-75781666D02*
X255841666Y-75734047D01*
X255841666Y-75734047D02*
X255746428Y-75686428D01*
X255746428Y-75686428D02*
X255555952Y-75638809D01*
X255555952Y-75638809D02*
X255460714Y-75591190D01*
X255460714Y-75591190D02*
X255413095Y-75543571D01*
X255413095Y-75543571D02*
X255365476Y-75448333D01*
X255365476Y-75448333D02*
X255365476Y-75353095D01*
X255365476Y-75353095D02*
X255413095Y-75257857D01*
X255413095Y-75257857D02*
X255460714Y-75210238D01*
X255460714Y-75210238D02*
X255555952Y-75162619D01*
X255555952Y-75162619D02*
X255794047Y-75162619D01*
X255794047Y-75162619D02*
X255936904Y-75210238D01*
X256270238Y-75162619D02*
X256508333Y-76162619D01*
X256508333Y-76162619D02*
X256698809Y-75448333D01*
X256698809Y-75448333D02*
X256889285Y-76162619D01*
X256889285Y-76162619D02*
X257127381Y-75162619D01*
X257413095Y-75162619D02*
X258032142Y-75162619D01*
X258032142Y-75162619D02*
X257698809Y-75543571D01*
X257698809Y-75543571D02*
X257841666Y-75543571D01*
X257841666Y-75543571D02*
X257936904Y-75591190D01*
X257936904Y-75591190D02*
X257984523Y-75638809D01*
X257984523Y-75638809D02*
X258032142Y-75734047D01*
X258032142Y-75734047D02*
X258032142Y-75972142D01*
X258032142Y-75972142D02*
X257984523Y-76067380D01*
X257984523Y-76067380D02*
X257936904Y-76115000D01*
X257936904Y-76115000D02*
X257841666Y-76162619D01*
X257841666Y-76162619D02*
X257555952Y-76162619D01*
X257555952Y-76162619D02*
X257460714Y-76115000D01*
X257460714Y-76115000D02*
X257413095Y-76067380D01*
X258603571Y-75591190D02*
X258508333Y-75543571D01*
X258508333Y-75543571D02*
X258460714Y-75495952D01*
X258460714Y-75495952D02*
X258413095Y-75400714D01*
X258413095Y-75400714D02*
X258413095Y-75353095D01*
X258413095Y-75353095D02*
X258460714Y-75257857D01*
X258460714Y-75257857D02*
X258508333Y-75210238D01*
X258508333Y-75210238D02*
X258603571Y-75162619D01*
X258603571Y-75162619D02*
X258794047Y-75162619D01*
X258794047Y-75162619D02*
X258889285Y-75210238D01*
X258889285Y-75210238D02*
X258936904Y-75257857D01*
X258936904Y-75257857D02*
X258984523Y-75353095D01*
X258984523Y-75353095D02*
X258984523Y-75400714D01*
X258984523Y-75400714D02*
X258936904Y-75495952D01*
X258936904Y-75495952D02*
X258889285Y-75543571D01*
X258889285Y-75543571D02*
X258794047Y-75591190D01*
X258794047Y-75591190D02*
X258603571Y-75591190D01*
X258603571Y-75591190D02*
X258508333Y-75638809D01*
X258508333Y-75638809D02*
X258460714Y-75686428D01*
X258460714Y-75686428D02*
X258413095Y-75781666D01*
X258413095Y-75781666D02*
X258413095Y-75972142D01*
X258413095Y-75972142D02*
X258460714Y-76067380D01*
X258460714Y-76067380D02*
X258508333Y-76115000D01*
X258508333Y-76115000D02*
X258603571Y-76162619D01*
X258603571Y-76162619D02*
X258794047Y-76162619D01*
X258794047Y-76162619D02*
X258889285Y-76115000D01*
X258889285Y-76115000D02*
X258936904Y-76067380D01*
X258936904Y-76067380D02*
X258984523Y-75972142D01*
X258984523Y-75972142D02*
X258984523Y-75781666D01*
X258984523Y-75781666D02*
X258936904Y-75686428D01*
X258936904Y-75686428D02*
X258889285Y-75638809D01*
X258889285Y-75638809D02*
X258794047Y-75591190D01*
%TO.C,SW17*%
X93440476Y-71351000D02*
X93583333Y-71398619D01*
X93583333Y-71398619D02*
X93821428Y-71398619D01*
X93821428Y-71398619D02*
X93916666Y-71351000D01*
X93916666Y-71351000D02*
X93964285Y-71303380D01*
X93964285Y-71303380D02*
X94011904Y-71208142D01*
X94011904Y-71208142D02*
X94011904Y-71112904D01*
X94011904Y-71112904D02*
X93964285Y-71017666D01*
X93964285Y-71017666D02*
X93916666Y-70970047D01*
X93916666Y-70970047D02*
X93821428Y-70922428D01*
X93821428Y-70922428D02*
X93630952Y-70874809D01*
X93630952Y-70874809D02*
X93535714Y-70827190D01*
X93535714Y-70827190D02*
X93488095Y-70779571D01*
X93488095Y-70779571D02*
X93440476Y-70684333D01*
X93440476Y-70684333D02*
X93440476Y-70589095D01*
X93440476Y-70589095D02*
X93488095Y-70493857D01*
X93488095Y-70493857D02*
X93535714Y-70446238D01*
X93535714Y-70446238D02*
X93630952Y-70398619D01*
X93630952Y-70398619D02*
X93869047Y-70398619D01*
X93869047Y-70398619D02*
X94011904Y-70446238D01*
X94345238Y-70398619D02*
X94583333Y-71398619D01*
X94583333Y-71398619D02*
X94773809Y-70684333D01*
X94773809Y-70684333D02*
X94964285Y-71398619D01*
X94964285Y-71398619D02*
X95202381Y-70398619D01*
X96107142Y-71398619D02*
X95535714Y-71398619D01*
X95821428Y-71398619D02*
X95821428Y-70398619D01*
X95821428Y-70398619D02*
X95726190Y-70541476D01*
X95726190Y-70541476D02*
X95630952Y-70636714D01*
X95630952Y-70636714D02*
X95535714Y-70684333D01*
X96440476Y-70398619D02*
X97107142Y-70398619D01*
X97107142Y-70398619D02*
X96678571Y-71398619D01*
%TO.C,SW25*%
X236315476Y-33251000D02*
X236458333Y-33298619D01*
X236458333Y-33298619D02*
X236696428Y-33298619D01*
X236696428Y-33298619D02*
X236791666Y-33251000D01*
X236791666Y-33251000D02*
X236839285Y-33203380D01*
X236839285Y-33203380D02*
X236886904Y-33108142D01*
X236886904Y-33108142D02*
X236886904Y-33012904D01*
X236886904Y-33012904D02*
X236839285Y-32917666D01*
X236839285Y-32917666D02*
X236791666Y-32870047D01*
X236791666Y-32870047D02*
X236696428Y-32822428D01*
X236696428Y-32822428D02*
X236505952Y-32774809D01*
X236505952Y-32774809D02*
X236410714Y-32727190D01*
X236410714Y-32727190D02*
X236363095Y-32679571D01*
X236363095Y-32679571D02*
X236315476Y-32584333D01*
X236315476Y-32584333D02*
X236315476Y-32489095D01*
X236315476Y-32489095D02*
X236363095Y-32393857D01*
X236363095Y-32393857D02*
X236410714Y-32346238D01*
X236410714Y-32346238D02*
X236505952Y-32298619D01*
X236505952Y-32298619D02*
X236744047Y-32298619D01*
X236744047Y-32298619D02*
X236886904Y-32346238D01*
X237220238Y-32298619D02*
X237458333Y-33298619D01*
X237458333Y-33298619D02*
X237648809Y-32584333D01*
X237648809Y-32584333D02*
X237839285Y-33298619D01*
X237839285Y-33298619D02*
X238077381Y-32298619D01*
X238410714Y-32393857D02*
X238458333Y-32346238D01*
X238458333Y-32346238D02*
X238553571Y-32298619D01*
X238553571Y-32298619D02*
X238791666Y-32298619D01*
X238791666Y-32298619D02*
X238886904Y-32346238D01*
X238886904Y-32346238D02*
X238934523Y-32393857D01*
X238934523Y-32393857D02*
X238982142Y-32489095D01*
X238982142Y-32489095D02*
X238982142Y-32584333D01*
X238982142Y-32584333D02*
X238934523Y-32727190D01*
X238934523Y-32727190D02*
X238363095Y-33298619D01*
X238363095Y-33298619D02*
X238982142Y-33298619D01*
X239886904Y-32298619D02*
X239410714Y-32298619D01*
X239410714Y-32298619D02*
X239363095Y-32774809D01*
X239363095Y-32774809D02*
X239410714Y-32727190D01*
X239410714Y-32727190D02*
X239505952Y-32679571D01*
X239505952Y-32679571D02*
X239744047Y-32679571D01*
X239744047Y-32679571D02*
X239839285Y-32727190D01*
X239839285Y-32727190D02*
X239886904Y-32774809D01*
X239886904Y-32774809D02*
X239934523Y-32870047D01*
X239934523Y-32870047D02*
X239934523Y-33108142D01*
X239934523Y-33108142D02*
X239886904Y-33203380D01*
X239886904Y-33203380D02*
X239839285Y-33251000D01*
X239839285Y-33251000D02*
X239744047Y-33298619D01*
X239744047Y-33298619D02*
X239505952Y-33298619D01*
X239505952Y-33298619D02*
X239410714Y-33251000D01*
X239410714Y-33251000D02*
X239363095Y-33203380D01*
%TO.C,SW28*%
X179165476Y-54969000D02*
X179308333Y-55016619D01*
X179308333Y-55016619D02*
X179546428Y-55016619D01*
X179546428Y-55016619D02*
X179641666Y-54969000D01*
X179641666Y-54969000D02*
X179689285Y-54921380D01*
X179689285Y-54921380D02*
X179736904Y-54826142D01*
X179736904Y-54826142D02*
X179736904Y-54730904D01*
X179736904Y-54730904D02*
X179689285Y-54635666D01*
X179689285Y-54635666D02*
X179641666Y-54588047D01*
X179641666Y-54588047D02*
X179546428Y-54540428D01*
X179546428Y-54540428D02*
X179355952Y-54492809D01*
X179355952Y-54492809D02*
X179260714Y-54445190D01*
X179260714Y-54445190D02*
X179213095Y-54397571D01*
X179213095Y-54397571D02*
X179165476Y-54302333D01*
X179165476Y-54302333D02*
X179165476Y-54207095D01*
X179165476Y-54207095D02*
X179213095Y-54111857D01*
X179213095Y-54111857D02*
X179260714Y-54064238D01*
X179260714Y-54064238D02*
X179355952Y-54016619D01*
X179355952Y-54016619D02*
X179594047Y-54016619D01*
X179594047Y-54016619D02*
X179736904Y-54064238D01*
X180070238Y-54016619D02*
X180308333Y-55016619D01*
X180308333Y-55016619D02*
X180498809Y-54302333D01*
X180498809Y-54302333D02*
X180689285Y-55016619D01*
X180689285Y-55016619D02*
X180927381Y-54016619D01*
X181260714Y-54111857D02*
X181308333Y-54064238D01*
X181308333Y-54064238D02*
X181403571Y-54016619D01*
X181403571Y-54016619D02*
X181641666Y-54016619D01*
X181641666Y-54016619D02*
X181736904Y-54064238D01*
X181736904Y-54064238D02*
X181784523Y-54111857D01*
X181784523Y-54111857D02*
X181832142Y-54207095D01*
X181832142Y-54207095D02*
X181832142Y-54302333D01*
X181832142Y-54302333D02*
X181784523Y-54445190D01*
X181784523Y-54445190D02*
X181213095Y-55016619D01*
X181213095Y-55016619D02*
X181832142Y-55016619D01*
X182403571Y-54445190D02*
X182308333Y-54397571D01*
X182308333Y-54397571D02*
X182260714Y-54349952D01*
X182260714Y-54349952D02*
X182213095Y-54254714D01*
X182213095Y-54254714D02*
X182213095Y-54207095D01*
X182213095Y-54207095D02*
X182260714Y-54111857D01*
X182260714Y-54111857D02*
X182308333Y-54064238D01*
X182308333Y-54064238D02*
X182403571Y-54016619D01*
X182403571Y-54016619D02*
X182594047Y-54016619D01*
X182594047Y-54016619D02*
X182689285Y-54064238D01*
X182689285Y-54064238D02*
X182736904Y-54111857D01*
X182736904Y-54111857D02*
X182784523Y-54207095D01*
X182784523Y-54207095D02*
X182784523Y-54254714D01*
X182784523Y-54254714D02*
X182736904Y-54349952D01*
X182736904Y-54349952D02*
X182689285Y-54397571D01*
X182689285Y-54397571D02*
X182594047Y-54445190D01*
X182594047Y-54445190D02*
X182403571Y-54445190D01*
X182403571Y-54445190D02*
X182308333Y-54492809D01*
X182308333Y-54492809D02*
X182260714Y-54540428D01*
X182260714Y-54540428D02*
X182213095Y-54635666D01*
X182213095Y-54635666D02*
X182213095Y-54826142D01*
X182213095Y-54826142D02*
X182260714Y-54921380D01*
X182260714Y-54921380D02*
X182308333Y-54969000D01*
X182308333Y-54969000D02*
X182403571Y-55016619D01*
X182403571Y-55016619D02*
X182594047Y-55016619D01*
X182594047Y-55016619D02*
X182689285Y-54969000D01*
X182689285Y-54969000D02*
X182736904Y-54921380D01*
X182736904Y-54921380D02*
X182784523Y-54826142D01*
X182784523Y-54826142D02*
X182784523Y-54635666D01*
X182784523Y-54635666D02*
X182736904Y-54540428D01*
X182736904Y-54540428D02*
X182689285Y-54492809D01*
X182689285Y-54492809D02*
X182594047Y-54445190D01*
%TO.C,SW21*%
X127812740Y-96529072D02*
X127912648Y-96641740D01*
X127912648Y-96641740D02*
X128118845Y-96760788D01*
X128118845Y-96760788D02*
X128225133Y-96767167D01*
X128225133Y-96767167D02*
X128290182Y-96749738D01*
X128290182Y-96749738D02*
X128379040Y-96691069D01*
X128379040Y-96691069D02*
X128426659Y-96608590D01*
X128426659Y-96608590D02*
X128433039Y-96502302D01*
X128433039Y-96502302D02*
X128415609Y-96437253D01*
X128415609Y-96437253D02*
X128356940Y-96348395D01*
X128356940Y-96348395D02*
X128215792Y-96211917D01*
X128215792Y-96211917D02*
X128157123Y-96123059D01*
X128157123Y-96123059D02*
X128139694Y-96058010D01*
X128139694Y-96058010D02*
X128146073Y-95951722D01*
X128146073Y-95951722D02*
X128193692Y-95869243D01*
X128193692Y-95869243D02*
X128282551Y-95810574D01*
X128282551Y-95810574D02*
X128347599Y-95793144D01*
X128347599Y-95793144D02*
X128453888Y-95799524D01*
X128453888Y-95799524D02*
X128660084Y-95918572D01*
X128660084Y-95918572D02*
X128759993Y-96031240D01*
X129072477Y-96156667D02*
X128778674Y-97141740D01*
X128778674Y-97141740D02*
X129300774Y-96618389D01*
X129300774Y-96618389D02*
X129108588Y-97332216D01*
X129108588Y-97332216D02*
X129814785Y-96585238D01*
X130055841Y-96834384D02*
X130120890Y-96816954D01*
X130120890Y-96816954D02*
X130227178Y-96823334D01*
X130227178Y-96823334D02*
X130433374Y-96942381D01*
X130433374Y-96942381D02*
X130492043Y-97031240D01*
X130492043Y-97031240D02*
X130509473Y-97096288D01*
X130509473Y-97096288D02*
X130503093Y-97202577D01*
X130503093Y-97202577D02*
X130455474Y-97285055D01*
X130455474Y-97285055D02*
X130342806Y-97384964D01*
X130342806Y-97384964D02*
X129562220Y-97594121D01*
X129562220Y-97594121D02*
X130098331Y-97903645D01*
X130923118Y-98379835D02*
X130428246Y-98094121D01*
X130675682Y-98236978D02*
X131175682Y-97370953D01*
X131175682Y-97370953D02*
X131021775Y-97447052D01*
X131021775Y-97447052D02*
X130891677Y-97481911D01*
X130891677Y-97481911D02*
X130785389Y-97475531D01*
%TO.C,SW41*%
X186837521Y-94839874D02*
X186987835Y-94848896D01*
X186987835Y-94848896D02*
X187217817Y-94787273D01*
X187217817Y-94787273D02*
X187297485Y-94716627D01*
X187297485Y-94716627D02*
X187331157Y-94658306D01*
X187331157Y-94658306D02*
X187352504Y-94553988D01*
X187352504Y-94553988D02*
X187327855Y-94461995D01*
X187327855Y-94461995D02*
X187257209Y-94382327D01*
X187257209Y-94382327D02*
X187198888Y-94348655D01*
X187198888Y-94348655D02*
X187094570Y-94327308D01*
X187094570Y-94327308D02*
X186898259Y-94330610D01*
X186898259Y-94330610D02*
X186793942Y-94309263D01*
X186793942Y-94309263D02*
X186735620Y-94275592D01*
X186735620Y-94275592D02*
X186664975Y-94195923D01*
X186664975Y-94195923D02*
X186640325Y-94103930D01*
X186640325Y-94103930D02*
X186661672Y-93999613D01*
X186661672Y-93999613D02*
X186695344Y-93941292D01*
X186695344Y-93941292D02*
X186775012Y-93870646D01*
X186775012Y-93870646D02*
X187004995Y-93809022D01*
X187004995Y-93809022D02*
X187155309Y-93818044D01*
X187464959Y-93685775D02*
X187953761Y-94590077D01*
X187953761Y-94590077D02*
X187952876Y-93850831D01*
X187952876Y-93850831D02*
X188321732Y-94491479D01*
X188321732Y-94491479D02*
X188292896Y-93463930D01*
X189161108Y-93576385D02*
X189333655Y-94220336D01*
X188832528Y-93270037D02*
X188787417Y-94021608D01*
X188787417Y-94021608D02*
X189385371Y-93861386D01*
X190345577Y-93949192D02*
X189793619Y-94097089D01*
X190069598Y-94023140D02*
X189810779Y-93057214D01*
X189810779Y-93057214D02*
X189755760Y-93219853D01*
X189755760Y-93219853D02*
X189688417Y-93336496D01*
X189688417Y-93336496D02*
X189608748Y-93407142D01*
%TO.C,SW33*%
X274415476Y-57065000D02*
X274558333Y-57112619D01*
X274558333Y-57112619D02*
X274796428Y-57112619D01*
X274796428Y-57112619D02*
X274891666Y-57065000D01*
X274891666Y-57065000D02*
X274939285Y-57017380D01*
X274939285Y-57017380D02*
X274986904Y-56922142D01*
X274986904Y-56922142D02*
X274986904Y-56826904D01*
X274986904Y-56826904D02*
X274939285Y-56731666D01*
X274939285Y-56731666D02*
X274891666Y-56684047D01*
X274891666Y-56684047D02*
X274796428Y-56636428D01*
X274796428Y-56636428D02*
X274605952Y-56588809D01*
X274605952Y-56588809D02*
X274510714Y-56541190D01*
X274510714Y-56541190D02*
X274463095Y-56493571D01*
X274463095Y-56493571D02*
X274415476Y-56398333D01*
X274415476Y-56398333D02*
X274415476Y-56303095D01*
X274415476Y-56303095D02*
X274463095Y-56207857D01*
X274463095Y-56207857D02*
X274510714Y-56160238D01*
X274510714Y-56160238D02*
X274605952Y-56112619D01*
X274605952Y-56112619D02*
X274844047Y-56112619D01*
X274844047Y-56112619D02*
X274986904Y-56160238D01*
X275320238Y-56112619D02*
X275558333Y-57112619D01*
X275558333Y-57112619D02*
X275748809Y-56398333D01*
X275748809Y-56398333D02*
X275939285Y-57112619D01*
X275939285Y-57112619D02*
X276177381Y-56112619D01*
X276463095Y-56112619D02*
X277082142Y-56112619D01*
X277082142Y-56112619D02*
X276748809Y-56493571D01*
X276748809Y-56493571D02*
X276891666Y-56493571D01*
X276891666Y-56493571D02*
X276986904Y-56541190D01*
X276986904Y-56541190D02*
X277034523Y-56588809D01*
X277034523Y-56588809D02*
X277082142Y-56684047D01*
X277082142Y-56684047D02*
X277082142Y-56922142D01*
X277082142Y-56922142D02*
X277034523Y-57017380D01*
X277034523Y-57017380D02*
X276986904Y-57065000D01*
X276986904Y-57065000D02*
X276891666Y-57112619D01*
X276891666Y-57112619D02*
X276605952Y-57112619D01*
X276605952Y-57112619D02*
X276510714Y-57065000D01*
X276510714Y-57065000D02*
X276463095Y-57017380D01*
X277415476Y-56112619D02*
X278034523Y-56112619D01*
X278034523Y-56112619D02*
X277701190Y-56493571D01*
X277701190Y-56493571D02*
X277844047Y-56493571D01*
X277844047Y-56493571D02*
X277939285Y-56541190D01*
X277939285Y-56541190D02*
X277986904Y-56588809D01*
X277986904Y-56588809D02*
X278034523Y-56684047D01*
X278034523Y-56684047D02*
X278034523Y-56922142D01*
X278034523Y-56922142D02*
X277986904Y-57017380D01*
X277986904Y-57017380D02*
X277939285Y-57065000D01*
X277939285Y-57065000D02*
X277844047Y-57112619D01*
X277844047Y-57112619D02*
X277558333Y-57112619D01*
X277558333Y-57112619D02*
X277463095Y-57065000D01*
X277463095Y-57065000D02*
X277415476Y-57017380D01*
%TO.C,SW20*%
X104943025Y-93893489D02*
X105068690Y-93976460D01*
X105068690Y-93976460D02*
X105298672Y-94038084D01*
X105298672Y-94038084D02*
X105402989Y-94016737D01*
X105402989Y-94016737D02*
X105461311Y-93983065D01*
X105461311Y-93983065D02*
X105531957Y-93903397D01*
X105531957Y-93903397D02*
X105556606Y-93811404D01*
X105556606Y-93811404D02*
X105535259Y-93707086D01*
X105535259Y-93707086D02*
X105501587Y-93648765D01*
X105501587Y-93648765D02*
X105421919Y-93578119D01*
X105421919Y-93578119D02*
X105250258Y-93482824D01*
X105250258Y-93482824D02*
X105170590Y-93412178D01*
X105170590Y-93412178D02*
X105136918Y-93353857D01*
X105136918Y-93353857D02*
X105115571Y-93249539D01*
X105115571Y-93249539D02*
X105140220Y-93157546D01*
X105140220Y-93157546D02*
X105210866Y-93077878D01*
X105210866Y-93077878D02*
X105269187Y-93044206D01*
X105269187Y-93044206D02*
X105373505Y-93022859D01*
X105373505Y-93022859D02*
X105603487Y-93084483D01*
X105603487Y-93084483D02*
X105729152Y-93167453D01*
X106063452Y-93207730D02*
X106034615Y-94235279D01*
X106034615Y-94235279D02*
X106403472Y-93594631D01*
X106403472Y-93594631D02*
X106402587Y-94333877D01*
X106402587Y-94333877D02*
X106891389Y-93429575D01*
X107188714Y-93607841D02*
X107247035Y-93574169D01*
X107247035Y-93574169D02*
X107351353Y-93552822D01*
X107351353Y-93552822D02*
X107581335Y-93614445D01*
X107581335Y-93614445D02*
X107661004Y-93685091D01*
X107661004Y-93685091D02*
X107694675Y-93743412D01*
X107694675Y-93743412D02*
X107716022Y-93847730D01*
X107716022Y-93847730D02*
X107691373Y-93939723D01*
X107691373Y-93939723D02*
X107608402Y-94065388D01*
X107608402Y-94065388D02*
X106908548Y-94469449D01*
X106908548Y-94469449D02*
X107506502Y-94629670D01*
X108363275Y-93823966D02*
X108455268Y-93848615D01*
X108455268Y-93848615D02*
X108534937Y-93919261D01*
X108534937Y-93919261D02*
X108568608Y-93977582D01*
X108568608Y-93977582D02*
X108589955Y-94081900D01*
X108589955Y-94081900D02*
X108586653Y-94278210D01*
X108586653Y-94278210D02*
X108525029Y-94508193D01*
X108525029Y-94508193D02*
X108429734Y-94679854D01*
X108429734Y-94679854D02*
X108359088Y-94759522D01*
X108359088Y-94759522D02*
X108300767Y-94793194D01*
X108300767Y-94793194D02*
X108196449Y-94814541D01*
X108196449Y-94814541D02*
X108104456Y-94789891D01*
X108104456Y-94789891D02*
X108024788Y-94719245D01*
X108024788Y-94719245D02*
X107991116Y-94660924D01*
X107991116Y-94660924D02*
X107969769Y-94556607D01*
X107969769Y-94556607D02*
X107973072Y-94360296D01*
X107973072Y-94360296D02*
X108034695Y-94130314D01*
X108034695Y-94130314D02*
X108129991Y-93958653D01*
X108129991Y-93958653D02*
X108200637Y-93878984D01*
X108200637Y-93878984D02*
X108258958Y-93845313D01*
X108258958Y-93845313D02*
X108363275Y-93823966D01*
%TO.C,SW11*%
X93440476Y-52301000D02*
X93583333Y-52348619D01*
X93583333Y-52348619D02*
X93821428Y-52348619D01*
X93821428Y-52348619D02*
X93916666Y-52301000D01*
X93916666Y-52301000D02*
X93964285Y-52253380D01*
X93964285Y-52253380D02*
X94011904Y-52158142D01*
X94011904Y-52158142D02*
X94011904Y-52062904D01*
X94011904Y-52062904D02*
X93964285Y-51967666D01*
X93964285Y-51967666D02*
X93916666Y-51920047D01*
X93916666Y-51920047D02*
X93821428Y-51872428D01*
X93821428Y-51872428D02*
X93630952Y-51824809D01*
X93630952Y-51824809D02*
X93535714Y-51777190D01*
X93535714Y-51777190D02*
X93488095Y-51729571D01*
X93488095Y-51729571D02*
X93440476Y-51634333D01*
X93440476Y-51634333D02*
X93440476Y-51539095D01*
X93440476Y-51539095D02*
X93488095Y-51443857D01*
X93488095Y-51443857D02*
X93535714Y-51396238D01*
X93535714Y-51396238D02*
X93630952Y-51348619D01*
X93630952Y-51348619D02*
X93869047Y-51348619D01*
X93869047Y-51348619D02*
X94011904Y-51396238D01*
X94345238Y-51348619D02*
X94583333Y-52348619D01*
X94583333Y-52348619D02*
X94773809Y-51634333D01*
X94773809Y-51634333D02*
X94964285Y-52348619D01*
X94964285Y-52348619D02*
X95202381Y-51348619D01*
X96107142Y-52348619D02*
X95535714Y-52348619D01*
X95821428Y-52348619D02*
X95821428Y-51348619D01*
X95821428Y-51348619D02*
X95726190Y-51491476D01*
X95726190Y-51491476D02*
X95630952Y-51586714D01*
X95630952Y-51586714D02*
X95535714Y-51634333D01*
X97059523Y-52348619D02*
X96488095Y-52348619D01*
X96773809Y-52348619D02*
X96773809Y-51348619D01*
X96773809Y-51348619D02*
X96678571Y-51491476D01*
X96678571Y-51491476D02*
X96583333Y-51586714D01*
X96583333Y-51586714D02*
X96488095Y-51634333D01*
%TO.C,SW3*%
X55816667Y-33251000D02*
X55959524Y-33298619D01*
X55959524Y-33298619D02*
X56197619Y-33298619D01*
X56197619Y-33298619D02*
X56292857Y-33251000D01*
X56292857Y-33251000D02*
X56340476Y-33203380D01*
X56340476Y-33203380D02*
X56388095Y-33108142D01*
X56388095Y-33108142D02*
X56388095Y-33012904D01*
X56388095Y-33012904D02*
X56340476Y-32917666D01*
X56340476Y-32917666D02*
X56292857Y-32870047D01*
X56292857Y-32870047D02*
X56197619Y-32822428D01*
X56197619Y-32822428D02*
X56007143Y-32774809D01*
X56007143Y-32774809D02*
X55911905Y-32727190D01*
X55911905Y-32727190D02*
X55864286Y-32679571D01*
X55864286Y-32679571D02*
X55816667Y-32584333D01*
X55816667Y-32584333D02*
X55816667Y-32489095D01*
X55816667Y-32489095D02*
X55864286Y-32393857D01*
X55864286Y-32393857D02*
X55911905Y-32346238D01*
X55911905Y-32346238D02*
X56007143Y-32298619D01*
X56007143Y-32298619D02*
X56245238Y-32298619D01*
X56245238Y-32298619D02*
X56388095Y-32346238D01*
X56721429Y-32298619D02*
X56959524Y-33298619D01*
X56959524Y-33298619D02*
X57150000Y-32584333D01*
X57150000Y-32584333D02*
X57340476Y-33298619D01*
X57340476Y-33298619D02*
X57578572Y-32298619D01*
X57864286Y-32298619D02*
X58483333Y-32298619D01*
X58483333Y-32298619D02*
X58150000Y-32679571D01*
X58150000Y-32679571D02*
X58292857Y-32679571D01*
X58292857Y-32679571D02*
X58388095Y-32727190D01*
X58388095Y-32727190D02*
X58435714Y-32774809D01*
X58435714Y-32774809D02*
X58483333Y-32870047D01*
X58483333Y-32870047D02*
X58483333Y-33108142D01*
X58483333Y-33108142D02*
X58435714Y-33203380D01*
X58435714Y-33203380D02*
X58388095Y-33251000D01*
X58388095Y-33251000D02*
X58292857Y-33298619D01*
X58292857Y-33298619D02*
X58007143Y-33298619D01*
X58007143Y-33298619D02*
X57911905Y-33251000D01*
X57911905Y-33251000D02*
X57864286Y-33203380D01*
%TO.C,SW7*%
X17716667Y-57065000D02*
X17859524Y-57112619D01*
X17859524Y-57112619D02*
X18097619Y-57112619D01*
X18097619Y-57112619D02*
X18192857Y-57065000D01*
X18192857Y-57065000D02*
X18240476Y-57017380D01*
X18240476Y-57017380D02*
X18288095Y-56922142D01*
X18288095Y-56922142D02*
X18288095Y-56826904D01*
X18288095Y-56826904D02*
X18240476Y-56731666D01*
X18240476Y-56731666D02*
X18192857Y-56684047D01*
X18192857Y-56684047D02*
X18097619Y-56636428D01*
X18097619Y-56636428D02*
X17907143Y-56588809D01*
X17907143Y-56588809D02*
X17811905Y-56541190D01*
X17811905Y-56541190D02*
X17764286Y-56493571D01*
X17764286Y-56493571D02*
X17716667Y-56398333D01*
X17716667Y-56398333D02*
X17716667Y-56303095D01*
X17716667Y-56303095D02*
X17764286Y-56207857D01*
X17764286Y-56207857D02*
X17811905Y-56160238D01*
X17811905Y-56160238D02*
X17907143Y-56112619D01*
X17907143Y-56112619D02*
X18145238Y-56112619D01*
X18145238Y-56112619D02*
X18288095Y-56160238D01*
X18621429Y-56112619D02*
X18859524Y-57112619D01*
X18859524Y-57112619D02*
X19050000Y-56398333D01*
X19050000Y-56398333D02*
X19240476Y-57112619D01*
X19240476Y-57112619D02*
X19478572Y-56112619D01*
X19764286Y-56112619D02*
X20430952Y-56112619D01*
X20430952Y-56112619D02*
X20002381Y-57112619D01*
%TO.C,SW6*%
X112966667Y-35919000D02*
X113109524Y-35966619D01*
X113109524Y-35966619D02*
X113347619Y-35966619D01*
X113347619Y-35966619D02*
X113442857Y-35919000D01*
X113442857Y-35919000D02*
X113490476Y-35871380D01*
X113490476Y-35871380D02*
X113538095Y-35776142D01*
X113538095Y-35776142D02*
X113538095Y-35680904D01*
X113538095Y-35680904D02*
X113490476Y-35585666D01*
X113490476Y-35585666D02*
X113442857Y-35538047D01*
X113442857Y-35538047D02*
X113347619Y-35490428D01*
X113347619Y-35490428D02*
X113157143Y-35442809D01*
X113157143Y-35442809D02*
X113061905Y-35395190D01*
X113061905Y-35395190D02*
X113014286Y-35347571D01*
X113014286Y-35347571D02*
X112966667Y-35252333D01*
X112966667Y-35252333D02*
X112966667Y-35157095D01*
X112966667Y-35157095D02*
X113014286Y-35061857D01*
X113014286Y-35061857D02*
X113061905Y-35014238D01*
X113061905Y-35014238D02*
X113157143Y-34966619D01*
X113157143Y-34966619D02*
X113395238Y-34966619D01*
X113395238Y-34966619D02*
X113538095Y-35014238D01*
X113871429Y-34966619D02*
X114109524Y-35966619D01*
X114109524Y-35966619D02*
X114300000Y-35252333D01*
X114300000Y-35252333D02*
X114490476Y-35966619D01*
X114490476Y-35966619D02*
X114728572Y-34966619D01*
X115538095Y-34966619D02*
X115347619Y-34966619D01*
X115347619Y-34966619D02*
X115252381Y-35014238D01*
X115252381Y-35014238D02*
X115204762Y-35061857D01*
X115204762Y-35061857D02*
X115109524Y-35204714D01*
X115109524Y-35204714D02*
X115061905Y-35395190D01*
X115061905Y-35395190D02*
X115061905Y-35776142D01*
X115061905Y-35776142D02*
X115109524Y-35871380D01*
X115109524Y-35871380D02*
X115157143Y-35919000D01*
X115157143Y-35919000D02*
X115252381Y-35966619D01*
X115252381Y-35966619D02*
X115442857Y-35966619D01*
X115442857Y-35966619D02*
X115538095Y-35919000D01*
X115538095Y-35919000D02*
X115585714Y-35871380D01*
X115585714Y-35871380D02*
X115633333Y-35776142D01*
X115633333Y-35776142D02*
X115633333Y-35538047D01*
X115633333Y-35538047D02*
X115585714Y-35442809D01*
X115585714Y-35442809D02*
X115538095Y-35395190D01*
X115538095Y-35395190D02*
X115442857Y-35347571D01*
X115442857Y-35347571D02*
X115252381Y-35347571D01*
X115252381Y-35347571D02*
X115157143Y-35395190D01*
X115157143Y-35395190D02*
X115109524Y-35442809D01*
X115109524Y-35442809D02*
X115061905Y-35538047D01*
%TO.C,SW24*%
X217265476Y-31157000D02*
X217408333Y-31204619D01*
X217408333Y-31204619D02*
X217646428Y-31204619D01*
X217646428Y-31204619D02*
X217741666Y-31157000D01*
X217741666Y-31157000D02*
X217789285Y-31109380D01*
X217789285Y-31109380D02*
X217836904Y-31014142D01*
X217836904Y-31014142D02*
X217836904Y-30918904D01*
X217836904Y-30918904D02*
X217789285Y-30823666D01*
X217789285Y-30823666D02*
X217741666Y-30776047D01*
X217741666Y-30776047D02*
X217646428Y-30728428D01*
X217646428Y-30728428D02*
X217455952Y-30680809D01*
X217455952Y-30680809D02*
X217360714Y-30633190D01*
X217360714Y-30633190D02*
X217313095Y-30585571D01*
X217313095Y-30585571D02*
X217265476Y-30490333D01*
X217265476Y-30490333D02*
X217265476Y-30395095D01*
X217265476Y-30395095D02*
X217313095Y-30299857D01*
X217313095Y-30299857D02*
X217360714Y-30252238D01*
X217360714Y-30252238D02*
X217455952Y-30204619D01*
X217455952Y-30204619D02*
X217694047Y-30204619D01*
X217694047Y-30204619D02*
X217836904Y-30252238D01*
X218170238Y-30204619D02*
X218408333Y-31204619D01*
X218408333Y-31204619D02*
X218598809Y-30490333D01*
X218598809Y-30490333D02*
X218789285Y-31204619D01*
X218789285Y-31204619D02*
X219027381Y-30204619D01*
X219360714Y-30299857D02*
X219408333Y-30252238D01*
X219408333Y-30252238D02*
X219503571Y-30204619D01*
X219503571Y-30204619D02*
X219741666Y-30204619D01*
X219741666Y-30204619D02*
X219836904Y-30252238D01*
X219836904Y-30252238D02*
X219884523Y-30299857D01*
X219884523Y-30299857D02*
X219932142Y-30395095D01*
X219932142Y-30395095D02*
X219932142Y-30490333D01*
X219932142Y-30490333D02*
X219884523Y-30633190D01*
X219884523Y-30633190D02*
X219313095Y-31204619D01*
X219313095Y-31204619D02*
X219932142Y-31204619D01*
X220789285Y-30537952D02*
X220789285Y-31204619D01*
X220551190Y-30157000D02*
X220313095Y-30871285D01*
X220313095Y-30871285D02*
X220932142Y-30871285D01*
%TO.C,SW18*%
X112490476Y-74019000D02*
X112633333Y-74066619D01*
X112633333Y-74066619D02*
X112871428Y-74066619D01*
X112871428Y-74066619D02*
X112966666Y-74019000D01*
X112966666Y-74019000D02*
X113014285Y-73971380D01*
X113014285Y-73971380D02*
X113061904Y-73876142D01*
X113061904Y-73876142D02*
X113061904Y-73780904D01*
X113061904Y-73780904D02*
X113014285Y-73685666D01*
X113014285Y-73685666D02*
X112966666Y-73638047D01*
X112966666Y-73638047D02*
X112871428Y-73590428D01*
X112871428Y-73590428D02*
X112680952Y-73542809D01*
X112680952Y-73542809D02*
X112585714Y-73495190D01*
X112585714Y-73495190D02*
X112538095Y-73447571D01*
X112538095Y-73447571D02*
X112490476Y-73352333D01*
X112490476Y-73352333D02*
X112490476Y-73257095D01*
X112490476Y-73257095D02*
X112538095Y-73161857D01*
X112538095Y-73161857D02*
X112585714Y-73114238D01*
X112585714Y-73114238D02*
X112680952Y-73066619D01*
X112680952Y-73066619D02*
X112919047Y-73066619D01*
X112919047Y-73066619D02*
X113061904Y-73114238D01*
X113395238Y-73066619D02*
X113633333Y-74066619D01*
X113633333Y-74066619D02*
X113823809Y-73352333D01*
X113823809Y-73352333D02*
X114014285Y-74066619D01*
X114014285Y-74066619D02*
X114252381Y-73066619D01*
X115157142Y-74066619D02*
X114585714Y-74066619D01*
X114871428Y-74066619D02*
X114871428Y-73066619D01*
X114871428Y-73066619D02*
X114776190Y-73209476D01*
X114776190Y-73209476D02*
X114680952Y-73304714D01*
X114680952Y-73304714D02*
X114585714Y-73352333D01*
X115728571Y-73495190D02*
X115633333Y-73447571D01*
X115633333Y-73447571D02*
X115585714Y-73399952D01*
X115585714Y-73399952D02*
X115538095Y-73304714D01*
X115538095Y-73304714D02*
X115538095Y-73257095D01*
X115538095Y-73257095D02*
X115585714Y-73161857D01*
X115585714Y-73161857D02*
X115633333Y-73114238D01*
X115633333Y-73114238D02*
X115728571Y-73066619D01*
X115728571Y-73066619D02*
X115919047Y-73066619D01*
X115919047Y-73066619D02*
X116014285Y-73114238D01*
X116014285Y-73114238D02*
X116061904Y-73161857D01*
X116061904Y-73161857D02*
X116109523Y-73257095D01*
X116109523Y-73257095D02*
X116109523Y-73304714D01*
X116109523Y-73304714D02*
X116061904Y-73399952D01*
X116061904Y-73399952D02*
X116014285Y-73447571D01*
X116014285Y-73447571D02*
X115919047Y-73495190D01*
X115919047Y-73495190D02*
X115728571Y-73495190D01*
X115728571Y-73495190D02*
X115633333Y-73542809D01*
X115633333Y-73542809D02*
X115585714Y-73590428D01*
X115585714Y-73590428D02*
X115538095Y-73685666D01*
X115538095Y-73685666D02*
X115538095Y-73876142D01*
X115538095Y-73876142D02*
X115585714Y-73971380D01*
X115585714Y-73971380D02*
X115633333Y-74019000D01*
X115633333Y-74019000D02*
X115728571Y-74066619D01*
X115728571Y-74066619D02*
X115919047Y-74066619D01*
X115919047Y-74066619D02*
X116014285Y-74019000D01*
X116014285Y-74019000D02*
X116061904Y-73971380D01*
X116061904Y-73971380D02*
X116109523Y-73876142D01*
X116109523Y-73876142D02*
X116109523Y-73685666D01*
X116109523Y-73685666D02*
X116061904Y-73590428D01*
X116061904Y-73590428D02*
X116014285Y-73542809D01*
X116014285Y-73542809D02*
X115919047Y-73495190D01*
%TO.C,SW35*%
X198215476Y-71351000D02*
X198358333Y-71398619D01*
X198358333Y-71398619D02*
X198596428Y-71398619D01*
X198596428Y-71398619D02*
X198691666Y-71351000D01*
X198691666Y-71351000D02*
X198739285Y-71303380D01*
X198739285Y-71303380D02*
X198786904Y-71208142D01*
X198786904Y-71208142D02*
X198786904Y-71112904D01*
X198786904Y-71112904D02*
X198739285Y-71017666D01*
X198739285Y-71017666D02*
X198691666Y-70970047D01*
X198691666Y-70970047D02*
X198596428Y-70922428D01*
X198596428Y-70922428D02*
X198405952Y-70874809D01*
X198405952Y-70874809D02*
X198310714Y-70827190D01*
X198310714Y-70827190D02*
X198263095Y-70779571D01*
X198263095Y-70779571D02*
X198215476Y-70684333D01*
X198215476Y-70684333D02*
X198215476Y-70589095D01*
X198215476Y-70589095D02*
X198263095Y-70493857D01*
X198263095Y-70493857D02*
X198310714Y-70446238D01*
X198310714Y-70446238D02*
X198405952Y-70398619D01*
X198405952Y-70398619D02*
X198644047Y-70398619D01*
X198644047Y-70398619D02*
X198786904Y-70446238D01*
X199120238Y-70398619D02*
X199358333Y-71398619D01*
X199358333Y-71398619D02*
X199548809Y-70684333D01*
X199548809Y-70684333D02*
X199739285Y-71398619D01*
X199739285Y-71398619D02*
X199977381Y-70398619D01*
X200263095Y-70398619D02*
X200882142Y-70398619D01*
X200882142Y-70398619D02*
X200548809Y-70779571D01*
X200548809Y-70779571D02*
X200691666Y-70779571D01*
X200691666Y-70779571D02*
X200786904Y-70827190D01*
X200786904Y-70827190D02*
X200834523Y-70874809D01*
X200834523Y-70874809D02*
X200882142Y-70970047D01*
X200882142Y-70970047D02*
X200882142Y-71208142D01*
X200882142Y-71208142D02*
X200834523Y-71303380D01*
X200834523Y-71303380D02*
X200786904Y-71351000D01*
X200786904Y-71351000D02*
X200691666Y-71398619D01*
X200691666Y-71398619D02*
X200405952Y-71398619D01*
X200405952Y-71398619D02*
X200310714Y-71351000D01*
X200310714Y-71351000D02*
X200263095Y-71303380D01*
X201786904Y-70398619D02*
X201310714Y-70398619D01*
X201310714Y-70398619D02*
X201263095Y-70874809D01*
X201263095Y-70874809D02*
X201310714Y-70827190D01*
X201310714Y-70827190D02*
X201405952Y-70779571D01*
X201405952Y-70779571D02*
X201644047Y-70779571D01*
X201644047Y-70779571D02*
X201739285Y-70827190D01*
X201739285Y-70827190D02*
X201786904Y-70874809D01*
X201786904Y-70874809D02*
X201834523Y-70970047D01*
X201834523Y-70970047D02*
X201834523Y-71208142D01*
X201834523Y-71208142D02*
X201786904Y-71303380D01*
X201786904Y-71303380D02*
X201739285Y-71351000D01*
X201739285Y-71351000D02*
X201644047Y-71398619D01*
X201644047Y-71398619D02*
X201405952Y-71398619D01*
X201405952Y-71398619D02*
X201310714Y-71351000D01*
X201310714Y-71351000D02*
X201263095Y-71303380D01*
%TO.C,SW12*%
X112490476Y-54969000D02*
X112633333Y-55016619D01*
X112633333Y-55016619D02*
X112871428Y-55016619D01*
X112871428Y-55016619D02*
X112966666Y-54969000D01*
X112966666Y-54969000D02*
X113014285Y-54921380D01*
X113014285Y-54921380D02*
X113061904Y-54826142D01*
X113061904Y-54826142D02*
X113061904Y-54730904D01*
X113061904Y-54730904D02*
X113014285Y-54635666D01*
X113014285Y-54635666D02*
X112966666Y-54588047D01*
X112966666Y-54588047D02*
X112871428Y-54540428D01*
X112871428Y-54540428D02*
X112680952Y-54492809D01*
X112680952Y-54492809D02*
X112585714Y-54445190D01*
X112585714Y-54445190D02*
X112538095Y-54397571D01*
X112538095Y-54397571D02*
X112490476Y-54302333D01*
X112490476Y-54302333D02*
X112490476Y-54207095D01*
X112490476Y-54207095D02*
X112538095Y-54111857D01*
X112538095Y-54111857D02*
X112585714Y-54064238D01*
X112585714Y-54064238D02*
X112680952Y-54016619D01*
X112680952Y-54016619D02*
X112919047Y-54016619D01*
X112919047Y-54016619D02*
X113061904Y-54064238D01*
X113395238Y-54016619D02*
X113633333Y-55016619D01*
X113633333Y-55016619D02*
X113823809Y-54302333D01*
X113823809Y-54302333D02*
X114014285Y-55016619D01*
X114014285Y-55016619D02*
X114252381Y-54016619D01*
X115157142Y-55016619D02*
X114585714Y-55016619D01*
X114871428Y-55016619D02*
X114871428Y-54016619D01*
X114871428Y-54016619D02*
X114776190Y-54159476D01*
X114776190Y-54159476D02*
X114680952Y-54254714D01*
X114680952Y-54254714D02*
X114585714Y-54302333D01*
X115538095Y-54111857D02*
X115585714Y-54064238D01*
X115585714Y-54064238D02*
X115680952Y-54016619D01*
X115680952Y-54016619D02*
X115919047Y-54016619D01*
X115919047Y-54016619D02*
X116014285Y-54064238D01*
X116014285Y-54064238D02*
X116061904Y-54111857D01*
X116061904Y-54111857D02*
X116109523Y-54207095D01*
X116109523Y-54207095D02*
X116109523Y-54302333D01*
X116109523Y-54302333D02*
X116061904Y-54445190D01*
X116061904Y-54445190D02*
X115490476Y-55016619D01*
X115490476Y-55016619D02*
X116109523Y-55016619D01*
%TO.C,SW40*%
X164333096Y-98357346D02*
X164480623Y-98327157D01*
X164480623Y-98327157D02*
X164686820Y-98208109D01*
X164686820Y-98208109D02*
X164745489Y-98119251D01*
X164745489Y-98119251D02*
X164762919Y-98054202D01*
X164762919Y-98054202D02*
X164756539Y-97947914D01*
X164756539Y-97947914D02*
X164708920Y-97865435D01*
X164708920Y-97865435D02*
X164620062Y-97806766D01*
X164620062Y-97806766D02*
X164555013Y-97789336D01*
X164555013Y-97789336D02*
X164448725Y-97795716D01*
X164448725Y-97795716D02*
X164259958Y-97849715D01*
X164259958Y-97849715D02*
X164153670Y-97856095D01*
X164153670Y-97856095D02*
X164088621Y-97838665D01*
X164088621Y-97838665D02*
X163999763Y-97779996D01*
X163999763Y-97779996D02*
X163952144Y-97697517D01*
X163952144Y-97697517D02*
X163945764Y-97591229D01*
X163945764Y-97591229D02*
X163963194Y-97526180D01*
X163963194Y-97526180D02*
X164021863Y-97437322D01*
X164021863Y-97437322D02*
X164228059Y-97318274D01*
X164228059Y-97318274D02*
X164375587Y-97288085D01*
X164640452Y-97080179D02*
X165346649Y-97827157D01*
X165346649Y-97827157D02*
X165154463Y-97113329D01*
X165154463Y-97113329D02*
X165676563Y-97636680D01*
X165676563Y-97636680D02*
X165382760Y-96651607D01*
X166250494Y-96535521D02*
X166583828Y-97112871D01*
X165853822Y-96324654D02*
X166004768Y-97062291D01*
X166004768Y-97062291D02*
X166540879Y-96752767D01*
X166702417Y-95889703D02*
X166784896Y-95842084D01*
X166784896Y-95842084D02*
X166891184Y-95835704D01*
X166891184Y-95835704D02*
X166956233Y-95853134D01*
X166956233Y-95853134D02*
X167045091Y-95911803D01*
X167045091Y-95911803D02*
X167181569Y-96052951D01*
X167181569Y-96052951D02*
X167300616Y-96259147D01*
X167300616Y-96259147D02*
X167354615Y-96447914D01*
X167354615Y-96447914D02*
X167360995Y-96554202D01*
X167360995Y-96554202D02*
X167343565Y-96619251D01*
X167343565Y-96619251D02*
X167284896Y-96708109D01*
X167284896Y-96708109D02*
X167202417Y-96755728D01*
X167202417Y-96755728D02*
X167096129Y-96762108D01*
X167096129Y-96762108D02*
X167031080Y-96744678D01*
X167031080Y-96744678D02*
X166942222Y-96686009D01*
X166942222Y-96686009D02*
X166805745Y-96544861D01*
X166805745Y-96544861D02*
X166686697Y-96338665D01*
X166686697Y-96338665D02*
X166632698Y-96149898D01*
X166632698Y-96149898D02*
X166626319Y-96043610D01*
X166626319Y-96043610D02*
X166643748Y-95978561D01*
X166643748Y-95978561D02*
X166702417Y-95889703D01*
%TO.C,SW13*%
X17240476Y-76115000D02*
X17383333Y-76162619D01*
X17383333Y-76162619D02*
X17621428Y-76162619D01*
X17621428Y-76162619D02*
X17716666Y-76115000D01*
X17716666Y-76115000D02*
X17764285Y-76067380D01*
X17764285Y-76067380D02*
X17811904Y-75972142D01*
X17811904Y-75972142D02*
X17811904Y-75876904D01*
X17811904Y-75876904D02*
X17764285Y-75781666D01*
X17764285Y-75781666D02*
X17716666Y-75734047D01*
X17716666Y-75734047D02*
X17621428Y-75686428D01*
X17621428Y-75686428D02*
X17430952Y-75638809D01*
X17430952Y-75638809D02*
X17335714Y-75591190D01*
X17335714Y-75591190D02*
X17288095Y-75543571D01*
X17288095Y-75543571D02*
X17240476Y-75448333D01*
X17240476Y-75448333D02*
X17240476Y-75353095D01*
X17240476Y-75353095D02*
X17288095Y-75257857D01*
X17288095Y-75257857D02*
X17335714Y-75210238D01*
X17335714Y-75210238D02*
X17430952Y-75162619D01*
X17430952Y-75162619D02*
X17669047Y-75162619D01*
X17669047Y-75162619D02*
X17811904Y-75210238D01*
X18145238Y-75162619D02*
X18383333Y-76162619D01*
X18383333Y-76162619D02*
X18573809Y-75448333D01*
X18573809Y-75448333D02*
X18764285Y-76162619D01*
X18764285Y-76162619D02*
X19002381Y-75162619D01*
X19907142Y-76162619D02*
X19335714Y-76162619D01*
X19621428Y-76162619D02*
X19621428Y-75162619D01*
X19621428Y-75162619D02*
X19526190Y-75305476D01*
X19526190Y-75305476D02*
X19430952Y-75400714D01*
X19430952Y-75400714D02*
X19335714Y-75448333D01*
X20240476Y-75162619D02*
X20859523Y-75162619D01*
X20859523Y-75162619D02*
X20526190Y-75543571D01*
X20526190Y-75543571D02*
X20669047Y-75543571D01*
X20669047Y-75543571D02*
X20764285Y-75591190D01*
X20764285Y-75591190D02*
X20811904Y-75638809D01*
X20811904Y-75638809D02*
X20859523Y-75734047D01*
X20859523Y-75734047D02*
X20859523Y-75972142D01*
X20859523Y-75972142D02*
X20811904Y-76067380D01*
X20811904Y-76067380D02*
X20764285Y-76115000D01*
X20764285Y-76115000D02*
X20669047Y-76162619D01*
X20669047Y-76162619D02*
X20383333Y-76162619D01*
X20383333Y-76162619D02*
X20288095Y-76115000D01*
X20288095Y-76115000D02*
X20240476Y-76067380D01*
%TO.C,SW26*%
X255365476Y-38015000D02*
X255508333Y-38062619D01*
X255508333Y-38062619D02*
X255746428Y-38062619D01*
X255746428Y-38062619D02*
X255841666Y-38015000D01*
X255841666Y-38015000D02*
X255889285Y-37967380D01*
X255889285Y-37967380D02*
X255936904Y-37872142D01*
X255936904Y-37872142D02*
X255936904Y-37776904D01*
X255936904Y-37776904D02*
X255889285Y-37681666D01*
X255889285Y-37681666D02*
X255841666Y-37634047D01*
X255841666Y-37634047D02*
X255746428Y-37586428D01*
X255746428Y-37586428D02*
X255555952Y-37538809D01*
X255555952Y-37538809D02*
X255460714Y-37491190D01*
X255460714Y-37491190D02*
X255413095Y-37443571D01*
X255413095Y-37443571D02*
X255365476Y-37348333D01*
X255365476Y-37348333D02*
X255365476Y-37253095D01*
X255365476Y-37253095D02*
X255413095Y-37157857D01*
X255413095Y-37157857D02*
X255460714Y-37110238D01*
X255460714Y-37110238D02*
X255555952Y-37062619D01*
X255555952Y-37062619D02*
X255794047Y-37062619D01*
X255794047Y-37062619D02*
X255936904Y-37110238D01*
X256270238Y-37062619D02*
X256508333Y-38062619D01*
X256508333Y-38062619D02*
X256698809Y-37348333D01*
X256698809Y-37348333D02*
X256889285Y-38062619D01*
X256889285Y-38062619D02*
X257127381Y-37062619D01*
X257460714Y-37157857D02*
X257508333Y-37110238D01*
X257508333Y-37110238D02*
X257603571Y-37062619D01*
X257603571Y-37062619D02*
X257841666Y-37062619D01*
X257841666Y-37062619D02*
X257936904Y-37110238D01*
X257936904Y-37110238D02*
X257984523Y-37157857D01*
X257984523Y-37157857D02*
X258032142Y-37253095D01*
X258032142Y-37253095D02*
X258032142Y-37348333D01*
X258032142Y-37348333D02*
X257984523Y-37491190D01*
X257984523Y-37491190D02*
X257413095Y-38062619D01*
X257413095Y-38062619D02*
X258032142Y-38062619D01*
X258889285Y-37062619D02*
X258698809Y-37062619D01*
X258698809Y-37062619D02*
X258603571Y-37110238D01*
X258603571Y-37110238D02*
X258555952Y-37157857D01*
X258555952Y-37157857D02*
X258460714Y-37300714D01*
X258460714Y-37300714D02*
X258413095Y-37491190D01*
X258413095Y-37491190D02*
X258413095Y-37872142D01*
X258413095Y-37872142D02*
X258460714Y-37967380D01*
X258460714Y-37967380D02*
X258508333Y-38015000D01*
X258508333Y-38015000D02*
X258603571Y-38062619D01*
X258603571Y-38062619D02*
X258794047Y-38062619D01*
X258794047Y-38062619D02*
X258889285Y-38015000D01*
X258889285Y-38015000D02*
X258936904Y-37967380D01*
X258936904Y-37967380D02*
X258984523Y-37872142D01*
X258984523Y-37872142D02*
X258984523Y-37634047D01*
X258984523Y-37634047D02*
X258936904Y-37538809D01*
X258936904Y-37538809D02*
X258889285Y-37491190D01*
X258889285Y-37491190D02*
X258794047Y-37443571D01*
X258794047Y-37443571D02*
X258603571Y-37443571D01*
X258603571Y-37443571D02*
X258508333Y-37491190D01*
X258508333Y-37491190D02*
X258460714Y-37538809D01*
X258460714Y-37538809D02*
X258413095Y-37634047D01*
%TO.C,SW10*%
X74390476Y-50207000D02*
X74533333Y-50254619D01*
X74533333Y-50254619D02*
X74771428Y-50254619D01*
X74771428Y-50254619D02*
X74866666Y-50207000D01*
X74866666Y-50207000D02*
X74914285Y-50159380D01*
X74914285Y-50159380D02*
X74961904Y-50064142D01*
X74961904Y-50064142D02*
X74961904Y-49968904D01*
X74961904Y-49968904D02*
X74914285Y-49873666D01*
X74914285Y-49873666D02*
X74866666Y-49826047D01*
X74866666Y-49826047D02*
X74771428Y-49778428D01*
X74771428Y-49778428D02*
X74580952Y-49730809D01*
X74580952Y-49730809D02*
X74485714Y-49683190D01*
X74485714Y-49683190D02*
X74438095Y-49635571D01*
X74438095Y-49635571D02*
X74390476Y-49540333D01*
X74390476Y-49540333D02*
X74390476Y-49445095D01*
X74390476Y-49445095D02*
X74438095Y-49349857D01*
X74438095Y-49349857D02*
X74485714Y-49302238D01*
X74485714Y-49302238D02*
X74580952Y-49254619D01*
X74580952Y-49254619D02*
X74819047Y-49254619D01*
X74819047Y-49254619D02*
X74961904Y-49302238D01*
X75295238Y-49254619D02*
X75533333Y-50254619D01*
X75533333Y-50254619D02*
X75723809Y-49540333D01*
X75723809Y-49540333D02*
X75914285Y-50254619D01*
X75914285Y-50254619D02*
X76152381Y-49254619D01*
X77057142Y-50254619D02*
X76485714Y-50254619D01*
X76771428Y-50254619D02*
X76771428Y-49254619D01*
X76771428Y-49254619D02*
X76676190Y-49397476D01*
X76676190Y-49397476D02*
X76580952Y-49492714D01*
X76580952Y-49492714D02*
X76485714Y-49540333D01*
X77676190Y-49254619D02*
X77771428Y-49254619D01*
X77771428Y-49254619D02*
X77866666Y-49302238D01*
X77866666Y-49302238D02*
X77914285Y-49349857D01*
X77914285Y-49349857D02*
X77961904Y-49445095D01*
X77961904Y-49445095D02*
X78009523Y-49635571D01*
X78009523Y-49635571D02*
X78009523Y-49873666D01*
X78009523Y-49873666D02*
X77961904Y-50064142D01*
X77961904Y-50064142D02*
X77914285Y-50159380D01*
X77914285Y-50159380D02*
X77866666Y-50207000D01*
X77866666Y-50207000D02*
X77771428Y-50254619D01*
X77771428Y-50254619D02*
X77676190Y-50254619D01*
X77676190Y-50254619D02*
X77580952Y-50207000D01*
X77580952Y-50207000D02*
X77533333Y-50159380D01*
X77533333Y-50159380D02*
X77485714Y-50064142D01*
X77485714Y-50064142D02*
X77438095Y-49873666D01*
X77438095Y-49873666D02*
X77438095Y-49635571D01*
X77438095Y-49635571D02*
X77485714Y-49445095D01*
X77485714Y-49445095D02*
X77533333Y-49349857D01*
X77533333Y-49349857D02*
X77580952Y-49302238D01*
X77580952Y-49302238D02*
X77676190Y-49254619D01*
%TO.C,SW5*%
X93916667Y-33251000D02*
X94059524Y-33298619D01*
X94059524Y-33298619D02*
X94297619Y-33298619D01*
X94297619Y-33298619D02*
X94392857Y-33251000D01*
X94392857Y-33251000D02*
X94440476Y-33203380D01*
X94440476Y-33203380D02*
X94488095Y-33108142D01*
X94488095Y-33108142D02*
X94488095Y-33012904D01*
X94488095Y-33012904D02*
X94440476Y-32917666D01*
X94440476Y-32917666D02*
X94392857Y-32870047D01*
X94392857Y-32870047D02*
X94297619Y-32822428D01*
X94297619Y-32822428D02*
X94107143Y-32774809D01*
X94107143Y-32774809D02*
X94011905Y-32727190D01*
X94011905Y-32727190D02*
X93964286Y-32679571D01*
X93964286Y-32679571D02*
X93916667Y-32584333D01*
X93916667Y-32584333D02*
X93916667Y-32489095D01*
X93916667Y-32489095D02*
X93964286Y-32393857D01*
X93964286Y-32393857D02*
X94011905Y-32346238D01*
X94011905Y-32346238D02*
X94107143Y-32298619D01*
X94107143Y-32298619D02*
X94345238Y-32298619D01*
X94345238Y-32298619D02*
X94488095Y-32346238D01*
X94821429Y-32298619D02*
X95059524Y-33298619D01*
X95059524Y-33298619D02*
X95250000Y-32584333D01*
X95250000Y-32584333D02*
X95440476Y-33298619D01*
X95440476Y-33298619D02*
X95678572Y-32298619D01*
X96535714Y-32298619D02*
X96059524Y-32298619D01*
X96059524Y-32298619D02*
X96011905Y-32774809D01*
X96011905Y-32774809D02*
X96059524Y-32727190D01*
X96059524Y-32727190D02*
X96154762Y-32679571D01*
X96154762Y-32679571D02*
X96392857Y-32679571D01*
X96392857Y-32679571D02*
X96488095Y-32727190D01*
X96488095Y-32727190D02*
X96535714Y-32774809D01*
X96535714Y-32774809D02*
X96583333Y-32870047D01*
X96583333Y-32870047D02*
X96583333Y-33108142D01*
X96583333Y-33108142D02*
X96535714Y-33203380D01*
X96535714Y-33203380D02*
X96488095Y-33251000D01*
X96488095Y-33251000D02*
X96392857Y-33298619D01*
X96392857Y-33298619D02*
X96154762Y-33298619D01*
X96154762Y-33298619D02*
X96059524Y-33251000D01*
X96059524Y-33251000D02*
X96011905Y-33203380D01*
%TO.C,SW8*%
X36766667Y-57065000D02*
X36909524Y-57112619D01*
X36909524Y-57112619D02*
X37147619Y-57112619D01*
X37147619Y-57112619D02*
X37242857Y-57065000D01*
X37242857Y-57065000D02*
X37290476Y-57017380D01*
X37290476Y-57017380D02*
X37338095Y-56922142D01*
X37338095Y-56922142D02*
X37338095Y-56826904D01*
X37338095Y-56826904D02*
X37290476Y-56731666D01*
X37290476Y-56731666D02*
X37242857Y-56684047D01*
X37242857Y-56684047D02*
X37147619Y-56636428D01*
X37147619Y-56636428D02*
X36957143Y-56588809D01*
X36957143Y-56588809D02*
X36861905Y-56541190D01*
X36861905Y-56541190D02*
X36814286Y-56493571D01*
X36814286Y-56493571D02*
X36766667Y-56398333D01*
X36766667Y-56398333D02*
X36766667Y-56303095D01*
X36766667Y-56303095D02*
X36814286Y-56207857D01*
X36814286Y-56207857D02*
X36861905Y-56160238D01*
X36861905Y-56160238D02*
X36957143Y-56112619D01*
X36957143Y-56112619D02*
X37195238Y-56112619D01*
X37195238Y-56112619D02*
X37338095Y-56160238D01*
X37671429Y-56112619D02*
X37909524Y-57112619D01*
X37909524Y-57112619D02*
X38100000Y-56398333D01*
X38100000Y-56398333D02*
X38290476Y-57112619D01*
X38290476Y-57112619D02*
X38528572Y-56112619D01*
X39052381Y-56541190D02*
X38957143Y-56493571D01*
X38957143Y-56493571D02*
X38909524Y-56445952D01*
X38909524Y-56445952D02*
X38861905Y-56350714D01*
X38861905Y-56350714D02*
X38861905Y-56303095D01*
X38861905Y-56303095D02*
X38909524Y-56207857D01*
X38909524Y-56207857D02*
X38957143Y-56160238D01*
X38957143Y-56160238D02*
X39052381Y-56112619D01*
X39052381Y-56112619D02*
X39242857Y-56112619D01*
X39242857Y-56112619D02*
X39338095Y-56160238D01*
X39338095Y-56160238D02*
X39385714Y-56207857D01*
X39385714Y-56207857D02*
X39433333Y-56303095D01*
X39433333Y-56303095D02*
X39433333Y-56350714D01*
X39433333Y-56350714D02*
X39385714Y-56445952D01*
X39385714Y-56445952D02*
X39338095Y-56493571D01*
X39338095Y-56493571D02*
X39242857Y-56541190D01*
X39242857Y-56541190D02*
X39052381Y-56541190D01*
X39052381Y-56541190D02*
X38957143Y-56588809D01*
X38957143Y-56588809D02*
X38909524Y-56636428D01*
X38909524Y-56636428D02*
X38861905Y-56731666D01*
X38861905Y-56731666D02*
X38861905Y-56922142D01*
X38861905Y-56922142D02*
X38909524Y-57017380D01*
X38909524Y-57017380D02*
X38957143Y-57065000D01*
X38957143Y-57065000D02*
X39052381Y-57112619D01*
X39052381Y-57112619D02*
X39242857Y-57112619D01*
X39242857Y-57112619D02*
X39338095Y-57065000D01*
X39338095Y-57065000D02*
X39385714Y-57017380D01*
X39385714Y-57017380D02*
X39433333Y-56922142D01*
X39433333Y-56922142D02*
X39433333Y-56731666D01*
X39433333Y-56731666D02*
X39385714Y-56636428D01*
X39385714Y-56636428D02*
X39338095Y-56588809D01*
X39338095Y-56588809D02*
X39242857Y-56541190D01*
%TO.C,SW27*%
X274415476Y-38015000D02*
X274558333Y-38062619D01*
X274558333Y-38062619D02*
X274796428Y-38062619D01*
X274796428Y-38062619D02*
X274891666Y-38015000D01*
X274891666Y-38015000D02*
X274939285Y-37967380D01*
X274939285Y-37967380D02*
X274986904Y-37872142D01*
X274986904Y-37872142D02*
X274986904Y-37776904D01*
X274986904Y-37776904D02*
X274939285Y-37681666D01*
X274939285Y-37681666D02*
X274891666Y-37634047D01*
X274891666Y-37634047D02*
X274796428Y-37586428D01*
X274796428Y-37586428D02*
X274605952Y-37538809D01*
X274605952Y-37538809D02*
X274510714Y-37491190D01*
X274510714Y-37491190D02*
X274463095Y-37443571D01*
X274463095Y-37443571D02*
X274415476Y-37348333D01*
X274415476Y-37348333D02*
X274415476Y-37253095D01*
X274415476Y-37253095D02*
X274463095Y-37157857D01*
X274463095Y-37157857D02*
X274510714Y-37110238D01*
X274510714Y-37110238D02*
X274605952Y-37062619D01*
X274605952Y-37062619D02*
X274844047Y-37062619D01*
X274844047Y-37062619D02*
X274986904Y-37110238D01*
X275320238Y-37062619D02*
X275558333Y-38062619D01*
X275558333Y-38062619D02*
X275748809Y-37348333D01*
X275748809Y-37348333D02*
X275939285Y-38062619D01*
X275939285Y-38062619D02*
X276177381Y-37062619D01*
X276510714Y-37157857D02*
X276558333Y-37110238D01*
X276558333Y-37110238D02*
X276653571Y-37062619D01*
X276653571Y-37062619D02*
X276891666Y-37062619D01*
X276891666Y-37062619D02*
X276986904Y-37110238D01*
X276986904Y-37110238D02*
X277034523Y-37157857D01*
X277034523Y-37157857D02*
X277082142Y-37253095D01*
X277082142Y-37253095D02*
X277082142Y-37348333D01*
X277082142Y-37348333D02*
X277034523Y-37491190D01*
X277034523Y-37491190D02*
X276463095Y-38062619D01*
X276463095Y-38062619D02*
X277082142Y-38062619D01*
X277415476Y-37062619D02*
X278082142Y-37062619D01*
X278082142Y-37062619D02*
X277653571Y-38062619D01*
%TD*%
M02*
