%TF.GenerationSoftware,KiCad,Pcbnew,7.0.1-0*%
%TF.CreationDate,2023-10-15T20:39:52+08:00*%
%TF.ProjectId,qhws42_v2,71687773-3432-45f7-9632-2e6b69636164,rev?*%
%TF.SameCoordinates,Original*%
%TF.FileFunction,Copper,L1,Top*%
%TF.FilePolarity,Positive*%
%FSLAX46Y46*%
G04 Gerber Fmt 4.6, Leading zero omitted, Abs format (unit mm)*
G04 Created by KiCad (PCBNEW 7.0.1-0) date 2023-10-15 20:39:52*
%MOMM*%
%LPD*%
G01*
G04 APERTURE LIST*
G04 Aperture macros list*
%AMHorizOval*
0 Thick line with rounded ends*
0 $1 width*
0 $2 $3 position (X,Y) of the first rounded end (center of the circle)*
0 $4 $5 position (X,Y) of the second rounded end (center of the circle)*
0 Add line between two ends*
20,1,$1,$2,$3,$4,$5,0*
0 Add two circle primitives to create the rounded ends*
1,1,$1,$2,$3*
1,1,$1,$4,$5*%
%AMRotRect*
0 Rectangle, with rotation*
0 The origin of the aperture is its center*
0 $1 length*
0 $2 width*
0 $3 Rotation angle, in degrees counterclockwise*
0 Add horizontal line*
21,1,$1,$2,0,0,$3*%
G04 Aperture macros list end*
%TA.AperFunction,SMDPad,CuDef*%
%ADD10R,0.600000X1.100000*%
%TD*%
%TA.AperFunction,SMDPad,CuDef*%
%ADD11R,0.300000X1.100000*%
%TD*%
%TA.AperFunction,ComponentPad*%
%ADD12O,1.200000X2.000000*%
%TD*%
%TA.AperFunction,ComponentPad*%
%ADD13O,1.200000X1.800000*%
%TD*%
%TA.AperFunction,ComponentPad*%
%ADD14R,1.270000X1.270000*%
%TD*%
%TA.AperFunction,ComponentPad*%
%ADD15O,1.270000X1.270000*%
%TD*%
%TA.AperFunction,ComponentPad*%
%ADD16RotRect,1.270000X1.270000X60.000000*%
%TD*%
%TA.AperFunction,ComponentPad*%
%ADD17HorizOval,1.270000X0.000000X0.000000X0.000000X0.000000X0*%
%TD*%
%TA.AperFunction,ComponentPad*%
%ADD18RotRect,1.270000X1.270000X300.000000*%
%TD*%
%TA.AperFunction,ComponentPad*%
%ADD19HorizOval,1.270000X0.000000X0.000000X0.000000X0.000000X0*%
%TD*%
%TA.AperFunction,ComponentPad*%
%ADD20RotRect,0.900000X0.500000X210.000000*%
%TD*%
%TA.AperFunction,ComponentPad*%
%ADD21RotRect,0.900000X0.500000X150.000000*%
%TD*%
%TA.AperFunction,ViaPad*%
%ADD22C,0.609600*%
%TD*%
%TA.AperFunction,ViaPad*%
%ADD23C,0.400000*%
%TD*%
%TA.AperFunction,ViaPad*%
%ADD24C,0.800000*%
%TD*%
%TA.AperFunction,Conductor*%
%ADD25C,0.152400*%
%TD*%
%TA.AperFunction,Conductor*%
%ADD26C,0.250000*%
%TD*%
%TA.AperFunction,Conductor*%
%ADD27C,0.457200*%
%TD*%
%TA.AperFunction,Conductor*%
%ADD28C,0.304800*%
%TD*%
%TA.AperFunction,Conductor*%
%ADD29C,0.228600*%
%TD*%
G04 APERTURE END LIST*
D10*
%TO.P,USB1,1,GND*%
%TO.N,/GND_TC_l*%
X43332130Y-96117226D03*
%TO.P,USB1,2,VBUS*%
%TO.N,/VBUS_TC_l*%
X42532130Y-96117226D03*
D11*
%TO.P,USB1,3,SBU2*%
%TO.N,unconnected-(USB1-SBU2-Pad3)*%
X41882130Y-96117226D03*
%TO.P,USB1,4,CC1*%
%TO.N,Net-(USB1-CC1)*%
X41382130Y-96117226D03*
%TO.P,USB1,5,DN2*%
%TO.N,/D-_TC_l*%
X40882130Y-96117226D03*
%TO.P,USB1,6,DP1*%
%TO.N,/D+_TC_l*%
X40382130Y-96117226D03*
%TO.P,USB1,7,DN1*%
%TO.N,/D-_TC_l*%
X39882130Y-96117226D03*
%TO.P,USB1,8,DP2*%
%TO.N,/D+_TC_l*%
X39382130Y-96117226D03*
%TO.P,USB1,9,SBU1*%
%TO.N,unconnected-(USB1-SBU1-Pad9)*%
X38882130Y-96117226D03*
%TO.P,USB1,10,CC2*%
%TO.N,Net-(USB1-CC2)*%
X38382130Y-96117226D03*
D10*
%TO.P,USB1,11,VBUS*%
%TO.N,/VBUS_TC_l*%
X37732130Y-96117226D03*
%TO.P,USB1,12,GND*%
%TO.N,/GND_TC_l*%
X36932130Y-96117226D03*
D12*
%TO.P,USB1,13,SHELL*%
X44457130Y-95567226D03*
D13*
X44457130Y-91367226D03*
D12*
%TO.P,USB1,14,SHELL*%
X35807130Y-95567226D03*
D13*
X35807130Y-91367226D03*
%TD*%
D10*
%TO.P,USB2,1,GND*%
%TO.N,/GND_TC_r*%
X260655010Y-96116046D03*
%TO.P,USB2,2,VBUS*%
%TO.N,/VBUS_TC_r*%
X259855010Y-96116046D03*
D11*
%TO.P,USB2,3,SBU2*%
%TO.N,unconnected-(USB2-SBU2-Pad3)*%
X259205010Y-96116046D03*
%TO.P,USB2,4,CC1*%
%TO.N,Net-(USB2-CC1)*%
X258705010Y-96116046D03*
%TO.P,USB2,5,DN2*%
%TO.N,/D-_TC_r*%
X258205010Y-96116046D03*
%TO.P,USB2,6,DP1*%
%TO.N,/D+_TC_r*%
X257705010Y-96116046D03*
%TO.P,USB2,7,DN1*%
%TO.N,/D-_TC_r*%
X257205010Y-96116046D03*
%TO.P,USB2,8,DP2*%
%TO.N,/D+_TC_r*%
X256705010Y-96116046D03*
%TO.P,USB2,9,SBU1*%
%TO.N,unconnected-(USB2-SBU1-Pad9)*%
X256205010Y-96116046D03*
%TO.P,USB2,10,CC2*%
%TO.N,Net-(USB2-CC2)*%
X255705010Y-96116046D03*
D10*
%TO.P,USB2,11,VBUS*%
%TO.N,/VBUS_TC_r*%
X255055010Y-96116046D03*
%TO.P,USB2,12,GND*%
%TO.N,/GND_TC_r*%
X254255010Y-96116046D03*
D12*
%TO.P,USB2,13,SHELL*%
X261780010Y-95566046D03*
D13*
X261780010Y-91366046D03*
D12*
%TO.P,USB2,14,SHELL*%
X253130010Y-95566046D03*
D13*
X253130010Y-91366046D03*
%TD*%
D14*
%TO.P,J1,1,Pin_1*%
%TO.N,Net-(J1-Pin_1)*%
X98196400Y-61036200D03*
D15*
%TO.P,J1,2,Pin_2*%
%TO.N,Net-(J1-Pin_2)*%
X100736400Y-61036200D03*
%TD*%
D14*
%TO.P,J2,1,Pin_1*%
%TO.N,GND_l*%
X79984600Y-61036200D03*
D15*
%TO.P,J2,2,Pin_2*%
%TO.N,VBUS_l*%
X82524600Y-61036200D03*
%TD*%
D16*
%TO.P,J5,1,Pin_1*%
%TO.N,GND_l*%
X125500000Y-110500000D03*
D17*
%TO.P,J5,2,Pin_2*%
%TO.N,SWC_l*%
X123300295Y-109230000D03*
%TO.P,J5,3,Pin_3*%
%TO.N,SWD_l*%
X121100591Y-107960000D03*
%TO.P,J5,4,Pin_4*%
%TO.N,VDD_NRF_l*%
X118900886Y-106690000D03*
%TD*%
D16*
%TO.P,J6,1,Pin_1*%
%TO.N,GND_l*%
X129899409Y-113040000D03*
D17*
%TO.P,J6,2,Pin_2*%
%TO.N,RESET_l*%
X127699704Y-111770000D03*
%TD*%
D14*
%TO.P,J4,1,Pin_1*%
%TO.N,GND_r*%
X222848400Y-61037200D03*
D15*
%TO.P,J4,2,Pin_2*%
%TO.N,VBUS_r*%
X225388400Y-61037200D03*
%TD*%
D18*
%TO.P,J8,1,Pin_1*%
%TO.N,GND_r*%
X165376000Y-113039787D03*
D19*
%TO.P,J8,2,Pin_2*%
%TO.N,RESET_r*%
X167575705Y-111769787D03*
%TD*%
D14*
%TO.P,J10,1,Pin_1*%
%TO.N,GND_r*%
X214757500Y-79502000D03*
D15*
%TO.P,J10,2,Pin_2*%
%TO.N,VBAT_r*%
X214757500Y-82042000D03*
%TD*%
D14*
%TO.P,J3,1,Pin_1*%
%TO.N,Net-(J3-Pin_1)*%
X241060200Y-61037200D03*
D15*
%TO.P,J3,2,Pin_2*%
%TO.N,Net-(J3-Pin_2)*%
X243600200Y-61037200D03*
%TD*%
D20*
%TO.P,AE2,2,Shield*%
%TO.N,GND_r*%
X173268949Y-85864700D03*
%TD*%
D14*
%TO.P,J9,1,Pin_1*%
%TO.N,GND_l*%
X80518000Y-79502000D03*
D15*
%TO.P,J9,2,Pin_2*%
%TO.N,VBAT_l*%
X80518000Y-82042000D03*
%TD*%
D18*
%TO.P,J7,1,Pin_1*%
%TO.N,GND_r*%
X169775409Y-110499787D03*
D19*
%TO.P,J7,2,Pin_2*%
%TO.N,SWC_r*%
X171975114Y-109229787D03*
%TO.P,J7,3,Pin_3*%
%TO.N,SWD_r*%
X174174818Y-107959787D03*
%TO.P,J7,4,Pin_4*%
%TO.N,VDD_NRF_r*%
X176374523Y-106689787D03*
%TD*%
D21*
%TO.P,AE1,2,Shield*%
%TO.N,GND_l*%
X122006483Y-85864817D03*
%TD*%
D22*
%TO.N,*%
X121580576Y-83117175D03*
X120818576Y-83879175D03*
X173796200Y-82580251D03*
X172796200Y-80848200D03*
X174345600Y-83591400D03*
X119233013Y-82919073D03*
X122589799Y-82545149D03*
X173296200Y-81714223D03*
X121589800Y-84277200D03*
D23*
%TO.N,Net-(LED20-DOUT)*%
X124561600Y-100736400D03*
X108356400Y-100152200D03*
%TO.N,Net-(LED39-DOUT)*%
X175216900Y-85877400D03*
X164303350Y-93893350D03*
%TO.N,Net-(LED40-DOUT)*%
X170760000Y-100690000D03*
X183870600Y-103022400D03*
D24*
%TO.N,Net-(J1-Pin_2)*%
X93770620Y-63652400D03*
%TO.N,/VRECT_l*%
X88860620Y-58724800D03*
X88860620Y-65532000D03*
%TO.N,Net-(J3-Pin_2)*%
X236656420Y-63651400D03*
%TO.N,/VRECT_r*%
X231746420Y-58723800D03*
X231746420Y-65531000D03*
D23*
%TO.N,VDD_NRF_l*%
X113720000Y-99380000D03*
X113182118Y-93522518D03*
X118313200Y-101752400D03*
X116027200Y-92151200D03*
X120954800Y-97993200D03*
%TO.N,RESET_l*%
X114249200Y-95935800D03*
X118498328Y-103665434D03*
%TO.N,VDD_NRF_r*%
X178295300Y-93713300D03*
X172130000Y-96647000D03*
X177266600Y-101756173D03*
X172930000Y-98910000D03*
X180690000Y-98430000D03*
%TO.N,RESET_r*%
X176072800Y-103505000D03*
X174210000Y-99350000D03*
%TO.N,GND_l*%
X132232400Y-93421200D03*
D22*
X116343974Y-82639998D03*
D24*
X13965000Y-49535000D03*
D22*
X140180000Y-96690000D03*
X134488149Y-98695001D03*
D23*
X117170200Y-85420200D03*
X118803452Y-96443800D03*
D22*
X126953974Y-88859998D03*
D23*
X115651248Y-96823578D03*
X127736600Y-90779600D03*
X116286248Y-95723726D03*
X117533452Y-98643504D03*
D22*
X134594600Y-97790000D03*
D23*
X117618526Y-97226152D03*
D22*
X121722826Y-87839974D03*
D23*
X116921248Y-94623874D03*
X118168452Y-97543652D03*
X113195100Y-103949500D03*
D22*
X138320903Y-97339973D03*
D23*
X117850952Y-98093578D03*
X114783822Y-97056004D03*
X116611400Y-85623400D03*
D22*
X113207800Y-86309200D03*
X135991600Y-103835200D03*
D23*
X124942600Y-89179400D03*
D22*
X127062177Y-89767948D03*
D23*
X116371321Y-94306374D03*
D22*
X113969800Y-87299800D03*
X126196152Y-89267950D03*
X124320903Y-89339973D03*
X138330127Y-98500000D03*
X128071796Y-90267948D03*
X129703974Y-90449998D03*
X123464102Y-89999999D03*
X124513974Y-87419998D03*
D23*
X121310400Y-89458800D03*
D22*
X133172200Y-98374200D03*
D23*
X117153674Y-95491300D03*
D22*
X125330126Y-88767948D03*
X125380000Y-87920000D03*
X131535898Y-92267950D03*
D23*
X119120952Y-95893874D03*
D22*
X125186928Y-89839974D03*
D23*
X111556800Y-92811600D03*
D22*
X130570000Y-90950000D03*
D23*
X116053822Y-94856300D03*
D24*
X12954000Y-46761400D03*
D22*
X126052953Y-90339974D03*
D23*
X110642400Y-92227400D03*
X116983526Y-98326004D03*
X117301026Y-97776078D03*
X117703600Y-95808800D03*
D22*
X122970000Y-86520000D03*
X131648200Y-94538800D03*
D23*
X117471174Y-94941374D03*
X116751100Y-97458578D03*
D22*
X129803847Y-91267950D03*
D23*
X117386100Y-96358726D03*
D22*
X139330126Y-96767948D03*
X130459251Y-92643200D03*
D23*
X117246400Y-86258400D03*
D22*
X115660649Y-84339973D03*
X133726149Y-97323401D03*
D23*
X112255300Y-103009700D03*
D22*
X119267948Y-85267948D03*
D24*
X103784400Y-60426600D03*
D22*
X114976575Y-87079575D03*
X133146800Y-101803200D03*
X130664574Y-94135551D03*
X132156200Y-97713800D03*
D24*
X86690200Y-63627000D03*
D22*
X134594600Y-96621600D03*
X117210000Y-83140000D03*
D23*
X119353378Y-96761300D03*
X125679200Y-89535000D03*
D22*
X120990000Y-85360000D03*
D23*
X126415800Y-89916000D03*
X116836174Y-96041226D03*
D22*
X117144800Y-90424000D03*
D23*
X117068600Y-96908652D03*
X118571026Y-95576374D03*
D24*
X85572600Y-62509400D03*
D22*
X131902200Y-95783400D03*
D23*
X115736322Y-95406226D03*
D22*
X121866025Y-86767950D03*
D23*
X116666026Y-98875930D03*
X119670878Y-96211373D03*
D22*
X126087949Y-88359998D03*
X136220200Y-99695000D03*
X121732051Y-88849200D03*
X129327575Y-94420175D03*
D23*
X116603748Y-95173800D03*
X116433600Y-98008504D03*
D22*
X114935000Y-86106000D03*
D23*
X118485952Y-96993726D03*
D22*
X132860124Y-96823400D03*
D24*
X81381600Y-93091000D03*
D23*
X118253526Y-96126300D03*
X115418822Y-95956152D03*
D22*
X119260000Y-84440000D03*
X115923175Y-83599402D03*
X128937821Y-90767948D03*
X132343974Y-92019998D03*
X117135575Y-89263975D03*
D24*
X82397600Y-58403620D03*
X86690200Y-62509400D03*
D23*
X99644200Y-36550600D03*
D22*
X138980000Y-96020000D03*
D23*
X119202200Y-89839800D03*
D22*
X126625974Y-95583351D03*
D23*
X118021100Y-95258874D03*
X117215952Y-99193430D03*
D24*
X85572600Y-63627000D03*
D23*
X124790200Y-88315800D03*
D22*
X126482775Y-96655375D03*
X119124751Y-86339974D03*
X138030574Y-99698151D03*
D23*
X116518674Y-96591152D03*
D22*
X116154200Y-89357200D03*
X114794624Y-83839974D03*
X120856801Y-87339974D03*
D24*
X104343200Y-43942000D03*
D23*
X116201174Y-97141078D03*
D22*
X127820000Y-89360000D03*
D23*
X118083378Y-98961004D03*
X118400878Y-98411078D03*
D22*
X135388974Y-100231551D03*
X115490000Y-82380000D03*
D23*
X115333748Y-97373504D03*
X109898078Y-100450184D03*
X98425000Y-34112200D03*
D22*
X116526675Y-84839974D03*
X116288174Y-87302951D03*
D23*
X115968748Y-96273652D03*
X115016248Y-97923430D03*
D22*
X114985800Y-88239600D03*
X128727200Y-91643200D03*
X136169400Y-98425000D03*
X137007600Y-101650800D03*
D23*
X127076200Y-90601800D03*
D22*
X116144975Y-88374975D03*
D24*
X14757400Y-79146400D03*
D23*
X131699000Y-92989400D03*
D24*
X108178600Y-97764600D03*
D23*
X119035878Y-97311226D03*
X118718378Y-97861152D03*
D22*
X120866025Y-88500000D03*
X131477949Y-91519998D03*
X128837949Y-89949998D03*
D23*
X115883674Y-97691004D03*
D24*
X125525198Y-99032998D03*
D23*
X115566174Y-98240930D03*
D22*
X130669872Y-91767948D03*
X113300000Y-85610000D03*
D24*
X14782800Y-60121800D03*
D22*
X115057149Y-83099400D03*
D23*
X115101322Y-96506078D03*
X117765879Y-99510930D03*
X123469400Y-89281000D03*
D22*
X129593226Y-92143202D03*
D23*
X114096800Y-86283800D03*
D22*
X135245775Y-101303575D03*
X135354174Y-99195001D03*
X132401923Y-92767948D03*
X137887375Y-100770175D03*
D24*
X15011400Y-65328800D03*
D23*
X114466322Y-97605931D03*
D22*
X133210000Y-92520000D03*
D23*
X117936026Y-96676226D03*
D22*
X130521375Y-95207575D03*
D23*
X116116100Y-98558430D03*
D22*
X135432800Y-97383600D03*
X139186928Y-97839974D03*
X117017800Y-88417400D03*
X116789200Y-84099400D03*
D23*
X117246400Y-84480400D03*
D22*
X120999999Y-86267948D03*
X113919000Y-85191600D03*
X129470774Y-93348151D03*
X122590000Y-87160000D03*
D23*
%TO.N,VBUS_l*%
X110237477Y-98832877D03*
X96500627Y-83969373D03*
D24*
X23926800Y-45948600D03*
X92209319Y-82780681D03*
D23*
%TO.N,VBUS_r*%
X198100000Y-83680000D03*
X174701200Y-102336600D03*
D24*
X279095200Y-45974000D03*
%TO.N,VDDH_l*%
X104165400Y-63627000D03*
D23*
X112445800Y-100355400D03*
X95340000Y-84170000D03*
D24*
%TO.N,VDDH_r*%
X194260000Y-63040000D03*
X193700400Y-84582000D03*
D23*
X177116932Y-102314193D03*
D24*
%TO.N,EXT_VCC_l*%
X130962400Y-107492800D03*
X119659400Y-62534800D03*
X119659400Y-43535600D03*
X108670000Y-102060000D03*
X119659400Y-81534000D03*
X130962400Y-107492800D03*
D23*
%TO.N,ROW3_l*%
X124536200Y-98323400D03*
X109474000Y-98755200D03*
X119913400Y-99771200D03*
%TO.N,POWER_PIN_l*%
X112979200Y-96220138D03*
X105435400Y-64363600D03*
D24*
%TO.N,COL0_l*%
X11938000Y-35610800D03*
D23*
X112721500Y-93903800D03*
D24*
X11938000Y-54610000D03*
D23*
X110816500Y-87452200D03*
D24*
X11938000Y-73609200D03*
D23*
X104800400Y-87452200D03*
D24*
%TO.N,COL1_l*%
X31013400Y-35585400D03*
X31013400Y-73583800D03*
D23*
X105308400Y-87020400D03*
X110439200Y-87020400D03*
D24*
X31013400Y-54584600D03*
D23*
X113639600Y-92862400D03*
%TO.N,COL2_l*%
X110827059Y-86500718D03*
X104775000Y-86500718D03*
D24*
X50063400Y-49885600D03*
X50063400Y-30886400D03*
X50063400Y-68884800D03*
D23*
X114096800Y-93268800D03*
D24*
%TO.N,COL3_l*%
X69113400Y-28752800D03*
D23*
X105362900Y-86029800D03*
D24*
X69113400Y-66751200D03*
D23*
X110286800Y-86029800D03*
D24*
X78232000Y-88696800D03*
X69113400Y-47752000D03*
D23*
X114630200Y-92964000D03*
D24*
%TO.N,COL4_l*%
X88138000Y-68834000D03*
X98888300Y-88538300D03*
X88138000Y-30835600D03*
X88138000Y-49834800D03*
%TO.N,COL5_l*%
X107213400Y-71475600D03*
D23*
X117551200Y-92532200D03*
D24*
X107213400Y-33477200D03*
X124510800Y-91821000D03*
X107213400Y-52476400D03*
D23*
%TO.N,GND_r*%
X171577000Y-90398600D03*
X163093400Y-104648000D03*
X179610000Y-103480000D03*
X178079400Y-83896200D03*
X178130200Y-86436200D03*
X177651426Y-98444130D03*
D22*
X171467400Y-88978623D03*
D23*
X173151800Y-88087200D03*
D24*
X198500000Y-63120000D03*
D23*
X176149000Y-97111852D03*
D22*
X174387948Y-85350000D03*
D23*
X177798778Y-96159352D03*
D24*
X271856234Y-46322000D03*
D23*
X177101500Y-98761630D03*
X177571400Y-86893400D03*
D22*
X155646348Y-97291400D03*
D23*
X175769222Y-100264056D03*
D22*
X170383200Y-89687400D03*
D23*
X179781200Y-84378800D03*
X176657000Y-85242400D03*
X176320000Y-84570000D03*
X179197000Y-84277200D03*
X176001648Y-99396630D03*
D24*
X228458400Y-63626000D03*
D22*
X156210000Y-98653600D03*
D23*
X176466500Y-97661778D03*
X180721000Y-88315800D03*
D22*
X157378400Y-96291400D03*
D24*
X269863340Y-46309936D03*
D23*
X175916574Y-97979278D03*
X178201352Y-98126630D03*
X178000000Y-83180000D03*
X177883852Y-97576704D03*
X174499222Y-98064352D03*
D22*
X171967400Y-89844651D03*
X155553976Y-96440000D03*
D23*
X162763200Y-95681800D03*
D22*
X158323976Y-94800000D03*
D23*
X162179000Y-103149400D03*
X177163778Y-95059500D03*
X166979600Y-93319600D03*
X178155600Y-85471000D03*
X176063926Y-95694500D03*
D22*
X156710000Y-99519623D03*
D23*
X167411400Y-92862400D03*
X179068778Y-98359056D03*
X175082200Y-88925400D03*
X174181722Y-97514426D03*
X160731200Y-102768400D03*
D24*
X196280000Y-60840000D03*
D23*
X175831500Y-96561926D03*
X161798000Y-104063800D03*
X174574200Y-87426800D03*
X174472600Y-86156800D03*
X175599074Y-97429352D03*
X177460000Y-83510000D03*
D24*
X226644200Y-58383320D03*
D23*
X174964074Y-96329500D03*
X177520600Y-84429600D03*
D22*
X160056028Y-93800000D03*
D23*
X177566352Y-97026778D03*
X176551574Y-99079130D03*
X174777400Y-86817200D03*
X178518852Y-98676556D03*
X164033200Y-99568000D03*
X178640000Y-84040000D03*
X177571400Y-86004400D03*
X162737800Y-98933000D03*
X157378400Y-97231200D03*
X177248852Y-96476852D03*
D22*
X170700000Y-87470000D03*
D23*
X180670000Y-103470000D03*
X179146200Y-85090000D03*
D24*
X229576000Y-63626000D03*
D23*
X171094400Y-89687400D03*
X179197000Y-83489800D03*
X176149000Y-87579200D03*
X162560000Y-93726000D03*
X181991000Y-90220800D03*
D22*
X172350000Y-86490000D03*
D23*
X170720000Y-88950000D03*
D24*
X229576000Y-62508400D03*
D23*
X167665400Y-92430600D03*
X174414148Y-96647000D03*
X175666400Y-88265000D03*
X177481278Y-95609426D03*
D24*
X176479200Y-62929220D03*
D23*
X173456600Y-88519000D03*
D24*
X176707800Y-77063600D03*
D23*
X159029400Y-94945200D03*
X173939200Y-87884000D03*
X164719000Y-100152200D03*
X163474400Y-93243400D03*
D22*
X162509200Y-93065600D03*
D23*
X170459400Y-91338400D03*
X174731648Y-97196926D03*
D24*
X176830000Y-82490000D03*
D23*
X180263800Y-88747600D03*
D22*
X157210000Y-100385651D03*
D23*
X176300000Y-85710000D03*
X177571400Y-85191600D03*
X175514000Y-96012000D03*
X175134222Y-99164204D03*
X179630000Y-83150000D03*
D24*
X193954400Y-96621600D03*
D22*
X160783976Y-93330000D03*
X157286028Y-95440000D03*
D23*
X177016426Y-97344278D03*
X162102800Y-102336600D03*
X178116278Y-96709278D03*
D22*
X169970000Y-89030000D03*
D23*
X155905200Y-98018600D03*
D22*
X162516028Y-92330000D03*
D23*
X158013400Y-101473000D03*
X176698926Y-96794352D03*
X175281574Y-96879426D03*
X182980000Y-88790000D03*
X176784000Y-98211704D03*
X175366648Y-98296778D03*
X177333926Y-97894204D03*
X180390800Y-83870800D03*
D22*
X156512372Y-96791400D03*
D24*
X228458400Y-62508400D03*
D22*
X170883200Y-90553428D03*
D23*
X176234074Y-98529204D03*
D22*
X156420000Y-95940000D03*
X161643172Y-93565600D03*
D23*
X174816722Y-98614278D03*
X169900600Y-91541600D03*
D22*
X170320000Y-88260000D03*
D23*
X175451722Y-99714130D03*
X176381426Y-96244426D03*
X176613852Y-95377000D03*
X162864800Y-103428800D03*
X156641800Y-97637600D03*
X178751278Y-97809130D03*
D24*
X176707800Y-58013600D03*
D23*
X178433778Y-97259204D03*
X174790000Y-84980000D03*
X157937200Y-96850200D03*
D22*
X161650000Y-92830000D03*
D23*
X178054000Y-84582000D03*
X176657000Y-86944200D03*
D22*
X169500000Y-88200000D03*
D23*
X179832000Y-83591400D03*
D22*
X159190000Y-94300000D03*
D23*
X181203600Y-87807800D03*
X177419000Y-99311556D03*
X175049148Y-97746852D03*
X173864222Y-96964500D03*
X170103800Y-97688400D03*
X178664847Y-83308619D03*
X177968926Y-98994056D03*
D22*
X158244423Y-95791400D03*
D24*
X174853600Y-44475400D03*
D22*
X171040000Y-88310000D03*
D23*
X176869074Y-99629056D03*
X176931352Y-95926926D03*
X164084000Y-95605600D03*
X178270000Y-92230000D03*
X175684148Y-98846704D03*
X176319148Y-99946556D03*
X163195000Y-93726000D03*
X176657000Y-86055200D03*
X182960000Y-88080000D03*
D22*
X163375223Y-92565600D03*
D24*
X176707800Y-38963600D03*
D22*
X163440000Y-91780000D03*
D24*
%TO.N,EXT_VCC_r*%
X194259200Y-56847300D03*
X282740000Y-48270000D03*
X215620600Y-99415600D03*
X281533600Y-83489800D03*
X171958900Y-102538900D03*
X195090000Y-58680000D03*
X281533600Y-64490600D03*
X186385200Y-103073200D03*
X281533600Y-45491400D03*
D23*
%TO.N,BATTERY_LEVEL_PIN_l*%
X113512600Y-100530000D03*
X106960000Y-82990000D03*
%TO.N,BATTERY_LEVEL_PIN_r*%
X188960000Y-84750000D03*
X178624054Y-100457000D03*
%TO.N,Net-(U7-DEC4)*%
X120129300Y-100545900D03*
X120630000Y-94450000D03*
%TO.N,Net-(U8-DEC2)*%
X179578000Y-94538800D03*
X180864108Y-89597200D03*
%TO.N,Net-(U8-DEC4)*%
X180320000Y-97296597D03*
X176225200Y-93395800D03*
%TO.N,ROW0_r*%
X173685200Y-94615000D03*
X189382400Y-38836600D03*
%TO.N,ROW1_r*%
X174371000Y-94107000D03*
X190373000Y-56896000D03*
%TO.N,ROW2_r*%
X174421800Y-93573600D03*
X189915800Y-76479400D03*
%TO.N,SWC_l*%
X106248200Y-85166200D03*
X110286800Y-85166200D03*
X117110000Y-92120000D03*
%TO.N,SWD_l*%
X117500400Y-91262200D03*
X110286800Y-84505800D03*
X106146600Y-84531200D03*
%TO.N,SWC_r*%
X172237400Y-91846400D03*
%TO.N,SWD_r*%
X171856400Y-92379800D03*
%TO.N,RGB_r*%
X176276000Y-42672000D03*
X173310984Y-94088384D03*
%TO.N,POWER_PIN_r*%
X187985400Y-61696600D03*
X171860000Y-99940000D03*
D24*
%TO.N,COL0_r*%
X173863000Y-33477200D03*
D23*
X164617400Y-100990400D03*
X160477200Y-101523800D03*
D24*
X158470600Y-98983800D03*
X173863000Y-52476400D03*
X173863000Y-71475600D03*
%TO.N,COL1_r*%
X192913000Y-49987200D03*
X192913000Y-68986400D03*
X181076600Y-93929200D03*
X192913000Y-30988000D03*
%TO.N,COL2_r*%
X211988400Y-66852800D03*
X202895200Y-88747600D03*
X211988400Y-47853600D03*
X211988400Y-28854400D03*
%TO.N,COL3_r*%
X230962200Y-31038800D03*
X230962200Y-50038000D03*
D23*
X192862200Y-90525600D03*
X181889400Y-91059000D03*
D24*
X230962200Y-69037200D03*
D23*
X179857400Y-95986600D03*
%TO.N,COL4_r*%
X178333400Y-100914200D03*
D24*
X250063000Y-54813200D03*
D23*
X193294000Y-90932000D03*
D24*
X250063000Y-35814000D03*
X250063000Y-73812400D03*
D23*
X190525400Y-91236800D03*
D24*
%TO.N,COL5_r*%
X269113000Y-54559200D03*
D23*
X193395600Y-91541600D03*
D24*
X269113000Y-73558400D03*
D23*
X177825400Y-101244400D03*
D24*
X269113000Y-35560000D03*
D23*
X190779400Y-92075000D03*
%TO.N,RGB_l*%
X118135400Y-89382600D03*
X15062200Y-44932600D03*
%TO.N,D-_l*%
X24231600Y-48770000D03*
X20160000Y-48140000D03*
X103570000Y-43050000D03*
X111379000Y-97815400D03*
%TO.N,D+_l*%
X24866600Y-48110000D03*
X21615400Y-48110000D03*
X103050000Y-42360000D03*
X111963200Y-97282000D03*
%TO.N,ROW3_r*%
X194430000Y-95954176D03*
X169900600Y-98602800D03*
%TO.N,D-_r*%
X174117000Y-101676200D03*
D24*
X273910000Y-47971180D03*
X272542000Y-50317400D03*
D23*
X190144400Y-44983400D03*
D24*
%TO.N,D+_r*%
X275310000Y-47971180D03*
D23*
X173875450Y-101154790D03*
D24*
X274058900Y-50361100D03*
D23*
X190195200Y-45720000D03*
%TO.N,BLED_l*%
X103886000Y-30302200D03*
X113309400Y-95377000D03*
%TO.N,BLED_r*%
X191363600Y-26416000D03*
X179273200Y-95148400D03*
D24*
%TO.N,/VBUS_TC_l*%
X43642130Y-93293726D03*
X36642130Y-93293726D03*
D23*
%TO.N,/D-_TC_l*%
X39882130Y-95282226D03*
X40882130Y-95282226D03*
%TO.N,Net-(USB1-CC2)*%
X34862130Y-92642226D03*
%TO.N,Net-(USB1-CC1)*%
X45382130Y-92642226D03*
%TO.N,Net-(USB2-CC2)*%
X252185010Y-92641046D03*
%TO.N,Net-(USB2-CC1)*%
X262705010Y-92641046D03*
%TO.N,/D+_TC_l*%
X39382130Y-94852226D03*
X40382130Y-94852226D03*
D24*
%TO.N,/VBUS_TC_r*%
X260965010Y-93292546D03*
X253965010Y-93292546D03*
D23*
%TO.N,/D-_TC_r*%
X257205010Y-95281046D03*
X258205010Y-95281046D03*
%TO.N,/D+_TC_r*%
X257705010Y-94851046D03*
X256705010Y-94851046D03*
%TD*%
D25*
%TO.N,Net-(LED20-DOUT)*%
X120530200Y-104767800D02*
X113409724Y-104767800D01*
X124561600Y-100736400D02*
X120530200Y-104767800D01*
X113409724Y-104767800D02*
X108794124Y-100152200D01*
X108794124Y-100152200D02*
X108356400Y-100152200D01*
%TO.N,Net-(LED39-DOUT)*%
X164306700Y-93890000D02*
X167099737Y-93890000D01*
X167099737Y-93890000D02*
X168929738Y-92060000D01*
X170634336Y-92060000D02*
X175209200Y-87485136D01*
X175209200Y-85885100D02*
X175216900Y-85877400D01*
X175209200Y-87485136D02*
X175209200Y-85885100D01*
X168929738Y-92060000D02*
X170634336Y-92060000D01*
X164303350Y-93893350D02*
X164306700Y-93890000D01*
%TO.N,Net-(LED40-DOUT)*%
X171613156Y-100690000D02*
X170760000Y-100690000D01*
X183870600Y-103022400D02*
X182143400Y-104749600D01*
X182143400Y-104749600D02*
X175672756Y-104749600D01*
X175672756Y-104749600D02*
X171613156Y-100690000D01*
D26*
%TO.N,Net-(J1-Pin_2)*%
X98120200Y-63652400D02*
X93770620Y-63652400D01*
X100736400Y-61036200D02*
X98120200Y-63652400D01*
%TO.N,/VRECT_l*%
X88860620Y-58724800D02*
X88860620Y-65532000D01*
%TO.N,Net-(J3-Pin_2)*%
X241920400Y-62737000D02*
X243622200Y-61035200D01*
X236656420Y-63651400D02*
X237570820Y-62737000D01*
X237570820Y-62737000D02*
X241920400Y-62737000D01*
%TO.N,/VRECT_r*%
X231746420Y-58723800D02*
X231746420Y-65531000D01*
D25*
%TO.N,VDD_NRF_l*%
X113436400Y-93776800D02*
X114604800Y-93776800D01*
X113182118Y-93522518D02*
X114782600Y-95123000D01*
X113182118Y-93522518D02*
X113436400Y-93776800D01*
X114604800Y-93776800D02*
X116027200Y-92354400D01*
X113720000Y-97100000D02*
X113720000Y-99380000D01*
X118821200Y-101752400D02*
X118313200Y-101752400D01*
X120954800Y-97993200D02*
X119253000Y-99695000D01*
X118313200Y-101752400D02*
X116092400Y-101752400D01*
X116027200Y-92354400D02*
X116027200Y-92151200D01*
X114782600Y-95123000D02*
X114782600Y-96037400D01*
X114782600Y-96037400D02*
X113720000Y-97100000D01*
X116092400Y-101752400D02*
X113720000Y-99380000D01*
X119253000Y-99695000D02*
X119253000Y-101320600D01*
X119253000Y-101320600D02*
X118821200Y-101752400D01*
%TO.N,RESET_l*%
X117356034Y-103665434D02*
X118498328Y-103665434D01*
X113200000Y-99509400D02*
X117356034Y-103665434D01*
X114249200Y-95935800D02*
X113200000Y-96985000D01*
X113200000Y-96985000D02*
X113200000Y-99509400D01*
%TO.N,VDD_NRF_r*%
X176796700Y-93713300D02*
X178295300Y-93713300D01*
X172130000Y-96647000D02*
X172130000Y-98110000D01*
X172130000Y-96647000D02*
X172135800Y-96647000D01*
X178295300Y-93713300D02*
X178282600Y-93726000D01*
X180675200Y-98430000D02*
X180690000Y-98430000D01*
X172135800Y-96647000D02*
X173659800Y-95123000D01*
X178562000Y-99898200D02*
X177266600Y-101193600D01*
X172130000Y-98110000D02*
X172930000Y-98910000D01*
X180690000Y-98430000D02*
X179221800Y-99898200D01*
X175387000Y-95123000D02*
X176796700Y-93713300D01*
X173659800Y-95123000D02*
X175387000Y-95123000D01*
X179221800Y-99898200D02*
X178562000Y-99898200D01*
X177266600Y-101193600D02*
X177266600Y-101756173D01*
X178282600Y-93726000D02*
X178282600Y-96037400D01*
X178282600Y-96037400D02*
X180675200Y-98430000D01*
%TO.N,RESET_r*%
X176072800Y-101212800D02*
X174210000Y-99350000D01*
X176072800Y-103505000D02*
X176072800Y-101212800D01*
D27*
%TO.N,GND_l*%
X15011400Y-65328800D02*
X14224000Y-65328800D01*
X82956400Y-77063600D02*
X82956400Y-68300600D01*
D26*
X128000000Y-110500000D02*
X129899409Y-112399409D01*
D27*
X12903200Y-61950600D02*
X14757400Y-60096400D01*
X103784400Y-60426600D02*
X104343200Y-59867800D01*
X85572600Y-61569600D02*
X82397600Y-58394600D01*
X12490600Y-76930400D02*
X14706600Y-79146400D01*
X82397600Y-58394600D02*
X82397600Y-58403620D01*
X81940400Y-67284600D02*
X81940400Y-63525400D01*
X13965000Y-49535000D02*
X12954000Y-48524000D01*
D26*
X125525198Y-99032998D02*
X120118596Y-104439600D01*
D27*
X104343200Y-59867800D02*
X104343200Y-43942000D01*
X12903200Y-74193400D02*
X12903200Y-64008000D01*
X12954000Y-55143400D02*
X12541400Y-55556000D01*
D26*
X113685200Y-104439600D02*
X108178600Y-98933000D01*
D27*
X12541400Y-55556000D02*
X12541400Y-57880400D01*
D26*
X108178600Y-98933000D02*
X108178600Y-97764600D01*
D27*
X79984600Y-61569600D02*
X79984600Y-61036200D01*
X12903200Y-64008000D02*
X12903200Y-61950600D01*
X78663800Y-89662000D02*
X78987600Y-89338200D01*
X12490600Y-76930400D02*
X12490600Y-74606000D01*
X14706600Y-79146400D02*
X14757400Y-79146400D01*
X12954000Y-48524000D02*
X12954000Y-48260000D01*
X78987600Y-89338200D02*
X78987600Y-81032400D01*
D26*
X98425000Y-34112200D02*
X98425000Y-35331400D01*
D27*
X12954000Y-48260000D02*
X12954000Y-55143400D01*
X12490600Y-74606000D02*
X12903200Y-74193400D01*
X12541400Y-57880400D02*
X14782800Y-60121800D01*
X79375000Y-93091000D02*
X78663800Y-92379800D01*
X81381600Y-93091000D02*
X79375000Y-93091000D01*
D26*
X125500000Y-110500000D02*
X128000000Y-110500000D01*
D27*
X78987600Y-81032400D02*
X80518000Y-79502000D01*
X80518000Y-79502000D02*
X82956400Y-77063600D01*
X14224000Y-65328800D02*
X12903200Y-64008000D01*
X82956400Y-68300600D02*
X81940400Y-67284600D01*
X78663800Y-92379800D02*
X78663800Y-89662000D01*
D26*
X129899409Y-112399409D02*
X129899409Y-113040000D01*
X120118596Y-104439600D02*
X113685200Y-104439600D01*
X98425000Y-35331400D02*
X99644200Y-36550600D01*
D27*
X85572600Y-62509400D02*
X85572600Y-61569600D01*
X81940400Y-63525400D02*
X79984600Y-61569600D01*
X12954000Y-46761400D02*
X12954000Y-48260000D01*
%TO.N,VBUS_l*%
X38328601Y-35433000D02*
X36477000Y-33581400D01*
D25*
X106711800Y-90851799D02*
X106711800Y-84156932D01*
X110237477Y-98832877D02*
X109110000Y-97705400D01*
X106344868Y-83790000D02*
X96680000Y-83790000D01*
D27*
X83388200Y-27508200D02*
X79933800Y-24053800D01*
X83540601Y-81305401D02*
X83540601Y-68058617D01*
D25*
X109110000Y-93250000D02*
X106711800Y-90851799D01*
D27*
X29413200Y-40462200D02*
X23926800Y-45948600D01*
D25*
X96680000Y-83790000D02*
X96500627Y-83969373D01*
D27*
X83388200Y-56007000D02*
X83388200Y-27508200D01*
X85015881Y-82780681D02*
X83540601Y-81305401D01*
X49225200Y-29692600D02*
X49225200Y-33782000D01*
X49225200Y-33782000D02*
X47574199Y-35433000D01*
X29413200Y-35890200D02*
X29413200Y-40462200D01*
X82524600Y-67042616D02*
X82524600Y-61036200D01*
X53174900Y-25742900D02*
X49225200Y-29692600D01*
X79933800Y-24053800D02*
X71247000Y-24053800D01*
X92209319Y-82780681D02*
X85015881Y-82780681D01*
X81534000Y-57861200D02*
X83388200Y-56007000D01*
X71247000Y-24053800D02*
X69557900Y-25742900D01*
D25*
X106711800Y-84156932D02*
X106344868Y-83790000D01*
D27*
X82524600Y-61036200D02*
X81534000Y-60045600D01*
X47574199Y-35433000D02*
X38328601Y-35433000D01*
D25*
X109110000Y-97705400D02*
X109110000Y-93250000D01*
D27*
X81534000Y-60045600D02*
X81534000Y-57861200D01*
X83540601Y-68058617D02*
X82524600Y-67042616D01*
X36477000Y-33581400D02*
X31722000Y-33581400D01*
X31722000Y-33581400D02*
X29413200Y-35890200D01*
X69557900Y-25742900D02*
X53174900Y-25742900D01*
%TO.N,VBUS_r*%
X225856800Y-29210000D02*
X225856800Y-56434200D01*
X216687400Y-92125800D02*
X214807800Y-94005400D01*
X244094000Y-27711400D02*
X242392200Y-26009600D01*
X218867878Y-77673200D02*
X216687400Y-79853681D01*
D28*
X192085840Y-93991040D02*
X192085840Y-90474800D01*
D27*
X229057200Y-26009600D02*
X225856800Y-29210000D01*
D28*
X196895694Y-89941400D02*
X197992237Y-91037943D01*
D27*
X225388400Y-61037200D02*
X226187000Y-61835800D01*
D28*
X192554400Y-94459600D02*
X192085840Y-93991040D01*
X197992237Y-91037943D02*
X198100000Y-91037943D01*
D27*
X225856800Y-56434200D02*
X225388400Y-56902600D01*
D28*
X174701200Y-102336600D02*
X174701200Y-102880018D01*
D27*
X246557800Y-33096200D02*
X244094000Y-30632400D01*
X244094000Y-30632400D02*
X244094000Y-27711400D01*
D28*
X181252506Y-104114600D02*
X183386106Y-101981000D01*
X192619240Y-89941400D02*
X196895694Y-89941400D01*
D27*
X279527000Y-36652200D02*
X276148800Y-33274000D01*
X225388400Y-56902600D02*
X225388400Y-61037200D01*
D28*
X174701200Y-102880018D02*
X175935782Y-104114600D01*
D27*
X216687400Y-79853681D02*
X216687400Y-92125800D01*
X198100000Y-91037943D02*
X198100000Y-90398600D01*
D28*
X183386106Y-101981000D02*
X191439800Y-101981000D01*
D27*
X201067458Y-94005400D02*
X198100000Y-91037943D01*
D28*
X175935782Y-104114600D02*
X181252506Y-104114600D01*
X192554400Y-100866400D02*
X192554400Y-94459600D01*
D27*
X258318000Y-35229800D02*
X256184400Y-33096200D01*
D28*
X192085840Y-90474800D02*
X192619240Y-89941400D01*
D27*
X226187000Y-74102010D02*
X222615810Y-77673200D01*
X256184400Y-33096200D02*
X246557800Y-33096200D01*
X268249400Y-35229800D02*
X258318000Y-35229800D01*
D28*
X191439800Y-101981000D02*
X192554400Y-100866400D01*
D27*
X279527000Y-45542200D02*
X279527000Y-36652200D01*
X226187000Y-61835800D02*
X226187000Y-74102010D01*
X242392200Y-26009600D02*
X229057200Y-26009600D01*
X276148800Y-33274000D02*
X270205200Y-33274000D01*
X198100000Y-90398600D02*
X198100000Y-83680000D01*
X279095200Y-45974000D02*
X279527000Y-45542200D01*
X214807800Y-94005400D02*
X201067458Y-94005400D01*
X270205200Y-33274000D02*
X268249400Y-35229800D01*
X222615810Y-77673200D02*
X218867878Y-77673200D01*
D25*
%TO.N,VDDH_l*%
X112445800Y-100355400D02*
X109389400Y-97299000D01*
X106991200Y-84041200D02*
X106240000Y-83290000D01*
D28*
X96122026Y-83290000D02*
X95340000Y-84072026D01*
X104165400Y-82426400D02*
X103301800Y-83290000D01*
D25*
X106240000Y-83290000D02*
X103301800Y-83290000D01*
X109389400Y-93134269D02*
X106991200Y-90736067D01*
X106991200Y-90736067D02*
X106991200Y-84041200D01*
X109389400Y-97299000D02*
X109389400Y-93134269D01*
D28*
X104165400Y-63627000D02*
X104165400Y-82426400D01*
X103301800Y-83290000D02*
X96122026Y-83290000D01*
X95340000Y-84072026D02*
X95340000Y-84170000D01*
%TO.N,VDDH_r*%
X194260000Y-63030000D02*
X194250000Y-63020000D01*
X193658704Y-84540304D02*
X193700400Y-84582000D01*
D29*
X177116932Y-102314193D02*
X182496137Y-102314193D01*
X189814200Y-97028000D02*
X191541400Y-95300800D01*
D28*
X194260000Y-63040000D02*
X194260000Y-63030000D01*
X191541400Y-89992200D02*
X193700400Y-87833200D01*
D29*
X182496137Y-102314193D02*
X187782330Y-97028000D01*
X191541400Y-95300800D02*
X191541400Y-89992200D01*
D28*
X193700400Y-87833200D02*
X193700400Y-84582000D01*
X194260000Y-63040000D02*
X193658704Y-63641296D01*
X193658704Y-63641296D02*
X193658704Y-84540304D01*
D29*
X187782330Y-97028000D02*
X189814200Y-97028000D01*
D27*
%TO.N,EXT_VCC_l*%
X118130000Y-87275128D02*
X118130000Y-83063400D01*
X124766000Y-90965000D02*
X121819872Y-90965000D01*
X121335800Y-45212000D02*
X119659400Y-43535600D01*
X119659400Y-62534800D02*
X121335800Y-60858400D01*
D26*
X110237780Y-102060000D02*
X113273780Y-105096000D01*
X121666001Y-105096000D02*
X124062800Y-107492800D01*
D27*
X123368809Y-95632009D02*
X123368809Y-94055191D01*
D26*
X108670000Y-102060000D02*
X110237780Y-102060000D01*
D27*
X125990400Y-97872600D02*
X125609400Y-97872600D01*
X119608600Y-81534000D02*
X121259600Y-79883000D01*
X131648200Y-106807000D02*
X131648200Y-102768400D01*
D26*
X124062800Y-107492800D02*
X130962400Y-107492800D01*
X113273780Y-105096000D02*
X121666001Y-105096000D01*
D27*
X121819872Y-90965000D02*
X118130000Y-87275128D01*
X128422400Y-100304600D02*
X125990400Y-97872600D01*
X125609400Y-97872600D02*
X123368809Y-95632009D01*
X129184400Y-100304600D02*
X128422400Y-100304600D01*
X121335800Y-60858400D02*
X121335800Y-45212000D01*
X121259600Y-79883000D02*
X121259600Y-64185800D01*
X121259600Y-64185800D02*
X119608600Y-62534800D01*
X123368809Y-94055191D02*
X125266400Y-92157600D01*
X125266400Y-91465400D02*
X124766000Y-90965000D01*
X131648200Y-102768400D02*
X129184400Y-100304600D01*
X125266400Y-92157600D02*
X125266400Y-91465400D01*
X130962400Y-107492800D02*
X131648200Y-106807000D01*
X118130000Y-83063400D02*
X119659400Y-81534000D01*
D25*
%TO.N,ROW3_l*%
X119608600Y-103425600D02*
X118922800Y-104111400D01*
X109474000Y-99415600D02*
X114169800Y-104111400D01*
X119882072Y-104111400D02*
X118922800Y-104111400D01*
X114169800Y-104111400D02*
X118922800Y-104111400D01*
X109474000Y-98755200D02*
X109474000Y-99415600D01*
X124536200Y-99457272D02*
X119882072Y-104111400D01*
X119913400Y-99771200D02*
X119608600Y-100076000D01*
X119608600Y-100076000D02*
X119608600Y-103425600D01*
X124536200Y-98323400D02*
X124536200Y-99457272D01*
%TO.N,POWER_PIN_l*%
X105943400Y-64871600D02*
X105435400Y-64363600D01*
X108108800Y-87331600D02*
X108108800Y-82768537D01*
X112649000Y-89563264D02*
X111287236Y-88201500D01*
X108978700Y-88201500D02*
X108108800Y-87331600D01*
X111836200Y-93316736D02*
X112649000Y-92503936D01*
X105943400Y-80603137D02*
X105943400Y-64871600D01*
X112826800Y-96067738D02*
X112826800Y-95123000D01*
X112649000Y-92503936D02*
X112649000Y-89563264D01*
X111287236Y-88201500D02*
X108978700Y-88201500D01*
X108108800Y-82768537D02*
X105943400Y-80603137D01*
X112979200Y-96220138D02*
X112826800Y-96067738D01*
X111836200Y-94132399D02*
X111836200Y-93316736D01*
X112826800Y-95123000D02*
X111836200Y-94132399D01*
%TO.N,COL0_l*%
X40640000Y-83388200D02*
X44805600Y-79222600D01*
X11938000Y-73609200D02*
X11938000Y-79502000D01*
X111328200Y-87452200D02*
X113207800Y-89331801D01*
X113207800Y-92735400D02*
X112721500Y-93221700D01*
X113207800Y-89331801D02*
X113207800Y-92735400D01*
X112721500Y-93221700D02*
X112721500Y-93903800D01*
X92204864Y-99187000D02*
X103939664Y-87452200D01*
X76826000Y-93132800D02*
X82880200Y-99187000D01*
X44805600Y-79222600D02*
X75668349Y-79222600D01*
X82880200Y-99187000D02*
X92204864Y-99187000D01*
X11938000Y-35610800D02*
X11938000Y-54660800D01*
X76826000Y-80380251D02*
X76826000Y-93132800D01*
X103939664Y-87452200D02*
X104800400Y-87452200D01*
X11938000Y-54610000D02*
X11938000Y-73660000D01*
X75668349Y-79222600D02*
X76826000Y-80380251D01*
X15824200Y-83388200D02*
X40640000Y-83388200D01*
X110816500Y-87452200D02*
X111328200Y-87452200D01*
X11938000Y-79502000D02*
X15824200Y-83388200D01*
%TO.N,COL1_l*%
X31013400Y-54584600D02*
X31013400Y-73634600D01*
X113639600Y-92862400D02*
X113639600Y-89368468D01*
X33477200Y-78943200D02*
X31013400Y-76479400D01*
X75922106Y-78943200D02*
X33477200Y-78943200D01*
X105308400Y-87020400D02*
X103976332Y-87020400D01*
X77203000Y-80224094D02*
X75922106Y-78943200D01*
X92089132Y-98907600D02*
X82995932Y-98907600D01*
X31013400Y-76479400D02*
X31013400Y-73583800D01*
X31013400Y-35585400D02*
X31013400Y-54635400D01*
X82995932Y-98907600D02*
X77203000Y-93114668D01*
X113639600Y-89368468D02*
X111291532Y-87020400D01*
X103976332Y-87020400D02*
X92089132Y-98907600D01*
X77203000Y-93114668D02*
X77203000Y-80224094D01*
X111291532Y-87020400D02*
X110439200Y-87020400D01*
%TO.N,COL2_l*%
X76175865Y-78663800D02*
X53365400Y-78663800D01*
X83086264Y-98602800D02*
X77580000Y-93096536D01*
X50063400Y-49885600D02*
X50063400Y-68884800D01*
X111166981Y-86500718D02*
X110827059Y-86500718D01*
X50063400Y-30886400D02*
X50063400Y-49885600D01*
X77580000Y-80067936D02*
X76175865Y-78663800D01*
X114096800Y-93268800D02*
X114096800Y-89430537D01*
X50063400Y-75361800D02*
X50063400Y-68884800D01*
X104100882Y-86500718D02*
X91998800Y-98602800D01*
X114096800Y-89430537D02*
X111166981Y-86500718D01*
X77580000Y-93096536D02*
X77580000Y-80067936D01*
X53365400Y-78663800D02*
X50063400Y-75361800D01*
X104775000Y-86500718D02*
X104100882Y-86500718D01*
X91998800Y-98602800D02*
X83086264Y-98602800D01*
%TO.N,COL3_l*%
X78232000Y-88696800D02*
X78232000Y-80186777D01*
X104176668Y-86029800D02*
X96048668Y-94157800D01*
X114630200Y-89568806D02*
X111091194Y-86029800D01*
X114630200Y-92964000D02*
X114630200Y-89568806D01*
X69113400Y-28752800D02*
X69113400Y-47752000D01*
X78232000Y-80186777D02*
X76429623Y-78384400D01*
X105362900Y-86029800D02*
X104176668Y-86029800D01*
X96048668Y-94157800D02*
X79036396Y-94157800D01*
X78232000Y-93353404D02*
X78232000Y-88696800D01*
X69113400Y-75082400D02*
X69113400Y-66751200D01*
X76429623Y-78384400D02*
X72415400Y-78384400D01*
X111091194Y-86029800D02*
X110286800Y-86029800D01*
X72415400Y-78384400D02*
X69113400Y-75082400D01*
X69113400Y-47752000D02*
X69113400Y-66751200D01*
X79036396Y-94157800D02*
X78232000Y-93353404D01*
%TO.N,COL4_l*%
X88138000Y-77788000D02*
X88138000Y-68834000D01*
X88138000Y-49834800D02*
X88138000Y-68884800D01*
X88138000Y-49834800D02*
X88138000Y-30835600D01*
X98888300Y-88538300D02*
X88138000Y-77788000D01*
%TO.N,COL5_l*%
X107213400Y-52476400D02*
X107213400Y-71475600D01*
X123799600Y-92532200D02*
X117551200Y-92532200D01*
X107213400Y-77038200D02*
X121996200Y-91821000D01*
X107213400Y-71475600D02*
X107213400Y-77038200D01*
X124510800Y-91821000D02*
X123799600Y-92532200D01*
X121996200Y-91821000D02*
X124510800Y-91821000D01*
X107213400Y-52476400D02*
X107213400Y-33477200D01*
D27*
%TO.N,GND_r*%
X174441000Y-74822200D02*
X174441000Y-72497800D01*
X176810000Y-83642200D02*
X176810000Y-84125400D01*
X176810000Y-82470000D02*
X176830000Y-82490000D01*
X269863340Y-46309936D02*
X269875404Y-46322000D01*
D26*
X179175200Y-105454800D02*
X178970000Y-105660000D01*
D27*
X176810000Y-84125400D02*
X178155600Y-85471000D01*
X174441000Y-74822200D02*
X176682400Y-77063600D01*
X174441000Y-55721400D02*
X174441000Y-53397000D01*
X226644200Y-58383320D02*
X226644200Y-59754400D01*
D26*
X191723038Y-102664800D02*
X187765200Y-102664800D01*
X193954400Y-96621600D02*
X193954400Y-100433438D01*
D27*
X174853600Y-62128400D02*
X174853600Y-59842400D01*
X176830000Y-82490000D02*
X176810000Y-82510000D01*
X174853600Y-40741600D02*
X176707800Y-38887400D01*
X175654420Y-62929220D02*
X174853600Y-62128400D01*
X174853600Y-52984400D02*
X174853600Y-40741600D01*
D26*
X184379758Y-103910000D02*
X182834958Y-105454800D01*
D27*
X176479200Y-62929220D02*
X175654420Y-62929220D01*
D26*
X187765200Y-102664800D02*
X186520000Y-103910000D01*
X182834958Y-105454800D02*
X179175200Y-105454800D01*
D27*
X176682400Y-57962800D02*
X174441000Y-55721400D01*
X174853600Y-59842400D02*
X176707800Y-57988200D01*
X174441000Y-53397000D02*
X174853600Y-52984400D01*
X174853600Y-72085200D02*
X174853600Y-62128400D01*
X198500000Y-63060000D02*
X196280000Y-60840000D01*
X176810000Y-77165800D02*
X176810000Y-82470000D01*
X176707800Y-77063600D02*
X176810000Y-77165800D01*
X176682400Y-77063600D02*
X176707800Y-77063600D01*
X174441000Y-72497800D02*
X174853600Y-72085200D01*
X176810000Y-82510000D02*
X176810000Y-83642200D01*
D26*
X186520000Y-103910000D02*
X184379758Y-103910000D01*
D27*
X228458400Y-61568600D02*
X228458400Y-62508400D01*
D26*
X193954400Y-100433438D02*
X191723038Y-102664800D01*
D27*
X198500000Y-63120000D02*
X198500000Y-63060000D01*
X226644200Y-59754400D02*
X228458400Y-61568600D01*
X269875404Y-46322000D02*
X271856234Y-46322000D01*
%TO.N,EXT_VCC_r*%
X281533600Y-64490600D02*
X282733600Y-63290600D01*
X215620600Y-99314000D02*
X218109800Y-96824800D01*
X215620600Y-99415600D02*
X215620600Y-99314000D01*
X282784400Y-82289800D02*
X282784400Y-65690600D01*
X281254200Y-83769200D02*
X281533600Y-83489800D01*
X282733600Y-63290600D02*
X282733600Y-48276400D01*
X281584400Y-83489800D02*
X282016200Y-83058000D01*
X282016200Y-83058000D02*
X282784400Y-82289800D01*
X282733600Y-48263600D02*
X282733600Y-46691400D01*
X215620600Y-99415600D02*
X215519000Y-99415600D01*
X282784400Y-65690600D02*
X281584400Y-64490600D01*
D26*
X174497800Y-105077800D02*
X171958900Y-102538900D01*
D27*
X219481400Y-79095600D02*
X248920000Y-79095600D01*
X215519000Y-99415600D02*
X215569800Y-99364800D01*
X195090000Y-57678100D02*
X195090000Y-58680000D01*
X282740000Y-48270000D02*
X282733600Y-48263600D01*
X282733600Y-48276400D02*
X282740000Y-48270000D01*
X253593600Y-83769200D02*
X281254200Y-83769200D01*
X248920000Y-79095600D02*
X253593600Y-83769200D01*
X194259200Y-56847300D02*
X195090000Y-57678100D01*
X218109800Y-96824800D02*
X218109800Y-80467200D01*
D26*
X186385200Y-103073200D02*
X184683400Y-103073200D01*
D27*
X282733600Y-46691400D02*
X281533600Y-45491400D01*
D26*
X182678800Y-105077800D02*
X174497800Y-105077800D01*
X184683400Y-103073200D02*
X182678800Y-105077800D01*
D27*
X218109800Y-80467200D02*
X219481400Y-79095600D01*
D25*
%TO.N,BATTERY_LEVEL_PIN_l*%
X107270600Y-90620335D02*
X107270600Y-83300600D01*
X113280800Y-100530000D02*
X109668800Y-96918000D01*
X109668800Y-93018537D02*
X107270600Y-90620335D01*
X107270600Y-83300600D02*
X106960000Y-82990000D01*
X109668800Y-96918000D02*
X109668800Y-93018537D01*
X113512600Y-100530000D02*
X113280800Y-100530000D01*
%TO.N,BATTERY_LEVEL_PIN_r*%
X188960000Y-84750000D02*
X185201200Y-84750000D01*
X182422800Y-87528400D02*
X182422800Y-91806868D01*
X179349400Y-100457000D02*
X178624054Y-100457000D01*
X182016400Y-97790000D02*
X179349400Y-100457000D01*
X182016400Y-92213268D02*
X182016400Y-97790000D01*
X185201200Y-84750000D02*
X182422800Y-87528400D01*
X182422800Y-91806868D02*
X182016400Y-92213268D01*
%TO.N,Net-(U7-DEC4)*%
X121539000Y-95359000D02*
X120630000Y-94450000D01*
X121539000Y-99136200D02*
X121539000Y-95359000D01*
X120129300Y-100545900D02*
X121539000Y-99136200D01*
%TO.N,Net-(U8-DEC2)*%
X180194000Y-93922800D02*
X180194000Y-90267308D01*
X179578000Y-94538800D02*
X180194000Y-93922800D01*
X180194000Y-90267308D02*
X180864108Y-89597200D01*
%TO.N,Net-(U8-DEC4)*%
X176425200Y-93195800D02*
X176225200Y-93395800D01*
X180320000Y-97296597D02*
X178812800Y-95789398D01*
X178812800Y-95789398D02*
X178812800Y-93431989D01*
X178576611Y-93195800D02*
X176425200Y-93195800D01*
X178812800Y-93431989D02*
X178576611Y-93195800D01*
%TO.N,ROW0_r*%
X175361600Y-94056200D02*
X175361600Y-92817328D01*
X174802800Y-94615000D02*
X175361600Y-94056200D01*
X191897000Y-41351200D02*
X189382400Y-38836600D01*
X175361600Y-92817328D02*
X191897000Y-76281928D01*
X191897000Y-76281928D02*
X191897000Y-41351200D01*
X173685200Y-94615000D02*
X174802800Y-94615000D01*
%TO.N,ROW1_r*%
X174955200Y-92828596D02*
X174955200Y-93751400D01*
X174599600Y-94107000D02*
X174371000Y-94107000D01*
X190373000Y-56896000D02*
X191617600Y-58140600D01*
X191617600Y-76166196D02*
X174955200Y-92828596D01*
X191617600Y-58140600D02*
X191617600Y-76166196D01*
X174955200Y-93751400D02*
X174599600Y-94107000D01*
%TO.N,ROW2_r*%
X174421800Y-92966864D02*
X174421800Y-93573600D01*
X189915800Y-77472864D02*
X174421800Y-92966864D01*
X189915800Y-76479400D02*
X189915800Y-77472864D01*
%TO.N,SWC_l*%
X110622726Y-85166200D02*
X117110000Y-91653474D01*
X123300295Y-107194439D02*
X123300295Y-109230000D01*
X117110000Y-91653474D02*
X117110000Y-92120000D01*
X105000000Y-102800000D02*
X110513636Y-102800000D01*
X121530056Y-105424200D02*
X123300295Y-107194439D01*
X113137836Y-105424200D02*
X121530056Y-105424200D01*
X106095800Y-85318600D02*
X106095800Y-91567000D01*
X110286800Y-85166200D02*
X110622726Y-85166200D01*
X106095800Y-91567000D02*
X102712700Y-94950100D01*
X106248200Y-85166200D02*
X106095800Y-85318600D01*
X102712700Y-100512700D02*
X105000000Y-102800000D01*
X102712700Y-94950100D02*
X102712700Y-100512700D01*
X110513636Y-102800000D02*
X113137836Y-105424200D01*
%TO.N,SWD_l*%
X120453600Y-105703600D02*
X121100591Y-106350591D01*
X110357458Y-84505800D02*
X117113858Y-91262200D01*
X102433300Y-94834368D02*
X102433300Y-100628432D01*
X102433300Y-100628432D02*
X104884268Y-103079400D01*
X105816400Y-84861400D02*
X105816400Y-91451268D01*
X113022104Y-105703600D02*
X120453600Y-105703600D01*
X110397904Y-103079400D02*
X113022104Y-105703600D01*
X117113858Y-91262200D02*
X117500400Y-91262200D01*
X110286800Y-84505800D02*
X110357458Y-84505800D01*
X105816400Y-91451268D02*
X102433300Y-94834368D01*
X121100591Y-106350591D02*
X121100591Y-107960000D01*
X104884268Y-103079400D02*
X110397904Y-103079400D01*
X106146600Y-84531200D02*
X105816400Y-84861400D01*
%TO.N,SWC_r*%
X165399576Y-109229787D02*
X171975114Y-109229787D01*
X160654144Y-94830000D02*
X159054800Y-96429344D01*
X159054800Y-99252654D02*
X159054800Y-102885011D01*
X159054800Y-102885011D02*
X165399576Y-109229787D01*
X169161201Y-92618800D02*
X166950001Y-94830000D01*
X159073800Y-98733946D02*
X159073800Y-99233654D01*
X166950001Y-94830000D02*
X160654144Y-94830000D01*
X159073800Y-99233654D02*
X159054800Y-99252654D01*
X159054800Y-96429344D02*
X159054800Y-98714946D01*
X159054800Y-98714946D02*
X159073800Y-98733946D01*
X172237400Y-91846400D02*
X171638200Y-91846400D01*
X171638200Y-91846400D02*
X170865800Y-92618800D01*
X170865800Y-92618800D02*
X169161201Y-92618800D01*
%TO.N,SWD_r*%
X159334200Y-96545076D02*
X160769276Y-95110000D01*
X167094144Y-95110000D02*
X169305944Y-92898200D01*
X159334200Y-98599214D02*
X159334200Y-96545076D01*
X171338000Y-92898200D02*
X171856400Y-92379800D01*
X164524708Y-107959787D02*
X159334200Y-102769278D01*
X159353200Y-98618214D02*
X159334200Y-98599214D01*
X159334200Y-102769278D02*
X159334200Y-99368386D01*
X159353200Y-99349385D02*
X159353200Y-98618214D01*
X169305944Y-92898200D02*
X171338000Y-92898200D01*
X159334200Y-99368386D02*
X159353200Y-99349385D01*
X160769276Y-95110000D02*
X167094144Y-95110000D01*
X174174818Y-107959787D02*
X164524708Y-107959787D01*
%TO.N,RGB_r*%
X176276000Y-42672000D02*
X176911000Y-43307000D01*
X173310984Y-93682548D02*
X173310984Y-94088384D01*
X189001400Y-47675800D02*
X189001400Y-77992132D01*
X176911000Y-43307000D02*
X189128400Y-43307000D01*
X189128400Y-43307000D02*
X190728600Y-44907200D01*
X190728600Y-44907200D02*
X190728600Y-45948600D01*
X189001400Y-77992132D02*
X173310984Y-93682548D01*
X190728600Y-45948600D02*
X189001400Y-47675800D01*
%TO.N,POWER_PIN_r*%
X171831000Y-95464468D02*
X170580000Y-96715468D01*
X171831000Y-93929201D02*
X171831000Y-95464468D01*
X171860000Y-99850000D02*
X171860000Y-99940000D01*
X187985400Y-61696600D02*
X188163200Y-61874400D01*
X170580000Y-96715468D02*
X170580000Y-98570000D01*
X170580000Y-98570000D02*
X171860000Y-99850000D01*
X188163200Y-61874400D02*
X188163200Y-77597000D01*
X188163200Y-77597000D02*
X171831000Y-93929201D01*
%TO.N,COL0_r*%
X175870000Y-87219468D02*
X170750068Y-92339400D01*
X175870000Y-77624929D02*
X175870000Y-87219468D01*
X160540000Y-94480000D02*
X158470600Y-96549400D01*
X173863000Y-71475600D02*
X173863000Y-75617928D01*
X170750068Y-92339400D02*
X169045469Y-92339400D01*
X173863000Y-75617928D02*
X175870000Y-77624929D01*
X169045469Y-92339400D02*
X166904869Y-94480000D01*
X164617400Y-100990400D02*
X164084000Y-101523800D01*
X158470600Y-96549400D02*
X158470600Y-98983800D01*
X164084000Y-101523800D02*
X160477200Y-101523800D01*
X173863000Y-71539600D02*
X173863000Y-52476400D01*
X166904869Y-94480000D02*
X160540000Y-94480000D01*
X173863000Y-52540400D02*
X173863000Y-33477200D01*
%TO.N,COL1_r*%
X192913000Y-68986400D02*
X192913000Y-76606400D01*
X192913000Y-69050400D02*
X192913000Y-49987200D01*
X181381400Y-93624400D02*
X181076600Y-93929200D01*
X182143400Y-87376000D02*
X182143400Y-89396732D01*
X192913000Y-76606400D02*
X182143400Y-87376000D01*
X182143400Y-89396732D02*
X181381400Y-90158732D01*
X181381400Y-90158732D02*
X181381400Y-93624400D01*
X192913000Y-30988000D02*
X192913000Y-49987200D01*
%TO.N,COL2_r*%
X211988400Y-47853600D02*
X211988400Y-28854400D01*
X202971400Y-88747600D02*
X202895200Y-88747600D01*
X211988400Y-79730600D02*
X202971400Y-88747600D01*
X211988400Y-66916800D02*
X211988400Y-47853600D01*
X211988400Y-66852800D02*
X211988400Y-79730600D01*
%TO.N,COL3_r*%
X217119200Y-96034536D02*
X214576336Y-98577400D01*
X192913000Y-90474800D02*
X192862200Y-90525600D01*
X181737000Y-94121854D02*
X181737000Y-91211400D01*
X205028800Y-98577400D02*
X196926200Y-90474800D01*
X230962200Y-69937468D02*
X222794668Y-78105000D01*
X181737000Y-91211400D02*
X181889400Y-91059000D01*
X219046736Y-78105000D02*
X217119200Y-80032538D01*
X230962200Y-69101200D02*
X230962200Y-50038000D01*
X222794668Y-78105000D02*
X219046736Y-78105000D01*
X214576336Y-98577400D02*
X205028800Y-98577400D01*
X179872254Y-95986600D02*
X181737000Y-94121854D01*
X217119200Y-80032538D02*
X217119200Y-96034536D01*
X230962200Y-69037200D02*
X230962200Y-69937468D01*
X230962200Y-50102000D02*
X230962200Y-31038800D01*
X196926200Y-90474800D02*
X192913000Y-90474800D01*
X179857400Y-95986600D02*
X179872254Y-95986600D01*
%TO.N,COL4_r*%
X182295800Y-92329000D02*
X182295800Y-97905732D01*
X250063000Y-73876400D02*
X250063000Y-54813200D01*
X217398600Y-96150268D02*
X214666668Y-98882200D01*
X219162468Y-78384400D02*
X217398600Y-80148269D01*
X249478800Y-74396600D02*
X226898200Y-74396600D01*
X190500000Y-91211400D02*
X183413400Y-91211400D01*
X179287332Y-100914200D02*
X178333400Y-100914200D01*
X196937468Y-90881200D02*
X193344800Y-90881200D01*
X217398600Y-80148269D02*
X217398600Y-96150268D01*
X250063000Y-73812400D02*
X249478800Y-74396600D01*
X190525400Y-91236800D02*
X190500000Y-91211400D01*
X182295800Y-97905732D02*
X179287332Y-100914200D01*
X226898200Y-74396600D02*
X222910400Y-78384400D01*
X204938468Y-98882200D02*
X196937468Y-90881200D01*
X183413400Y-91211400D02*
X182295800Y-92329000D01*
X214666668Y-98882200D02*
X204938468Y-98882200D01*
X193344800Y-90881200D02*
X193294000Y-90932000D01*
X250063000Y-54877200D02*
X250063000Y-35814000D01*
X222910400Y-78384400D02*
X219162468Y-78384400D01*
%TO.N,COL5_r*%
X214782399Y-99161600D02*
X204822736Y-99161600D01*
X182968118Y-101393200D02*
X177974200Y-101393200D01*
X217678000Y-80264000D02*
X217678000Y-96265999D01*
X187375800Y-91948000D02*
X186232800Y-93091000D01*
X217678000Y-96265999D02*
X214782399Y-99161600D01*
X190779400Y-92075000D02*
X190652400Y-91948000D01*
X197202736Y-91541600D02*
X193395600Y-91541600D01*
X190652400Y-91948000D02*
X187375800Y-91948000D01*
X186232800Y-98128518D02*
X182968118Y-101393200D01*
X269113000Y-73622400D02*
X269113000Y-54559200D01*
X264007600Y-78663800D02*
X219278200Y-78663800D01*
X269113000Y-54623200D02*
X269113000Y-35560000D01*
X177974200Y-101393200D02*
X177825400Y-101244400D01*
X269113000Y-73558400D02*
X264007600Y-78663800D01*
X219278200Y-78663800D02*
X217678000Y-80264000D01*
X204822736Y-99161600D02*
X197202736Y-91541600D01*
X186232800Y-93091000D02*
X186232800Y-98128518D01*
%TO.N,RGB_l*%
X28168600Y-41046400D02*
X17195800Y-41046400D01*
X52996043Y-25311100D02*
X48793400Y-29513742D01*
X38507458Y-35001200D02*
X36655858Y-33149600D01*
X48793400Y-29513742D02*
X48793400Y-33603142D01*
X28981400Y-40233600D02*
X28168600Y-41046400D01*
X82728858Y-26238200D02*
X80112658Y-23622000D01*
X15062200Y-43180000D02*
X15062200Y-44932600D01*
X47395342Y-35001200D02*
X38507458Y-35001200D01*
X80112658Y-23622000D02*
X71068143Y-23622000D01*
X17195800Y-41046400D02*
X15062200Y-43180000D01*
X118135400Y-89382600D02*
X118135400Y-88355332D01*
X118135400Y-88355332D02*
X106527600Y-76747532D01*
X106527600Y-76747532D02*
X106527600Y-32004000D01*
X28981400Y-35711342D02*
X28981400Y-40233600D01*
X100761800Y-26238200D02*
X82728858Y-26238200D01*
X48793400Y-33603142D02*
X47395342Y-35001200D01*
X106527600Y-32004000D02*
X100761800Y-26238200D01*
X36655858Y-33149600D02*
X31543143Y-33149600D01*
X31543143Y-33149600D02*
X28981400Y-35711342D01*
X69379042Y-25311100D02*
X52996043Y-25311100D01*
X71068143Y-23622000D02*
X69379042Y-25311100D01*
%TO.N,D-_l*%
X20790000Y-48770000D02*
X20160000Y-48140000D01*
X107550000Y-90504604D02*
X107550000Y-83000000D01*
X109948200Y-92902805D02*
X107550000Y-90504604D01*
X109948200Y-96559536D02*
X109948200Y-92902805D01*
X111204064Y-97815400D02*
X109948200Y-96559536D01*
X105105200Y-43618200D02*
X104537000Y-43050000D01*
X107550000Y-83000000D02*
X104521000Y-79971000D01*
X104521000Y-64185800D02*
X105105200Y-63601600D01*
X104537000Y-43050000D02*
X103570000Y-43050000D01*
X111379000Y-97815400D02*
X111204064Y-97815400D01*
X104521000Y-79971000D02*
X104521000Y-64185800D01*
X105105200Y-63601600D02*
X105105200Y-43618200D01*
X24231600Y-48770000D02*
X20790000Y-48770000D01*
%TO.N,D+_l*%
X111963200Y-97282000D02*
X111074200Y-97282000D01*
X110227600Y-92699206D02*
X107829400Y-90301006D01*
X107829400Y-82884268D02*
X104800400Y-79855268D01*
X111074200Y-97282000D02*
X110227600Y-96435400D01*
X105384600Y-63717332D02*
X105384600Y-43465800D01*
X21615400Y-48110000D02*
X24866600Y-48110000D01*
X104278800Y-42360000D02*
X103050000Y-42360000D01*
X107829400Y-90301006D02*
X107829400Y-82884268D01*
X104800400Y-79855268D02*
X104800400Y-64301532D01*
X104800400Y-64301532D02*
X105384600Y-63717332D01*
X110227600Y-96435400D02*
X110227600Y-92699206D01*
X105384600Y-43465800D02*
X104278800Y-42360000D01*
%TO.N,ROW3_r*%
X192910000Y-96629449D02*
X192910000Y-101013694D01*
X193283725Y-96255725D02*
X192910000Y-96629449D01*
X169921088Y-98602800D02*
X169900600Y-98602800D01*
X193585273Y-95954176D02*
X193283725Y-96255725D01*
X181399800Y-104470200D02*
X175788488Y-104470200D01*
X175788488Y-104470200D02*
X169921088Y-98602800D01*
X191587094Y-102336600D02*
X183533400Y-102336600D01*
X194430000Y-95954176D02*
X193585273Y-95954176D01*
X192910000Y-101013694D02*
X191587094Y-102336600D01*
X193283725Y-96255725D02*
X193217800Y-96321650D01*
X183533400Y-102336600D02*
X181399800Y-104470200D01*
%TO.N,D-_r*%
X174117000Y-101676200D02*
X173389620Y-101676200D01*
X170859400Y-96831200D02*
X172110400Y-95580200D01*
X273910000Y-49160000D02*
X273910000Y-47971180D01*
X170859400Y-98229400D02*
X170859400Y-96831200D01*
X272752600Y-50317400D02*
X273910000Y-49160000D01*
X188442600Y-77712732D02*
X188442600Y-46659800D01*
X172310600Y-99680600D02*
X170859400Y-98229400D01*
X173389620Y-101676200D02*
X172310600Y-100597180D01*
X172310600Y-100597180D02*
X172310600Y-99680600D01*
X272542000Y-50317400D02*
X272752600Y-50317400D01*
X172110400Y-95580200D02*
X172110400Y-94044932D01*
X190119000Y-44983400D02*
X190144400Y-44983400D01*
X188442600Y-46659800D02*
X190119000Y-44983400D01*
X172110400Y-94044932D02*
X188442600Y-77712732D01*
%TO.N,D+_r*%
X173875450Y-101154790D02*
X173274790Y-101154790D01*
X275310000Y-49110000D02*
X275310000Y-47971180D01*
X172590000Y-100470000D02*
X172590000Y-99564869D01*
X172389800Y-95707200D02*
X172389800Y-94208600D01*
X274058900Y-50361100D02*
X275310000Y-49110000D01*
X172590000Y-99564869D02*
X171138800Y-98113669D01*
X188722000Y-47193200D02*
X190195200Y-45720000D01*
X172389800Y-94208600D02*
X188722000Y-77876400D01*
X171138800Y-96958200D02*
X172389800Y-95707200D01*
X171138800Y-98113669D02*
X171138800Y-96958200D01*
X173274790Y-101154790D02*
X172590000Y-100470000D01*
X188722000Y-77876400D02*
X188722000Y-47193200D01*
%TO.N,BLED_l*%
X112928400Y-89447532D02*
X111364868Y-87884000D01*
X112115600Y-93432468D02*
X112928400Y-92619668D01*
X108388200Y-82652805D02*
X106222800Y-80487405D01*
X113309400Y-95210468D02*
X112115600Y-94016668D01*
X106222800Y-80487405D02*
X106222800Y-32639000D01*
X106222800Y-32639000D02*
X103886000Y-30302200D01*
X113309400Y-95377000D02*
X113309400Y-95210468D01*
X108388200Y-87204600D02*
X108388200Y-82652805D01*
X112115600Y-94016668D02*
X112115600Y-93432468D01*
X112928400Y-92619668D02*
X112928400Y-89447532D01*
X111364868Y-87884000D02*
X109067600Y-87884000D01*
X109067600Y-87884000D02*
X108388200Y-87204600D01*
%TO.N,BLED_r*%
X180473400Y-90671600D02*
X181864000Y-89281000D01*
X180473400Y-94405400D02*
X180473400Y-90671600D01*
X181864000Y-87260268D02*
X192176400Y-76947868D01*
X192176400Y-27228800D02*
X191363600Y-26416000D01*
X181864000Y-89281000D02*
X181864000Y-87260268D01*
X179273200Y-95148400D02*
X179730400Y-95148400D01*
X179730400Y-95148400D02*
X180473400Y-94405400D01*
X192176400Y-76947868D02*
X192176400Y-27228800D01*
D28*
%TO.N,/VBUS_TC_l*%
X43642130Y-93293726D02*
X43540630Y-93293726D01*
X37787130Y-96117226D02*
X37928426Y-95975930D01*
X37928426Y-95975930D02*
X37928426Y-94580022D01*
X42335834Y-94498522D02*
X42335834Y-95920930D01*
X42335834Y-95920930D02*
X42532130Y-96117226D01*
X37928426Y-94580022D02*
X36642130Y-93293726D01*
X37732130Y-96117226D02*
X37787130Y-96117226D01*
X43540630Y-93293726D02*
X42335834Y-94498522D01*
D26*
%TO.N,/D-_TC_l*%
X40882130Y-96117226D02*
X40882130Y-95282226D01*
X39882130Y-96117226D02*
X39882130Y-95282226D01*
%TO.N,Net-(USB1-CC2)*%
X34862130Y-92642226D02*
X36942130Y-92642226D01*
X36942130Y-92642226D02*
X38382130Y-94082226D01*
X38382130Y-94082226D02*
X38382130Y-96117226D01*
%TO.N,Net-(USB1-CC1)*%
X41382130Y-94002226D02*
X41382130Y-96117226D01*
X45382130Y-92642226D02*
X42742130Y-92642226D01*
X42742130Y-92642226D02*
X41382130Y-94002226D01*
%TO.N,Net-(USB2-CC2)*%
X255705010Y-93882539D02*
X255705010Y-96116046D01*
X254463517Y-92641046D02*
X255705010Y-93882539D01*
X252185010Y-92641046D02*
X254463517Y-92641046D01*
%TO.N,Net-(USB2-CC1)*%
X262705010Y-92641046D02*
X260351489Y-92641046D01*
X260351489Y-92641046D02*
X258705010Y-94287525D01*
X258705010Y-94287525D02*
X258705010Y-96116046D01*
%TO.N,/D+_TC_l*%
X39382130Y-94852226D02*
X39404130Y-94830226D01*
X39404130Y-94830226D02*
X40360130Y-94830226D01*
X40360130Y-94830226D02*
X40382130Y-94852226D01*
X39382130Y-96117226D02*
X39382130Y-94852226D01*
X40382130Y-96117226D02*
X40382130Y-94852226D01*
D27*
%TO.N,/GND_TC_l*%
X36357130Y-96117226D02*
X35807130Y-95567226D01*
X43332130Y-96117226D02*
X43907130Y-96117226D01*
X36932130Y-96117226D02*
X36357130Y-96117226D01*
X35807130Y-91367226D02*
X44457130Y-91367226D01*
X43907130Y-96117226D02*
X44457130Y-95567226D01*
D28*
%TO.N,/VBUS_TC_r*%
X255110010Y-96116046D02*
X255251306Y-95974750D01*
X255251306Y-94578842D02*
X253965010Y-93292546D01*
X255251306Y-95974750D02*
X255251306Y-94578842D01*
X259658714Y-95919750D02*
X259855010Y-96116046D01*
X260863510Y-93292546D02*
X259658714Y-94497342D01*
X255055010Y-96116046D02*
X255110010Y-96116046D01*
X260965010Y-93292546D02*
X260863510Y-93292546D01*
X259658714Y-94497342D02*
X259658714Y-95919750D01*
D26*
%TO.N,/D-_TC_r*%
X258205010Y-96116046D02*
X258205010Y-95281046D01*
X257205010Y-96116046D02*
X257205010Y-95281046D01*
%TO.N,/D+_TC_r*%
X257705010Y-96116046D02*
X257705010Y-94851046D01*
X256727010Y-94829046D02*
X257683010Y-94829046D01*
X256705010Y-94851046D02*
X256727010Y-94829046D01*
X257683010Y-94829046D02*
X257705010Y-94851046D01*
X256705010Y-96116046D02*
X256705010Y-94851046D01*
D27*
%TO.N,/GND_TC_r*%
X260655010Y-96116046D02*
X261230010Y-96116046D01*
X261230010Y-96116046D02*
X261780010Y-95566046D01*
X253130010Y-91366046D02*
X261780010Y-91366046D01*
X254255010Y-96116046D02*
X253680010Y-96116046D01*
X253680010Y-96116046D02*
X253130010Y-95566046D01*
%TD*%
%TA.AperFunction,Conductor*%
%TO.N,GND_r*%
G36*
X179350681Y-82223238D02*
G01*
X179531376Y-82252576D01*
X179548131Y-82257029D01*
X179681945Y-82307182D01*
X179719541Y-82321273D01*
X179735103Y-82328933D01*
X179890558Y-82425584D01*
X179904313Y-82436151D01*
X180037764Y-82561446D01*
X180049175Y-82574507D01*
X180157959Y-82727119D01*
X180162644Y-82734430D01*
X181041214Y-84267309D01*
X181052082Y-84322630D01*
X181027107Y-84373174D01*
X171674882Y-93725399D01*
X171661566Y-93736327D01*
X171647517Y-93745714D01*
X171637926Y-93760069D01*
X171633319Y-93766963D01*
X171633316Y-93766967D01*
X171604000Y-93810842D01*
X171591266Y-93829899D01*
X171591265Y-93829900D01*
X171591266Y-93829900D01*
X171583834Y-93867266D01*
X171571513Y-93929201D01*
X171571514Y-93929201D01*
X171574811Y-93945777D01*
X171576500Y-93962925D01*
X171576500Y-94587546D01*
X171557043Y-94642701D01*
X171507285Y-94673437D01*
X171449254Y-94666148D01*
X171408643Y-94624061D01*
X171405884Y-94618021D01*
X171405884Y-94618018D01*
X171316981Y-94423349D01*
X171315681Y-94421524D01*
X171192844Y-94249022D01*
X171037958Y-94101338D01*
X170857926Y-93985639D01*
X170659239Y-93906097D01*
X170449106Y-93865597D01*
X170449103Y-93865597D01*
X170288721Y-93865597D01*
X170271243Y-93867266D01*
X170129055Y-93880843D01*
X169923723Y-93941134D01*
X169733499Y-94039200D01*
X169565277Y-94171492D01*
X169425135Y-94333225D01*
X169318129Y-94518566D01*
X169248133Y-94720806D01*
X169217676Y-94932634D01*
X169227859Y-95146398D01*
X169276094Y-95345224D01*
X169278314Y-95354376D01*
X169367162Y-95548924D01*
X169367218Y-95549047D01*
X169491353Y-95723371D01*
X169646239Y-95871055D01*
X169826271Y-95986754D01*
X169826273Y-95986754D01*
X169826275Y-95986756D01*
X170024954Y-96066295D01*
X170024956Y-96066295D01*
X170024958Y-96066296D01*
X170235092Y-96106797D01*
X170235095Y-96106797D01*
X170395476Y-96106797D01*
X170395477Y-96106797D01*
X170555139Y-96091551D01*
X170633632Y-96068503D01*
X170690578Y-96071045D01*
X170733991Y-96107989D01*
X170745611Y-96163796D01*
X170720551Y-96214997D01*
X170423882Y-96511666D01*
X170410566Y-96522594D01*
X170396517Y-96531981D01*
X170387089Y-96546091D01*
X170382319Y-96553230D01*
X170382316Y-96553234D01*
X170342497Y-96612828D01*
X170342495Y-96612829D01*
X170342494Y-96612831D01*
X170340266Y-96616166D01*
X170330525Y-96665139D01*
X170325813Y-96688830D01*
X170320520Y-96715437D01*
X170320514Y-96715469D01*
X170323811Y-96732044D01*
X170325500Y-96749192D01*
X170325500Y-98280494D01*
X170310686Y-98329329D01*
X170271238Y-98361703D01*
X170220452Y-98366705D01*
X170175447Y-98342650D01*
X170125731Y-98292934D01*
X170125728Y-98292932D01*
X170018959Y-98238530D01*
X169900600Y-98219783D01*
X169782240Y-98238530D01*
X169675471Y-98292932D01*
X169590732Y-98377671D01*
X169536330Y-98484440D01*
X169517583Y-98602799D01*
X169536330Y-98721159D01*
X169590732Y-98827928D01*
X169590734Y-98827931D01*
X169675469Y-98912666D01*
X169782242Y-98967070D01*
X169900600Y-98985816D01*
X169900600Y-98985815D01*
X169914352Y-98987994D01*
X169914278Y-98988459D01*
X169934903Y-98990083D01*
X169969896Y-99011526D01*
X171243815Y-100285445D01*
X171267871Y-100330452D01*
X171262869Y-100381238D01*
X171230495Y-100420686D01*
X171181660Y-100435500D01*
X171076907Y-100435500D01*
X171043270Y-100428809D01*
X171014753Y-100409755D01*
X170985131Y-100380133D01*
X170878359Y-100325730D01*
X170760000Y-100306983D01*
X170641640Y-100325730D01*
X170534871Y-100380132D01*
X170450132Y-100464871D01*
X170395730Y-100571640D01*
X170376983Y-100690000D01*
X170395730Y-100808359D01*
X170442572Y-100900290D01*
X170450134Y-100915131D01*
X170534869Y-100999866D01*
X170641642Y-101054270D01*
X170760000Y-101073016D01*
X170878358Y-101054270D01*
X170985131Y-100999866D01*
X170996352Y-100988645D01*
X171014753Y-100970245D01*
X171043270Y-100951191D01*
X171076907Y-100944500D01*
X171471328Y-100944500D01*
X171504966Y-100951191D01*
X171533483Y-100970245D01*
X173419496Y-102856258D01*
X175187684Y-104624445D01*
X175211740Y-104669452D01*
X175206738Y-104720238D01*
X175174364Y-104759686D01*
X175125529Y-104774500D01*
X174659841Y-104774500D01*
X174626203Y-104767809D01*
X174597686Y-104748755D01*
X172554883Y-102705952D01*
X172533803Y-102672052D01*
X172529890Y-102632324D01*
X172531810Y-102617739D01*
X172542190Y-102538900D01*
X172522315Y-102387933D01*
X172464044Y-102247255D01*
X172371348Y-102126452D01*
X172250545Y-102033756D01*
X172109867Y-101975485D01*
X172109865Y-101975484D01*
X171958900Y-101955610D01*
X171807934Y-101975484D01*
X171751892Y-101998698D01*
X171667255Y-102033756D01*
X171546452Y-102126452D01*
X171453756Y-102247255D01*
X171426029Y-102314193D01*
X171395484Y-102387934D01*
X171375610Y-102538900D01*
X171395484Y-102689865D01*
X171395485Y-102689867D01*
X171453756Y-102830545D01*
X171546452Y-102951348D01*
X171667255Y-103044044D01*
X171807933Y-103102315D01*
X171958900Y-103122190D01*
X172052324Y-103109890D01*
X172092052Y-103113803D01*
X172125952Y-103134883D01*
X174238213Y-105247144D01*
X174247466Y-105260005D01*
X174286785Y-105295849D01*
X174289720Y-105298652D01*
X174303208Y-105312139D01*
X174303997Y-105312680D01*
X174313533Y-105320234D01*
X174335366Y-105340138D01*
X174342106Y-105342748D01*
X174345909Y-105344221D01*
X174363836Y-105353670D01*
X174373169Y-105360064D01*
X174401932Y-105366828D01*
X174413549Y-105370425D01*
X174441103Y-105381100D01*
X174452415Y-105381100D01*
X174472537Y-105383434D01*
X174483550Y-105386024D01*
X174512805Y-105381943D01*
X174524950Y-105381100D01*
X180595504Y-105381100D01*
X180649032Y-105399278D01*
X180680420Y-105446293D01*
X180676688Y-105502699D01*
X180639377Y-105545168D01*
X177742373Y-107213870D01*
X177737314Y-107216568D01*
X177724135Y-107223054D01*
X177713558Y-107227429D01*
X177706934Y-107229676D01*
X177701451Y-107231339D01*
X177679302Y-107237275D01*
X177673894Y-107238381D01*
X177669213Y-107241494D01*
X167267772Y-113247340D01*
X167267692Y-113247386D01*
X165731652Y-114132159D01*
X165723989Y-114136086D01*
X165554626Y-114212654D01*
X165538335Y-114218172D01*
X165361529Y-114259308D01*
X165344475Y-114261548D01*
X165163040Y-114267465D01*
X165145876Y-114266341D01*
X165095115Y-114257972D01*
X165073698Y-114247153D01*
X165048283Y-114250251D01*
X164966762Y-114236811D01*
X164950146Y-114232366D01*
X164780214Y-114168520D01*
X164764781Y-114160924D01*
X164610532Y-114065205D01*
X164596881Y-114054754D01*
X164464222Y-113930825D01*
X164452866Y-113917913D01*
X164344357Y-113767010D01*
X164339679Y-113759782D01*
X164202503Y-113523176D01*
X164716545Y-113523176D01*
X164998350Y-114011278D01*
X165033214Y-114051034D01*
X165101457Y-114084686D01*
X165103336Y-114086412D01*
X165115166Y-114083531D01*
X165167236Y-114086945D01*
X165217308Y-114069947D01*
X165705409Y-113788141D01*
X165343459Y-113161227D01*
X164716545Y-113523176D01*
X164202503Y-113523176D01*
X164113230Y-113369196D01*
X163801215Y-112831022D01*
X164328841Y-112831022D01*
X164345839Y-112881095D01*
X164627644Y-113369196D01*
X165141836Y-113072326D01*
X165497440Y-113072326D01*
X165859389Y-113699240D01*
X166347490Y-113417436D01*
X166387248Y-113382571D01*
X166418530Y-113319133D01*
X166423158Y-113248551D01*
X166406160Y-113198478D01*
X166124354Y-112710376D01*
X165497440Y-113072326D01*
X165141836Y-113072326D01*
X165254558Y-113007246D01*
X164892609Y-112380332D01*
X164404508Y-112662138D01*
X164364751Y-112697002D01*
X164333469Y-112760440D01*
X164328841Y-112831022D01*
X163801215Y-112831022D01*
X163488378Y-112291431D01*
X165046589Y-112291431D01*
X165408539Y-112918345D01*
X166035453Y-112556396D01*
X165753649Y-112068296D01*
X165718784Y-112028538D01*
X165655346Y-111997256D01*
X165584764Y-111992628D01*
X165534690Y-112009626D01*
X165046589Y-112291431D01*
X163488378Y-112291431D01*
X163185946Y-111769787D01*
X166757258Y-111769787D01*
X166777779Y-111951907D01*
X166838311Y-112124898D01*
X166935815Y-112280076D01*
X166935818Y-112280080D01*
X167065412Y-112409674D01*
X167220595Y-112507181D01*
X167393584Y-112567713D01*
X167575705Y-112588233D01*
X167757826Y-112567713D01*
X167930815Y-112507181D01*
X168085998Y-112409674D01*
X168215592Y-112280080D01*
X168313099Y-112124897D01*
X168373631Y-111951908D01*
X168394151Y-111769787D01*
X168373631Y-111587666D01*
X168313099Y-111414677D01*
X168215592Y-111259494D01*
X168085998Y-111129900D01*
X168085995Y-111129898D01*
X168085994Y-111129897D01*
X167930816Y-111032393D01*
X167790162Y-110983176D01*
X169115954Y-110983176D01*
X169397759Y-111471278D01*
X169432623Y-111511034D01*
X169496062Y-111542317D01*
X169566644Y-111546945D01*
X169616717Y-111529947D01*
X170104818Y-111248141D01*
X169742868Y-110621227D01*
X169115954Y-110983176D01*
X167790162Y-110983176D01*
X167757826Y-110971861D01*
X167737304Y-110969548D01*
X167575704Y-110951340D01*
X167393584Y-110971861D01*
X167220593Y-111032393D01*
X167065415Y-111129897D01*
X166935815Y-111259497D01*
X166838311Y-111414675D01*
X166777779Y-111587666D01*
X166757258Y-111769787D01*
X163185946Y-111769787D01*
X162328608Y-110291022D01*
X168728250Y-110291022D01*
X168745248Y-110341095D01*
X169027053Y-110829196D01*
X169541245Y-110532326D01*
X169896849Y-110532326D01*
X170258798Y-111159240D01*
X170746899Y-110877436D01*
X170786657Y-110842571D01*
X170817939Y-110779133D01*
X170822567Y-110708551D01*
X170805569Y-110658478D01*
X170523763Y-110170376D01*
X169896849Y-110532326D01*
X169541245Y-110532326D01*
X169653967Y-110467246D01*
X169292018Y-109840332D01*
X168803917Y-110122138D01*
X168764160Y-110157002D01*
X168732878Y-110220440D01*
X168728250Y-110291022D01*
X162328608Y-110291022D01*
X159752222Y-105847189D01*
X154940318Y-97513291D01*
X154936409Y-97505688D01*
X154861936Y-97341534D01*
X154856409Y-97325298D01*
X154815060Y-97149058D01*
X154812790Y-97132056D01*
X154810669Y-97071468D01*
X154806456Y-96951134D01*
X154807531Y-96934021D01*
X154836455Y-96755306D01*
X154840831Y-96738737D01*
X154903913Y-96569042D01*
X154911425Y-96553633D01*
X155006262Y-96399423D01*
X155016621Y-96385769D01*
X155139607Y-96252906D01*
X155152419Y-96241526D01*
X155302365Y-96132536D01*
X155309525Y-96127848D01*
X163957923Y-91051242D01*
X164011186Y-91039588D01*
X164061079Y-91061590D01*
X164088396Y-91108783D01*
X164082624Y-91163006D01*
X164025500Y-91290433D01*
X163957527Y-91537785D01*
X163928900Y-91785762D01*
X163928109Y-91792611D01*
X163932374Y-91903885D01*
X163937934Y-92048946D01*
X163986772Y-92300767D01*
X164073480Y-92542188D01*
X164128681Y-92643700D01*
X164196025Y-92767544D01*
X164351533Y-92971552D01*
X164536361Y-93149430D01*
X164718354Y-93277442D01*
X164746178Y-93297013D01*
X164784803Y-93316137D01*
X164976059Y-93410833D01*
X165017842Y-93424056D01*
X165143416Y-93463797D01*
X165184279Y-93491156D01*
X165204050Y-93536183D01*
X165196544Y-93584782D01*
X165164108Y-93621744D01*
X165116895Y-93635500D01*
X164616907Y-93635500D01*
X164583270Y-93628809D01*
X164554753Y-93609756D01*
X164528479Y-93583482D01*
X164421709Y-93529080D01*
X164303350Y-93510333D01*
X164184990Y-93529080D01*
X164078221Y-93583482D01*
X163993482Y-93668221D01*
X163939080Y-93774990D01*
X163920333Y-93893350D01*
X163939080Y-94011709D01*
X163982892Y-94097694D01*
X163990552Y-94155875D01*
X163959890Y-94205911D01*
X163904573Y-94225500D01*
X160573724Y-94225500D01*
X160556576Y-94223811D01*
X160540000Y-94220513D01*
X160514933Y-94225500D01*
X160497669Y-94228934D01*
X160440699Y-94240265D01*
X160382356Y-94279249D01*
X160382355Y-94279250D01*
X160356514Y-94296517D01*
X160347124Y-94310569D01*
X160336196Y-94323885D01*
X158314482Y-96345598D01*
X158301166Y-96356526D01*
X158287117Y-96365913D01*
X158276823Y-96381318D01*
X158272919Y-96387162D01*
X158272916Y-96387166D01*
X158256744Y-96411368D01*
X158230865Y-96450099D01*
X158211113Y-96549400D01*
X158214411Y-96565976D01*
X158216100Y-96583124D01*
X158216100Y-98406807D01*
X158207035Y-98445684D01*
X158181710Y-98476543D01*
X158178957Y-98478654D01*
X158178955Y-98478656D01*
X158058152Y-98571352D01*
X157965456Y-98692155D01*
X157948525Y-98733031D01*
X157907184Y-98832834D01*
X157887310Y-98983800D01*
X157907184Y-99134765D01*
X157907336Y-99135131D01*
X157965456Y-99275445D01*
X158058152Y-99396248D01*
X158178955Y-99488944D01*
X158319633Y-99547215D01*
X158470600Y-99567090D01*
X158621567Y-99547215D01*
X158678762Y-99523523D01*
X158735150Y-99519828D01*
X158782136Y-99551223D01*
X158800300Y-99604733D01*
X158800300Y-102851287D01*
X158798611Y-102868435D01*
X158795313Y-102885010D01*
X158800300Y-102910078D01*
X158805390Y-102935666D01*
X158805390Y-102935667D01*
X158815065Y-102984310D01*
X158861923Y-103054440D01*
X158861929Y-103054447D01*
X158871316Y-103068495D01*
X158885362Y-103077880D01*
X158898680Y-103088809D01*
X165195774Y-109385903D01*
X165206705Y-109399223D01*
X165215180Y-109411907D01*
X165216092Y-109413271D01*
X165230139Y-109422656D01*
X165230148Y-109422664D01*
X165300275Y-109469521D01*
X165382995Y-109485975D01*
X165383004Y-109485975D01*
X165399576Y-109489272D01*
X165416147Y-109485975D01*
X165433295Y-109484287D01*
X169580658Y-109484287D01*
X169634168Y-109502451D01*
X169665563Y-109549437D01*
X169661867Y-109605825D01*
X169624608Y-109648311D01*
X169445998Y-109751431D01*
X169807948Y-110378345D01*
X170434862Y-110016396D01*
X170203773Y-109616137D01*
X170193332Y-109556923D01*
X170223396Y-109504852D01*
X170279897Y-109484287D01*
X171140147Y-109484287D01*
X171191012Y-109500499D01*
X171223114Y-109543156D01*
X171237719Y-109584897D01*
X171335224Y-109740076D01*
X171335227Y-109740080D01*
X171464821Y-109869674D01*
X171620004Y-109967181D01*
X171792993Y-110027713D01*
X171975114Y-110048233D01*
X172157235Y-110027713D01*
X172330224Y-109967181D01*
X172485407Y-109869674D01*
X172615001Y-109740080D01*
X172712508Y-109584897D01*
X172773040Y-109411908D01*
X172793560Y-109229787D01*
X172773040Y-109047666D01*
X172712508Y-108874677D01*
X172639015Y-108757713D01*
X172615003Y-108719497D01*
X172615002Y-108719496D01*
X172615001Y-108719494D01*
X172485407Y-108589900D01*
X172485404Y-108589898D01*
X172485403Y-108589897D01*
X172330225Y-108492393D01*
X172243729Y-108462127D01*
X172157235Y-108431861D01*
X172136713Y-108429548D01*
X171975113Y-108411340D01*
X171792993Y-108431861D01*
X171620002Y-108492393D01*
X171464824Y-108589897D01*
X171335224Y-108719497D01*
X171237719Y-108874676D01*
X171223114Y-108916418D01*
X171191012Y-108959075D01*
X171140147Y-108975287D01*
X165541404Y-108975287D01*
X165507766Y-108968596D01*
X165479249Y-108949542D01*
X164894049Y-108364342D01*
X164869993Y-108319335D01*
X164874995Y-108268549D01*
X164907369Y-108229101D01*
X164956204Y-108214287D01*
X173339851Y-108214287D01*
X173390716Y-108230499D01*
X173422818Y-108273156D01*
X173437423Y-108314897D01*
X173534928Y-108470076D01*
X173534931Y-108470080D01*
X173664525Y-108599674D01*
X173819708Y-108697181D01*
X173992697Y-108757713D01*
X174174818Y-108778233D01*
X174356939Y-108757713D01*
X174529928Y-108697181D01*
X174685111Y-108599674D01*
X174814705Y-108470080D01*
X174912212Y-108314897D01*
X174972744Y-108141908D01*
X174993264Y-107959787D01*
X174972744Y-107777666D01*
X174912212Y-107604677D01*
X174838719Y-107487713D01*
X174814707Y-107449497D01*
X174814706Y-107449496D01*
X174814705Y-107449494D01*
X174685111Y-107319900D01*
X174685108Y-107319898D01*
X174685107Y-107319897D01*
X174529929Y-107222393D01*
X174443433Y-107192127D01*
X174356939Y-107161861D01*
X174338496Y-107159782D01*
X174174818Y-107141340D01*
X173992697Y-107161861D01*
X173819706Y-107222393D01*
X173664528Y-107319897D01*
X173534928Y-107449497D01*
X173437423Y-107604676D01*
X173422818Y-107646418D01*
X173390716Y-107689075D01*
X173339851Y-107705287D01*
X164666535Y-107705287D01*
X164632897Y-107698596D01*
X164604380Y-107679542D01*
X163614624Y-106689786D01*
X175556076Y-106689786D01*
X175576597Y-106871907D01*
X175637129Y-107044898D01*
X175734633Y-107200076D01*
X175734636Y-107200080D01*
X175864230Y-107329674D01*
X176019413Y-107427181D01*
X176192402Y-107487713D01*
X176356080Y-107506154D01*
X176374522Y-107508233D01*
X176374522Y-107508232D01*
X176374523Y-107508233D01*
X176556644Y-107487713D01*
X176729633Y-107427181D01*
X176884816Y-107329674D01*
X177014410Y-107200080D01*
X177111917Y-107044897D01*
X177172449Y-106871908D01*
X177192969Y-106689787D01*
X177172449Y-106507666D01*
X177111917Y-106334677D01*
X177014410Y-106179494D01*
X176884816Y-106049900D01*
X176884813Y-106049898D01*
X176884812Y-106049897D01*
X176729634Y-105952393D01*
X176643138Y-105922127D01*
X176556644Y-105891861D01*
X176538201Y-105889782D01*
X176374523Y-105871340D01*
X176192402Y-105891861D01*
X176019411Y-105952393D01*
X175864233Y-106049897D01*
X175734633Y-106179497D01*
X175637129Y-106334675D01*
X175576597Y-106507666D01*
X175556076Y-106689786D01*
X163614624Y-106689786D01*
X159614445Y-102689605D01*
X159595391Y-102661088D01*
X159588700Y-102627450D01*
X159588700Y-99478624D01*
X159593010Y-99461991D01*
X159590393Y-99461471D01*
X159592096Y-99452907D01*
X159594193Y-99444535D01*
X159594198Y-99444518D01*
X159594623Y-99440205D01*
X159606321Y-99381387D01*
X159606321Y-99381385D01*
X159609387Y-99365970D01*
X159609388Y-99365961D01*
X159612686Y-99349378D01*
X159609388Y-99332803D01*
X159607700Y-99315655D01*
X159607700Y-98651938D01*
X159609389Y-98634790D01*
X159612686Y-98618214D01*
X159598110Y-98544933D01*
X159592934Y-98518913D01*
X159592933Y-98518912D01*
X159590389Y-98506119D01*
X159588700Y-98488971D01*
X159588700Y-97710237D01*
X159602096Y-97663594D01*
X159638202Y-97631167D01*
X159686011Y-97622842D01*
X159730952Y-97641156D01*
X159759324Y-97680523D01*
X159782790Y-97745857D01*
X159844218Y-97916892D01*
X159882174Y-97986691D01*
X159966763Y-98142248D01*
X160122271Y-98346256D01*
X160307099Y-98524134D01*
X160516913Y-98671715D01*
X160516916Y-98671717D01*
X160558193Y-98692154D01*
X160746797Y-98785537D01*
X160832905Y-98812787D01*
X160991356Y-98862933D01*
X160991359Y-98862933D01*
X160991361Y-98862934D01*
X161063302Y-98874046D01*
X161111786Y-98898509D01*
X161136642Y-98946793D01*
X161128383Y-99000467D01*
X161090162Y-99039045D01*
X160934681Y-99119200D01*
X160766459Y-99251492D01*
X160626317Y-99413225D01*
X160519311Y-99598566D01*
X160449315Y-99800806D01*
X160418858Y-100012634D01*
X160429041Y-100226398D01*
X160461892Y-100361810D01*
X160479496Y-100434376D01*
X160563492Y-100618301D01*
X160568400Y-100629047D01*
X160692535Y-100803371D01*
X160847421Y-100951055D01*
X161027453Y-101066754D01*
X161027455Y-101066754D01*
X161027457Y-101066756D01*
X161109988Y-101099796D01*
X161154467Y-101139274D01*
X161163631Y-101198035D01*
X161133284Y-101249181D01*
X161077319Y-101269300D01*
X160794107Y-101269300D01*
X160760470Y-101262609D01*
X160731953Y-101243555D01*
X160702331Y-101213933D01*
X160595559Y-101159530D01*
X160477200Y-101140783D01*
X160358840Y-101159530D01*
X160252071Y-101213932D01*
X160167332Y-101298671D01*
X160112930Y-101405440D01*
X160094183Y-101523799D01*
X160112930Y-101642158D01*
X160150065Y-101715040D01*
X160167334Y-101748931D01*
X160252069Y-101833666D01*
X160252071Y-101833667D01*
X160332266Y-101874529D01*
X160358842Y-101888070D01*
X160477200Y-101906816D01*
X160595558Y-101888070D01*
X160702331Y-101833666D01*
X160702331Y-101833665D01*
X160731953Y-101804045D01*
X160760470Y-101784991D01*
X160794107Y-101778300D01*
X164050276Y-101778300D01*
X164067424Y-101779989D01*
X164083999Y-101783286D01*
X164083999Y-101783285D01*
X164084000Y-101783286D01*
X164123139Y-101775501D01*
X164183301Y-101763534D01*
X164183300Y-101763534D01*
X164205701Y-101759078D01*
X164227108Y-101734263D01*
X164246234Y-101721484D01*
X164246234Y-101721482D01*
X164258714Y-101713145D01*
X164258718Y-101713140D01*
X164267484Y-101707284D01*
X164276871Y-101693234D01*
X164287797Y-101679919D01*
X164569759Y-101397956D01*
X164618161Y-101373295D01*
X164735758Y-101354670D01*
X164842531Y-101300266D01*
X164867991Y-101274806D01*
X166053267Y-101274806D01*
X166054862Y-101277564D01*
X166057715Y-101282915D01*
X166071822Y-101311729D01*
X166078471Y-101318378D01*
X167812348Y-104321540D01*
X167822805Y-104339651D01*
X167822971Y-104340136D01*
X167831427Y-104354669D01*
X167831428Y-104354670D01*
X167831757Y-104354922D01*
X167832168Y-104354868D01*
X167832168Y-104354866D01*
X167842310Y-104348964D01*
X170896379Y-102585695D01*
X170896524Y-102585646D01*
X170896521Y-102585640D01*
X170911752Y-102576868D01*
X170911754Y-102576868D01*
X170912006Y-102576539D01*
X170911966Y-102576235D01*
X170911963Y-102576215D01*
X170911952Y-102576126D01*
X170903294Y-102561115D01*
X170903125Y-102560923D01*
X170893378Y-102544041D01*
X169139158Y-99505643D01*
X169139001Y-99505368D01*
X169133952Y-99496542D01*
X169133623Y-99496290D01*
X169133621Y-99496289D01*
X169133212Y-99496343D01*
X169118588Y-99504728D01*
X169118232Y-99505039D01*
X166066874Y-101266741D01*
X166066674Y-101266856D01*
X166053626Y-101274343D01*
X166053267Y-101274806D01*
X164867991Y-101274806D01*
X164927266Y-101215531D01*
X164981670Y-101108758D01*
X165000416Y-100990400D01*
X164981670Y-100872042D01*
X164927266Y-100765269D01*
X164842531Y-100680534D01*
X164842528Y-100680532D01*
X164735759Y-100626130D01*
X164617400Y-100607383D01*
X164499040Y-100626130D01*
X164392271Y-100680532D01*
X164307532Y-100765271D01*
X164253130Y-100872040D01*
X164234504Y-100989636D01*
X164209841Y-101038040D01*
X164004327Y-101243555D01*
X163975810Y-101262609D01*
X163942172Y-101269300D01*
X162017431Y-101269300D01*
X161963095Y-101250494D01*
X161932009Y-101202123D01*
X161937474Y-101144885D01*
X161977153Y-101103271D01*
X162072204Y-101054269D01*
X162151879Y-101013194D01*
X162320101Y-100880902D01*
X162460247Y-100719165D01*
X162567251Y-100533828D01*
X162637246Y-100331590D01*
X162667703Y-100119760D01*
X162657520Y-99905994D01*
X162607066Y-99698018D01*
X162518163Y-99503349D01*
X162513994Y-99497495D01*
X162394026Y-99329022D01*
X162239140Y-99181338D01*
X162059108Y-99065639D01*
X161992492Y-99038970D01*
X161877085Y-98992768D01*
X161836989Y-98960476D01*
X161821855Y-98911267D01*
X161836875Y-98862023D01*
X161876897Y-98829637D01*
X161878665Y-98828924D01*
X161878671Y-98828923D01*
X162116593Y-98733032D01*
X162337089Y-98601946D01*
X162534990Y-98438737D01*
X162705659Y-98247232D01*
X162845094Y-98031919D01*
X162950028Y-97797845D01*
X163018001Y-97550495D01*
X163047419Y-97295669D01*
X163037594Y-97039338D01*
X162988755Y-96787511D01*
X162902047Y-96546091D01*
X162779503Y-96320736D01*
X162623995Y-96116728D01*
X162591962Y-96085900D01*
X162562959Y-96057987D01*
X162439167Y-95938850D01*
X162229353Y-95791269D01*
X162229349Y-95791266D01*
X161999467Y-95677446D01*
X161754909Y-95600050D01*
X161552094Y-95568723D01*
X161501392Y-95560892D01*
X161309100Y-95560892D01*
X161309098Y-95560892D01*
X161117370Y-95575611D01*
X161012935Y-95600050D01*
X160867595Y-95634061D01*
X160867593Y-95634061D01*
X160867592Y-95634062D01*
X160827781Y-95650107D01*
X160768804Y-95652508D01*
X160721604Y-95617062D01*
X160707468Y-95559753D01*
X160732770Y-95506424D01*
X160848950Y-95390245D01*
X160877466Y-95371191D01*
X160911104Y-95364500D01*
X164928084Y-95364500D01*
X164982560Y-95383416D01*
X165013590Y-95432023D01*
X165007817Y-95489400D01*
X164967728Y-95530852D01*
X164808501Y-95611312D01*
X164563393Y-95779570D01*
X164342899Y-95978996D01*
X164150947Y-96206037D01*
X163990977Y-96456627D01*
X163865833Y-96726303D01*
X163777747Y-97010266D01*
X163748625Y-97182914D01*
X163728297Y-97303427D01*
X163728098Y-97309379D01*
X163718362Y-97600561D01*
X163748122Y-97896381D01*
X163817041Y-98185572D01*
X163817043Y-98185579D01*
X163923896Y-98463017D01*
X163923897Y-98463019D01*
X163960681Y-98530142D01*
X164066774Y-98723737D01*
X164243129Y-98963087D01*
X164449812Y-99176796D01*
X164669143Y-99350000D01*
X164683138Y-99361051D01*
X164938932Y-99512559D01*
X165030114Y-99551223D01*
X165212648Y-99628624D01*
X165499388Y-99707170D01*
X165794038Y-99746797D01*
X166016928Y-99746797D01*
X166016932Y-99746797D01*
X166239329Y-99731909D01*
X166530675Y-99672691D01*
X166811529Y-99575168D01*
X167076878Y-99441081D01*
X167321987Y-99272823D01*
X167542482Y-99073396D01*
X167734430Y-98846360D01*
X167894403Y-98595765D01*
X168019549Y-98326084D01*
X168107632Y-98042129D01*
X168157083Y-97748967D01*
X168167017Y-97451830D01*
X168137258Y-97156019D01*
X168137257Y-97156016D01*
X168137257Y-97156012D01*
X168082798Y-96927497D01*
X168068337Y-96866815D01*
X167961484Y-96589377D01*
X167818606Y-96328657D01*
X167642251Y-96089307D01*
X167435568Y-95875598D01*
X167202245Y-95691345D01*
X167202244Y-95691344D01*
X167202241Y-95691342D01*
X166946446Y-95539834D01*
X166931096Y-95533325D01*
X166887632Y-95493349D01*
X166879272Y-95434891D01*
X166909790Y-95384336D01*
X166965411Y-95364500D01*
X167060420Y-95364500D01*
X167077568Y-95366189D01*
X167094143Y-95369486D01*
X167094143Y-95369485D01*
X167094144Y-95369486D01*
X167128346Y-95362683D01*
X167193445Y-95349734D01*
X167200195Y-95345224D01*
X167256378Y-95307684D01*
X167256378Y-95307683D01*
X167268858Y-95299345D01*
X167268862Y-95299340D01*
X167277628Y-95293484D01*
X167287013Y-95279436D01*
X167297939Y-95266121D01*
X169385616Y-93178445D01*
X169414133Y-93159391D01*
X169447771Y-93152700D01*
X171304276Y-93152700D01*
X171321424Y-93154389D01*
X171337999Y-93157686D01*
X171337999Y-93157685D01*
X171338000Y-93157686D01*
X171437301Y-93137934D01*
X171470028Y-93116067D01*
X171512714Y-93087546D01*
X171512718Y-93087540D01*
X171521484Y-93081684D01*
X171530869Y-93067636D01*
X171541795Y-93054321D01*
X171808761Y-92787355D01*
X171857161Y-92762695D01*
X171974758Y-92744070D01*
X172081531Y-92689666D01*
X172166266Y-92604931D01*
X172220670Y-92498158D01*
X172239416Y-92379800D01*
X172229881Y-92319600D01*
X172234637Y-92274352D01*
X172261382Y-92237541D01*
X172302947Y-92219034D01*
X172355758Y-92210670D01*
X172462531Y-92156266D01*
X172547266Y-92071531D01*
X172601670Y-91964758D01*
X172620416Y-91846400D01*
X172601670Y-91728042D01*
X172547266Y-91621269D01*
X172462531Y-91536534D01*
X172462528Y-91536532D01*
X172355759Y-91482130D01*
X172237398Y-91463383D01*
X172205888Y-91468374D01*
X172152232Y-91459875D01*
X172113819Y-91421461D01*
X172105321Y-91367805D01*
X172129983Y-91319402D01*
X176026121Y-87423263D01*
X176039436Y-87412337D01*
X176053484Y-87402952D01*
X176059340Y-87394186D01*
X176059346Y-87394181D01*
X176109733Y-87318770D01*
X176109732Y-87318770D01*
X176109734Y-87318769D01*
X176113139Y-87301651D01*
X176124500Y-87244535D01*
X176126189Y-87236044D01*
X176126189Y-87236039D01*
X176129485Y-87219467D01*
X176126189Y-87202897D01*
X176124500Y-87185749D01*
X176124500Y-83959794D01*
X176136118Y-83916119D01*
X176167901Y-83883990D01*
X178132687Y-82730662D01*
X178760931Y-82361881D01*
X178768624Y-82357864D01*
X178794478Y-82345944D01*
X178938832Y-82279395D01*
X178955200Y-82273729D01*
X179133272Y-82231219D01*
X179150442Y-82228878D01*
X179333383Y-82222162D01*
X179350681Y-82223238D01*
G37*
%TD.AperFunction*%
%TA.AperFunction,Conductor*%
G36*
X177984150Y-93979576D02*
G01*
X178016324Y-94011750D01*
X178028100Y-94055700D01*
X178028100Y-96003676D01*
X178026411Y-96020824D01*
X178023113Y-96037399D01*
X178028100Y-96062467D01*
X178032761Y-96085900D01*
X178032761Y-96085901D01*
X178042865Y-96136700D01*
X178089723Y-96206829D01*
X178089729Y-96206836D01*
X178099115Y-96220884D01*
X178113159Y-96230267D01*
X178126481Y-96241199D01*
X179212573Y-97327291D01*
X180260527Y-98375244D01*
X180283277Y-98414649D01*
X180283277Y-98460149D01*
X180260527Y-98499554D01*
X179142127Y-99617955D01*
X179113610Y-99637009D01*
X179079972Y-99643700D01*
X178595719Y-99643700D01*
X178578571Y-99642011D01*
X178562000Y-99638714D01*
X178545429Y-99642011D01*
X178545419Y-99642011D01*
X178440296Y-99662921D01*
X178418893Y-99687735D01*
X178399761Y-99700519D01*
X178378515Y-99714715D01*
X178369126Y-99728766D01*
X178358198Y-99742082D01*
X177110482Y-100989798D01*
X177097166Y-101000726D01*
X177083117Y-101010113D01*
X177072823Y-101025518D01*
X177068919Y-101031362D01*
X177068916Y-101031366D01*
X177064457Y-101038040D01*
X177026865Y-101094299D01*
X177007113Y-101193600D01*
X177010411Y-101210176D01*
X177012100Y-101227324D01*
X177012100Y-101439266D01*
X177005409Y-101472903D01*
X176986355Y-101501420D01*
X176956733Y-101531041D01*
X176902330Y-101637813D01*
X176883583Y-101756173D01*
X176902330Y-101874533D01*
X176913594Y-101896640D01*
X176922092Y-101950295D01*
X176897429Y-101998698D01*
X176807065Y-102089062D01*
X176752662Y-102195833D01*
X176733915Y-102314193D01*
X176752662Y-102432552D01*
X176807064Y-102539321D01*
X176807066Y-102539324D01*
X176891801Y-102624059D01*
X176998574Y-102678463D01*
X177116932Y-102697209D01*
X177235290Y-102678463D01*
X177342063Y-102624059D01*
X177342062Y-102624059D01*
X177354467Y-102617739D01*
X177354788Y-102618369D01*
X177362100Y-102613484D01*
X177395738Y-102606793D01*
X182080423Y-102606793D01*
X182129258Y-102621607D01*
X182161632Y-102661055D01*
X182166634Y-102711841D01*
X182142578Y-102756848D01*
X181141271Y-103758155D01*
X181112754Y-103777209D01*
X181079116Y-103783900D01*
X176498709Y-103783900D01*
X176443392Y-103764311D01*
X176412730Y-103714275D01*
X176420390Y-103656094D01*
X176437069Y-103623359D01*
X176437070Y-103623358D01*
X176455816Y-103505000D01*
X176437070Y-103386642D01*
X176417194Y-103347634D01*
X176382666Y-103279868D01*
X176353045Y-103250247D01*
X176333991Y-103221730D01*
X176327300Y-103188093D01*
X176327300Y-101246524D01*
X176328989Y-101229376D01*
X176329397Y-101227324D01*
X176332286Y-101212800D01*
X176319057Y-101146295D01*
X176312534Y-101113499D01*
X176301967Y-101097684D01*
X176299705Y-101094298D01*
X176299705Y-101094299D01*
X176270484Y-101050566D01*
X176270483Y-101050565D01*
X176265677Y-101043372D01*
X176265669Y-101043363D01*
X176256284Y-101029316D01*
X176242236Y-101019929D01*
X176228916Y-101008998D01*
X174617557Y-99397639D01*
X174592894Y-99349235D01*
X174574270Y-99231642D01*
X174519866Y-99124869D01*
X174435131Y-99040134D01*
X174435128Y-99040132D01*
X174328359Y-98985730D01*
X174210000Y-98966983D01*
X174091640Y-98985730D01*
X173984871Y-99040132D01*
X173900132Y-99124871D01*
X173845730Y-99231640D01*
X173826983Y-99350000D01*
X173845730Y-99468359D01*
X173900132Y-99575128D01*
X173900134Y-99575131D01*
X173984869Y-99659866D01*
X174091642Y-99714270D01*
X174209235Y-99732894D01*
X174257639Y-99757557D01*
X175792555Y-101292473D01*
X175811609Y-101320990D01*
X175818300Y-101354628D01*
X175818300Y-103188093D01*
X175811609Y-103221730D01*
X175792555Y-103250247D01*
X175762934Y-103279868D01*
X175752308Y-103300723D01*
X175713894Y-103339136D01*
X175660238Y-103347634D01*
X175611834Y-103322971D01*
X175057645Y-102768783D01*
X175038591Y-102740266D01*
X175031900Y-102706628D01*
X175031900Y-102541945D01*
X175041481Y-102502039D01*
X175065469Y-102454959D01*
X175065470Y-102454958D01*
X175084216Y-102336600D01*
X175065470Y-102218242D01*
X175011066Y-102111469D01*
X174926331Y-102026734D01*
X174926328Y-102026732D01*
X174819559Y-101972330D01*
X174701200Y-101953583D01*
X174582839Y-101972330D01*
X174564352Y-101981750D01*
X174510696Y-101990248D01*
X174462292Y-101965584D01*
X174437630Y-101917179D01*
X174446128Y-101863526D01*
X174481270Y-101794558D01*
X174500016Y-101676200D01*
X174481270Y-101557842D01*
X174426866Y-101451069D01*
X174342131Y-101366334D01*
X174342128Y-101366332D01*
X174290612Y-101340083D01*
X174252198Y-101301669D01*
X174243700Y-101248016D01*
X174258466Y-101154790D01*
X174239720Y-101036432D01*
X174185316Y-100929659D01*
X174100581Y-100844924D01*
X174100578Y-100844922D01*
X173993809Y-100790520D01*
X173875450Y-100771773D01*
X173757090Y-100790520D01*
X173650318Y-100844923D01*
X173620697Y-100874545D01*
X173592180Y-100893599D01*
X173558543Y-100900290D01*
X173416618Y-100900290D01*
X173382980Y-100893599D01*
X173354463Y-100874545D01*
X172870245Y-100390327D01*
X172851191Y-100361810D01*
X172844500Y-100328172D01*
X172844500Y-99598593D01*
X172846189Y-99581445D01*
X172849486Y-99564869D01*
X172829734Y-99465568D01*
X172821274Y-99452907D01*
X172800570Y-99421921D01*
X172785760Y-99373952D01*
X172799625Y-99325698D01*
X172837641Y-99292905D01*
X172887407Y-99286270D01*
X172929999Y-99293016D01*
X172929999Y-99293015D01*
X172930000Y-99293016D01*
X173048358Y-99274270D01*
X173155131Y-99219866D01*
X173239866Y-99135131D01*
X173294270Y-99028358D01*
X173313016Y-98910000D01*
X173294270Y-98791642D01*
X173239866Y-98684869D01*
X173155131Y-98600134D01*
X173155128Y-98600132D01*
X173048359Y-98545730D01*
X172930763Y-98527104D01*
X172882359Y-98502441D01*
X172410245Y-98030327D01*
X172391191Y-98001810D01*
X172384500Y-97968172D01*
X172384500Y-96963907D01*
X172391191Y-96930270D01*
X172410245Y-96901753D01*
X172439866Y-96872131D01*
X172458549Y-96835463D01*
X172494270Y-96765358D01*
X172511803Y-96654653D01*
X172536464Y-96606252D01*
X173739471Y-95403245D01*
X173767989Y-95384191D01*
X173801627Y-95377500D01*
X175353276Y-95377500D01*
X175370424Y-95379189D01*
X175386999Y-95382486D01*
X175386999Y-95382485D01*
X175387000Y-95382486D01*
X175432021Y-95373531D01*
X175486301Y-95362734D01*
X175486302Y-95362733D01*
X175486303Y-95362733D01*
X175486377Y-95362684D01*
X175561714Y-95312346D01*
X175561718Y-95312340D01*
X175570484Y-95306484D01*
X175579869Y-95292436D01*
X175590795Y-95279121D01*
X176876372Y-93993545D01*
X176904890Y-93974491D01*
X176938528Y-93967800D01*
X177940200Y-93967800D01*
X177984150Y-93979576D01*
G37*
%TD.AperFunction*%
%TA.AperFunction,Conductor*%
G36*
X181585131Y-87030449D02*
G01*
X181624580Y-87062822D01*
X181639395Y-87111656D01*
X181624583Y-87160490D01*
X181624267Y-87160962D01*
X181623003Y-87165128D01*
X181622577Y-87169459D01*
X181612630Y-87219468D01*
X181612630Y-87219469D01*
X181604514Y-87260267D01*
X181607811Y-87276844D01*
X181609500Y-87293992D01*
X181609500Y-89139173D01*
X181602809Y-89172811D01*
X181583755Y-89201328D01*
X181340208Y-89444874D01*
X181291804Y-89469537D01*
X181238147Y-89461039D01*
X181199734Y-89422625D01*
X181173975Y-89372071D01*
X181173974Y-89372069D01*
X181089239Y-89287334D01*
X181089236Y-89287332D01*
X180982467Y-89232930D01*
X180864108Y-89214183D01*
X180745748Y-89232930D01*
X180638979Y-89287332D01*
X180554240Y-89372071D01*
X180499838Y-89478840D01*
X180481213Y-89596434D01*
X180456550Y-89644838D01*
X180037882Y-90063506D01*
X180024566Y-90074434D01*
X180010517Y-90083821D01*
X180001992Y-90096580D01*
X179996319Y-90105070D01*
X179996316Y-90105074D01*
X179988392Y-90116933D01*
X179954265Y-90168007D01*
X179934513Y-90267308D01*
X179937811Y-90283884D01*
X179939500Y-90301032D01*
X179939500Y-93780973D01*
X179932809Y-93814611D01*
X179913754Y-93843128D01*
X179625639Y-94131241D01*
X179577236Y-94155904D01*
X179459640Y-94174530D01*
X179352871Y-94228932D01*
X179268132Y-94313671D01*
X179233519Y-94381604D01*
X179192000Y-94421524D01*
X179134680Y-94427169D01*
X179086171Y-94396116D01*
X179067300Y-94341698D01*
X179067300Y-93465713D01*
X179068989Y-93448565D01*
X179072286Y-93431989D01*
X179052534Y-93332688D01*
X179032557Y-93302790D01*
X179010484Y-93269756D01*
X179010482Y-93269754D01*
X179005674Y-93262558D01*
X179005674Y-93262557D01*
X179005671Y-93262554D01*
X178996284Y-93248504D01*
X178982233Y-93239116D01*
X178968913Y-93228185D01*
X178780411Y-93039682D01*
X178769480Y-93026362D01*
X178760407Y-93012784D01*
X178760095Y-93012316D01*
X178746047Y-93002929D01*
X178746036Y-93002920D01*
X178683115Y-92960879D01*
X178679744Y-92958113D01*
X178675911Y-92956064D01*
X178601678Y-92941300D01*
X178576610Y-92936313D01*
X178560035Y-92939611D01*
X178542887Y-92941300D01*
X176458924Y-92941300D01*
X176441776Y-92939611D01*
X176425200Y-92936313D01*
X176400133Y-92941300D01*
X176303496Y-92960521D01*
X176282092Y-92985336D01*
X176267557Y-92995048D01*
X176267546Y-92995056D01*
X176261955Y-92998791D01*
X176226878Y-93012518D01*
X176106840Y-93031530D01*
X176000071Y-93085932D01*
X175915332Y-93170671D01*
X175860930Y-93277440D01*
X175842183Y-93395800D01*
X175860930Y-93514159D01*
X175915332Y-93620928D01*
X175915334Y-93620931D01*
X176000069Y-93705666D01*
X176106842Y-93760070D01*
X176180904Y-93771800D01*
X176224239Y-93791778D01*
X176250751Y-93831455D01*
X176252624Y-93879138D01*
X176229308Y-93920773D01*
X175307327Y-94842755D01*
X175278810Y-94861809D01*
X175245172Y-94868500D01*
X175121427Y-94868500D01*
X175072592Y-94853686D01*
X175040218Y-94814238D01*
X175035216Y-94763452D01*
X175059272Y-94718445D01*
X175170790Y-94606927D01*
X175517718Y-94259997D01*
X175531027Y-94249075D01*
X175545084Y-94239684D01*
X175564585Y-94210500D01*
X175601334Y-94155501D01*
X175606720Y-94128420D01*
X175612107Y-94101341D01*
X175612107Y-94101339D01*
X175616100Y-94081267D01*
X175621086Y-94056199D01*
X175617789Y-94039624D01*
X175616100Y-94022476D01*
X175616100Y-92959156D01*
X175622791Y-92925518D01*
X175641845Y-92897001D01*
X177101319Y-91437527D01*
X181489344Y-87049501D01*
X181534346Y-87025448D01*
X181585131Y-87030449D01*
G37*
%TD.AperFunction*%
%TA.AperFunction,Conductor*%
G36*
X175571275Y-84285490D02*
G01*
X175603644Y-84317685D01*
X175615500Y-84361772D01*
X175615500Y-85528794D01*
X175600686Y-85577629D01*
X175561238Y-85610003D01*
X175510452Y-85615005D01*
X175465447Y-85590950D01*
X175442031Y-85567534D01*
X175442028Y-85567532D01*
X175335259Y-85513130D01*
X175216900Y-85494383D01*
X175098540Y-85513130D01*
X174991771Y-85567532D01*
X174907032Y-85652271D01*
X174852630Y-85759040D01*
X174833883Y-85877399D01*
X174852630Y-85995759D01*
X174907032Y-86102529D01*
X174928956Y-86124453D01*
X174948009Y-86152970D01*
X174954700Y-86186607D01*
X174954700Y-87343309D01*
X174948009Y-87376947D01*
X174928955Y-87405464D01*
X170554663Y-91779755D01*
X170526146Y-91798809D01*
X170492508Y-91805500D01*
X168963462Y-91805500D01*
X168946314Y-91803811D01*
X168929738Y-91800513D01*
X168830437Y-91820265D01*
X168772094Y-91859249D01*
X168772093Y-91859250D01*
X168746252Y-91876517D01*
X168736862Y-91890569D01*
X168725934Y-91903885D01*
X167020064Y-93609755D01*
X166991547Y-93628809D01*
X166957909Y-93635500D01*
X166094658Y-93635500D01*
X166046315Y-93621012D01*
X166013907Y-93582324D01*
X166008119Y-93532189D01*
X166030859Y-93487135D01*
X166074627Y-93462012D01*
X166107933Y-93454219D01*
X166345855Y-93358328D01*
X166566351Y-93227242D01*
X166764252Y-93064033D01*
X166934921Y-92872528D01*
X167074356Y-92657215D01*
X167179290Y-92423141D01*
X167247263Y-92175791D01*
X167276681Y-91920965D01*
X167266856Y-91664634D01*
X167218017Y-91412807D01*
X167131309Y-91171387D01*
X167008765Y-90946032D01*
X166853257Y-90742024D01*
X166668429Y-90564146D01*
X166458615Y-90416565D01*
X166458611Y-90416562D01*
X166228729Y-90302742D01*
X165984171Y-90225346D01*
X165737909Y-90187308D01*
X165690286Y-90163687D01*
X165664989Y-90116933D01*
X165671269Y-90064146D01*
X165706825Y-90024637D01*
X175353963Y-84361772D01*
X175483103Y-84285967D01*
X175527125Y-84273873D01*
X175571275Y-84285490D01*
G37*
%TD.AperFunction*%
%TA.AperFunction,Conductor*%
G36*
X182882027Y-87511129D02*
G01*
X182920974Y-87547005D01*
X184799926Y-90825292D01*
X184810196Y-90884446D01*
X184780094Y-90936395D01*
X184723664Y-90956900D01*
X183447124Y-90956900D01*
X183429976Y-90955211D01*
X183413400Y-90951913D01*
X183388333Y-90956900D01*
X183291696Y-90976121D01*
X183270293Y-91000935D01*
X183251161Y-91013719D01*
X183229915Y-91027915D01*
X183220526Y-91041966D01*
X183209598Y-91055282D01*
X182827355Y-91437527D01*
X182782349Y-91461583D01*
X182731562Y-91456581D01*
X182692114Y-91424207D01*
X182677300Y-91375372D01*
X182677300Y-87670228D01*
X182683991Y-87636590D01*
X182703045Y-87608074D01*
X182782557Y-87528561D01*
X182829539Y-87504134D01*
X182882027Y-87511129D01*
G37*
%TD.AperFunction*%
%TA.AperFunction,Conductor*%
G36*
X182114038Y-89862750D02*
G01*
X182153486Y-89895124D01*
X182168300Y-89943959D01*
X182168300Y-90633091D01*
X182148711Y-90688408D01*
X182098675Y-90719070D01*
X182040494Y-90711410D01*
X182007759Y-90694730D01*
X181889400Y-90675983D01*
X181771041Y-90694730D01*
X181771042Y-90694730D01*
X181763705Y-90698468D01*
X181705526Y-90706128D01*
X181655489Y-90675467D01*
X181635900Y-90620149D01*
X181635900Y-90300560D01*
X181642591Y-90266922D01*
X181661645Y-90238405D01*
X181836544Y-90063506D01*
X182018245Y-89881803D01*
X182063251Y-89857748D01*
X182114038Y-89862750D01*
G37*
%TD.AperFunction*%
%TD*%
%TA.AperFunction,Conductor*%
%TO.N,GND_l*%
G36*
X118669296Y-83620602D02*
G01*
X133799010Y-92501727D01*
X133891801Y-92556195D01*
X133928043Y-92597248D01*
X133932947Y-92651790D01*
X133904612Y-92698650D01*
X133854033Y-92719642D01*
X133821276Y-92722157D01*
X133571501Y-92780607D01*
X133333577Y-92876498D01*
X133113084Y-93007583D01*
X132915180Y-93170794D01*
X132744511Y-93362299D01*
X132605079Y-93577608D01*
X132500144Y-93811683D01*
X132432171Y-94059035D01*
X132402795Y-94313498D01*
X132402753Y-94313861D01*
X132403435Y-94331642D01*
X132412578Y-94570196D01*
X132461416Y-94822017D01*
X132548124Y-95063438D01*
X132588306Y-95137331D01*
X132670669Y-95288794D01*
X132826177Y-95492802D01*
X133011005Y-95670680D01*
X133196561Y-95801198D01*
X133220822Y-95818263D01*
X133289577Y-95852305D01*
X133450703Y-95932083D01*
X133525453Y-95955739D01*
X133695262Y-96009479D01*
X133695265Y-96009479D01*
X133695267Y-96009480D01*
X133948780Y-96048638D01*
X134141072Y-96048638D01*
X134141074Y-96048638D01*
X134204982Y-96043731D01*
X134332805Y-96033918D01*
X134582577Y-95975469D01*
X134820499Y-95879578D01*
X135040995Y-95748492D01*
X135238896Y-95585283D01*
X135409565Y-95393778D01*
X135549000Y-95178465D01*
X135653934Y-94944391D01*
X135721907Y-94697041D01*
X135751325Y-94442215D01*
X135741500Y-94185884D01*
X135692661Y-93934057D01*
X135628688Y-93755940D01*
X135626625Y-93703056D01*
X135655301Y-93658572D01*
X135704321Y-93638617D01*
X135755909Y-93650424D01*
X139968349Y-96123121D01*
X139975523Y-96127818D01*
X140061840Y-96190559D01*
X140125451Y-96236795D01*
X140138276Y-96248186D01*
X140261251Y-96381038D01*
X140271619Y-96394703D01*
X140366448Y-96548903D01*
X140373965Y-96564321D01*
X140437043Y-96734003D01*
X140441423Y-96750587D01*
X140470346Y-96929294D01*
X140471421Y-96946414D01*
X140465087Y-97127330D01*
X140462817Y-97144332D01*
X140421466Y-97320577D01*
X140415938Y-97336814D01*
X140341483Y-97500930D01*
X140337557Y-97508567D01*
X130953907Y-113760425D01*
X130949242Y-113767662D01*
X130843973Y-113914611D01*
X130832635Y-113927547D01*
X130700206Y-114051703D01*
X130686567Y-114062184D01*
X130532484Y-114158180D01*
X130517064Y-114165803D01*
X130347244Y-114229949D01*
X130330636Y-114234424D01*
X130223561Y-114252272D01*
X130207133Y-114250296D01*
X130193288Y-114257318D01*
X130151569Y-114264272D01*
X130134407Y-114265426D01*
X129952961Y-114259829D01*
X129935903Y-114257619D01*
X129759019Y-114216793D01*
X129742717Y-114211303D01*
X129573228Y-114135036D01*
X129565558Y-114131123D01*
X128968060Y-113788354D01*
X129569998Y-113788354D01*
X130058103Y-114070161D01*
X130108171Y-114087158D01*
X130173084Y-114082902D01*
X130176376Y-114083703D01*
X130242192Y-114051249D01*
X130277057Y-114011492D01*
X130558862Y-113523389D01*
X129931948Y-113161440D01*
X129569998Y-113788354D01*
X128968060Y-113788354D01*
X128027471Y-113248762D01*
X128852250Y-113248762D01*
X128856878Y-113319346D01*
X128888160Y-113382784D01*
X128927916Y-113417648D01*
X129416018Y-113699453D01*
X129777967Y-113072539D01*
X129665245Y-113007459D01*
X130020849Y-113007459D01*
X130647763Y-113369409D01*
X130929570Y-112881305D01*
X130946567Y-112831237D01*
X130941939Y-112760653D01*
X130910657Y-112697215D01*
X130870901Y-112662351D01*
X130382798Y-112380545D01*
X130020849Y-113007459D01*
X129665245Y-113007459D01*
X129151053Y-112710589D01*
X128869247Y-113198694D01*
X128852250Y-113248762D01*
X128027471Y-113248762D01*
X125449767Y-111770000D01*
X126881257Y-111770000D01*
X126901778Y-111952120D01*
X126962310Y-112125111D01*
X127059814Y-112280289D01*
X127059817Y-112280293D01*
X127189411Y-112409887D01*
X127344594Y-112507394D01*
X127517583Y-112567926D01*
X127699704Y-112588446D01*
X127881825Y-112567926D01*
X127914167Y-112556609D01*
X129239954Y-112556609D01*
X129866868Y-112918558D01*
X130228818Y-112291644D01*
X129740714Y-112009838D01*
X129690646Y-111992841D01*
X129620062Y-111997469D01*
X129556624Y-112028751D01*
X129521760Y-112068507D01*
X129239954Y-112556609D01*
X127914167Y-112556609D01*
X128054814Y-112507394D01*
X128209997Y-112409887D01*
X128339591Y-112280293D01*
X128437098Y-112125110D01*
X128497630Y-111952121D01*
X128518150Y-111770000D01*
X128497630Y-111587879D01*
X128437098Y-111414890D01*
X128339591Y-111259707D01*
X128209997Y-111130113D01*
X128209994Y-111130111D01*
X128209993Y-111130110D01*
X128054815Y-111032606D01*
X127914161Y-110983389D01*
X127881825Y-110972074D01*
X127863382Y-110969995D01*
X127699704Y-110951553D01*
X127517583Y-110972074D01*
X127344592Y-111032606D01*
X127189414Y-111130110D01*
X127059814Y-111259710D01*
X126962310Y-111414888D01*
X126901778Y-111587879D01*
X126881257Y-111770000D01*
X125449767Y-111770000D01*
X125299049Y-111683537D01*
X125298836Y-111683414D01*
X124545362Y-111248354D01*
X125170589Y-111248354D01*
X125658694Y-111530161D01*
X125708762Y-111547158D01*
X125779346Y-111542530D01*
X125842784Y-111511248D01*
X125877648Y-111471492D01*
X126159453Y-110983389D01*
X125532539Y-110621440D01*
X125170589Y-111248354D01*
X124545362Y-111248354D01*
X123610850Y-110708762D01*
X124452841Y-110708762D01*
X124457469Y-110779346D01*
X124488751Y-110842784D01*
X124528507Y-110877648D01*
X125016609Y-111159453D01*
X125378558Y-110532539D01*
X125265836Y-110467459D01*
X125621440Y-110467459D01*
X126248354Y-110829409D01*
X126530161Y-110341305D01*
X126547158Y-110291237D01*
X126542530Y-110220653D01*
X126511248Y-110157215D01*
X126471492Y-110122351D01*
X125983389Y-109840545D01*
X125621440Y-110467459D01*
X125265836Y-110467459D01*
X124751644Y-110170589D01*
X124469838Y-110658694D01*
X124452841Y-110708762D01*
X123610850Y-110708762D01*
X117606305Y-107241707D01*
X117601378Y-107238396D01*
X117595762Y-107237253D01*
X117550228Y-107225050D01*
X117544782Y-107223400D01*
X117515345Y-107213429D01*
X117504831Y-107209090D01*
X117469984Y-107191995D01*
X117464958Y-107189325D01*
X117449461Y-107180435D01*
X115604876Y-106122244D01*
X115567478Y-106079806D01*
X115563681Y-106023367D01*
X115595059Y-105976301D01*
X115648617Y-105958100D01*
X118270397Y-105958100D01*
X118319232Y-105972914D01*
X118351606Y-106012362D01*
X118356608Y-106063148D01*
X118332553Y-106108152D01*
X118293918Y-106146788D01*
X118260996Y-106179710D01*
X118163492Y-106334888D01*
X118102960Y-106507879D01*
X118082439Y-106690000D01*
X118102960Y-106872120D01*
X118163492Y-107045111D01*
X118250013Y-107182809D01*
X118260999Y-107200293D01*
X118390593Y-107329887D01*
X118545776Y-107427394D01*
X118718765Y-107487926D01*
X118882443Y-107506367D01*
X118900885Y-107508446D01*
X118900885Y-107508445D01*
X118900886Y-107508446D01*
X119083007Y-107487926D01*
X119255996Y-107427394D01*
X119411179Y-107329887D01*
X119540773Y-107200293D01*
X119638280Y-107045110D01*
X119698812Y-106872121D01*
X119719332Y-106690000D01*
X119698812Y-106507879D01*
X119638280Y-106334890D01*
X119637733Y-106334020D01*
X119540775Y-106179710D01*
X119540774Y-106179709D01*
X119540773Y-106179707D01*
X119469218Y-106108152D01*
X119445164Y-106063148D01*
X119450166Y-106012362D01*
X119482540Y-105972914D01*
X119531375Y-105958100D01*
X120311772Y-105958100D01*
X120345410Y-105964791D01*
X120373927Y-105983845D01*
X120820346Y-106430263D01*
X120839400Y-106458780D01*
X120846091Y-106492418D01*
X120846091Y-107125033D01*
X120829879Y-107175898D01*
X120787222Y-107208000D01*
X120745480Y-107222605D01*
X120590301Y-107320110D01*
X120460701Y-107449710D01*
X120363197Y-107604888D01*
X120302665Y-107777879D01*
X120282144Y-107960000D01*
X120302665Y-108142120D01*
X120363197Y-108315111D01*
X120452603Y-108457401D01*
X120460704Y-108470293D01*
X120590298Y-108599887D01*
X120745481Y-108697394D01*
X120918470Y-108757926D01*
X121100591Y-108778446D01*
X121282712Y-108757926D01*
X121455701Y-108697394D01*
X121610884Y-108599887D01*
X121740478Y-108470293D01*
X121837985Y-108315110D01*
X121898517Y-108142121D01*
X121919037Y-107960000D01*
X121898517Y-107777879D01*
X121837985Y-107604890D01*
X121800182Y-107544727D01*
X121740480Y-107449710D01*
X121740479Y-107449709D01*
X121740478Y-107449707D01*
X121610884Y-107320113D01*
X121610881Y-107320111D01*
X121610880Y-107320110D01*
X121455701Y-107222605D01*
X121413960Y-107208000D01*
X121371303Y-107175898D01*
X121355091Y-107125033D01*
X121355091Y-106384310D01*
X121356780Y-106367162D01*
X121360076Y-106350591D01*
X121356780Y-106334020D01*
X121356780Y-106334015D01*
X121340325Y-106251290D01*
X121284074Y-106167106D01*
X121270024Y-106157718D01*
X121256705Y-106146788D01*
X120938673Y-105828755D01*
X120914617Y-105783748D01*
X120919619Y-105732962D01*
X120951993Y-105693514D01*
X121000828Y-105678700D01*
X121388228Y-105678700D01*
X121421866Y-105685391D01*
X121450383Y-105704445D01*
X123020050Y-107274112D01*
X123039104Y-107302629D01*
X123045795Y-107336267D01*
X123045795Y-108395033D01*
X123029583Y-108445898D01*
X122986926Y-108478000D01*
X122945184Y-108492605D01*
X122790005Y-108590110D01*
X122660405Y-108719710D01*
X122562901Y-108874888D01*
X122502369Y-109047879D01*
X122481848Y-109229999D01*
X122502369Y-109412120D01*
X122562901Y-109585111D01*
X122660405Y-109740289D01*
X122660408Y-109740293D01*
X122790002Y-109869887D01*
X122945185Y-109967394D01*
X123118174Y-110027926D01*
X123300295Y-110048446D01*
X123482416Y-110027926D01*
X123514758Y-110016609D01*
X124840545Y-110016609D01*
X125467459Y-110378558D01*
X125829409Y-109751644D01*
X125341305Y-109469838D01*
X125291237Y-109452841D01*
X125220653Y-109457469D01*
X125157215Y-109488751D01*
X125122351Y-109528507D01*
X124840545Y-110016609D01*
X123514758Y-110016609D01*
X123655405Y-109967394D01*
X123810588Y-109869887D01*
X123940182Y-109740293D01*
X124037689Y-109585110D01*
X124098221Y-109412121D01*
X124118741Y-109230000D01*
X124098221Y-109047879D01*
X124037689Y-108874890D01*
X123964196Y-108757926D01*
X123940184Y-108719710D01*
X123940183Y-108719709D01*
X123940182Y-108719707D01*
X123810588Y-108590113D01*
X123810585Y-108590111D01*
X123810584Y-108590110D01*
X123655405Y-108492605D01*
X123613664Y-108478000D01*
X123571007Y-108445898D01*
X123554795Y-108395033D01*
X123554795Y-107625936D01*
X123569609Y-107577101D01*
X123609057Y-107544727D01*
X123659843Y-107539725D01*
X123704850Y-107563781D01*
X123803213Y-107662144D01*
X123812466Y-107675005D01*
X123851785Y-107710849D01*
X123854720Y-107713652D01*
X123868208Y-107727139D01*
X123868994Y-107727678D01*
X123878531Y-107735232D01*
X123900367Y-107755138D01*
X123910914Y-107759224D01*
X123928838Y-107768671D01*
X123938168Y-107775063D01*
X123949112Y-107777636D01*
X123966925Y-107781825D01*
X123978554Y-107785427D01*
X124006102Y-107796100D01*
X124006103Y-107796100D01*
X124017417Y-107796100D01*
X124037540Y-107798434D01*
X124048549Y-107801024D01*
X124077804Y-107796943D01*
X124089949Y-107796100D01*
X130422852Y-107796100D01*
X130461729Y-107805165D01*
X130492586Y-107830489D01*
X130549952Y-107905248D01*
X130670755Y-107997944D01*
X130811433Y-108056215D01*
X130962400Y-108076090D01*
X131113367Y-108056215D01*
X131254045Y-107997944D01*
X131374848Y-107905248D01*
X131467544Y-107784445D01*
X131525815Y-107643767D01*
X131542985Y-107513344D01*
X131567975Y-107462666D01*
X131958566Y-107072077D01*
X131958565Y-107072077D01*
X131981492Y-107049151D01*
X131981493Y-107049147D01*
X131981829Y-107048812D01*
X131982002Y-107048148D01*
X131993072Y-107026422D01*
X132000271Y-107014673D01*
X132015270Y-106994032D01*
X132023152Y-106969767D01*
X132028429Y-106957029D01*
X132040009Y-106934306D01*
X132043999Y-106909109D01*
X132047219Y-106895700D01*
X132055100Y-106871446D01*
X132055100Y-102729107D01*
X132055099Y-102729095D01*
X132055099Y-102703955D01*
X132055099Y-102703953D01*
X132047215Y-102679693D01*
X132043998Y-102666287D01*
X132040009Y-102641094D01*
X132028426Y-102618363D01*
X132023149Y-102605622D01*
X132021782Y-102601416D01*
X132015269Y-102581368D01*
X132000271Y-102560724D01*
X131993074Y-102548979D01*
X131981492Y-102526249D01*
X131958568Y-102503325D01*
X131958566Y-102503322D01*
X129449477Y-99994234D01*
X129449127Y-99993884D01*
X132612320Y-99993884D01*
X132622503Y-100207648D01*
X132653510Y-100335459D01*
X132672958Y-100415626D01*
X132738964Y-100560157D01*
X132761862Y-100610297D01*
X132885997Y-100784621D01*
X133040883Y-100932305D01*
X133220915Y-101048004D01*
X133220917Y-101048004D01*
X133220919Y-101048006D01*
X133419598Y-101127545D01*
X133419600Y-101127545D01*
X133419602Y-101127546D01*
X133629736Y-101168047D01*
X133629739Y-101168047D01*
X133790120Y-101168047D01*
X133790121Y-101168047D01*
X133949783Y-101152801D01*
X134155122Y-101092508D01*
X134345341Y-100994444D01*
X134513563Y-100862152D01*
X134653709Y-100700415D01*
X134760713Y-100515078D01*
X134830708Y-100312840D01*
X134861165Y-100101010D01*
X134850982Y-99887244D01*
X134800528Y-99679268D01*
X134711625Y-99484599D01*
X134656317Y-99406930D01*
X134587488Y-99310272D01*
X134432602Y-99162588D01*
X134252570Y-99046889D01*
X134053883Y-98967347D01*
X133843750Y-98926847D01*
X133843747Y-98926847D01*
X133683365Y-98926847D01*
X133651432Y-98929896D01*
X133523699Y-98942093D01*
X133318367Y-99002384D01*
X133128143Y-99100450D01*
X132959921Y-99232742D01*
X132819779Y-99394475D01*
X132712773Y-99579816D01*
X132642777Y-99782056D01*
X132612320Y-99993884D01*
X129449127Y-99993884D01*
X129426551Y-99971308D01*
X129403822Y-99959726D01*
X129392077Y-99952529D01*
X129371432Y-99937530D01*
X129371431Y-99937529D01*
X129371429Y-99937528D01*
X129347171Y-99929647D01*
X129334435Y-99924372D01*
X129311706Y-99912791D01*
X129311703Y-99912790D01*
X129311702Y-99912790D01*
X129286514Y-99908800D01*
X129273110Y-99905582D01*
X129254530Y-99899546D01*
X129213962Y-99871979D01*
X129207236Y-99856438D01*
X129186839Y-99882268D01*
X129137092Y-99897700D01*
X128627354Y-99897700D01*
X128593716Y-99891009D01*
X128565199Y-99871955D01*
X128398620Y-99705376D01*
X128373280Y-99651654D01*
X128387894Y-99594081D01*
X128435787Y-99558948D01*
X128495088Y-99562295D01*
X128607292Y-99609874D01*
X128894032Y-99688420D01*
X129148809Y-99722684D01*
X129196054Y-99744609D01*
X129210520Y-99769031D01*
X129234588Y-99741731D01*
X129281688Y-99728047D01*
X129411572Y-99728047D01*
X129411576Y-99728047D01*
X129633973Y-99713159D01*
X129925319Y-99653941D01*
X130206173Y-99556418D01*
X130471522Y-99422331D01*
X130716631Y-99254073D01*
X130937126Y-99054646D01*
X131129074Y-98827610D01*
X131289047Y-98577015D01*
X131414193Y-98307334D01*
X131502276Y-98023379D01*
X131551727Y-97730217D01*
X131561661Y-97433080D01*
X131531902Y-97137269D01*
X131531901Y-97137266D01*
X131531901Y-97137262D01*
X131479305Y-96916564D01*
X131462981Y-96848065D01*
X131356128Y-96570627D01*
X131213250Y-96309907D01*
X131036895Y-96070557D01*
X130830212Y-95856848D01*
X130596889Y-95672595D01*
X130596888Y-95672594D01*
X130596885Y-95672592D01*
X130341091Y-95521084D01*
X130067379Y-95405021D01*
X130067377Y-95405020D01*
X130067376Y-95405020D01*
X129780636Y-95326474D01*
X129485986Y-95286847D01*
X129263092Y-95286847D01*
X129218477Y-95289833D01*
X129040694Y-95301734D01*
X128749345Y-95360953D01*
X128468494Y-95458476D01*
X128203145Y-95592562D01*
X127958037Y-95760820D01*
X127737543Y-95960246D01*
X127545591Y-96187287D01*
X127385621Y-96437877D01*
X127260477Y-96707553D01*
X127172391Y-96991516D01*
X127122941Y-97284679D01*
X127113006Y-97581811D01*
X127142766Y-97877631D01*
X127211685Y-98166822D01*
X127211687Y-98166829D01*
X127274513Y-98329954D01*
X127282899Y-98351727D01*
X127284492Y-98410412D01*
X127248787Y-98457012D01*
X127191708Y-98470740D01*
X127138717Y-98445474D01*
X126232551Y-97539308D01*
X126227040Y-97536500D01*
X126209822Y-97527726D01*
X126198077Y-97520529D01*
X126177432Y-97505530D01*
X126177431Y-97505529D01*
X126177429Y-97505528D01*
X126153171Y-97497647D01*
X126140435Y-97492372D01*
X126117706Y-97480791D01*
X126117703Y-97480790D01*
X126117702Y-97480790D01*
X126092514Y-97476800D01*
X126079109Y-97473582D01*
X126054847Y-97465700D01*
X126054846Y-97465700D01*
X126022424Y-97465700D01*
X125814353Y-97465700D01*
X125780715Y-97459009D01*
X125752198Y-97439955D01*
X124488585Y-96176342D01*
X124463289Y-96123063D01*
X124477365Y-96065788D01*
X124524475Y-96030303D01*
X124583409Y-96032583D01*
X124620780Y-96047545D01*
X124704836Y-96063745D01*
X124830918Y-96088047D01*
X124830921Y-96088047D01*
X124991302Y-96088047D01*
X124991303Y-96088047D01*
X125150965Y-96072801D01*
X125356304Y-96012508D01*
X125546523Y-95914444D01*
X125714745Y-95782152D01*
X125731528Y-95762784D01*
X125799883Y-95683897D01*
X125854891Y-95620415D01*
X125961895Y-95435078D01*
X126031890Y-95232840D01*
X126062347Y-95021010D01*
X126052164Y-94807244D01*
X126030205Y-94716726D01*
X126034864Y-94661308D01*
X126071854Y-94619779D01*
X126126366Y-94608762D01*
X126176577Y-94632668D01*
X126241743Y-94695384D01*
X126432922Y-94829857D01*
X126451560Y-94842967D01*
X126568719Y-94900975D01*
X126681441Y-94956787D01*
X126767549Y-94984037D01*
X126926000Y-95034183D01*
X126926003Y-95034183D01*
X126926005Y-95034184D01*
X127179518Y-95073342D01*
X127371810Y-95073342D01*
X127371812Y-95073342D01*
X127452710Y-95067131D01*
X127563543Y-95058622D01*
X127813315Y-95000173D01*
X128051237Y-94904282D01*
X128271733Y-94773196D01*
X128469634Y-94609987D01*
X128640303Y-94418482D01*
X128779738Y-94203169D01*
X128884672Y-93969095D01*
X128952645Y-93721745D01*
X128982063Y-93466919D01*
X128972238Y-93210588D01*
X128923399Y-92958761D01*
X128836691Y-92717341D01*
X128714147Y-92491986D01*
X128558639Y-92287978D01*
X128373811Y-92110100D01*
X128163997Y-91962519D01*
X128163993Y-91962516D01*
X127934111Y-91848696D01*
X127689553Y-91771300D01*
X127442542Y-91733147D01*
X127436036Y-91732142D01*
X127243744Y-91732142D01*
X127243742Y-91732142D01*
X127052014Y-91746861D01*
X126802239Y-91805311D01*
X126564315Y-91901202D01*
X126343822Y-92032287D01*
X126145918Y-92195498D01*
X125975249Y-92387003D01*
X125835817Y-92602312D01*
X125730882Y-92836387D01*
X125662909Y-93083739D01*
X125634518Y-93329672D01*
X125633491Y-93338565D01*
X125635635Y-93394493D01*
X125643316Y-93594900D01*
X125692155Y-93846724D01*
X125732318Y-93958550D01*
X125734144Y-94012290D01*
X125704328Y-94057038D01*
X125654029Y-94076049D01*
X125602070Y-94062207D01*
X125453752Y-93966889D01*
X125255065Y-93887347D01*
X125044932Y-93846847D01*
X125044929Y-93846847D01*
X124884547Y-93846847D01*
X124852614Y-93849896D01*
X124724881Y-93862093D01*
X124519549Y-93922384D01*
X124329325Y-94020450D01*
X124161103Y-94152742D01*
X124020961Y-94314475D01*
X123991838Y-94364917D01*
X123939731Y-94455168D01*
X123897247Y-94492427D01*
X123840859Y-94496123D01*
X123793873Y-94464728D01*
X123775709Y-94411218D01*
X123775709Y-94260144D01*
X123782400Y-94226506D01*
X123801454Y-94197989D01*
X124690714Y-93308729D01*
X125576766Y-92422677D01*
X125576765Y-92422677D01*
X125599692Y-92399751D01*
X125599693Y-92399748D01*
X125599787Y-92399655D01*
X125599791Y-92399652D01*
X125600029Y-92399413D01*
X125600202Y-92398748D01*
X125611272Y-92377022D01*
X125618471Y-92365273D01*
X125633470Y-92344632D01*
X125641352Y-92320367D01*
X125646629Y-92307629D01*
X125658209Y-92284906D01*
X125662199Y-92259709D01*
X125665419Y-92246300D01*
X125668000Y-92238359D01*
X125673300Y-92222046D01*
X125673300Y-92093154D01*
X125673300Y-91433376D01*
X125673300Y-91426107D01*
X125673299Y-91426095D01*
X125673299Y-91400955D01*
X125673299Y-91400953D01*
X125665415Y-91376693D01*
X125662198Y-91363287D01*
X125658209Y-91338094D01*
X125646626Y-91315363D01*
X125641349Y-91302622D01*
X125633469Y-91278369D01*
X125633469Y-91278368D01*
X125618471Y-91257724D01*
X125611274Y-91245979D01*
X125599692Y-91223249D01*
X125576768Y-91200325D01*
X125576766Y-91200322D01*
X125031077Y-90654634D01*
X125008151Y-90631708D01*
X124985422Y-90620126D01*
X124973677Y-90612929D01*
X124953032Y-90597930D01*
X124953031Y-90597929D01*
X124953029Y-90597928D01*
X124928771Y-90590047D01*
X124916035Y-90584772D01*
X124893306Y-90573191D01*
X124893303Y-90573190D01*
X124893302Y-90573190D01*
X124868114Y-90569200D01*
X124854709Y-90565982D01*
X124830447Y-90558100D01*
X124830446Y-90558100D01*
X124798024Y-90558100D01*
X122024825Y-90558100D01*
X121991187Y-90551409D01*
X121962670Y-90532355D01*
X118562645Y-87132330D01*
X118543591Y-87103813D01*
X118536900Y-87070175D01*
X118536900Y-83696408D01*
X118548756Y-83652321D01*
X118581125Y-83620127D01*
X118625275Y-83608509D01*
X118669296Y-83620602D01*
G37*
%TD.AperFunction*%
%TA.AperFunction,Conductor*%
G36*
X115034755Y-89938147D02*
G01*
X116829755Y-91733147D01*
X116848809Y-91761664D01*
X116855500Y-91795302D01*
X116855500Y-91803093D01*
X116848809Y-91836730D01*
X116829755Y-91865247D01*
X116800133Y-91894868D01*
X116745730Y-92001640D01*
X116726983Y-92120000D01*
X116745730Y-92238359D01*
X116800132Y-92345128D01*
X116800134Y-92345131D01*
X116884869Y-92429866D01*
X116991642Y-92484270D01*
X117101863Y-92501727D01*
X117150267Y-92526390D01*
X117174930Y-92574794D01*
X117186930Y-92650559D01*
X117231927Y-92738869D01*
X117241334Y-92757331D01*
X117326069Y-92842066D01*
X117432842Y-92896470D01*
X117551200Y-92915216D01*
X117669558Y-92896470D01*
X117776331Y-92842066D01*
X117789286Y-92829111D01*
X117805953Y-92812445D01*
X117834470Y-92793391D01*
X117868107Y-92786700D01*
X123765876Y-92786700D01*
X123783024Y-92788389D01*
X123799600Y-92791686D01*
X123836551Y-92784336D01*
X123891281Y-92791086D01*
X123931220Y-92829111D01*
X123940648Y-92883445D01*
X123915853Y-92932702D01*
X123126658Y-93721898D01*
X123035516Y-93813040D01*
X123023935Y-93835767D01*
X123016732Y-93847522D01*
X123001739Y-93868158D01*
X122993856Y-93892420D01*
X122988578Y-93905160D01*
X122977000Y-93927884D01*
X122973009Y-93953076D01*
X122969791Y-93966480D01*
X122961909Y-93990743D01*
X122961909Y-95696456D01*
X122969791Y-95720718D01*
X122973009Y-95734123D01*
X122976203Y-95754286D01*
X122977000Y-95759315D01*
X122988581Y-95782044D01*
X122993856Y-95794780D01*
X123001737Y-95819038D01*
X123001738Y-95819040D01*
X123001739Y-95819041D01*
X123016738Y-95839686D01*
X123023935Y-95851431D01*
X123026197Y-95855868D01*
X123035517Y-95874160D01*
X125276108Y-98114751D01*
X125276107Y-98114751D01*
X125367249Y-98205892D01*
X125389971Y-98217470D01*
X125401732Y-98224676D01*
X125422368Y-98239670D01*
X125430262Y-98242235D01*
X125446627Y-98247553D01*
X125459367Y-98252829D01*
X125482094Y-98264409D01*
X125507296Y-98268399D01*
X125520693Y-98271616D01*
X125544953Y-98279500D01*
X125577376Y-98279500D01*
X125673846Y-98279500D01*
X125785447Y-98279500D01*
X125819085Y-98286191D01*
X125847601Y-98305244D01*
X127740680Y-100198324D01*
X127764504Y-100242203D01*
X127760587Y-100291979D01*
X127730191Y-100331591D01*
X127683125Y-100348258D01*
X127634575Y-100336602D01*
X126162083Y-99486458D01*
X126161976Y-99486364D01*
X126146810Y-99477593D01*
X126146402Y-99477539D01*
X126146400Y-99477540D01*
X126146071Y-99477792D01*
X126137659Y-99492228D01*
X126137477Y-99492760D01*
X124376767Y-102542398D01*
X124376661Y-102542521D01*
X124376673Y-102542528D01*
X124368073Y-102557377D01*
X124368072Y-102557378D01*
X124368071Y-102557379D01*
X124368072Y-102557379D01*
X124368015Y-102557786D01*
X124374002Y-102565603D01*
X124387653Y-102569260D01*
X127369818Y-104291015D01*
X127432652Y-104327292D01*
X127432824Y-104327443D01*
X127447855Y-104336118D01*
X127447917Y-104336126D01*
X127448267Y-104336172D01*
X127448596Y-104335920D01*
X127448596Y-104335916D01*
X127453076Y-104328076D01*
X127453084Y-104328060D01*
X129220696Y-101266467D01*
X129226593Y-101256335D01*
X129226596Y-101256334D01*
X129226650Y-101255923D01*
X129226573Y-101255696D01*
X129211879Y-101247142D01*
X129211379Y-101246970D01*
X128568015Y-100875524D01*
X128530756Y-100833038D01*
X128527060Y-100776650D01*
X128558455Y-100729664D01*
X128611965Y-100711500D01*
X128979447Y-100711500D01*
X129013085Y-100718191D01*
X129041602Y-100737245D01*
X131215555Y-102911199D01*
X131234609Y-102939716D01*
X131241300Y-102973354D01*
X131241300Y-106602047D01*
X131234609Y-106635685D01*
X131215554Y-106664202D01*
X130992533Y-106887221D01*
X130941853Y-106912214D01*
X130811434Y-106929384D01*
X130744707Y-106957024D01*
X130670755Y-106987656D01*
X130670753Y-106987657D01*
X130670754Y-106987657D01*
X130549951Y-107080352D01*
X130492588Y-107155110D01*
X130461729Y-107180435D01*
X130422852Y-107189500D01*
X124224841Y-107189500D01*
X124191203Y-107182809D01*
X124162686Y-107163755D01*
X123049044Y-106050113D01*
X121925589Y-104926657D01*
X121916337Y-104913797D01*
X121908114Y-104906301D01*
X121877003Y-104877939D01*
X121874089Y-104875157D01*
X121860593Y-104861661D01*
X121859810Y-104861125D01*
X121850262Y-104853562D01*
X121828434Y-104833662D01*
X121817884Y-104829575D01*
X121799967Y-104820130D01*
X121790633Y-104813736D01*
X121761874Y-104806972D01*
X121750249Y-104803372D01*
X121722699Y-104792700D01*
X121722698Y-104792700D01*
X121711386Y-104792700D01*
X121691264Y-104790366D01*
X121689131Y-104789864D01*
X121680251Y-104787776D01*
X121680250Y-104787776D01*
X121650995Y-104791857D01*
X121638851Y-104792700D01*
X121077428Y-104792700D01*
X121028593Y-104777886D01*
X120996219Y-104738438D01*
X120991217Y-104687652D01*
X121015273Y-104642645D01*
X121575870Y-104082048D01*
X124513959Y-101143956D01*
X124562361Y-101119295D01*
X124679958Y-101100670D01*
X124786731Y-101046266D01*
X124871466Y-100961531D01*
X124925870Y-100854758D01*
X124944616Y-100736400D01*
X124925870Y-100618042D01*
X124871466Y-100511269D01*
X124786731Y-100426534D01*
X124786728Y-100426532D01*
X124679959Y-100372130D01*
X124561600Y-100353383D01*
X124443240Y-100372130D01*
X124336471Y-100426532D01*
X124251732Y-100511271D01*
X124197330Y-100618040D01*
X124178704Y-100735636D01*
X124154041Y-100784040D01*
X120450527Y-104487555D01*
X120422010Y-104506609D01*
X120388372Y-104513300D01*
X120028442Y-104513300D01*
X119976080Y-104496002D01*
X119944327Y-104450916D01*
X119945680Y-104395787D01*
X119979608Y-104352314D01*
X120056786Y-104300746D01*
X120056790Y-104300740D01*
X120065556Y-104294884D01*
X120074941Y-104280836D01*
X120085867Y-104267521D01*
X124692321Y-99661067D01*
X124705636Y-99650141D01*
X124719684Y-99640756D01*
X124725540Y-99631990D01*
X124725545Y-99631986D01*
X124738044Y-99613280D01*
X124775934Y-99556573D01*
X124788733Y-99492228D01*
X124790247Y-99484616D01*
X124790250Y-99484599D01*
X124790700Y-99482339D01*
X124795686Y-99457271D01*
X124792389Y-99440696D01*
X124790700Y-99423548D01*
X124790700Y-98640307D01*
X124797391Y-98606670D01*
X124816445Y-98578153D01*
X124846066Y-98548531D01*
X124855473Y-98530069D01*
X124900470Y-98441758D01*
X124919216Y-98323400D01*
X124916657Y-98307246D01*
X124915687Y-98301124D01*
X124900470Y-98205042D01*
X124846066Y-98098269D01*
X124761331Y-98013534D01*
X124761328Y-98013532D01*
X124654559Y-97959130D01*
X124536200Y-97940383D01*
X124417840Y-97959130D01*
X124311071Y-98013532D01*
X124226332Y-98098271D01*
X124171930Y-98205040D01*
X124153183Y-98323400D01*
X124171930Y-98441759D01*
X124226333Y-98548531D01*
X124255955Y-98578153D01*
X124275009Y-98606670D01*
X124281700Y-98640307D01*
X124281700Y-99315444D01*
X124275009Y-99349082D01*
X124255955Y-99377599D01*
X119955206Y-103678347D01*
X119910191Y-103702405D01*
X119859398Y-103697395D01*
X119819951Y-103665006D01*
X119805151Y-103616160D01*
X119817164Y-103576616D01*
X119815249Y-103575659D01*
X119815250Y-103575657D01*
X119819872Y-103567700D01*
X119819986Y-103567327D01*
X119820784Y-103566133D01*
X119848334Y-103524901D01*
X119868086Y-103425600D01*
X119864789Y-103409024D01*
X119863100Y-103391876D01*
X119863100Y-100978280D01*
X119882689Y-100922962D01*
X119932725Y-100892301D01*
X119990905Y-100899960D01*
X120010942Y-100910170D01*
X120129300Y-100928916D01*
X120247658Y-100910170D01*
X120354431Y-100855766D01*
X120439166Y-100771031D01*
X120493570Y-100664258D01*
X120512195Y-100546661D01*
X120536855Y-100498261D01*
X121695121Y-99339995D01*
X121708436Y-99329069D01*
X121722484Y-99319684D01*
X121728340Y-99310918D01*
X121728346Y-99310913D01*
X121778733Y-99235502D01*
X121778732Y-99235502D01*
X121778734Y-99235501D01*
X121798486Y-99136200D01*
X121795189Y-99119624D01*
X121793500Y-99102476D01*
X121793500Y-95392719D01*
X121795189Y-95375571D01*
X121798485Y-95359000D01*
X121795189Y-95342429D01*
X121795189Y-95342424D01*
X121778734Y-95259699D01*
X121768124Y-95243820D01*
X121767734Y-95243236D01*
X121736684Y-95196766D01*
X121736683Y-95196765D01*
X121731877Y-95189572D01*
X121731869Y-95189563D01*
X121722484Y-95175516D01*
X121712322Y-95168726D01*
X121708436Y-95166129D01*
X121695116Y-95155198D01*
X121037557Y-94497639D01*
X121012894Y-94449235D01*
X120994270Y-94331642D01*
X120939866Y-94224869D01*
X120855131Y-94140134D01*
X120855128Y-94140132D01*
X120748359Y-94085730D01*
X120630000Y-94066983D01*
X120511640Y-94085730D01*
X120404871Y-94140132D01*
X120320132Y-94224871D01*
X120265730Y-94331640D01*
X120246983Y-94449999D01*
X120265730Y-94568359D01*
X120320132Y-94675128D01*
X120320134Y-94675131D01*
X120404869Y-94759866D01*
X120511642Y-94814270D01*
X120629235Y-94832894D01*
X120677639Y-94857557D01*
X121258755Y-95438673D01*
X121277809Y-95467190D01*
X121284500Y-95500828D01*
X121284500Y-97593175D01*
X121264911Y-97648492D01*
X121214875Y-97679154D01*
X121156694Y-97671494D01*
X121073159Y-97628930D01*
X120954800Y-97610183D01*
X120836440Y-97628930D01*
X120729671Y-97683332D01*
X120644932Y-97768071D01*
X120590530Y-97874840D01*
X120571904Y-97992436D01*
X120547241Y-98040840D01*
X119096882Y-99491198D01*
X119083566Y-99502126D01*
X119069517Y-99511513D01*
X119062046Y-99522695D01*
X119055319Y-99532762D01*
X119055316Y-99532766D01*
X119046426Y-99546071D01*
X119013265Y-99595699D01*
X118993513Y-99695000D01*
X118996811Y-99711576D01*
X118998500Y-99728724D01*
X118998500Y-101178773D01*
X118991809Y-101212411D01*
X118972755Y-101240928D01*
X118741527Y-101472155D01*
X118713010Y-101491209D01*
X118679372Y-101497900D01*
X118630107Y-101497900D01*
X118596470Y-101491209D01*
X118567953Y-101472155D01*
X118538331Y-101442533D01*
X118431559Y-101388130D01*
X118313200Y-101369383D01*
X118194840Y-101388130D01*
X118088068Y-101442533D01*
X118058447Y-101472155D01*
X118029930Y-101491209D01*
X117996293Y-101497900D01*
X116234228Y-101497900D01*
X116200590Y-101491209D01*
X116172073Y-101472155D01*
X114127557Y-99427639D01*
X114102894Y-99379235D01*
X114084270Y-99261642D01*
X114070951Y-99235502D01*
X114029866Y-99154868D01*
X114000245Y-99125247D01*
X113981191Y-99096730D01*
X113974500Y-99063093D01*
X113974500Y-97241828D01*
X113981191Y-97208190D01*
X114000245Y-97179673D01*
X114152418Y-97027500D01*
X114938718Y-96241197D01*
X114952027Y-96230275D01*
X114966084Y-96220884D01*
X115022334Y-96136701D01*
X115037100Y-96062467D01*
X115038789Y-96053976D01*
X115038789Y-96053971D01*
X115042085Y-96037399D01*
X115038789Y-96020829D01*
X115037100Y-96003681D01*
X115037100Y-95156719D01*
X115038789Y-95139571D01*
X115042085Y-95122999D01*
X115038789Y-95106429D01*
X115038789Y-95106424D01*
X115022334Y-95023699D01*
X115006614Y-95000173D01*
X114966084Y-94939516D01*
X114957333Y-94933669D01*
X114952033Y-94930127D01*
X114938714Y-94919197D01*
X114200873Y-94181355D01*
X114176817Y-94136348D01*
X114181819Y-94085562D01*
X114214193Y-94046114D01*
X114263028Y-94031300D01*
X114571076Y-94031300D01*
X114588224Y-94032989D01*
X114604799Y-94036286D01*
X114604799Y-94036285D01*
X114604800Y-94036286D01*
X114670755Y-94023167D01*
X114704101Y-94016534D01*
X114724205Y-94003101D01*
X114742700Y-93990743D01*
X114779514Y-93966146D01*
X114779518Y-93966140D01*
X114788284Y-93960284D01*
X114797669Y-93946236D01*
X114808595Y-93932921D01*
X116183318Y-92558197D01*
X116196627Y-92547275D01*
X116210684Y-92537884D01*
X116266934Y-92453701D01*
X116266934Y-92453700D01*
X116276649Y-92439162D01*
X116279605Y-92441137D01*
X116287586Y-92425809D01*
X116337066Y-92376331D01*
X116391470Y-92269558D01*
X116410216Y-92151200D01*
X116391470Y-92032842D01*
X116337066Y-91926069D01*
X116252331Y-91841334D01*
X116252328Y-91841332D01*
X116145559Y-91786930D01*
X116027200Y-91768183D01*
X115908840Y-91786930D01*
X115802071Y-91841332D01*
X115717332Y-91926071D01*
X115662930Y-92032840D01*
X115644183Y-92151200D01*
X115662930Y-92269560D01*
X115664042Y-92271742D01*
X115672541Y-92325399D01*
X115647878Y-92373803D01*
X115141281Y-92880399D01*
X115099582Y-92903731D01*
X115051839Y-92901801D01*
X115012159Y-92875181D01*
X115003647Y-92856591D01*
X115000791Y-92858047D01*
X114940066Y-92738868D01*
X114910445Y-92709247D01*
X114891391Y-92680730D01*
X114884700Y-92647093D01*
X114884700Y-90000302D01*
X114899514Y-89951467D01*
X114938962Y-89919093D01*
X114989748Y-89914091D01*
X115034755Y-89938147D01*
G37*
%TD.AperFunction*%
%TA.AperFunction,Conductor*%
G36*
X108836126Y-95350504D02*
G01*
X108855500Y-95405554D01*
X108855500Y-97671676D01*
X108853811Y-97688824D01*
X108850513Y-97705399D01*
X108855500Y-97730467D01*
X108865137Y-97778917D01*
X108870265Y-97804700D01*
X108917123Y-97874829D01*
X108917129Y-97874836D01*
X108926516Y-97888884D01*
X108940562Y-97898269D01*
X108953880Y-97909198D01*
X109323070Y-98278388D01*
X109347733Y-98326792D01*
X109339235Y-98380448D01*
X109300822Y-98418862D01*
X109248870Y-98445333D01*
X109164132Y-98530071D01*
X109109730Y-98636840D01*
X109090983Y-98755200D01*
X109109730Y-98873559D01*
X109164133Y-98980331D01*
X109193755Y-99009953D01*
X109212809Y-99038470D01*
X109219500Y-99072107D01*
X109219500Y-99381876D01*
X109217811Y-99399024D01*
X109214513Y-99415599D01*
X109219500Y-99440667D01*
X109228239Y-99484599D01*
X109228239Y-99484600D01*
X109234265Y-99514899D01*
X109281123Y-99585029D01*
X109281129Y-99585036D01*
X109290516Y-99599084D01*
X109304562Y-99608469D01*
X109317880Y-99619398D01*
X113965998Y-104267516D01*
X113976929Y-104280836D01*
X113983730Y-104291015D01*
X113986316Y-104294884D01*
X114000363Y-104304269D01*
X114000372Y-104304277D01*
X114007565Y-104309083D01*
X114007566Y-104309084D01*
X114047729Y-104335920D01*
X114072264Y-104352313D01*
X114106192Y-104395787D01*
X114107545Y-104450916D01*
X114075792Y-104496002D01*
X114023430Y-104513300D01*
X113551552Y-104513300D01*
X113517914Y-104506609D01*
X113489397Y-104487555D01*
X108997922Y-99996080D01*
X108986993Y-99982762D01*
X108977608Y-99968716D01*
X108964161Y-99959731D01*
X108963560Y-99959329D01*
X108963553Y-99959323D01*
X108893424Y-99912465D01*
X108794123Y-99892713D01*
X108777548Y-99896011D01*
X108760400Y-99897700D01*
X108673307Y-99897700D01*
X108639670Y-99891009D01*
X108611153Y-99871955D01*
X108581531Y-99842333D01*
X108474759Y-99787930D01*
X108356400Y-99769183D01*
X108238040Y-99787930D01*
X108131271Y-99842332D01*
X108046532Y-99927071D01*
X107992130Y-100033840D01*
X107973383Y-100152200D01*
X107992130Y-100270559D01*
X108046532Y-100377328D01*
X108046534Y-100377331D01*
X108131269Y-100462066D01*
X108238042Y-100516470D01*
X108356400Y-100535216D01*
X108474758Y-100516470D01*
X108581531Y-100462066D01*
X108600648Y-100442948D01*
X108640051Y-100420200D01*
X108685551Y-100420200D01*
X108724956Y-100442950D01*
X109888651Y-101606645D01*
X109912707Y-101651652D01*
X109907705Y-101702438D01*
X109875331Y-101741886D01*
X109826496Y-101756700D01*
X109209548Y-101756700D01*
X109170671Y-101747635D01*
X109139812Y-101722310D01*
X109082448Y-101647552D01*
X108961645Y-101554856D01*
X108820967Y-101496585D01*
X108820965Y-101496584D01*
X108670000Y-101476710D01*
X108519034Y-101496584D01*
X108448694Y-101525720D01*
X108378355Y-101554856D01*
X108378353Y-101554857D01*
X108378354Y-101554857D01*
X108257551Y-101647552D01*
X108165968Y-101766905D01*
X108133454Y-101793024D01*
X108092560Y-101801217D01*
X108052493Y-101789639D01*
X107424410Y-101429324D01*
X107417469Y-101424897D01*
X107272260Y-101322426D01*
X107259767Y-101311727D01*
X107139061Y-101186962D01*
X107128781Y-101174122D01*
X107033433Y-101029056D01*
X107025725Y-101014527D01*
X106959074Y-100854244D01*
X106954207Y-100838533D01*
X106945600Y-100797486D01*
X106918581Y-100668627D01*
X106916727Y-100652298D01*
X106913379Y-100478722D01*
X106914602Y-100462324D01*
X106920676Y-100426532D01*
X106943447Y-100292352D01*
X106945196Y-100284337D01*
X107528614Y-98106992D01*
X107532208Y-98093741D01*
X107532209Y-98093740D01*
X107532155Y-98093329D01*
X107532154Y-98093328D01*
X107531825Y-98093077D01*
X107515262Y-98088623D01*
X107514968Y-98088603D01*
X106709302Y-97872724D01*
X106698400Y-97869022D01*
X106560225Y-97811760D01*
X106540334Y-97800267D01*
X106423295Y-97710360D01*
X106407061Y-97694102D01*
X106357146Y-97628930D01*
X106317323Y-97576935D01*
X106305860Y-97557031D01*
X106249551Y-97420604D01*
X106243639Y-97398412D01*
X106224611Y-97252061D01*
X106224653Y-97229084D01*
X106233400Y-97163640D01*
X106244205Y-97082797D01*
X106250196Y-97060629D01*
X106309236Y-96919030D01*
X106314342Y-96908739D01*
X106411121Y-96742083D01*
X106431296Y-96707339D01*
X106468637Y-96672547D01*
X106514354Y-96665127D01*
X106514354Y-96664533D01*
X106518011Y-96664533D01*
X106519020Y-96664369D01*
X106520239Y-96664533D01*
X106743129Y-96664533D01*
X106743133Y-96664533D01*
X106965530Y-96649645D01*
X107256876Y-96590427D01*
X107537730Y-96492904D01*
X107803079Y-96358817D01*
X108048188Y-96190559D01*
X108268683Y-95991132D01*
X108460631Y-95764096D01*
X108620604Y-95513501D01*
X108687866Y-95368554D01*
X108728613Y-95326773D01*
X108786545Y-95319720D01*
X108836126Y-95350504D01*
G37*
%TD.AperFunction*%
%TA.AperFunction,Conductor*%
G36*
X112075315Y-89349497D02*
G01*
X112368755Y-89642937D01*
X112387809Y-89671454D01*
X112394500Y-89705092D01*
X112394500Y-92362109D01*
X112387809Y-92395747D01*
X112368755Y-92424264D01*
X111680080Y-93112936D01*
X111666763Y-93123865D01*
X111652716Y-93133251D01*
X111643366Y-93147243D01*
X111638519Y-93154498D01*
X111638516Y-93154502D01*
X111627631Y-93170793D01*
X111596465Y-93217435D01*
X111576713Y-93316736D01*
X111580011Y-93333312D01*
X111581700Y-93350460D01*
X111581700Y-94098675D01*
X111580011Y-94115823D01*
X111576713Y-94132398D01*
X111596465Y-94231699D01*
X111643323Y-94301828D01*
X111643329Y-94301835D01*
X111652716Y-94315883D01*
X111666762Y-94325268D01*
X111680080Y-94336197D01*
X111850731Y-94506848D01*
X111875505Y-94555976D01*
X111866220Y-94610208D01*
X111826512Y-94648295D01*
X111771941Y-94655315D01*
X111735517Y-94648295D01*
X111682798Y-94638134D01*
X111522416Y-94638134D01*
X111490483Y-94641183D01*
X111362750Y-94653380D01*
X111157418Y-94713671D01*
X110967194Y-94811737D01*
X110798972Y-94944029D01*
X110658828Y-95105764D01*
X110646124Y-95127770D01*
X110603638Y-95165030D01*
X110547250Y-95168726D01*
X110500264Y-95137331D01*
X110482100Y-95083821D01*
X110482100Y-92732930D01*
X110483789Y-92715782D01*
X110487086Y-92699205D01*
X110479339Y-92660262D01*
X110479339Y-92660261D01*
X110474478Y-92635823D01*
X110467334Y-92599905D01*
X110463478Y-92594134D01*
X110439619Y-92558426D01*
X110420481Y-92529782D01*
X110420468Y-92529767D01*
X110411084Y-92515722D01*
X110397036Y-92506335D01*
X110383716Y-92495404D01*
X109810809Y-91922497D01*
X109785693Y-91870841D01*
X109797842Y-91814702D01*
X109842067Y-91778051D01*
X109899485Y-91776539D01*
X110055371Y-91825872D01*
X110308884Y-91865030D01*
X110501176Y-91865030D01*
X110501178Y-91865030D01*
X110565087Y-91860123D01*
X110692909Y-91850310D01*
X110942681Y-91791861D01*
X111180603Y-91695970D01*
X111401099Y-91564884D01*
X111599000Y-91401675D01*
X111769669Y-91210170D01*
X111909104Y-90994857D01*
X112014038Y-90760783D01*
X112082011Y-90513433D01*
X112111429Y-90258607D01*
X112101604Y-90002276D01*
X112052765Y-89750449D01*
X111966057Y-89509029D01*
X111935938Y-89453642D01*
X111925493Y-89405260D01*
X111942847Y-89358902D01*
X111982499Y-89329273D01*
X112031874Y-89325767D01*
X112075315Y-89349497D01*
G37*
%TD.AperFunction*%
%TA.AperFunction,Conductor*%
G36*
X113747889Y-84327739D02*
G01*
X117855155Y-88435005D01*
X117874209Y-88463522D01*
X117880900Y-88497160D01*
X117880900Y-89065693D01*
X117874209Y-89099330D01*
X117855155Y-89127847D01*
X117825533Y-89157468D01*
X117771130Y-89264240D01*
X117752383Y-89382600D01*
X117771130Y-89500959D01*
X117772089Y-89502841D01*
X117825534Y-89607731D01*
X117910269Y-89692466D01*
X118017042Y-89746870D01*
X118135400Y-89765616D01*
X118253758Y-89746870D01*
X118360531Y-89692466D01*
X118445266Y-89607731D01*
X118499670Y-89500958D01*
X118518416Y-89382600D01*
X118499670Y-89264242D01*
X118456079Y-89178690D01*
X118445266Y-89157468D01*
X118415645Y-89127847D01*
X118396591Y-89099330D01*
X118389900Y-89065693D01*
X118389900Y-88786828D01*
X118404714Y-88737993D01*
X118444162Y-88705619D01*
X118494948Y-88700617D01*
X118539955Y-88724673D01*
X121792398Y-91977116D01*
X121803329Y-91990436D01*
X121810815Y-92001640D01*
X121812716Y-92004484D01*
X121826763Y-92013869D01*
X121826772Y-92013877D01*
X121896899Y-92060734D01*
X121979619Y-92077188D01*
X121979628Y-92077188D01*
X121996200Y-92080485D01*
X122012771Y-92077188D01*
X122029919Y-92075500D01*
X123684172Y-92075500D01*
X123733007Y-92090314D01*
X123765381Y-92129762D01*
X123770383Y-92180548D01*
X123746327Y-92225555D01*
X123719927Y-92251955D01*
X123691410Y-92271009D01*
X123657772Y-92277700D01*
X117868107Y-92277700D01*
X117834470Y-92271009D01*
X117805953Y-92251955D01*
X117776331Y-92222333D01*
X117669559Y-92167930D01*
X117559336Y-92150472D01*
X117510932Y-92125808D01*
X117486269Y-92077404D01*
X117486235Y-92077188D01*
X117474270Y-92001642D01*
X117454334Y-91962516D01*
X117419866Y-91894868D01*
X117390245Y-91865247D01*
X117371191Y-91836730D01*
X117364500Y-91803093D01*
X117364500Y-91726609D01*
X117378681Y-91678735D01*
X117416648Y-91646308D01*
X117466149Y-91639791D01*
X117500400Y-91645216D01*
X117618758Y-91626470D01*
X117725531Y-91572066D01*
X117810266Y-91487331D01*
X117864670Y-91380558D01*
X117883416Y-91262200D01*
X117864670Y-91143842D01*
X117810266Y-91037069D01*
X117725531Y-90952334D01*
X117725528Y-90952332D01*
X117618759Y-90897930D01*
X117500400Y-90879183D01*
X117382040Y-90897930D01*
X117262865Y-90958654D01*
X117262118Y-90957189D01*
X117242331Y-90968611D01*
X117196835Y-90968608D01*
X117157434Y-90945859D01*
X113973641Y-87762066D01*
X112536177Y-86324601D01*
X112511171Y-86273812D01*
X112522319Y-86218311D01*
X113609722Y-84345751D01*
X113648719Y-84310167D01*
X113701070Y-84303342D01*
X113747889Y-84327739D01*
G37*
%TD.AperFunction*%
%TA.AperFunction,Conductor*%
G36*
X115706004Y-81976122D02*
G01*
X115723125Y-81978481D01*
X115808375Y-81998928D01*
X115900496Y-82021023D01*
X115916814Y-82026683D01*
X116086411Y-82104942D01*
X116094037Y-82108928D01*
X117679699Y-83039710D01*
X117711481Y-83071838D01*
X117723100Y-83115513D01*
X117723100Y-86975772D01*
X117708286Y-87024607D01*
X117668838Y-87056981D01*
X117618052Y-87061983D01*
X117573045Y-87037927D01*
X114124522Y-83589404D01*
X114099515Y-83538613D01*
X114110664Y-83483108D01*
X114695217Y-82476480D01*
X114699925Y-82469221D01*
X114809126Y-82317731D01*
X114820561Y-82304773D01*
X114954115Y-82180533D01*
X114967848Y-82170075D01*
X115123140Y-82074363D01*
X115138655Y-82066794D01*
X115309672Y-82003317D01*
X115326371Y-81998929D01*
X115506493Y-81970144D01*
X115523745Y-81969108D01*
X115706004Y-81976122D01*
G37*
%TD.AperFunction*%
%TD*%
M02*
