M48
; DRILL file {KiCad 7.0.1-0} date 2023 October 15, Sunday 20:39:48
; FORMAT={-:-/ absolute / metric / decimal}
; #@! TF.CreationDate,2023-10-15T20:39:48+08:00
; #@! TF.GenerationSoftware,Kicad,Pcbnew,7.0.1-0
; #@! TF.FileFunction,NonPlated,1,2,NPTH
FMAT,2
METRIC
; #@! TA.AperFunction,NonPlated,NPTH,ComponentDrill
T1C0.300
; #@! TA.AperFunction,NonPlated,NPTH,ComponentDrill
T2C0.700
; #@! TA.AperFunction,NonPlated,NPTH,ComponentDrill
T3C1.900
; #@! TA.AperFunction,NonPlated,NPTH,ComponentDrill
T4C3.000
; #@! TA.AperFunction,NonPlated,NPTH,ComponentDrill
T5C4.100
%
G90
G05
T1
X36.565Y-85.827
X36.565Y-90.018
X37.159Y-85.827
X37.159Y-90.018
X37.756Y-85.827
X37.756Y-90.018
X38.35Y-85.827
X38.35Y-90.018
X38.944Y-85.827
X38.944Y-90.018
X39.537Y-85.827
X39.537Y-90.018
X40.131Y-85.827
X40.131Y-90.018
X40.725Y-85.827
X40.725Y-90.018
X41.319Y-85.827
X41.319Y-90.018
X41.912Y-85.827
X41.912Y-90.018
X42.506Y-85.827
X42.506Y-90.018
X43.103Y-85.827
X43.103Y-90.018
X43.697Y-85.827
X43.697Y-90.018
X123.927Y-29.555
X123.927Y-30.15
X123.927Y-30.15
X123.927Y-30.747
X123.927Y-31.34
X123.927Y-31.934
X123.927Y-32.528
X123.927Y-33.122
X123.927Y-33.715
X123.927Y-34.309
X123.927Y-34.903
X123.927Y-35.497
X123.927Y-36.093
X123.927Y-36.688
X123.927Y-69.84
X123.927Y-70.434
X123.927Y-71.031
X123.927Y-71.625
X123.927Y-72.218
X123.927Y-72.812
X123.927Y-73.406
X123.927Y-74.0
X123.927Y-74.593
X123.927Y-75.187
X123.927Y-75.781
X123.927Y-76.378
X123.927Y-76.972
X171.323Y-29.555
X171.323Y-30.15
X171.323Y-30.15
X171.323Y-30.747
X171.323Y-31.34
X171.323Y-31.934
X171.323Y-32.528
X171.323Y-33.122
X171.323Y-33.715
X171.323Y-34.309
X171.323Y-34.903
X171.323Y-35.497
X171.323Y-36.093
X171.323Y-36.688
X171.323Y-69.84
X171.323Y-70.434
X171.323Y-71.031
X171.323Y-71.625
X171.323Y-72.218
X171.323Y-72.812
X171.323Y-73.406
X171.323Y-74.0
X171.323Y-74.593
X171.323Y-75.187
X171.323Y-75.781
X171.323Y-76.378
X171.323Y-76.972
X253.889Y-85.827
X253.889Y-90.018
X254.483Y-85.827
X254.483Y-90.018
X255.08Y-85.827
X255.08Y-90.018
X255.674Y-85.827
X255.674Y-90.018
X256.267Y-85.827
X256.267Y-90.018
X256.861Y-85.827
X256.861Y-90.018
X257.455Y-85.827
X257.455Y-90.018
X258.049Y-85.827
X258.049Y-90.018
X258.642Y-85.827
X258.642Y-90.018
X259.236Y-85.827
X259.236Y-90.018
X259.83Y-85.827
X259.83Y-90.018
X260.427Y-85.827
X260.427Y-90.018
X261.021Y-85.827
X261.021Y-90.018
T2
X37.242Y-95.047
X43.022Y-95.047
X254.565Y-95.046
X260.345Y-95.046
T3
X13.97Y-38.1
X13.97Y-57.15
X13.97Y-76.2
X24.13Y-38.1
X24.13Y-57.15
X24.13Y-76.2
X33.02Y-38.1
X33.02Y-57.15
X33.02Y-76.2
X43.18Y-38.1
X43.18Y-57.15
X43.18Y-76.2
X52.07Y-33.336
X52.07Y-52.386
X52.07Y-71.436
X62.23Y-33.336
X62.23Y-52.386
X62.23Y-71.436
X71.12Y-31.242
X71.12Y-50.292
X71.12Y-69.342
X80.264Y-91.248
X81.28Y-31.242
X81.28Y-50.292
X81.28Y-69.342
X90.17Y-33.336
X90.17Y-52.386
X90.17Y-71.436
X90.424Y-91.248
X100.33Y-33.336
X100.33Y-52.386
X100.33Y-71.436
X101.762Y-93.129
X109.22Y-36.004
X109.22Y-55.054
X109.22Y-74.104
X111.576Y-95.759
X119.38Y-36.004
X119.38Y-55.054
X119.38Y-74.104
X124.938Y-94.967
X133.737Y-100.047
X161.543Y-100.066
X170.342Y-94.986
X175.895Y-36.004
X175.895Y-55.054
X175.895Y-74.104
X183.7Y-95.768
X186.055Y-36.004
X186.055Y-55.054
X186.055Y-74.104
X193.514Y-93.139
X194.945Y-33.336
X194.945Y-52.386
X194.945Y-71.436
X204.851Y-91.248
X205.105Y-33.336
X205.105Y-52.386
X205.105Y-71.436
X213.995Y-31.242
X213.995Y-50.292
X213.995Y-69.342
X215.011Y-91.248
X224.155Y-31.242
X224.155Y-50.292
X224.155Y-69.342
X233.045Y-33.336
X233.045Y-52.386
X233.045Y-71.436
X243.205Y-33.336
X243.205Y-52.386
X243.205Y-71.436
X252.095Y-38.1
X252.095Y-57.15
X252.095Y-76.2
X262.255Y-38.1
X262.255Y-57.15
X262.255Y-76.2
X271.145Y-38.1
X271.145Y-57.15
X271.145Y-76.2
X281.305Y-38.1
X281.305Y-57.15
X281.305Y-76.2
T4
X15.24Y-35.56
X15.24Y-54.61
X15.24Y-73.66
X21.59Y-33.02
X21.59Y-52.07
X21.59Y-71.12
X34.29Y-35.56
X34.29Y-54.61
X34.29Y-73.66
X40.64Y-33.02
X40.64Y-52.07
X40.64Y-71.12
X53.34Y-30.796
X53.34Y-49.846
X53.34Y-68.896
X59.69Y-28.256
X59.69Y-47.306
X59.69Y-66.356
X72.39Y-28.702
X72.39Y-47.752
X72.39Y-66.802
X78.74Y-26.162
X78.74Y-45.212
X78.74Y-64.262
X81.534Y-88.708
X87.884Y-86.168
X91.44Y-30.796
X91.44Y-49.846
X91.44Y-68.896
X97.79Y-28.256
X97.79Y-47.306
X97.79Y-66.356
X103.646Y-91.004
X110.437Y-90.194
X110.49Y-33.464
X110.49Y-52.514
X110.49Y-71.564
X116.84Y-30.924
X116.84Y-49.974
X116.84Y-69.024
X127.308Y-93.403
X134.077Y-94.378
X161.373Y-97.231
X165.602Y-91.857
X177.165Y-33.464
X177.165Y-52.514
X177.165Y-71.564
X183.515Y-30.924
X183.515Y-49.974
X183.515Y-69.024
X184.27Y-92.986
X189.746Y-88.889
X196.215Y-30.796
X196.215Y-49.846
X196.215Y-68.896
X202.565Y-28.256
X202.565Y-47.306
X202.565Y-66.356
X206.121Y-88.708
X212.471Y-86.168
X215.265Y-28.702
X215.265Y-47.752
X215.265Y-66.802
X221.615Y-26.162
X221.615Y-45.212
X221.615Y-64.262
X234.315Y-30.796
X234.315Y-49.846
X234.315Y-68.896
X240.665Y-28.256
X240.665Y-47.306
X240.665Y-66.356
X253.365Y-35.56
X253.365Y-54.61
X253.365Y-73.66
X259.715Y-33.02
X259.715Y-52.07
X259.715Y-71.12
X272.415Y-35.56
X272.415Y-54.61
X272.415Y-73.66
X278.765Y-33.02
X278.765Y-52.07
X278.765Y-71.12
T5
X19.05Y-38.1
X19.05Y-57.15
X19.05Y-76.2
X38.1Y-38.1
X38.1Y-57.15
X38.1Y-76.2
X57.15Y-33.336
X57.15Y-52.386
X57.15Y-71.436
X76.2Y-31.242
X76.2Y-50.292
X76.2Y-69.342
X85.344Y-91.248
X95.25Y-33.336
X95.25Y-52.386
X95.25Y-71.436
X106.669Y-94.444
X114.3Y-36.004
X114.3Y-55.054
X114.3Y-74.104
X129.337Y-97.507
X165.943Y-97.526
X180.975Y-36.004
X180.975Y-55.054
X180.975Y-74.104
X188.607Y-94.454
X200.025Y-33.336
X200.025Y-52.386
X200.025Y-71.436
X209.931Y-91.248
X219.075Y-31.242
X219.075Y-50.292
X219.075Y-69.342
X238.125Y-33.336
X238.125Y-52.386
X238.125Y-71.436
X257.175Y-38.1
X257.175Y-57.15
X257.175Y-76.2
X276.225Y-38.1
X276.225Y-57.15
X276.225Y-76.2
T0
M30
