%TF.GenerationSoftware,KiCad,Pcbnew,7.0.1-0*%
%TF.CreationDate,2023-10-15T20:39:52+08:00*%
%TF.ProjectId,qhws42_v2,71687773-3432-45f7-9632-2e6b69636164,rev?*%
%TF.SameCoordinates,Original*%
%TF.FileFunction,Legend,Bot*%
%TF.FilePolarity,Positive*%
%FSLAX46Y46*%
G04 Gerber Fmt 4.6, Leading zero omitted, Abs format (unit mm)*
G04 Created by KiCad (PCBNEW 7.0.1-0) date 2023-10-15 20:39:52*
%MOMM*%
%LPD*%
G01*
G04 APERTURE LIST*
%ADD10C,0.300000*%
%ADD11C,0.150000*%
%ADD12C,0.250000*%
%ADD13C,0.254000*%
%ADD14C,0.120000*%
%ADD15C,0.200000*%
G04 APERTURE END LIST*
D10*
X203695107Y-87597590D02*
X203695107Y-79525590D01*
D11*
X244017800Y-66192400D02*
G75*
G03*
X244805200Y-65405000I0J787400D01*
G01*
D10*
X178035800Y-46653600D02*
X187519800Y-46653600D01*
D11*
X79487600Y-57683400D02*
G75*
G03*
X78700200Y-58470800I0J-787400D01*
G01*
D10*
X161576764Y-94615000D02*
X180670200Y-83591400D01*
X106738600Y-45403000D02*
X107754600Y-45403000D01*
X101798000Y-87598000D02*
X101798000Y-79526000D01*
X194835707Y-79550990D02*
X194861107Y-87597590D01*
X108178600Y-57918600D02*
X104394000Y-57944000D01*
X170659633Y-109813590D02*
X160906033Y-92919860D01*
X187027800Y-43153600D02*
X178527800Y-43153600D01*
X117223000Y-46076800D02*
X118239000Y-46076800D01*
D11*
X222351600Y-57683400D02*
G75*
G03*
X221564200Y-58470800I0J-787400D01*
G01*
D10*
X195296200Y-64277700D02*
X195296200Y-58705700D01*
X92964000Y-87598000D02*
X93751400Y-88385400D01*
D11*
X101153800Y-59512200D02*
X91959000Y-59512200D01*
D10*
X116746600Y-47653000D02*
G75*
G03*
X117746600Y-46653000I0J1000000D01*
G01*
X117254200Y-44729200D02*
X118270200Y-44729200D01*
X107246600Y-44153000D02*
X107246600Y-46653000D01*
D11*
X91171800Y-58470800D02*
G75*
G03*
X90384400Y-57683400I-787400J0D01*
G01*
X91186000Y-58724800D02*
G75*
G03*
X91973400Y-59512200I787400J0D01*
G01*
D10*
X108966000Y-58706000D02*
G75*
G03*
X108178600Y-57918600I-787400J0D01*
G01*
X177820693Y-47360707D02*
X177820693Y-43446493D01*
X117238600Y-46653000D02*
X118254600Y-46653000D01*
X177527800Y-44153600D02*
X177527800Y-46653600D01*
X93726000Y-78764000D02*
G75*
G03*
X92938600Y-79551400I0J-787400D01*
G01*
D11*
X232130600Y-66217800D02*
G75*
G03*
X231343200Y-67005200I0J-787400D01*
G01*
D10*
X170659587Y-109813616D02*
G75*
G03*
X171735242Y-110101798I681913J393716D01*
G01*
X117238600Y-45403000D02*
X118254600Y-45403000D01*
X179625519Y-82112160D02*
X189379119Y-99005890D01*
D11*
X101941200Y-60299600D02*
G75*
G03*
X101153800Y-59512200I-787400J0D01*
G01*
D10*
X202907707Y-78738190D02*
X195623107Y-78763590D01*
X103632000Y-64278000D02*
G75*
G03*
X104419400Y-65065400I787400J0D01*
G01*
X108966000Y-64278000D02*
X108966000Y-58706000D01*
X101798000Y-87598000D02*
X101010600Y-88385400D01*
D11*
X79487600Y-71602600D02*
X87691800Y-71602600D01*
D10*
X177019800Y-46653600D02*
X178035800Y-46653600D01*
X177527800Y-46653600D02*
G75*
G03*
X178527800Y-47653600I1000000J0D01*
G01*
X195648507Y-88384990D02*
X202907707Y-88384990D01*
X189090919Y-100081514D02*
G75*
G03*
X189379119Y-99005890I-393719J681914D01*
G01*
X106738600Y-46653000D02*
X107754600Y-46653000D01*
D11*
X244805200Y-60299600D02*
G75*
G03*
X244017800Y-59512200I-787400J0D01*
G01*
D10*
X93751400Y-88385400D02*
X101010600Y-88385400D01*
D11*
X91186200Y-58470800D02*
X91186000Y-58724800D01*
X234035600Y-58724800D02*
G75*
G03*
X234823000Y-59512200I787400J0D01*
G01*
D10*
X108246600Y-47653000D02*
X116746600Y-47653000D01*
X108966000Y-64278000D02*
X108178600Y-65065400D01*
X117746600Y-46653000D02*
X117746600Y-44153000D01*
D11*
X234035800Y-58470800D02*
G75*
G03*
X233248400Y-57683400I-787400J0D01*
G01*
D10*
X115466879Y-81315951D02*
X132822547Y-91336251D01*
X117238600Y-44153000D02*
X118254600Y-44153000D01*
X203695107Y-87597590D02*
X202907707Y-88384990D01*
X117238600Y-45403000D02*
X112496600Y-43153000D01*
D11*
X244805200Y-65405000D02*
X244805200Y-60299600D01*
D10*
X189962200Y-64277700D02*
G75*
G03*
X190749600Y-65065100I787400J0D01*
G01*
X178527800Y-43153600D02*
G75*
G03*
X177527800Y-44153600I0J-1000000D01*
G01*
X116746600Y-43153000D02*
X108246600Y-43153000D01*
D11*
X234035800Y-58470800D02*
X234035600Y-58724800D01*
D10*
X107539493Y-43445893D02*
X117453707Y-43445893D01*
X107539493Y-47360107D02*
X117453707Y-47360107D01*
D11*
X78700200Y-70815200D02*
G75*
G03*
X79487600Y-71602600I787400J0D01*
G01*
X101168200Y-66192400D02*
G75*
G03*
X101955600Y-65405000I0J787400D01*
G01*
D10*
X187535400Y-44729800D02*
X188551400Y-44729800D01*
X203695110Y-79525590D02*
G75*
G03*
X202907707Y-78738190I-787410J-10D01*
G01*
D11*
X91171800Y-58470800D02*
X91171600Y-58724800D01*
D10*
X107539493Y-47360107D02*
X107539493Y-43445893D01*
X104394000Y-57944000D02*
G75*
G03*
X103606600Y-58731400I0J-787400D01*
G01*
X177791600Y-46941000D02*
X187646800Y-46941000D01*
D11*
X101168200Y-59512200D02*
X91973400Y-59512200D01*
X244017800Y-59512200D02*
X234823000Y-59512200D01*
D10*
X190749600Y-65065100D02*
X189962200Y-64277700D01*
D11*
X91171600Y-58724800D02*
G75*
G03*
X91959000Y-59512200I787400J0D01*
G01*
D10*
X187519800Y-45403600D02*
X182777800Y-47653600D01*
D11*
X87706200Y-71602600D02*
G75*
G03*
X88493600Y-70815200I0J787400D01*
G01*
D10*
X187734907Y-43446493D02*
X187734907Y-47360707D01*
X115466887Y-81315938D02*
G75*
G03*
X114391268Y-81604160I-393687J-681962D01*
G01*
X106723000Y-46076800D02*
X107739000Y-46076800D01*
X161194242Y-91844251D02*
X178549910Y-81823951D01*
X188027800Y-44153600D02*
G75*
G03*
X187027800Y-43153600I-1000000J0D01*
G01*
X179625520Y-82112160D02*
G75*
G03*
X178549910Y-81823951I-681920J-393740D01*
G01*
D11*
X231343200Y-70815200D02*
X231343200Y-67005200D01*
D10*
X107246600Y-46653000D02*
G75*
G03*
X108246600Y-47653000I1000000J0D01*
G01*
X108246600Y-43153000D02*
G75*
G03*
X107246600Y-44153000I0J-1000000D01*
G01*
X133110787Y-92411880D02*
G75*
G03*
X132822547Y-91336252I-681987J393680D01*
G01*
X113258600Y-83032600D02*
X132352036Y-94056200D01*
D11*
X79502000Y-57683400D02*
X90398800Y-57683400D01*
D10*
X178035800Y-45403600D02*
X182777800Y-47653600D01*
X107510400Y-46940400D02*
X117365600Y-46940400D01*
X202907707Y-88385007D02*
G75*
G03*
X203695107Y-87597590I-7J787407D01*
G01*
X178035800Y-45403600D02*
X182777800Y-43153600D01*
D11*
X91186200Y-58470800D02*
G75*
G03*
X90398800Y-57683400I-787400J0D01*
G01*
D10*
X108178600Y-65065400D02*
G75*
G03*
X108966000Y-64278000I0J787400D01*
G01*
X106738600Y-44153000D02*
X107754600Y-44153000D01*
D11*
X222351600Y-71602600D02*
X230555800Y-71602600D01*
D10*
X117746600Y-44153000D02*
G75*
G03*
X116746600Y-43153000I-1000000J0D01*
G01*
X187519800Y-46653600D02*
X188535800Y-46653600D01*
X194861110Y-87597590D02*
G75*
G03*
X195648507Y-88384990I787390J-10D01*
G01*
X104637689Y-98497901D02*
G75*
G03*
X104925878Y-99573498I681911J-393699D01*
G01*
D11*
X79502000Y-57683400D02*
G75*
G03*
X78714600Y-58470800I0J-787400D01*
G01*
D10*
X104419400Y-65065400D02*
X103632000Y-64278000D01*
X177019800Y-44153600D02*
X178035800Y-44153600D01*
D11*
X89266600Y-66217800D02*
X101153800Y-66192400D01*
D10*
X189090910Y-100081499D02*
X171735242Y-110101799D01*
X178527800Y-47653600D02*
X187027800Y-47653600D01*
X190724200Y-57943700D02*
G75*
G03*
X189936800Y-58731100I0J-787400D01*
G01*
X117238600Y-45403000D02*
X112496600Y-47653000D01*
X187504200Y-46077400D02*
X188520200Y-46077400D01*
D11*
X87691800Y-71602600D02*
G75*
G03*
X88479200Y-70815200I0J787400D01*
G01*
D10*
X177019800Y-45403600D02*
X178035800Y-45403600D01*
X122281512Y-109593857D02*
G75*
G03*
X123357156Y-109305590I393688J681957D01*
G01*
D11*
X78700200Y-58470800D02*
X78700200Y-70815200D01*
X89281000Y-66217800D02*
X101168200Y-66192400D01*
D10*
X177820693Y-43446493D02*
X187734907Y-43446493D01*
D11*
X79502000Y-71602600D02*
X87706200Y-71602600D01*
D10*
X161194259Y-91844281D02*
G75*
G03*
X160906034Y-92919860I393741J-681919D01*
G01*
X190749600Y-65065100D02*
X194508800Y-65065100D01*
X187519800Y-44153600D02*
X188535800Y-44153600D01*
X187027800Y-47653600D02*
G75*
G03*
X188027800Y-46653600I0J1000000D01*
G01*
D11*
X232130600Y-66217800D02*
X244017800Y-66192400D01*
D10*
X177004200Y-46077400D02*
X178020200Y-46077400D01*
X107754600Y-45403000D02*
X112496600Y-47653000D01*
X92938600Y-79551400D02*
X92964000Y-87598000D01*
D11*
X222351600Y-57683400D02*
X233248400Y-57683400D01*
X221564200Y-58470800D02*
X221564200Y-70815200D01*
D10*
X177035400Y-44729800D02*
X178051400Y-44729800D01*
X104637670Y-98497890D02*
X114391268Y-81604160D01*
X103606600Y-58731400D02*
X103632000Y-64278000D01*
D11*
X101955600Y-60299600D02*
G75*
G03*
X101168200Y-59512200I-787400J0D01*
G01*
D10*
X122281546Y-109593799D02*
X104925878Y-99573499D01*
D11*
X88493600Y-70815200D02*
X88493600Y-67005200D01*
X89281000Y-66217800D02*
G75*
G03*
X88493600Y-67005200I0J-787400D01*
G01*
D10*
X101010600Y-88385400D02*
G75*
G03*
X101798000Y-87598000I0J787400D01*
G01*
X177820693Y-47360707D02*
X187734907Y-47360707D01*
D11*
X89266600Y-66217800D02*
G75*
G03*
X88479200Y-67005200I0J-787400D01*
G01*
D10*
X107754600Y-45403000D02*
X112496600Y-43153000D01*
X104419400Y-65065400D02*
X108178600Y-65065400D01*
X194861107Y-87597590D02*
X195648507Y-88384990D01*
X133110755Y-92411861D02*
X123357156Y-109305590D01*
D11*
X88479200Y-70815200D02*
X88479200Y-67005200D01*
X101941200Y-65405000D02*
X101941200Y-60299600D01*
D10*
X92964000Y-87598000D02*
G75*
G03*
X93751400Y-88385400I787400J0D01*
G01*
X101010600Y-78738600D02*
X93726000Y-78764000D01*
D11*
X78714600Y-58470800D02*
X78714600Y-70815200D01*
X78714600Y-70815200D02*
G75*
G03*
X79502000Y-71602600I787400J0D01*
G01*
X221564200Y-70815200D02*
G75*
G03*
X222351600Y-71602600I787400J0D01*
G01*
D10*
X194508800Y-57918300D02*
X190724200Y-57943700D01*
X195623107Y-78763607D02*
G75*
G03*
X194835707Y-79550990I-7J-787393D01*
G01*
X187519800Y-45403600D02*
X182777800Y-43153600D01*
X117453707Y-43445893D02*
X117453707Y-47360107D01*
X188027800Y-46653600D02*
X188027800Y-44153600D01*
D11*
X101153800Y-66192400D02*
G75*
G03*
X101941200Y-65405000I0J787400D01*
G01*
D10*
X106754200Y-44729200D02*
X107770200Y-44729200D01*
D11*
X79487600Y-57683400D02*
X90384400Y-57683400D01*
D10*
X195296200Y-64277700D02*
X194508800Y-65065100D01*
X189936800Y-58731100D02*
X189962200Y-64277700D01*
D11*
X101955600Y-65405000D02*
X101955600Y-60299600D01*
X230555800Y-71602600D02*
G75*
G03*
X231343200Y-70815200I0J787400D01*
G01*
D10*
X195296200Y-58705700D02*
G75*
G03*
X194508800Y-57918300I-787400J0D01*
G01*
X187519800Y-45403600D02*
X188535800Y-45403600D01*
X101798000Y-79526000D02*
G75*
G03*
X101010600Y-78738600I-787400J0D01*
G01*
X194508800Y-65065100D02*
G75*
G03*
X195296200Y-64277700I0J787400D01*
G01*
X107754600Y-46653000D02*
X117238600Y-46653000D01*
D11*
X256001580Y-94687695D02*
X257001580Y-94687695D01*
X257001580Y-94687695D02*
X257001580Y-94925790D01*
X257001580Y-94925790D02*
X256953961Y-95068647D01*
X256953961Y-95068647D02*
X256858723Y-95163885D01*
X256858723Y-95163885D02*
X256763485Y-95211504D01*
X256763485Y-95211504D02*
X256573009Y-95259123D01*
X256573009Y-95259123D02*
X256430152Y-95259123D01*
X256430152Y-95259123D02*
X256239676Y-95211504D01*
X256239676Y-95211504D02*
X256144438Y-95163885D01*
X256144438Y-95163885D02*
X256049200Y-95068647D01*
X256049200Y-95068647D02*
X256001580Y-94925790D01*
X256001580Y-94925790D02*
X256001580Y-94687695D01*
X256382533Y-95687695D02*
X256382533Y-96449600D01*
X101765123Y-62965000D02*
X100717504Y-62965000D01*
X101860361Y-63393571D02*
X100622266Y-63393571D01*
X101193695Y-64012619D02*
X100669885Y-64012619D01*
X101146076Y-63488809D02*
X101146076Y-63965000D01*
X101384171Y-63679285D02*
X101574647Y-63869761D01*
X101574647Y-63869761D02*
X101860361Y-64012619D01*
X100622266Y-63774523D02*
X100669885Y-64012619D01*
X101241314Y-62965000D02*
X101288933Y-63298333D01*
X101288933Y-63298333D02*
X101336552Y-63679285D01*
X99146076Y-63869761D02*
X99146076Y-64012619D01*
X100003219Y-63203095D02*
X100098457Y-63393571D01*
X100098457Y-63393571D02*
X100384171Y-63631666D01*
X99384171Y-64012619D02*
X99193695Y-64012619D01*
X99431790Y-62917380D02*
X99241314Y-63012619D01*
X100146076Y-62869761D02*
X100336552Y-63345952D01*
X99193695Y-63536428D02*
X99431790Y-63774523D01*
X99431790Y-63774523D02*
X99907981Y-64012619D01*
X99574648Y-63441190D02*
X99431790Y-63917380D01*
X100098457Y-63298333D02*
X100384171Y-63345952D01*
X99955600Y-63584047D02*
X100384171Y-63679285D01*
X99955600Y-63822142D02*
X100384171Y-63917380D01*
X99574648Y-62869761D02*
X99574648Y-63298333D01*
X99574648Y-63298333D02*
X99527029Y-63822142D01*
X99431790Y-63155476D02*
X99812743Y-63203095D01*
X99336552Y-63155476D02*
X99717505Y-63203095D01*
X99241314Y-63107857D02*
X99574648Y-63155476D01*
X99193695Y-63345952D02*
X99860362Y-63488809D01*
X98907981Y-63060238D02*
X97669886Y-63060238D01*
X98098458Y-64012619D02*
X97717505Y-64012619D01*
X98098458Y-63488809D02*
X98098458Y-64012619D01*
X98479410Y-63060238D02*
X98622267Y-63441190D01*
X98288934Y-62869761D02*
X98288934Y-63060238D01*
X97669886Y-63774523D02*
X97717505Y-64012619D01*
X98479410Y-63488809D02*
X98527029Y-63822142D01*
X98527029Y-63822142D02*
X98669886Y-63917380D01*
X98669886Y-63917380D02*
X98907981Y-64012619D01*
X98765124Y-63441190D02*
X97860362Y-63393571D01*
X97907981Y-63298333D02*
X97765124Y-63488809D01*
X97431791Y-63393571D02*
X96336553Y-63393571D01*
X97431791Y-63679285D02*
X96336553Y-63679285D01*
X96860363Y-64012619D02*
X96241315Y-64012619D01*
X97431791Y-63060238D02*
X97431791Y-63774523D01*
X96860363Y-62869761D02*
X96860363Y-64012619D01*
X97431791Y-63060238D02*
X96336553Y-63060238D01*
X96336553Y-63060238D02*
X96336553Y-63679285D01*
X96193696Y-63774523D02*
X96241315Y-64012619D01*
D12*
X183846438Y-45974057D02*
X183941676Y-45926438D01*
X183941676Y-45926438D02*
X184036914Y-45831200D01*
X184036914Y-45831200D02*
X184179771Y-45688342D01*
X184179771Y-45688342D02*
X184275009Y-45640723D01*
X184275009Y-45640723D02*
X184370247Y-45640723D01*
X184322628Y-45878819D02*
X184417866Y-45831200D01*
X184417866Y-45831200D02*
X184513104Y-45735961D01*
X184513104Y-45735961D02*
X184560723Y-45545485D01*
X184560723Y-45545485D02*
X184560723Y-45212152D01*
X184560723Y-45212152D02*
X184513104Y-45021676D01*
X184513104Y-45021676D02*
X184417866Y-44926438D01*
X184417866Y-44926438D02*
X184322628Y-44878819D01*
X184322628Y-44878819D02*
X184132152Y-44878819D01*
X184132152Y-44878819D02*
X184036914Y-44926438D01*
X184036914Y-44926438D02*
X183941676Y-45021676D01*
X183941676Y-45021676D02*
X183894057Y-45212152D01*
X183894057Y-45212152D02*
X183894057Y-45545485D01*
X183894057Y-45545485D02*
X183941676Y-45735961D01*
X183941676Y-45735961D02*
X184036914Y-45831200D01*
X184036914Y-45831200D02*
X184132152Y-45878819D01*
X184132152Y-45878819D02*
X184322628Y-45878819D01*
X183465485Y-45878819D02*
X183465485Y-44878819D01*
X183465485Y-45355009D02*
X182894057Y-45355009D01*
X182894057Y-45878819D02*
X182894057Y-44878819D01*
X182417866Y-45878819D02*
X182417866Y-44878819D01*
X181846438Y-45878819D02*
X182275009Y-45307390D01*
X181846438Y-44878819D02*
X182417866Y-45450247D01*
X181084533Y-45355009D02*
X180941676Y-45402628D01*
X180941676Y-45402628D02*
X180894057Y-45450247D01*
X180894057Y-45450247D02*
X180846438Y-45545485D01*
X180846438Y-45545485D02*
X180846438Y-45688342D01*
X180846438Y-45688342D02*
X180894057Y-45783580D01*
X180894057Y-45783580D02*
X180941676Y-45831200D01*
X180941676Y-45831200D02*
X181036914Y-45878819D01*
X181036914Y-45878819D02*
X181417866Y-45878819D01*
X181417866Y-45878819D02*
X181417866Y-44878819D01*
X181417866Y-44878819D02*
X181084533Y-44878819D01*
X181084533Y-44878819D02*
X180989295Y-44926438D01*
X180989295Y-44926438D02*
X180941676Y-44974057D01*
X180941676Y-44974057D02*
X180894057Y-45069295D01*
X180894057Y-45069295D02*
X180894057Y-45164533D01*
X180894057Y-45164533D02*
X180941676Y-45259771D01*
X180941676Y-45259771D02*
X180989295Y-45307390D01*
X180989295Y-45307390D02*
X181084533Y-45355009D01*
X181084533Y-45355009D02*
X181417866Y-45355009D01*
D11*
X20269580Y-47649095D02*
X21269580Y-47649095D01*
X21269580Y-47649095D02*
X21269580Y-47887190D01*
X21269580Y-47887190D02*
X21221961Y-48030047D01*
X21221961Y-48030047D02*
X21126723Y-48125285D01*
X21126723Y-48125285D02*
X21031485Y-48172904D01*
X21031485Y-48172904D02*
X20841009Y-48220523D01*
X20841009Y-48220523D02*
X20698152Y-48220523D01*
X20698152Y-48220523D02*
X20507676Y-48172904D01*
X20507676Y-48172904D02*
X20412438Y-48125285D01*
X20412438Y-48125285D02*
X20317200Y-48030047D01*
X20317200Y-48030047D02*
X20269580Y-47887190D01*
X20269580Y-47887190D02*
X20269580Y-47649095D01*
X20650533Y-48649095D02*
X20650533Y-49411000D01*
X20269580Y-49030047D02*
X21031485Y-49030047D01*
X244614723Y-62965000D02*
X243567104Y-62965000D01*
X244709961Y-63393571D02*
X243471866Y-63393571D01*
X244043295Y-64012619D02*
X243519485Y-64012619D01*
X243995676Y-63488809D02*
X243995676Y-63965000D01*
X244233771Y-63679285D02*
X244424247Y-63869761D01*
X244424247Y-63869761D02*
X244709961Y-64012619D01*
X243471866Y-63774523D02*
X243519485Y-64012619D01*
X244090914Y-62965000D02*
X244138533Y-63298333D01*
X244138533Y-63298333D02*
X244186152Y-63679285D01*
X241995676Y-63869761D02*
X241995676Y-64012619D01*
X242852819Y-63203095D02*
X242948057Y-63393571D01*
X242948057Y-63393571D02*
X243233771Y-63631666D01*
X242233771Y-64012619D02*
X242043295Y-64012619D01*
X242281390Y-62917380D02*
X242090914Y-63012619D01*
X242995676Y-62869761D02*
X243186152Y-63345952D01*
X242043295Y-63536428D02*
X242281390Y-63774523D01*
X242281390Y-63774523D02*
X242757581Y-64012619D01*
X242424248Y-63441190D02*
X242281390Y-63917380D01*
X242948057Y-63298333D02*
X243233771Y-63345952D01*
X242805200Y-63584047D02*
X243233771Y-63679285D01*
X242805200Y-63822142D02*
X243233771Y-63917380D01*
X242424248Y-62869761D02*
X242424248Y-63298333D01*
X242424248Y-63298333D02*
X242376629Y-63822142D01*
X242281390Y-63155476D02*
X242662343Y-63203095D01*
X242186152Y-63155476D02*
X242567105Y-63203095D01*
X242090914Y-63107857D02*
X242424248Y-63155476D01*
X242043295Y-63345952D02*
X242709962Y-63488809D01*
X241757581Y-63060238D02*
X240519486Y-63060238D01*
X240948058Y-64012619D02*
X240567105Y-64012619D01*
X240948058Y-63488809D02*
X240948058Y-64012619D01*
X241329010Y-63060238D02*
X241471867Y-63441190D01*
X241138534Y-62869761D02*
X241138534Y-63060238D01*
X240519486Y-63774523D02*
X240567105Y-64012619D01*
X241329010Y-63488809D02*
X241376629Y-63822142D01*
X241376629Y-63822142D02*
X241519486Y-63917380D01*
X241519486Y-63917380D02*
X241757581Y-64012619D01*
X241614724Y-63441190D02*
X240709962Y-63393571D01*
X240757581Y-63298333D02*
X240614724Y-63488809D01*
X240281391Y-63393571D02*
X239186153Y-63393571D01*
X240281391Y-63679285D02*
X239186153Y-63679285D01*
X239709963Y-64012619D02*
X239090915Y-64012619D01*
X240281391Y-63060238D02*
X240281391Y-63774523D01*
X239709963Y-62869761D02*
X239709963Y-64012619D01*
X240281391Y-63060238D02*
X239186153Y-63060238D01*
X239186153Y-63060238D02*
X239186153Y-63679285D01*
X239043296Y-63774523D02*
X239090915Y-64012619D01*
X34861904Y-92854438D02*
X34766666Y-92806819D01*
X34766666Y-92806819D02*
X34623809Y-92806819D01*
X34623809Y-92806819D02*
X34480952Y-92854438D01*
X34480952Y-92854438D02*
X34385714Y-92949676D01*
X34385714Y-92949676D02*
X34338095Y-93044914D01*
X34338095Y-93044914D02*
X34290476Y-93235390D01*
X34290476Y-93235390D02*
X34290476Y-93378247D01*
X34290476Y-93378247D02*
X34338095Y-93568723D01*
X34338095Y-93568723D02*
X34385714Y-93663961D01*
X34385714Y-93663961D02*
X34480952Y-93759200D01*
X34480952Y-93759200D02*
X34623809Y-93806819D01*
X34623809Y-93806819D02*
X34719047Y-93806819D01*
X34719047Y-93806819D02*
X34861904Y-93759200D01*
X34861904Y-93759200D02*
X34909523Y-93711580D01*
X34909523Y-93711580D02*
X34909523Y-93378247D01*
X34909523Y-93378247D02*
X34719047Y-93378247D01*
X35338095Y-93806819D02*
X35338095Y-92806819D01*
X35338095Y-92806819D02*
X35909523Y-93806819D01*
X35909523Y-93806819D02*
X35909523Y-92806819D01*
X36385714Y-93806819D02*
X36385714Y-92806819D01*
X36385714Y-92806819D02*
X36623809Y-92806819D01*
X36623809Y-92806819D02*
X36766666Y-92854438D01*
X36766666Y-92854438D02*
X36861904Y-92949676D01*
X36861904Y-92949676D02*
X36909523Y-93044914D01*
X36909523Y-93044914D02*
X36957142Y-93235390D01*
X36957142Y-93235390D02*
X36957142Y-93378247D01*
X36957142Y-93378247D02*
X36909523Y-93568723D01*
X36909523Y-93568723D02*
X36861904Y-93663961D01*
X36861904Y-93663961D02*
X36766666Y-93759200D01*
X36766666Y-93759200D02*
X36623809Y-93806819D01*
X36623809Y-93806819D02*
X36385714Y-93806819D01*
X117085094Y-84513926D02*
X117585094Y-83647900D01*
X117585094Y-83647900D02*
X116939276Y-84099823D01*
X116939276Y-84099823D02*
X117007744Y-83314567D01*
X117007744Y-83314567D02*
X116507744Y-84180593D01*
X115648099Y-83574304D02*
X115665528Y-83639353D01*
X115665528Y-83639353D02*
X115765437Y-83752021D01*
X115765437Y-83752021D02*
X115847915Y-83799640D01*
X115847915Y-83799640D02*
X115995443Y-83829829D01*
X115995443Y-83829829D02*
X116125541Y-83794970D01*
X116125541Y-83794970D02*
X116214399Y-83736301D01*
X116214399Y-83736301D02*
X116350876Y-83595153D01*
X116350876Y-83595153D02*
X116422305Y-83471435D01*
X116422305Y-83471435D02*
X116476304Y-83282668D01*
X116476304Y-83282668D02*
X116482683Y-83176380D01*
X116482683Y-83176380D02*
X116447824Y-83046283D01*
X116447824Y-83046283D02*
X116347915Y-82933615D01*
X116347915Y-82933615D02*
X116265437Y-82885996D01*
X116265437Y-82885996D02*
X116117909Y-82855807D01*
X116117909Y-82855807D02*
X116052861Y-82873236D01*
X115729326Y-82576472D02*
X115324564Y-83277540D01*
X115324564Y-83277540D02*
X115235706Y-83336209D01*
X115235706Y-83336209D02*
X115170657Y-83353639D01*
X115170657Y-83353639D02*
X115064369Y-83347259D01*
X115064369Y-83347259D02*
X114899411Y-83252021D01*
X114899411Y-83252021D02*
X114840742Y-83163163D01*
X114840742Y-83163163D02*
X114823313Y-83098114D01*
X114823313Y-83098114D02*
X114829692Y-82991826D01*
X114829692Y-82991826D02*
X115234454Y-82290758D01*
X270256304Y-45826638D02*
X270161066Y-45779019D01*
X270161066Y-45779019D02*
X270018209Y-45779019D01*
X270018209Y-45779019D02*
X269875352Y-45826638D01*
X269875352Y-45826638D02*
X269780114Y-45921876D01*
X269780114Y-45921876D02*
X269732495Y-46017114D01*
X269732495Y-46017114D02*
X269684876Y-46207590D01*
X269684876Y-46207590D02*
X269684876Y-46350447D01*
X269684876Y-46350447D02*
X269732495Y-46540923D01*
X269732495Y-46540923D02*
X269780114Y-46636161D01*
X269780114Y-46636161D02*
X269875352Y-46731400D01*
X269875352Y-46731400D02*
X270018209Y-46779019D01*
X270018209Y-46779019D02*
X270113447Y-46779019D01*
X270113447Y-46779019D02*
X270256304Y-46731400D01*
X270256304Y-46731400D02*
X270303923Y-46683780D01*
X270303923Y-46683780D02*
X270303923Y-46350447D01*
X270303923Y-46350447D02*
X270113447Y-46350447D01*
X270732495Y-46779019D02*
X270732495Y-45779019D01*
X270732495Y-45779019D02*
X271303923Y-46779019D01*
X271303923Y-46779019D02*
X271303923Y-45779019D01*
X271780114Y-46779019D02*
X271780114Y-45779019D01*
X271780114Y-45779019D02*
X272018209Y-45779019D01*
X272018209Y-45779019D02*
X272161066Y-45826638D01*
X272161066Y-45826638D02*
X272256304Y-45921876D01*
X272256304Y-45921876D02*
X272303923Y-46017114D01*
X272303923Y-46017114D02*
X272351542Y-46207590D01*
X272351542Y-46207590D02*
X272351542Y-46350447D01*
X272351542Y-46350447D02*
X272303923Y-46540923D01*
X272303923Y-46540923D02*
X272256304Y-46636161D01*
X272256304Y-46636161D02*
X272161066Y-46731400D01*
X272161066Y-46731400D02*
X272018209Y-46779019D01*
X272018209Y-46779019D02*
X271780114Y-46779019D01*
D12*
X113565238Y-45973457D02*
X113660476Y-45925838D01*
X113660476Y-45925838D02*
X113755714Y-45830600D01*
X113755714Y-45830600D02*
X113898571Y-45687742D01*
X113898571Y-45687742D02*
X113993809Y-45640123D01*
X113993809Y-45640123D02*
X114089047Y-45640123D01*
X114041428Y-45878219D02*
X114136666Y-45830600D01*
X114136666Y-45830600D02*
X114231904Y-45735361D01*
X114231904Y-45735361D02*
X114279523Y-45544885D01*
X114279523Y-45544885D02*
X114279523Y-45211552D01*
X114279523Y-45211552D02*
X114231904Y-45021076D01*
X114231904Y-45021076D02*
X114136666Y-44925838D01*
X114136666Y-44925838D02*
X114041428Y-44878219D01*
X114041428Y-44878219D02*
X113850952Y-44878219D01*
X113850952Y-44878219D02*
X113755714Y-44925838D01*
X113755714Y-44925838D02*
X113660476Y-45021076D01*
X113660476Y-45021076D02*
X113612857Y-45211552D01*
X113612857Y-45211552D02*
X113612857Y-45544885D01*
X113612857Y-45544885D02*
X113660476Y-45735361D01*
X113660476Y-45735361D02*
X113755714Y-45830600D01*
X113755714Y-45830600D02*
X113850952Y-45878219D01*
X113850952Y-45878219D02*
X114041428Y-45878219D01*
X113184285Y-45878219D02*
X113184285Y-44878219D01*
X113184285Y-45354409D02*
X112612857Y-45354409D01*
X112612857Y-45878219D02*
X112612857Y-44878219D01*
X112136666Y-45878219D02*
X112136666Y-44878219D01*
X111565238Y-45878219D02*
X111993809Y-45306790D01*
X111565238Y-44878219D02*
X112136666Y-45449647D01*
X110803333Y-45354409D02*
X110660476Y-45402028D01*
X110660476Y-45402028D02*
X110612857Y-45449647D01*
X110612857Y-45449647D02*
X110565238Y-45544885D01*
X110565238Y-45544885D02*
X110565238Y-45687742D01*
X110565238Y-45687742D02*
X110612857Y-45782980D01*
X110612857Y-45782980D02*
X110660476Y-45830600D01*
X110660476Y-45830600D02*
X110755714Y-45878219D01*
X110755714Y-45878219D02*
X111136666Y-45878219D01*
X111136666Y-45878219D02*
X111136666Y-44878219D01*
X111136666Y-44878219D02*
X110803333Y-44878219D01*
X110803333Y-44878219D02*
X110708095Y-44925838D01*
X110708095Y-44925838D02*
X110660476Y-44973457D01*
X110660476Y-44973457D02*
X110612857Y-45068695D01*
X110612857Y-45068695D02*
X110612857Y-45163933D01*
X110612857Y-45163933D02*
X110660476Y-45259171D01*
X110660476Y-45259171D02*
X110708095Y-45306790D01*
X110708095Y-45306790D02*
X110803333Y-45354409D01*
X110803333Y-45354409D02*
X111136666Y-45354409D01*
D11*
X193311914Y-64679319D02*
X193788104Y-64679319D01*
X193788104Y-64679319D02*
X193788104Y-63679319D01*
X192978580Y-64679319D02*
X192978580Y-63679319D01*
X192978580Y-63679319D02*
X192740485Y-63679319D01*
X192740485Y-63679319D02*
X192597628Y-63726938D01*
X192597628Y-63726938D02*
X192502390Y-63822176D01*
X192502390Y-63822176D02*
X192454771Y-63917414D01*
X192454771Y-63917414D02*
X192407152Y-64107890D01*
X192407152Y-64107890D02*
X192407152Y-64250747D01*
X192407152Y-64250747D02*
X192454771Y-64441223D01*
X192454771Y-64441223D02*
X192502390Y-64536461D01*
X192502390Y-64536461D02*
X192597628Y-64631700D01*
X192597628Y-64631700D02*
X192740485Y-64679319D01*
X192740485Y-64679319D02*
X192978580Y-64679319D01*
X191788104Y-63679319D02*
X191597628Y-63679319D01*
X191597628Y-63679319D02*
X191502390Y-63726938D01*
X191502390Y-63726938D02*
X191407152Y-63822176D01*
X191407152Y-63822176D02*
X191359533Y-64012652D01*
X191359533Y-64012652D02*
X191359533Y-64345985D01*
X191359533Y-64345985D02*
X191407152Y-64536461D01*
X191407152Y-64536461D02*
X191502390Y-64631700D01*
X191502390Y-64631700D02*
X191597628Y-64679319D01*
X191597628Y-64679319D02*
X191788104Y-64679319D01*
X191788104Y-64679319D02*
X191883342Y-64631700D01*
X191883342Y-64631700D02*
X191978580Y-64536461D01*
X191978580Y-64536461D02*
X192026199Y-64345985D01*
X192026199Y-64345985D02*
X192026199Y-64012652D01*
X192026199Y-64012652D02*
X191978580Y-63822176D01*
X191978580Y-63822176D02*
X191883342Y-63726938D01*
X191883342Y-63726938D02*
X191788104Y-63679319D01*
X278555838Y-45906019D02*
X278889171Y-46906019D01*
X278889171Y-46906019D02*
X279222504Y-45906019D01*
X279889171Y-46382209D02*
X280032028Y-46429828D01*
X280032028Y-46429828D02*
X280079647Y-46477447D01*
X280079647Y-46477447D02*
X280127266Y-46572685D01*
X280127266Y-46572685D02*
X280127266Y-46715542D01*
X280127266Y-46715542D02*
X280079647Y-46810780D01*
X280079647Y-46810780D02*
X280032028Y-46858400D01*
X280032028Y-46858400D02*
X279936790Y-46906019D01*
X279936790Y-46906019D02*
X279555838Y-46906019D01*
X279555838Y-46906019D02*
X279555838Y-45906019D01*
X279555838Y-45906019D02*
X279889171Y-45906019D01*
X279889171Y-45906019D02*
X279984409Y-45953638D01*
X279984409Y-45953638D02*
X280032028Y-46001257D01*
X280032028Y-46001257D02*
X280079647Y-46096495D01*
X280079647Y-46096495D02*
X280079647Y-46191733D01*
X280079647Y-46191733D02*
X280032028Y-46286971D01*
X280032028Y-46286971D02*
X279984409Y-46334590D01*
X279984409Y-46334590D02*
X279889171Y-46382209D01*
X279889171Y-46382209D02*
X279555838Y-46382209D01*
X280555838Y-45906019D02*
X280555838Y-46715542D01*
X280555838Y-46715542D02*
X280603457Y-46810780D01*
X280603457Y-46810780D02*
X280651076Y-46858400D01*
X280651076Y-46858400D02*
X280746314Y-46906019D01*
X280746314Y-46906019D02*
X280936790Y-46906019D01*
X280936790Y-46906019D02*
X281032028Y-46858400D01*
X281032028Y-46858400D02*
X281079647Y-46810780D01*
X281079647Y-46810780D02*
X281127266Y-46715542D01*
X281127266Y-46715542D02*
X281127266Y-45906019D01*
X281555838Y-46858400D02*
X281698695Y-46906019D01*
X281698695Y-46906019D02*
X281936790Y-46906019D01*
X281936790Y-46906019D02*
X282032028Y-46858400D01*
X282032028Y-46858400D02*
X282079647Y-46810780D01*
X282079647Y-46810780D02*
X282127266Y-46715542D01*
X282127266Y-46715542D02*
X282127266Y-46620304D01*
X282127266Y-46620304D02*
X282079647Y-46525066D01*
X282079647Y-46525066D02*
X282032028Y-46477447D01*
X282032028Y-46477447D02*
X281936790Y-46429828D01*
X281936790Y-46429828D02*
X281746314Y-46382209D01*
X281746314Y-46382209D02*
X281651076Y-46334590D01*
X281651076Y-46334590D02*
X281603457Y-46286971D01*
X281603457Y-46286971D02*
X281555838Y-46191733D01*
X281555838Y-46191733D02*
X281555838Y-46096495D01*
X281555838Y-46096495D02*
X281603457Y-46001257D01*
X281603457Y-46001257D02*
X281651076Y-45953638D01*
X281651076Y-45953638D02*
X281746314Y-45906019D01*
X281746314Y-45906019D02*
X281984409Y-45906019D01*
X281984409Y-45906019D02*
X282127266Y-45953638D01*
X164772877Y-92041821D02*
X164272877Y-91175796D01*
X164272877Y-91175796D02*
X164341345Y-91961052D01*
X164341345Y-91961052D02*
X163695527Y-91509129D01*
X163695527Y-91509129D02*
X164195527Y-92375154D01*
X163240644Y-92816485D02*
X163305692Y-92833915D01*
X163305692Y-92833915D02*
X163453220Y-92803726D01*
X163453220Y-92803726D02*
X163535698Y-92756107D01*
X163535698Y-92756107D02*
X163635607Y-92643439D01*
X163635607Y-92643439D02*
X163670466Y-92513341D01*
X163670466Y-92513341D02*
X163664087Y-92407053D01*
X163664087Y-92407053D02*
X163610088Y-92218286D01*
X163610088Y-92218286D02*
X163538659Y-92094568D01*
X163538659Y-92094568D02*
X163402182Y-91953421D01*
X163402182Y-91953421D02*
X163313324Y-91894752D01*
X163313324Y-91894752D02*
X163183226Y-91859892D01*
X163183226Y-91859892D02*
X163035698Y-91890081D01*
X163035698Y-91890081D02*
X162953220Y-91937700D01*
X162953220Y-91937700D02*
X162853311Y-92050368D01*
X162853311Y-92050368D02*
X162835882Y-92115417D01*
X162417109Y-92247224D02*
X162821871Y-92948292D01*
X162821871Y-92948292D02*
X162828251Y-93054581D01*
X162828251Y-93054581D02*
X162810821Y-93119629D01*
X162810821Y-93119629D02*
X162752152Y-93208488D01*
X162752152Y-93208488D02*
X162587194Y-93303726D01*
X162587194Y-93303726D02*
X162480906Y-93310106D01*
X162480906Y-93310106D02*
X162415857Y-93292676D01*
X162415857Y-93292676D02*
X162326999Y-93234007D01*
X162326999Y-93234007D02*
X161922237Y-92532938D01*
X257911580Y-94727695D02*
X258911580Y-94727695D01*
X258911580Y-94727695D02*
X258911580Y-94965790D01*
X258911580Y-94965790D02*
X258863961Y-95108647D01*
X258863961Y-95108647D02*
X258768723Y-95203885D01*
X258768723Y-95203885D02*
X258673485Y-95251504D01*
X258673485Y-95251504D02*
X258483009Y-95299123D01*
X258483009Y-95299123D02*
X258340152Y-95299123D01*
X258340152Y-95299123D02*
X258149676Y-95251504D01*
X258149676Y-95251504D02*
X258054438Y-95203885D01*
X258054438Y-95203885D02*
X257959200Y-95108647D01*
X257959200Y-95108647D02*
X257911580Y-94965790D01*
X257911580Y-94965790D02*
X257911580Y-94727695D01*
X258292533Y-95727695D02*
X258292533Y-96489600D01*
X257911580Y-96108647D02*
X258673485Y-96108647D01*
D10*
X144271857Y-41421628D02*
X143414714Y-41421628D01*
X143843285Y-41421628D02*
X143843285Y-39921628D01*
X143843285Y-39921628D02*
X143700428Y-40135914D01*
X143700428Y-40135914D02*
X143557571Y-40278771D01*
X143557571Y-40278771D02*
X143414714Y-40350200D01*
X144914713Y-41278771D02*
X144986142Y-41350200D01*
X144986142Y-41350200D02*
X144914713Y-41421628D01*
X144914713Y-41421628D02*
X144843285Y-41350200D01*
X144843285Y-41350200D02*
X144914713Y-41278771D01*
X144914713Y-41278771D02*
X144914713Y-41421628D01*
X145557571Y-40064485D02*
X145628999Y-39993057D01*
X145628999Y-39993057D02*
X145771857Y-39921628D01*
X145771857Y-39921628D02*
X146128999Y-39921628D01*
X146128999Y-39921628D02*
X146271857Y-39993057D01*
X146271857Y-39993057D02*
X146343285Y-40064485D01*
X146343285Y-40064485D02*
X146414714Y-40207342D01*
X146414714Y-40207342D02*
X146414714Y-40350200D01*
X146414714Y-40350200D02*
X146343285Y-40564485D01*
X146343285Y-40564485D02*
X145486142Y-41421628D01*
X145486142Y-41421628D02*
X146414714Y-41421628D01*
X147057570Y-41421628D02*
X147057570Y-40421628D01*
X147057570Y-40564485D02*
X147128999Y-40493057D01*
X147128999Y-40493057D02*
X147271856Y-40421628D01*
X147271856Y-40421628D02*
X147486142Y-40421628D01*
X147486142Y-40421628D02*
X147628999Y-40493057D01*
X147628999Y-40493057D02*
X147700428Y-40635914D01*
X147700428Y-40635914D02*
X147700428Y-41421628D01*
X147700428Y-40635914D02*
X147771856Y-40493057D01*
X147771856Y-40493057D02*
X147914713Y-40421628D01*
X147914713Y-40421628D02*
X148128999Y-40421628D01*
X148128999Y-40421628D02*
X148271856Y-40493057D01*
X148271856Y-40493057D02*
X148343285Y-40635914D01*
X148343285Y-40635914D02*
X148343285Y-41421628D01*
X149057570Y-41421628D02*
X149057570Y-40421628D01*
X149057570Y-40564485D02*
X149128999Y-40493057D01*
X149128999Y-40493057D02*
X149271856Y-40421628D01*
X149271856Y-40421628D02*
X149486142Y-40421628D01*
X149486142Y-40421628D02*
X149628999Y-40493057D01*
X149628999Y-40493057D02*
X149700428Y-40635914D01*
X149700428Y-40635914D02*
X149700428Y-41421628D01*
X149700428Y-40635914D02*
X149771856Y-40493057D01*
X149771856Y-40493057D02*
X149914713Y-40421628D01*
X149914713Y-40421628D02*
X150128999Y-40421628D01*
X150128999Y-40421628D02*
X150271856Y-40493057D01*
X150271856Y-40493057D02*
X150343285Y-40635914D01*
X150343285Y-40635914D02*
X150343285Y-41421628D01*
D11*
X18359580Y-47609095D02*
X19359580Y-47609095D01*
X19359580Y-47609095D02*
X19359580Y-47847190D01*
X19359580Y-47847190D02*
X19311961Y-47990047D01*
X19311961Y-47990047D02*
X19216723Y-48085285D01*
X19216723Y-48085285D02*
X19121485Y-48132904D01*
X19121485Y-48132904D02*
X18931009Y-48180523D01*
X18931009Y-48180523D02*
X18788152Y-48180523D01*
X18788152Y-48180523D02*
X18597676Y-48132904D01*
X18597676Y-48132904D02*
X18502438Y-48085285D01*
X18502438Y-48085285D02*
X18407200Y-47990047D01*
X18407200Y-47990047D02*
X18359580Y-47847190D01*
X18359580Y-47847190D02*
X18359580Y-47609095D01*
X18740533Y-48609095D02*
X18740533Y-49371000D01*
X260394438Y-92984619D02*
X260727771Y-93984619D01*
X260727771Y-93984619D02*
X261061104Y-92984619D01*
X261727771Y-93460809D02*
X261870628Y-93508428D01*
X261870628Y-93508428D02*
X261918247Y-93556047D01*
X261918247Y-93556047D02*
X261965866Y-93651285D01*
X261965866Y-93651285D02*
X261965866Y-93794142D01*
X261965866Y-93794142D02*
X261918247Y-93889380D01*
X261918247Y-93889380D02*
X261870628Y-93937000D01*
X261870628Y-93937000D02*
X261775390Y-93984619D01*
X261775390Y-93984619D02*
X261394438Y-93984619D01*
X261394438Y-93984619D02*
X261394438Y-92984619D01*
X261394438Y-92984619D02*
X261727771Y-92984619D01*
X261727771Y-92984619D02*
X261823009Y-93032238D01*
X261823009Y-93032238D02*
X261870628Y-93079857D01*
X261870628Y-93079857D02*
X261918247Y-93175095D01*
X261918247Y-93175095D02*
X261918247Y-93270333D01*
X261918247Y-93270333D02*
X261870628Y-93365571D01*
X261870628Y-93365571D02*
X261823009Y-93413190D01*
X261823009Y-93413190D02*
X261727771Y-93460809D01*
X261727771Y-93460809D02*
X261394438Y-93460809D01*
X262394438Y-92984619D02*
X262394438Y-93794142D01*
X262394438Y-93794142D02*
X262442057Y-93889380D01*
X262442057Y-93889380D02*
X262489676Y-93937000D01*
X262489676Y-93937000D02*
X262584914Y-93984619D01*
X262584914Y-93984619D02*
X262775390Y-93984619D01*
X262775390Y-93984619D02*
X262870628Y-93937000D01*
X262870628Y-93937000D02*
X262918247Y-93889380D01*
X262918247Y-93889380D02*
X262965866Y-93794142D01*
X262965866Y-93794142D02*
X262965866Y-92984619D01*
X263394438Y-93937000D02*
X263537295Y-93984619D01*
X263537295Y-93984619D02*
X263775390Y-93984619D01*
X263775390Y-93984619D02*
X263870628Y-93937000D01*
X263870628Y-93937000D02*
X263918247Y-93889380D01*
X263918247Y-93889380D02*
X263965866Y-93794142D01*
X263965866Y-93794142D02*
X263965866Y-93698904D01*
X263965866Y-93698904D02*
X263918247Y-93603666D01*
X263918247Y-93603666D02*
X263870628Y-93556047D01*
X263870628Y-93556047D02*
X263775390Y-93508428D01*
X263775390Y-93508428D02*
X263584914Y-93460809D01*
X263584914Y-93460809D02*
X263489676Y-93413190D01*
X263489676Y-93413190D02*
X263442057Y-93365571D01*
X263442057Y-93365571D02*
X263394438Y-93270333D01*
X263394438Y-93270333D02*
X263394438Y-93175095D01*
X263394438Y-93175095D02*
X263442057Y-93079857D01*
X263442057Y-93079857D02*
X263489676Y-93032238D01*
X263489676Y-93032238D02*
X263584914Y-92984619D01*
X263584914Y-92984619D02*
X263823009Y-92984619D01*
X263823009Y-92984619D02*
X263965866Y-93032238D01*
X43199038Y-92984619D02*
X43532371Y-93984619D01*
X43532371Y-93984619D02*
X43865704Y-92984619D01*
X44532371Y-93460809D02*
X44675228Y-93508428D01*
X44675228Y-93508428D02*
X44722847Y-93556047D01*
X44722847Y-93556047D02*
X44770466Y-93651285D01*
X44770466Y-93651285D02*
X44770466Y-93794142D01*
X44770466Y-93794142D02*
X44722847Y-93889380D01*
X44722847Y-93889380D02*
X44675228Y-93937000D01*
X44675228Y-93937000D02*
X44579990Y-93984619D01*
X44579990Y-93984619D02*
X44199038Y-93984619D01*
X44199038Y-93984619D02*
X44199038Y-92984619D01*
X44199038Y-92984619D02*
X44532371Y-92984619D01*
X44532371Y-92984619D02*
X44627609Y-93032238D01*
X44627609Y-93032238D02*
X44675228Y-93079857D01*
X44675228Y-93079857D02*
X44722847Y-93175095D01*
X44722847Y-93175095D02*
X44722847Y-93270333D01*
X44722847Y-93270333D02*
X44675228Y-93365571D01*
X44675228Y-93365571D02*
X44627609Y-93413190D01*
X44627609Y-93413190D02*
X44532371Y-93460809D01*
X44532371Y-93460809D02*
X44199038Y-93460809D01*
X45199038Y-92984619D02*
X45199038Y-93794142D01*
X45199038Y-93794142D02*
X45246657Y-93889380D01*
X45246657Y-93889380D02*
X45294276Y-93937000D01*
X45294276Y-93937000D02*
X45389514Y-93984619D01*
X45389514Y-93984619D02*
X45579990Y-93984619D01*
X45579990Y-93984619D02*
X45675228Y-93937000D01*
X45675228Y-93937000D02*
X45722847Y-93889380D01*
X45722847Y-93889380D02*
X45770466Y-93794142D01*
X45770466Y-93794142D02*
X45770466Y-92984619D01*
X46199038Y-93937000D02*
X46341895Y-93984619D01*
X46341895Y-93984619D02*
X46579990Y-93984619D01*
X46579990Y-93984619D02*
X46675228Y-93937000D01*
X46675228Y-93937000D02*
X46722847Y-93889380D01*
X46722847Y-93889380D02*
X46770466Y-93794142D01*
X46770466Y-93794142D02*
X46770466Y-93698904D01*
X46770466Y-93698904D02*
X46722847Y-93603666D01*
X46722847Y-93603666D02*
X46675228Y-93556047D01*
X46675228Y-93556047D02*
X46579990Y-93508428D01*
X46579990Y-93508428D02*
X46389514Y-93460809D01*
X46389514Y-93460809D02*
X46294276Y-93413190D01*
X46294276Y-93413190D02*
X46246657Y-93365571D01*
X46246657Y-93365571D02*
X46199038Y-93270333D01*
X46199038Y-93270333D02*
X46199038Y-93175095D01*
X46199038Y-93175095D02*
X46246657Y-93079857D01*
X46246657Y-93079857D02*
X46294276Y-93032238D01*
X46294276Y-93032238D02*
X46389514Y-92984619D01*
X46389514Y-92984619D02*
X46627609Y-92984619D01*
X46627609Y-92984619D02*
X46770466Y-93032238D01*
D10*
X203430449Y-79464247D02*
X201573307Y-79464247D01*
X202216164Y-80892818D02*
X201644735Y-80892818D01*
X202216164Y-80107104D02*
X202216164Y-80892818D01*
X202787592Y-79464247D02*
X203001878Y-80035675D01*
X202501878Y-79178532D02*
X202501878Y-79464247D01*
X201573307Y-80535675D02*
X201644735Y-80892818D01*
X202787592Y-80107104D02*
X202859021Y-80607104D01*
X202859021Y-80607104D02*
X203073307Y-80749961D01*
X203073307Y-80749961D02*
X203430449Y-80892818D01*
X203216164Y-80035675D02*
X201859021Y-79964247D01*
X201930449Y-79821390D02*
X201716164Y-80107104D01*
X201216163Y-79964247D02*
X199573306Y-79964247D01*
X201216163Y-80392818D02*
X199573306Y-80392818D01*
X200359021Y-80892818D02*
X199430449Y-80892818D01*
X201216163Y-79464247D02*
X201216163Y-80535675D01*
X200359021Y-79178532D02*
X200359021Y-80892818D01*
X201216163Y-79464247D02*
X199573306Y-79464247D01*
X199573306Y-79464247D02*
X199573306Y-80392818D01*
X199359021Y-80535675D02*
X199430449Y-80892818D01*
X198359020Y-79392818D02*
X197144735Y-79392818D01*
X199001877Y-79607104D02*
X198430449Y-79607104D01*
X198216163Y-79892818D02*
X197287592Y-79892818D01*
X198216163Y-80178532D02*
X197287592Y-80178532D01*
X198430449Y-80464247D02*
X197144735Y-80464247D01*
X198644735Y-79178532D02*
X198644735Y-80892818D01*
X198216163Y-79678532D02*
X198216163Y-80178532D01*
X198001877Y-79178532D02*
X198001877Y-79535675D01*
X197501877Y-79178532D02*
X197501877Y-79535675D01*
X198216163Y-79678532D02*
X197287592Y-79678532D01*
X197287592Y-79678532D02*
X197287592Y-80178532D01*
X198716163Y-79607104D02*
X198501877Y-80107104D01*
X197787592Y-80392818D02*
X197501877Y-80749961D01*
X197501877Y-80749961D02*
X197144735Y-80892818D01*
X198716163Y-79535675D02*
X198930449Y-80392818D01*
X197787592Y-80178532D02*
X197930449Y-80607104D01*
X197930449Y-80607104D02*
X198073306Y-80749961D01*
X198073306Y-80749961D02*
X198430449Y-80892818D01*
X196787591Y-79678532D02*
X196216163Y-79678532D01*
X196144734Y-80107104D02*
X194930449Y-80107104D01*
X196501877Y-79249961D02*
X196501877Y-80464247D01*
X196073306Y-79535675D02*
X195144734Y-79535675D01*
X195144734Y-79535675D02*
X195144734Y-80107104D01*
X195430449Y-80464247D02*
X195073306Y-80892818D01*
X195716163Y-80464247D02*
X196073306Y-80821390D01*
X195573306Y-79249961D02*
X195573306Y-80107104D01*
X195573306Y-80107104D02*
X195287591Y-80678532D01*
X195573306Y-80107104D02*
X195859020Y-80678532D01*
X196216163Y-80321390D02*
X196787591Y-80535675D01*
X195573306Y-79821390D02*
X195644734Y-80464247D01*
D11*
X14452904Y-45826638D02*
X14357666Y-45779019D01*
X14357666Y-45779019D02*
X14214809Y-45779019D01*
X14214809Y-45779019D02*
X14071952Y-45826638D01*
X14071952Y-45826638D02*
X13976714Y-45921876D01*
X13976714Y-45921876D02*
X13929095Y-46017114D01*
X13929095Y-46017114D02*
X13881476Y-46207590D01*
X13881476Y-46207590D02*
X13881476Y-46350447D01*
X13881476Y-46350447D02*
X13929095Y-46540923D01*
X13929095Y-46540923D02*
X13976714Y-46636161D01*
X13976714Y-46636161D02*
X14071952Y-46731400D01*
X14071952Y-46731400D02*
X14214809Y-46779019D01*
X14214809Y-46779019D02*
X14310047Y-46779019D01*
X14310047Y-46779019D02*
X14452904Y-46731400D01*
X14452904Y-46731400D02*
X14500523Y-46683780D01*
X14500523Y-46683780D02*
X14500523Y-46350447D01*
X14500523Y-46350447D02*
X14310047Y-46350447D01*
X14929095Y-46779019D02*
X14929095Y-45779019D01*
X14929095Y-45779019D02*
X15500523Y-46779019D01*
X15500523Y-46779019D02*
X15500523Y-45779019D01*
X15976714Y-46779019D02*
X15976714Y-45779019D01*
X15976714Y-45779019D02*
X16214809Y-45779019D01*
X16214809Y-45779019D02*
X16357666Y-45826638D01*
X16357666Y-45826638D02*
X16452904Y-45921876D01*
X16452904Y-45921876D02*
X16500523Y-46017114D01*
X16500523Y-46017114D02*
X16548142Y-46207590D01*
X16548142Y-46207590D02*
X16548142Y-46350447D01*
X16548142Y-46350447D02*
X16500523Y-46540923D01*
X16500523Y-46540923D02*
X16452904Y-46636161D01*
X16452904Y-46636161D02*
X16357666Y-46731400D01*
X16357666Y-46731400D02*
X16214809Y-46779019D01*
X16214809Y-46779019D02*
X15976714Y-46779019D01*
X252094904Y-92905238D02*
X251999666Y-92857619D01*
X251999666Y-92857619D02*
X251856809Y-92857619D01*
X251856809Y-92857619D02*
X251713952Y-92905238D01*
X251713952Y-92905238D02*
X251618714Y-93000476D01*
X251618714Y-93000476D02*
X251571095Y-93095714D01*
X251571095Y-93095714D02*
X251523476Y-93286190D01*
X251523476Y-93286190D02*
X251523476Y-93429047D01*
X251523476Y-93429047D02*
X251571095Y-93619523D01*
X251571095Y-93619523D02*
X251618714Y-93714761D01*
X251618714Y-93714761D02*
X251713952Y-93810000D01*
X251713952Y-93810000D02*
X251856809Y-93857619D01*
X251856809Y-93857619D02*
X251952047Y-93857619D01*
X251952047Y-93857619D02*
X252094904Y-93810000D01*
X252094904Y-93810000D02*
X252142523Y-93762380D01*
X252142523Y-93762380D02*
X252142523Y-93429047D01*
X252142523Y-93429047D02*
X251952047Y-93429047D01*
X252571095Y-93857619D02*
X252571095Y-92857619D01*
X252571095Y-92857619D02*
X253142523Y-93857619D01*
X253142523Y-93857619D02*
X253142523Y-92857619D01*
X253618714Y-93857619D02*
X253618714Y-92857619D01*
X253618714Y-92857619D02*
X253856809Y-92857619D01*
X253856809Y-92857619D02*
X253999666Y-92905238D01*
X253999666Y-92905238D02*
X254094904Y-93000476D01*
X254094904Y-93000476D02*
X254142523Y-93095714D01*
X254142523Y-93095714D02*
X254190142Y-93286190D01*
X254190142Y-93286190D02*
X254190142Y-93429047D01*
X254190142Y-93429047D02*
X254142523Y-93619523D01*
X254142523Y-93619523D02*
X254094904Y-93714761D01*
X254094904Y-93714761D02*
X253999666Y-93810000D01*
X253999666Y-93810000D02*
X253856809Y-93857619D01*
X253856809Y-93857619D02*
X253618714Y-93857619D01*
X38762380Y-94658095D02*
X39762380Y-94658095D01*
X39762380Y-94658095D02*
X39762380Y-94896190D01*
X39762380Y-94896190D02*
X39714761Y-95039047D01*
X39714761Y-95039047D02*
X39619523Y-95134285D01*
X39619523Y-95134285D02*
X39524285Y-95181904D01*
X39524285Y-95181904D02*
X39333809Y-95229523D01*
X39333809Y-95229523D02*
X39190952Y-95229523D01*
X39190952Y-95229523D02*
X39000476Y-95181904D01*
X39000476Y-95181904D02*
X38905238Y-95134285D01*
X38905238Y-95134285D02*
X38810000Y-95039047D01*
X38810000Y-95039047D02*
X38762380Y-94896190D01*
X38762380Y-94896190D02*
X38762380Y-94658095D01*
X39143333Y-95658095D02*
X39143333Y-96420000D01*
X22752438Y-45906019D02*
X23085771Y-46906019D01*
X23085771Y-46906019D02*
X23419104Y-45906019D01*
X24085771Y-46382209D02*
X24228628Y-46429828D01*
X24228628Y-46429828D02*
X24276247Y-46477447D01*
X24276247Y-46477447D02*
X24323866Y-46572685D01*
X24323866Y-46572685D02*
X24323866Y-46715542D01*
X24323866Y-46715542D02*
X24276247Y-46810780D01*
X24276247Y-46810780D02*
X24228628Y-46858400D01*
X24228628Y-46858400D02*
X24133390Y-46906019D01*
X24133390Y-46906019D02*
X23752438Y-46906019D01*
X23752438Y-46906019D02*
X23752438Y-45906019D01*
X23752438Y-45906019D02*
X24085771Y-45906019D01*
X24085771Y-45906019D02*
X24181009Y-45953638D01*
X24181009Y-45953638D02*
X24228628Y-46001257D01*
X24228628Y-46001257D02*
X24276247Y-46096495D01*
X24276247Y-46096495D02*
X24276247Y-46191733D01*
X24276247Y-46191733D02*
X24228628Y-46286971D01*
X24228628Y-46286971D02*
X24181009Y-46334590D01*
X24181009Y-46334590D02*
X24085771Y-46382209D01*
X24085771Y-46382209D02*
X23752438Y-46382209D01*
X24752438Y-45906019D02*
X24752438Y-46715542D01*
X24752438Y-46715542D02*
X24800057Y-46810780D01*
X24800057Y-46810780D02*
X24847676Y-46858400D01*
X24847676Y-46858400D02*
X24942914Y-46906019D01*
X24942914Y-46906019D02*
X25133390Y-46906019D01*
X25133390Y-46906019D02*
X25228628Y-46858400D01*
X25228628Y-46858400D02*
X25276247Y-46810780D01*
X25276247Y-46810780D02*
X25323866Y-46715542D01*
X25323866Y-46715542D02*
X25323866Y-45906019D01*
X25752438Y-46858400D02*
X25895295Y-46906019D01*
X25895295Y-46906019D02*
X26133390Y-46906019D01*
X26133390Y-46906019D02*
X26228628Y-46858400D01*
X26228628Y-46858400D02*
X26276247Y-46810780D01*
X26276247Y-46810780D02*
X26323866Y-46715542D01*
X26323866Y-46715542D02*
X26323866Y-46620304D01*
X26323866Y-46620304D02*
X26276247Y-46525066D01*
X26276247Y-46525066D02*
X26228628Y-46477447D01*
X26228628Y-46477447D02*
X26133390Y-46429828D01*
X26133390Y-46429828D02*
X25942914Y-46382209D01*
X25942914Y-46382209D02*
X25847676Y-46334590D01*
X25847676Y-46334590D02*
X25800057Y-46286971D01*
X25800057Y-46286971D02*
X25752438Y-46191733D01*
X25752438Y-46191733D02*
X25752438Y-46096495D01*
X25752438Y-46096495D02*
X25800057Y-46001257D01*
X25800057Y-46001257D02*
X25847676Y-45953638D01*
X25847676Y-45953638D02*
X25942914Y-45906019D01*
X25942914Y-45906019D02*
X26181009Y-45906019D01*
X26181009Y-45906019D02*
X26323866Y-45953638D01*
X40672380Y-94698095D02*
X41672380Y-94698095D01*
X41672380Y-94698095D02*
X41672380Y-94936190D01*
X41672380Y-94936190D02*
X41624761Y-95079047D01*
X41624761Y-95079047D02*
X41529523Y-95174285D01*
X41529523Y-95174285D02*
X41434285Y-95221904D01*
X41434285Y-95221904D02*
X41243809Y-95269523D01*
X41243809Y-95269523D02*
X41100952Y-95269523D01*
X41100952Y-95269523D02*
X40910476Y-95221904D01*
X40910476Y-95221904D02*
X40815238Y-95174285D01*
X40815238Y-95174285D02*
X40720000Y-95079047D01*
X40720000Y-95079047D02*
X40672380Y-94936190D01*
X40672380Y-94936190D02*
X40672380Y-94698095D01*
X41053333Y-95698095D02*
X41053333Y-96460000D01*
X40672380Y-96079047D02*
X41434285Y-96079047D01*
X274162980Y-47609095D02*
X275162980Y-47609095D01*
X275162980Y-47609095D02*
X275162980Y-47847190D01*
X275162980Y-47847190D02*
X275115361Y-47990047D01*
X275115361Y-47990047D02*
X275020123Y-48085285D01*
X275020123Y-48085285D02*
X274924885Y-48132904D01*
X274924885Y-48132904D02*
X274734409Y-48180523D01*
X274734409Y-48180523D02*
X274591552Y-48180523D01*
X274591552Y-48180523D02*
X274401076Y-48132904D01*
X274401076Y-48132904D02*
X274305838Y-48085285D01*
X274305838Y-48085285D02*
X274210600Y-47990047D01*
X274210600Y-47990047D02*
X274162980Y-47847190D01*
X274162980Y-47847190D02*
X274162980Y-47609095D01*
X274543933Y-48609095D02*
X274543933Y-49371000D01*
D10*
X140282514Y-32149228D02*
X140282514Y-33220657D01*
X140282514Y-33220657D02*
X140211085Y-33434942D01*
X140211085Y-33434942D02*
X140068228Y-33577800D01*
X140068228Y-33577800D02*
X139853942Y-33649228D01*
X139853942Y-33649228D02*
X139711085Y-33649228D01*
X141711085Y-33649228D02*
X140996799Y-33649228D01*
X140996799Y-33649228D02*
X140996799Y-32149228D01*
X143068228Y-33506371D02*
X142996800Y-33577800D01*
X142996800Y-33577800D02*
X142782514Y-33649228D01*
X142782514Y-33649228D02*
X142639657Y-33649228D01*
X142639657Y-33649228D02*
X142425371Y-33577800D01*
X142425371Y-33577800D02*
X142282514Y-33434942D01*
X142282514Y-33434942D02*
X142211085Y-33292085D01*
X142211085Y-33292085D02*
X142139657Y-33006371D01*
X142139657Y-33006371D02*
X142139657Y-32792085D01*
X142139657Y-32792085D02*
X142211085Y-32506371D01*
X142211085Y-32506371D02*
X142282514Y-32363514D01*
X142282514Y-32363514D02*
X142425371Y-32220657D01*
X142425371Y-32220657D02*
X142639657Y-32149228D01*
X142639657Y-32149228D02*
X142782514Y-32149228D01*
X142782514Y-32149228D02*
X142996800Y-32220657D01*
X142996800Y-32220657D02*
X143068228Y-32292085D01*
X144139657Y-32149228D02*
X144139657Y-33220657D01*
X144139657Y-33220657D02*
X144068228Y-33434942D01*
X144068228Y-33434942D02*
X143925371Y-33577800D01*
X143925371Y-33577800D02*
X143711085Y-33649228D01*
X143711085Y-33649228D02*
X143568228Y-33649228D01*
X145568228Y-33649228D02*
X144853942Y-33649228D01*
X144853942Y-33649228D02*
X144853942Y-32149228D01*
X146925371Y-33506371D02*
X146853943Y-33577800D01*
X146853943Y-33577800D02*
X146639657Y-33649228D01*
X146639657Y-33649228D02*
X146496800Y-33649228D01*
X146496800Y-33649228D02*
X146282514Y-33577800D01*
X146282514Y-33577800D02*
X146139657Y-33434942D01*
X146139657Y-33434942D02*
X146068228Y-33292085D01*
X146068228Y-33292085D02*
X145996800Y-33006371D01*
X145996800Y-33006371D02*
X145996800Y-32792085D01*
X145996800Y-32792085D02*
X146068228Y-32506371D01*
X146068228Y-32506371D02*
X146139657Y-32363514D01*
X146139657Y-32363514D02*
X146282514Y-32220657D01*
X146282514Y-32220657D02*
X146496800Y-32149228D01*
X146496800Y-32149228D02*
X146639657Y-32149228D01*
X146639657Y-32149228D02*
X146853943Y-32220657D01*
X146853943Y-32220657D02*
X146925371Y-32292085D01*
X147996800Y-32149228D02*
X147996800Y-33220657D01*
X147996800Y-33220657D02*
X147925371Y-33434942D01*
X147925371Y-33434942D02*
X147782514Y-33577800D01*
X147782514Y-33577800D02*
X147568228Y-33649228D01*
X147568228Y-33649228D02*
X147425371Y-33649228D01*
X149425371Y-33649228D02*
X148711085Y-33649228D01*
X148711085Y-33649228D02*
X148711085Y-32149228D01*
X150782514Y-33506371D02*
X150711086Y-33577800D01*
X150711086Y-33577800D02*
X150496800Y-33649228D01*
X150496800Y-33649228D02*
X150353943Y-33649228D01*
X150353943Y-33649228D02*
X150139657Y-33577800D01*
X150139657Y-33577800D02*
X149996800Y-33434942D01*
X149996800Y-33434942D02*
X149925371Y-33292085D01*
X149925371Y-33292085D02*
X149853943Y-33006371D01*
X149853943Y-33006371D02*
X149853943Y-32792085D01*
X149853943Y-32792085D02*
X149925371Y-32506371D01*
X149925371Y-32506371D02*
X149996800Y-32363514D01*
X149996800Y-32363514D02*
X150139657Y-32220657D01*
X150139657Y-32220657D02*
X150353943Y-32149228D01*
X150353943Y-32149228D02*
X150496800Y-32149228D01*
X150496800Y-32149228D02*
X150711086Y-32220657D01*
X150711086Y-32220657D02*
X150782514Y-32292085D01*
X151853943Y-32149228D02*
X151853943Y-33220657D01*
X151853943Y-33220657D02*
X151782514Y-33434942D01*
X151782514Y-33434942D02*
X151639657Y-33577800D01*
X151639657Y-33577800D02*
X151425371Y-33649228D01*
X151425371Y-33649228D02*
X151282514Y-33649228D01*
X153282514Y-33649228D02*
X152568228Y-33649228D01*
X152568228Y-33649228D02*
X152568228Y-32149228D01*
X154639657Y-33506371D02*
X154568229Y-33577800D01*
X154568229Y-33577800D02*
X154353943Y-33649228D01*
X154353943Y-33649228D02*
X154211086Y-33649228D01*
X154211086Y-33649228D02*
X153996800Y-33577800D01*
X153996800Y-33577800D02*
X153853943Y-33434942D01*
X153853943Y-33434942D02*
X153782514Y-33292085D01*
X153782514Y-33292085D02*
X153711086Y-33006371D01*
X153711086Y-33006371D02*
X153711086Y-32792085D01*
X153711086Y-32792085D02*
X153782514Y-32506371D01*
X153782514Y-32506371D02*
X153853943Y-32363514D01*
X153853943Y-32363514D02*
X153996800Y-32220657D01*
X153996800Y-32220657D02*
X154211086Y-32149228D01*
X154211086Y-32149228D02*
X154353943Y-32149228D01*
X154353943Y-32149228D02*
X154568229Y-32220657D01*
X154568229Y-32220657D02*
X154639657Y-32292085D01*
D11*
X276072980Y-47649095D02*
X277072980Y-47649095D01*
X277072980Y-47649095D02*
X277072980Y-47887190D01*
X277072980Y-47887190D02*
X277025361Y-48030047D01*
X277025361Y-48030047D02*
X276930123Y-48125285D01*
X276930123Y-48125285D02*
X276834885Y-48172904D01*
X276834885Y-48172904D02*
X276644409Y-48220523D01*
X276644409Y-48220523D02*
X276501552Y-48220523D01*
X276501552Y-48220523D02*
X276311076Y-48172904D01*
X276311076Y-48172904D02*
X276215838Y-48125285D01*
X276215838Y-48125285D02*
X276120600Y-48030047D01*
X276120600Y-48030047D02*
X276072980Y-47887190D01*
X276072980Y-47887190D02*
X276072980Y-47649095D01*
X276453933Y-48649095D02*
X276453933Y-49411000D01*
X276072980Y-49030047D02*
X276834885Y-49030047D01*
X106981714Y-64679619D02*
X107457904Y-64679619D01*
X107457904Y-64679619D02*
X107457904Y-63679619D01*
X106648380Y-64679619D02*
X106648380Y-63679619D01*
X106648380Y-63679619D02*
X106410285Y-63679619D01*
X106410285Y-63679619D02*
X106267428Y-63727238D01*
X106267428Y-63727238D02*
X106172190Y-63822476D01*
X106172190Y-63822476D02*
X106124571Y-63917714D01*
X106124571Y-63917714D02*
X106076952Y-64108190D01*
X106076952Y-64108190D02*
X106076952Y-64251047D01*
X106076952Y-64251047D02*
X106124571Y-64441523D01*
X106124571Y-64441523D02*
X106172190Y-64536761D01*
X106172190Y-64536761D02*
X106267428Y-64632000D01*
X106267428Y-64632000D02*
X106410285Y-64679619D01*
X106410285Y-64679619D02*
X106648380Y-64679619D01*
X105457904Y-63679619D02*
X105267428Y-63679619D01*
X105267428Y-63679619D02*
X105172190Y-63727238D01*
X105172190Y-63727238D02*
X105076952Y-63822476D01*
X105076952Y-63822476D02*
X105029333Y-64012952D01*
X105029333Y-64012952D02*
X105029333Y-64346285D01*
X105029333Y-64346285D02*
X105076952Y-64536761D01*
X105076952Y-64536761D02*
X105172190Y-64632000D01*
X105172190Y-64632000D02*
X105267428Y-64679619D01*
X105267428Y-64679619D02*
X105457904Y-64679619D01*
X105457904Y-64679619D02*
X105553142Y-64632000D01*
X105553142Y-64632000D02*
X105648380Y-64536761D01*
X105648380Y-64536761D02*
X105695999Y-64346285D01*
X105695999Y-64346285D02*
X105695999Y-64012952D01*
X105695999Y-64012952D02*
X105648380Y-63822476D01*
X105648380Y-63822476D02*
X105553142Y-63727238D01*
X105553142Y-63727238D02*
X105457904Y-63679619D01*
D10*
X101533342Y-79464657D02*
X99676200Y-79464657D01*
X100319057Y-80893228D02*
X99747628Y-80893228D01*
X100319057Y-80107514D02*
X100319057Y-80893228D01*
X100890485Y-79464657D02*
X101104771Y-80036085D01*
X100604771Y-79178942D02*
X100604771Y-79464657D01*
X99676200Y-80536085D02*
X99747628Y-80893228D01*
X100890485Y-80107514D02*
X100961914Y-80607514D01*
X100961914Y-80607514D02*
X101176200Y-80750371D01*
X101176200Y-80750371D02*
X101533342Y-80893228D01*
X101319057Y-80036085D02*
X99961914Y-79964657D01*
X100033342Y-79821800D02*
X99819057Y-80107514D01*
X99319056Y-79964657D02*
X97676199Y-79964657D01*
X99319056Y-80393228D02*
X97676199Y-80393228D01*
X98461914Y-80893228D02*
X97533342Y-80893228D01*
X99319056Y-79464657D02*
X99319056Y-80536085D01*
X98461914Y-79178942D02*
X98461914Y-80893228D01*
X99319056Y-79464657D02*
X97676199Y-79464657D01*
X97676199Y-79464657D02*
X97676199Y-80393228D01*
X97461914Y-80536085D02*
X97533342Y-80893228D01*
X96461913Y-79393228D02*
X95247628Y-79393228D01*
X97104770Y-79607514D02*
X96533342Y-79607514D01*
X96319056Y-79893228D02*
X95390485Y-79893228D01*
X96319056Y-80178942D02*
X95390485Y-80178942D01*
X96533342Y-80464657D02*
X95247628Y-80464657D01*
X96747628Y-79178942D02*
X96747628Y-80893228D01*
X96319056Y-79678942D02*
X96319056Y-80178942D01*
X96104770Y-79178942D02*
X96104770Y-79536085D01*
X95604770Y-79178942D02*
X95604770Y-79536085D01*
X96319056Y-79678942D02*
X95390485Y-79678942D01*
X95390485Y-79678942D02*
X95390485Y-80178942D01*
X96819056Y-79607514D02*
X96604770Y-80107514D01*
X95890485Y-80393228D02*
X95604770Y-80750371D01*
X95604770Y-80750371D02*
X95247628Y-80893228D01*
X96819056Y-79536085D02*
X97033342Y-80393228D01*
X95890485Y-80178942D02*
X96033342Y-80607514D01*
X96033342Y-80607514D02*
X96176199Y-80750371D01*
X96176199Y-80750371D02*
X96533342Y-80893228D01*
X94890484Y-79678942D02*
X94319056Y-79678942D01*
X94247627Y-80107514D02*
X93033342Y-80107514D01*
X94604770Y-79250371D02*
X94604770Y-80464657D01*
X94176199Y-79536085D02*
X93247627Y-79536085D01*
X93247627Y-79536085D02*
X93247627Y-80107514D01*
X93533342Y-80464657D02*
X93176199Y-80893228D01*
X93819056Y-80464657D02*
X94176199Y-80821800D01*
X93676199Y-79250371D02*
X93676199Y-80107514D01*
X93676199Y-80107514D02*
X93390484Y-80678942D01*
X93676199Y-80107514D02*
X93961913Y-80678942D01*
X94319056Y-80321800D02*
X94890484Y-80536085D01*
X93676199Y-79821800D02*
X93747627Y-80464657D01*
D11*
%TO.C,SW43*%
X122509442Y-110213744D02*
X122361915Y-110183555D01*
X122361915Y-110183555D02*
X122155718Y-110064507D01*
X122155718Y-110064507D02*
X122097049Y-109975649D01*
X122097049Y-109975649D02*
X122079619Y-109910600D01*
X122079619Y-109910600D02*
X122085999Y-109804312D01*
X122085999Y-109804312D02*
X122133618Y-109721833D01*
X122133618Y-109721833D02*
X122222477Y-109663164D01*
X122222477Y-109663164D02*
X122287525Y-109645734D01*
X122287525Y-109645734D02*
X122393814Y-109652114D01*
X122393814Y-109652114D02*
X122582580Y-109706113D01*
X122582580Y-109706113D02*
X122688868Y-109712493D01*
X122688868Y-109712493D02*
X122753917Y-109695063D01*
X122753917Y-109695063D02*
X122842776Y-109636394D01*
X122842776Y-109636394D02*
X122890395Y-109553915D01*
X122890395Y-109553915D02*
X122896774Y-109447627D01*
X122896774Y-109447627D02*
X122879345Y-109382578D01*
X122879345Y-109382578D02*
X122820676Y-109293720D01*
X122820676Y-109293720D02*
X122614479Y-109174672D01*
X122614479Y-109174672D02*
X122466952Y-109144483D01*
X122202086Y-108936577D02*
X121495889Y-109683555D01*
X121495889Y-109683555D02*
X121688075Y-108969727D01*
X121688075Y-108969727D02*
X121165975Y-109493078D01*
X121165975Y-109493078D02*
X121459778Y-108508005D01*
X120592044Y-108391919D02*
X120258710Y-108969269D01*
X120988716Y-108181052D02*
X120837770Y-108918689D01*
X120837770Y-108918689D02*
X120301659Y-108609165D01*
X120387557Y-107888958D02*
X119851446Y-107579434D01*
X119851446Y-107579434D02*
X119949645Y-108076015D01*
X119949645Y-108076015D02*
X119825927Y-108004587D01*
X119825927Y-108004587D02*
X119719639Y-107998207D01*
X119719639Y-107998207D02*
X119654590Y-108015637D01*
X119654590Y-108015637D02*
X119565731Y-108074306D01*
X119565731Y-108074306D02*
X119446684Y-108280502D01*
X119446684Y-108280502D02*
X119440304Y-108386790D01*
X119440304Y-108386790D02*
X119457734Y-108451839D01*
X119457734Y-108451839D02*
X119516403Y-108540698D01*
X119516403Y-108540698D02*
X119763839Y-108683555D01*
X119763839Y-108683555D02*
X119870127Y-108689934D01*
X119870127Y-108689934D02*
X119935176Y-108672505D01*
%TO.C,U7*%
X120698174Y-98209086D02*
X121399243Y-98613848D01*
X121399243Y-98613848D02*
X121457912Y-98702706D01*
X121457912Y-98702706D02*
X121475341Y-98767755D01*
X121475341Y-98767755D02*
X121468962Y-98874043D01*
X121468962Y-98874043D02*
X121373724Y-99039001D01*
X121373724Y-99039001D02*
X121284865Y-99097670D01*
X121284865Y-99097670D02*
X121219816Y-99115099D01*
X121219816Y-99115099D02*
X121113528Y-99108720D01*
X121113528Y-99108720D02*
X120412460Y-98703958D01*
X120221984Y-99033872D02*
X119888651Y-99611222D01*
X119888651Y-99611222D02*
X120968962Y-99740069D01*
%TO.C,Y2*%
X117233593Y-103542753D02*
X117645986Y-103780848D01*
X116946627Y-102992173D02*
X117233593Y-103542753D01*
X117233593Y-103542753D02*
X116613294Y-103569523D01*
X116552915Y-103864578D02*
X116487866Y-103882008D01*
X116487866Y-103882008D02*
X116399008Y-103940677D01*
X116399008Y-103940677D02*
X116279960Y-104146873D01*
X116279960Y-104146873D02*
X116273580Y-104253162D01*
X116273580Y-104253162D02*
X116291010Y-104318210D01*
X116291010Y-104318210D02*
X116349679Y-104407069D01*
X116349679Y-104407069D02*
X116432158Y-104454688D01*
X116432158Y-104454688D02*
X116579685Y-104484877D01*
X116579685Y-104484877D02*
X117360271Y-104275720D01*
X117360271Y-104275720D02*
X117050747Y-104811831D01*
%TO.C,U3*%
X98571607Y-82394939D02*
X98571607Y-83204462D01*
X98571607Y-83204462D02*
X98523988Y-83299700D01*
X98523988Y-83299700D02*
X98476369Y-83347320D01*
X98476369Y-83347320D02*
X98381131Y-83394939D01*
X98381131Y-83394939D02*
X98190655Y-83394939D01*
X98190655Y-83394939D02*
X98095417Y-83347320D01*
X98095417Y-83347320D02*
X98047798Y-83299700D01*
X98047798Y-83299700D02*
X98000179Y-83204462D01*
X98000179Y-83204462D02*
X98000179Y-82394939D01*
X97619226Y-82394939D02*
X97000179Y-82394939D01*
X97000179Y-82394939D02*
X97333512Y-82775891D01*
X97333512Y-82775891D02*
X97190655Y-82775891D01*
X97190655Y-82775891D02*
X97095417Y-82823510D01*
X97095417Y-82823510D02*
X97047798Y-82871129D01*
X97047798Y-82871129D02*
X97000179Y-82966367D01*
X97000179Y-82966367D02*
X97000179Y-83204462D01*
X97000179Y-83204462D02*
X97047798Y-83299700D01*
X97047798Y-83299700D02*
X97095417Y-83347320D01*
X97095417Y-83347320D02*
X97190655Y-83394939D01*
X97190655Y-83394939D02*
X97476369Y-83394939D01*
X97476369Y-83394939D02*
X97571607Y-83347320D01*
X97571607Y-83347320D02*
X97619226Y-83299700D01*
%TO.C,U2*%
X228777598Y-59323819D02*
X228777598Y-60133342D01*
X228777598Y-60133342D02*
X228729979Y-60228580D01*
X228729979Y-60228580D02*
X228682360Y-60276200D01*
X228682360Y-60276200D02*
X228587122Y-60323819D01*
X228587122Y-60323819D02*
X228396646Y-60323819D01*
X228396646Y-60323819D02*
X228301408Y-60276200D01*
X228301408Y-60276200D02*
X228253789Y-60228580D01*
X228253789Y-60228580D02*
X228206170Y-60133342D01*
X228206170Y-60133342D02*
X228206170Y-59323819D01*
X227777598Y-59419057D02*
X227729979Y-59371438D01*
X227729979Y-59371438D02*
X227634741Y-59323819D01*
X227634741Y-59323819D02*
X227396646Y-59323819D01*
X227396646Y-59323819D02*
X227301408Y-59371438D01*
X227301408Y-59371438D02*
X227253789Y-59419057D01*
X227253789Y-59419057D02*
X227206170Y-59514295D01*
X227206170Y-59514295D02*
X227206170Y-59609533D01*
X227206170Y-59609533D02*
X227253789Y-59752390D01*
X227253789Y-59752390D02*
X227825217Y-60323819D01*
X227825217Y-60323819D02*
X227206170Y-60323819D01*
%TO.C,Y4*%
X179635197Y-103046739D02*
X179222804Y-103284834D01*
X180255496Y-103073509D02*
X179635197Y-103046739D01*
X179635197Y-103046739D02*
X179922163Y-102496159D01*
X179252535Y-102002997D02*
X178675185Y-102336330D01*
X179701497Y-102018717D02*
X179201955Y-102582056D01*
X179201955Y-102582056D02*
X178892431Y-102045945D01*
%TO.C,SW44*%
X169229042Y-104849295D02*
X169129134Y-104961963D01*
X169129134Y-104961963D02*
X168922937Y-105081011D01*
X168922937Y-105081011D02*
X168816649Y-105087390D01*
X168816649Y-105087390D02*
X168751600Y-105069961D01*
X168751600Y-105069961D02*
X168662742Y-105011292D01*
X168662742Y-105011292D02*
X168615123Y-104928813D01*
X168615123Y-104928813D02*
X168608743Y-104822525D01*
X168608743Y-104822525D02*
X168626173Y-104757476D01*
X168626173Y-104757476D02*
X168684842Y-104668618D01*
X168684842Y-104668618D02*
X168825990Y-104532140D01*
X168825990Y-104532140D02*
X168884659Y-104443282D01*
X168884659Y-104443282D02*
X168902089Y-104378233D01*
X168902089Y-104378233D02*
X168895709Y-104271945D01*
X168895709Y-104271945D02*
X168848090Y-104189466D01*
X168848090Y-104189466D02*
X168759232Y-104130797D01*
X168759232Y-104130797D02*
X168694183Y-104113367D01*
X168694183Y-104113367D02*
X168587895Y-104119747D01*
X168587895Y-104119747D02*
X168381698Y-104238795D01*
X168381698Y-104238795D02*
X168281790Y-104351463D01*
X167969305Y-104476890D02*
X168263108Y-105461963D01*
X168263108Y-105461963D02*
X167741008Y-104938612D01*
X167741008Y-104938612D02*
X167933194Y-105652439D01*
X167933194Y-105652439D02*
X167226997Y-104905461D01*
X166692596Y-105598898D02*
X167025929Y-106176249D01*
X166708316Y-105149936D02*
X167271656Y-105649478D01*
X167271656Y-105649478D02*
X166735545Y-105959002D01*
X165867810Y-106075089D02*
X166201143Y-106652439D01*
X165883530Y-105626127D02*
X166446870Y-106125669D01*
X166446870Y-106125669D02*
X165910759Y-106435193D01*
%TO.C,Y3*%
X177829911Y-91932225D02*
X177417518Y-92170320D01*
X178450210Y-91958995D02*
X177829911Y-91932225D01*
X177829911Y-91932225D02*
X178116877Y-91381645D01*
X177997829Y-91175448D02*
X177688305Y-90639337D01*
X177688305Y-90639337D02*
X177525057Y-91118489D01*
X177525057Y-91118489D02*
X177453629Y-90994771D01*
X177453629Y-90994771D02*
X177364770Y-90936102D01*
X177364770Y-90936102D02*
X177299722Y-90918672D01*
X177299722Y-90918672D02*
X177193434Y-90925052D01*
X177193434Y-90925052D02*
X176987237Y-91044099D01*
X176987237Y-91044099D02*
X176928568Y-91132958D01*
X176928568Y-91132958D02*
X176911138Y-91198006D01*
X176911138Y-91198006D02*
X176917518Y-91304295D01*
X176917518Y-91304295D02*
X177060375Y-91551730D01*
X177060375Y-91551730D02*
X177149233Y-91610400D01*
X177149233Y-91610400D02*
X177214282Y-91627829D01*
%TO.C,U4*%
X200468714Y-82394529D02*
X200468714Y-83204052D01*
X200468714Y-83204052D02*
X200421095Y-83299290D01*
X200421095Y-83299290D02*
X200373476Y-83346910D01*
X200373476Y-83346910D02*
X200278238Y-83394529D01*
X200278238Y-83394529D02*
X200087762Y-83394529D01*
X200087762Y-83394529D02*
X199992524Y-83346910D01*
X199992524Y-83346910D02*
X199944905Y-83299290D01*
X199944905Y-83299290D02*
X199897286Y-83204052D01*
X199897286Y-83204052D02*
X199897286Y-82394529D01*
X198992524Y-82727862D02*
X198992524Y-83394529D01*
X199230619Y-82346910D02*
X199468714Y-83061195D01*
X199468714Y-83061195D02*
X198849667Y-83061195D01*
%TO.C,Y1*%
X121328005Y-95397839D02*
X121740398Y-95635934D01*
X121041039Y-94847259D02*
X121328005Y-95397839D01*
X121328005Y-95397839D02*
X120707706Y-95424609D01*
X121145159Y-96666917D02*
X121430874Y-96172045D01*
X121288017Y-96419481D02*
X120421991Y-95919481D01*
X120421991Y-95919481D02*
X120593328Y-95908431D01*
X120593328Y-95908431D02*
X120723426Y-95873571D01*
X120723426Y-95873571D02*
X120812284Y-95814902D01*
%TO.C,U1*%
X85902798Y-59323819D02*
X85902798Y-60133342D01*
X85902798Y-60133342D02*
X85855179Y-60228580D01*
X85855179Y-60228580D02*
X85807560Y-60276200D01*
X85807560Y-60276200D02*
X85712322Y-60323819D01*
X85712322Y-60323819D02*
X85521846Y-60323819D01*
X85521846Y-60323819D02*
X85426608Y-60276200D01*
X85426608Y-60276200D02*
X85378989Y-60228580D01*
X85378989Y-60228580D02*
X85331370Y-60133342D01*
X85331370Y-60133342D02*
X85331370Y-59323819D01*
X84331370Y-60323819D02*
X84902798Y-60323819D01*
X84617084Y-60323819D02*
X84617084Y-59323819D01*
X84617084Y-59323819D02*
X84712322Y-59466676D01*
X84712322Y-59466676D02*
X84807560Y-59561914D01*
X84807560Y-59561914D02*
X84902798Y-59609533D01*
%TO.C,U8*%
X181092986Y-95669579D02*
X180391918Y-96074341D01*
X180391918Y-96074341D02*
X180285630Y-96080721D01*
X180285630Y-96080721D02*
X180220581Y-96063291D01*
X180220581Y-96063291D02*
X180131723Y-96004622D01*
X180131723Y-96004622D02*
X180036485Y-95839664D01*
X180036485Y-95839664D02*
X180030105Y-95733376D01*
X180030105Y-95733376D02*
X180047535Y-95668328D01*
X180047535Y-95668328D02*
X180106204Y-95579469D01*
X180106204Y-95579469D02*
X180807272Y-95174707D01*
X180126595Y-94852882D02*
X180215453Y-94911551D01*
X180215453Y-94911551D02*
X180280502Y-94928981D01*
X180280502Y-94928981D02*
X180386790Y-94922601D01*
X180386790Y-94922601D02*
X180428029Y-94898792D01*
X180428029Y-94898792D02*
X180486698Y-94809933D01*
X180486698Y-94809933D02*
X180504128Y-94744884D01*
X180504128Y-94744884D02*
X180497748Y-94638596D01*
X180497748Y-94638596D02*
X180402510Y-94473639D01*
X180402510Y-94473639D02*
X180313652Y-94414970D01*
X180313652Y-94414970D02*
X180248603Y-94397540D01*
X180248603Y-94397540D02*
X180142315Y-94403920D01*
X180142315Y-94403920D02*
X180101076Y-94427730D01*
X180101076Y-94427730D02*
X180042407Y-94516588D01*
X180042407Y-94516588D02*
X180024977Y-94581637D01*
X180024977Y-94581637D02*
X180031357Y-94687925D01*
X180031357Y-94687925D02*
X180126595Y-94852882D01*
X180126595Y-94852882D02*
X180132974Y-94959170D01*
X180132974Y-94959170D02*
X180115545Y-95024219D01*
X180115545Y-95024219D02*
X180056875Y-95113077D01*
X180056875Y-95113077D02*
X179891918Y-95208315D01*
X179891918Y-95208315D02*
X179785630Y-95214695D01*
X179785630Y-95214695D02*
X179720581Y-95197265D01*
X179720581Y-95197265D02*
X179631723Y-95138596D01*
X179631723Y-95138596D02*
X179536485Y-94973639D01*
X179536485Y-94973639D02*
X179530105Y-94867351D01*
X179530105Y-94867351D02*
X179547535Y-94802302D01*
X179547535Y-94802302D02*
X179606204Y-94713444D01*
X179606204Y-94713444D02*
X179771161Y-94618206D01*
X179771161Y-94618206D02*
X179877449Y-94611826D01*
X179877449Y-94611826D02*
X179942498Y-94629256D01*
X179942498Y-94629256D02*
X180031357Y-94687925D01*
D13*
%TO.C,SW43*%
X121937517Y-105085301D02*
X122305817Y-104447387D01*
X121035817Y-106647091D02*
X121404117Y-106009177D01*
X121035817Y-106647091D02*
X126664983Y-109897091D01*
X127934983Y-107697387D02*
X122305817Y-104447387D01*
X127566683Y-108335301D02*
X127934983Y-107697387D01*
X126664983Y-109897091D02*
X127033283Y-109259177D01*
D14*
%TO.C,U7*%
X111954142Y-98208958D02*
X112439117Y-98488958D01*
X111954142Y-98208958D02*
X112234142Y-97723983D01*
X118206846Y-101818958D02*
X118486846Y-101333983D01*
X115564142Y-91956254D02*
X115284142Y-92441229D01*
X115564142Y-91956254D02*
X116049117Y-92236254D01*
X121816846Y-95566254D02*
X121536846Y-96051229D01*
X121816846Y-95566254D02*
X121331871Y-95286254D01*
%TO.C,Y2*%
X114179928Y-103108999D02*
X114854928Y-101939865D01*
X115695472Y-103983999D02*
X116370472Y-102814865D01*
%TO.C,U3*%
X99419703Y-87362320D02*
X99419703Y-86887320D01*
X98944703Y-87362320D02*
X99419703Y-87362320D01*
X98944703Y-84142320D02*
X99419703Y-84142320D01*
X96674703Y-87362320D02*
X96199703Y-87362320D01*
X96674703Y-84142320D02*
X96199703Y-84142320D01*
X96199703Y-87362320D02*
X96199703Y-86887320D01*
X96199703Y-84142320D02*
X96199703Y-84617320D01*
D15*
%TO.C,U2*%
X230729694Y-64794200D02*
X230729694Y-64344200D01*
X230729694Y-61794200D02*
X230729694Y-61344200D01*
X230729694Y-61344200D02*
X230279694Y-61344200D01*
X230279694Y-64794200D02*
X230729694Y-64794200D01*
X227729694Y-64794200D02*
X227279694Y-64794200D01*
X227729694Y-61344200D02*
X227279694Y-61344200D01*
X227279694Y-64794200D02*
X227279694Y-64344200D01*
X227279694Y-61344200D02*
X227279694Y-61794200D01*
D10*
X231079694Y-61548200D02*
G75*
G03*
X231079682Y-61545660I150000J1979D01*
G01*
D14*
%TO.C,Y4*%
X181537672Y-100619065D02*
X182212672Y-101788199D01*
X180022128Y-101494065D02*
X180697128Y-102663199D01*
D13*
%TO.C,SW44*%
X173871283Y-106008938D02*
X174239583Y-106646852D01*
X172969583Y-104447148D02*
X173337883Y-105085062D01*
X172969583Y-104447148D02*
X167340417Y-107697148D01*
X168610417Y-109896852D02*
X174239583Y-106646852D01*
X168242117Y-109258938D02*
X168610417Y-109896852D01*
X167340417Y-107697148D02*
X167708717Y-108335062D01*
D14*
%TO.C,Y3*%
X179633043Y-88782484D02*
X180983043Y-91120752D01*
X177641185Y-89932484D02*
X179633043Y-88782484D01*
%TO.C,U4*%
X201316810Y-87361910D02*
X201316810Y-86886910D01*
X200841810Y-87361910D02*
X201316810Y-87361910D01*
X200841810Y-84141910D02*
X201316810Y-84141910D01*
X198571810Y-87361910D02*
X198096810Y-87361910D01*
X198571810Y-84141910D02*
X198096810Y-84141910D01*
X198096810Y-87361910D02*
X198096810Y-86886910D01*
X198096810Y-84141910D02*
X198096810Y-84616910D01*
%TO.C,Y1*%
X124504643Y-96222884D02*
X123154643Y-98561152D01*
X122512785Y-95072884D02*
X124504643Y-96222884D01*
D15*
%TO.C,U1*%
X87854894Y-64794200D02*
X87854894Y-64344200D01*
X87854894Y-61794200D02*
X87854894Y-61344200D01*
X87854894Y-61344200D02*
X87404894Y-61344200D01*
X87404894Y-64794200D02*
X87854894Y-64794200D01*
X84854894Y-64794200D02*
X84404894Y-64794200D01*
X84854894Y-61344200D02*
X84404894Y-61344200D01*
X84404894Y-64794200D02*
X84404894Y-64344200D01*
X84404894Y-61344200D02*
X84404894Y-61794200D01*
D10*
X88204894Y-61548200D02*
G75*
G03*
X88204882Y-61545660I150000J1979D01*
G01*
D14*
%TO.C,U8*%
X175028183Y-102459793D02*
X175513158Y-102179793D01*
X175028183Y-102459793D02*
X174748183Y-101974818D01*
X181280887Y-98849793D02*
X181000887Y-98364818D01*
X171418183Y-96207089D02*
X171698183Y-96692064D01*
X171418183Y-96207089D02*
X171903158Y-95927089D01*
X177670887Y-92597089D02*
X177950887Y-93082064D01*
X177670887Y-92597089D02*
X177185912Y-92877089D01*
%TD*%
M02*
