%TF.GenerationSoftware,KiCad,Pcbnew,7.0.1-0*%
%TF.CreationDate,2023-10-15T20:39:52+08:00*%
%TF.ProjectId,qhws42_v2,71687773-3432-45f7-9632-2e6b69636164,rev?*%
%TF.SameCoordinates,Original*%
%TF.FileFunction,Paste,Top*%
%TF.FilePolarity,Positive*%
%FSLAX46Y46*%
G04 Gerber Fmt 4.6, Leading zero omitted, Abs format (unit mm)*
G04 Created by KiCad (PCBNEW 7.0.1-0) date 2023-10-15 20:39:52*
%MOMM*%
%LPD*%
G01*
G04 APERTURE LIST*
%ADD10C,0.120000*%
%ADD11R,0.600000X1.100000*%
%ADD12R,0.300000X1.100000*%
G04 APERTURE END LIST*
%TO.C,USB1*%
D10*
X43632130Y-96667226D02*
X43032130Y-96667226D01*
X43032130Y-95567226D01*
X43632130Y-95567226D01*
X43632130Y-96667226D01*
G36*
X43632130Y-96667226D02*
G01*
X43032130Y-96667226D01*
X43032130Y-95567226D01*
X43632130Y-95567226D01*
X43632130Y-96667226D01*
G37*
X42832130Y-96667226D02*
X42232130Y-96667226D01*
X42232130Y-95567226D01*
X42832130Y-95567226D01*
X42832130Y-96667226D01*
G36*
X42832130Y-96667226D02*
G01*
X42232130Y-96667226D01*
X42232130Y-95567226D01*
X42832130Y-95567226D01*
X42832130Y-96667226D01*
G37*
X42032130Y-96667226D02*
X41732130Y-96667226D01*
X41732130Y-95567226D01*
X42032130Y-95567226D01*
X42032130Y-96667226D01*
G36*
X42032130Y-96667226D02*
G01*
X41732130Y-96667226D01*
X41732130Y-95567226D01*
X42032130Y-95567226D01*
X42032130Y-96667226D01*
G37*
X41532130Y-96667226D02*
X41232130Y-96667226D01*
X41232130Y-95567226D01*
X41532130Y-95567226D01*
X41532130Y-96667226D01*
G36*
X41532130Y-96667226D02*
G01*
X41232130Y-96667226D01*
X41232130Y-95567226D01*
X41532130Y-95567226D01*
X41532130Y-96667226D01*
G37*
X41032130Y-96667226D02*
X40732130Y-96667226D01*
X40732130Y-95567226D01*
X41032130Y-95567226D01*
X41032130Y-96667226D01*
G36*
X41032130Y-96667226D02*
G01*
X40732130Y-96667226D01*
X40732130Y-95567226D01*
X41032130Y-95567226D01*
X41032130Y-96667226D01*
G37*
X40532130Y-96667226D02*
X40232130Y-96667226D01*
X40232130Y-95567226D01*
X40532130Y-95567226D01*
X40532130Y-96667226D01*
G36*
X40532130Y-96667226D02*
G01*
X40232130Y-96667226D01*
X40232130Y-95567226D01*
X40532130Y-95567226D01*
X40532130Y-96667226D01*
G37*
X40032130Y-96667226D02*
X39732130Y-96667226D01*
X39732130Y-95567226D01*
X40032130Y-95567226D01*
X40032130Y-96667226D01*
G36*
X40032130Y-96667226D02*
G01*
X39732130Y-96667226D01*
X39732130Y-95567226D01*
X40032130Y-95567226D01*
X40032130Y-96667226D01*
G37*
X39532130Y-96667226D02*
X39232130Y-96667226D01*
X39232130Y-95567226D01*
X39532130Y-95567226D01*
X39532130Y-96667226D01*
G36*
X39532130Y-96667226D02*
G01*
X39232130Y-96667226D01*
X39232130Y-95567226D01*
X39532130Y-95567226D01*
X39532130Y-96667226D01*
G37*
X39032130Y-96667226D02*
X38732130Y-96667226D01*
X38732130Y-95567226D01*
X39032130Y-95567226D01*
X39032130Y-96667226D01*
G36*
X39032130Y-96667226D02*
G01*
X38732130Y-96667226D01*
X38732130Y-95567226D01*
X39032130Y-95567226D01*
X39032130Y-96667226D01*
G37*
X38532130Y-96667226D02*
X38232130Y-96667226D01*
X38232130Y-95567226D01*
X38532130Y-95567226D01*
X38532130Y-96667226D01*
G36*
X38532130Y-96667226D02*
G01*
X38232130Y-96667226D01*
X38232130Y-95567226D01*
X38532130Y-95567226D01*
X38532130Y-96667226D01*
G37*
X38032130Y-96667226D02*
X37432130Y-96667226D01*
X37432130Y-95567226D01*
X38032130Y-95567226D01*
X38032130Y-96667226D01*
G36*
X38032130Y-96667226D02*
G01*
X37432130Y-96667226D01*
X37432130Y-95567226D01*
X38032130Y-95567226D01*
X38032130Y-96667226D01*
G37*
X37232130Y-96667226D02*
X36632130Y-96667226D01*
X36632130Y-95567226D01*
X37232130Y-95567226D01*
X37232130Y-96667226D01*
G36*
X37232130Y-96667226D02*
G01*
X36632130Y-96667226D01*
X36632130Y-95567226D01*
X37232130Y-95567226D01*
X37232130Y-96667226D01*
G37*
X44502130Y-94569226D02*
X44532130Y-94572226D01*
X44561130Y-94576226D01*
X44590130Y-94582226D01*
X44619130Y-94590226D01*
X44648130Y-94598226D01*
X44676130Y-94609226D01*
X44704130Y-94620226D01*
X44731130Y-94633226D01*
X44757130Y-94648226D01*
X44783130Y-94663226D01*
X44807130Y-94680226D01*
X44831130Y-94698226D01*
X44854130Y-94717226D01*
X44876130Y-94738226D01*
X44897130Y-94759226D01*
X44917130Y-94781226D01*
X44935130Y-94805226D01*
X44953130Y-94829226D01*
X44969130Y-94854226D01*
X44984130Y-94880226D01*
X44998130Y-94907226D01*
X45010130Y-94934226D01*
X45021130Y-94962226D01*
X45030130Y-94990226D01*
X45038130Y-95019226D01*
X45045130Y-95048226D01*
X45050130Y-95078226D01*
X45054130Y-95107226D01*
X45056130Y-95137226D01*
X45057130Y-95167226D01*
X45057130Y-95967226D01*
X45056130Y-95997226D01*
X45054130Y-96027226D01*
X45050130Y-96057226D01*
X45045130Y-96086226D01*
X45038130Y-96115226D01*
X45030130Y-96144226D01*
X45021130Y-96172226D01*
X45010130Y-96200226D01*
X44998130Y-96227226D01*
X44984130Y-96254226D01*
X44969130Y-96280226D01*
X44953130Y-96305226D01*
X44935130Y-96329226D01*
X44917130Y-96353226D01*
X44897130Y-96375226D01*
X44876130Y-96397226D01*
X44854130Y-96417226D01*
X44831130Y-96436226D01*
X44807130Y-96454226D01*
X44783130Y-96471226D01*
X44757130Y-96487226D01*
X44731130Y-96501226D01*
X44704130Y-96514226D01*
X44676130Y-96526226D01*
X44648130Y-96536226D01*
X44619130Y-96545226D01*
X44590130Y-96552226D01*
X44561130Y-96558226D01*
X44532130Y-96562226D01*
X44502130Y-96565226D01*
X44472130Y-96567226D01*
X44442130Y-96567226D01*
X44412130Y-96565226D01*
X44382130Y-96562226D01*
X44353130Y-96558226D01*
X44323130Y-96552226D01*
X44294130Y-96545226D01*
X44266130Y-96536226D01*
X44238130Y-96526226D01*
X44210130Y-96514226D01*
X44183130Y-96501226D01*
X44157130Y-96487226D01*
X44131130Y-96471226D01*
X44107130Y-96454226D01*
X44083130Y-96436226D01*
X44060130Y-96417226D01*
X44038130Y-96397226D01*
X44017130Y-96375226D01*
X43997130Y-96353226D01*
X43979130Y-96329226D01*
X43961130Y-96305226D01*
X43945130Y-96280226D01*
X43930130Y-96254226D01*
X43916130Y-96227226D01*
X43904130Y-96200226D01*
X43893130Y-96172226D01*
X43884130Y-96144226D01*
X43876130Y-96115226D01*
X43869130Y-96086226D01*
X43864130Y-96057226D01*
X43860130Y-96027226D01*
X43858130Y-95997226D01*
X43857130Y-95967226D01*
X43857130Y-95167226D01*
X43858130Y-95137226D01*
X43860130Y-95107226D01*
X43864130Y-95078226D01*
X43869130Y-95048226D01*
X43876130Y-95019226D01*
X43884130Y-94990226D01*
X43893130Y-94962226D01*
X43904130Y-94934226D01*
X43916130Y-94907226D01*
X43930130Y-94880226D01*
X43945130Y-94854226D01*
X43961130Y-94829226D01*
X43979130Y-94805226D01*
X43997130Y-94781226D01*
X44017130Y-94759226D01*
X44038130Y-94738226D01*
X44060130Y-94717226D01*
X44083130Y-94698226D01*
X44107130Y-94680226D01*
X44131130Y-94663226D01*
X44157130Y-94648226D01*
X44183130Y-94633226D01*
X44210130Y-94620226D01*
X44238130Y-94609226D01*
X44266130Y-94598226D01*
X44294130Y-94590226D01*
X44323130Y-94582226D01*
X44353130Y-94576226D01*
X44382130Y-94572226D01*
X44412130Y-94569226D01*
X44442130Y-94567226D01*
X44472130Y-94567226D01*
X44502130Y-94569226D01*
G36*
X44502130Y-94569226D02*
G01*
X44532130Y-94572226D01*
X44561130Y-94576226D01*
X44590130Y-94582226D01*
X44619130Y-94590226D01*
X44648130Y-94598226D01*
X44676130Y-94609226D01*
X44704130Y-94620226D01*
X44731130Y-94633226D01*
X44757130Y-94648226D01*
X44783130Y-94663226D01*
X44807130Y-94680226D01*
X44831130Y-94698226D01*
X44854130Y-94717226D01*
X44876130Y-94738226D01*
X44897130Y-94759226D01*
X44917130Y-94781226D01*
X44935130Y-94805226D01*
X44953130Y-94829226D01*
X44969130Y-94854226D01*
X44984130Y-94880226D01*
X44998130Y-94907226D01*
X45010130Y-94934226D01*
X45021130Y-94962226D01*
X45030130Y-94990226D01*
X45038130Y-95019226D01*
X45045130Y-95048226D01*
X45050130Y-95078226D01*
X45054130Y-95107226D01*
X45056130Y-95137226D01*
X45057130Y-95167226D01*
X45057130Y-95967226D01*
X45056130Y-95997226D01*
X45054130Y-96027226D01*
X45050130Y-96057226D01*
X45045130Y-96086226D01*
X45038130Y-96115226D01*
X45030130Y-96144226D01*
X45021130Y-96172226D01*
X45010130Y-96200226D01*
X44998130Y-96227226D01*
X44984130Y-96254226D01*
X44969130Y-96280226D01*
X44953130Y-96305226D01*
X44935130Y-96329226D01*
X44917130Y-96353226D01*
X44897130Y-96375226D01*
X44876130Y-96397226D01*
X44854130Y-96417226D01*
X44831130Y-96436226D01*
X44807130Y-96454226D01*
X44783130Y-96471226D01*
X44757130Y-96487226D01*
X44731130Y-96501226D01*
X44704130Y-96514226D01*
X44676130Y-96526226D01*
X44648130Y-96536226D01*
X44619130Y-96545226D01*
X44590130Y-96552226D01*
X44561130Y-96558226D01*
X44532130Y-96562226D01*
X44502130Y-96565226D01*
X44472130Y-96567226D01*
X44442130Y-96567226D01*
X44412130Y-96565226D01*
X44382130Y-96562226D01*
X44353130Y-96558226D01*
X44323130Y-96552226D01*
X44294130Y-96545226D01*
X44266130Y-96536226D01*
X44238130Y-96526226D01*
X44210130Y-96514226D01*
X44183130Y-96501226D01*
X44157130Y-96487226D01*
X44131130Y-96471226D01*
X44107130Y-96454226D01*
X44083130Y-96436226D01*
X44060130Y-96417226D01*
X44038130Y-96397226D01*
X44017130Y-96375226D01*
X43997130Y-96353226D01*
X43979130Y-96329226D01*
X43961130Y-96305226D01*
X43945130Y-96280226D01*
X43930130Y-96254226D01*
X43916130Y-96227226D01*
X43904130Y-96200226D01*
X43893130Y-96172226D01*
X43884130Y-96144226D01*
X43876130Y-96115226D01*
X43869130Y-96086226D01*
X43864130Y-96057226D01*
X43860130Y-96027226D01*
X43858130Y-95997226D01*
X43857130Y-95967226D01*
X43857130Y-95167226D01*
X43858130Y-95137226D01*
X43860130Y-95107226D01*
X43864130Y-95078226D01*
X43869130Y-95048226D01*
X43876130Y-95019226D01*
X43884130Y-94990226D01*
X43893130Y-94962226D01*
X43904130Y-94934226D01*
X43916130Y-94907226D01*
X43930130Y-94880226D01*
X43945130Y-94854226D01*
X43961130Y-94829226D01*
X43979130Y-94805226D01*
X43997130Y-94781226D01*
X44017130Y-94759226D01*
X44038130Y-94738226D01*
X44060130Y-94717226D01*
X44083130Y-94698226D01*
X44107130Y-94680226D01*
X44131130Y-94663226D01*
X44157130Y-94648226D01*
X44183130Y-94633226D01*
X44210130Y-94620226D01*
X44238130Y-94609226D01*
X44266130Y-94598226D01*
X44294130Y-94590226D01*
X44323130Y-94582226D01*
X44353130Y-94576226D01*
X44382130Y-94572226D01*
X44412130Y-94569226D01*
X44442130Y-94567226D01*
X44472130Y-94567226D01*
X44502130Y-94569226D01*
G37*
X44502130Y-90619226D02*
X44532130Y-90622226D01*
X44561130Y-90626226D01*
X44590130Y-90632226D01*
X44619130Y-90639226D01*
X44648130Y-90648226D01*
X44676130Y-90658226D01*
X44704130Y-90670226D01*
X44731130Y-90683226D01*
X44757130Y-90697226D01*
X44783130Y-90713226D01*
X44807130Y-90730226D01*
X44831130Y-90748226D01*
X44854130Y-90767226D01*
X44876130Y-90787226D01*
X44897130Y-90809226D01*
X44917130Y-90831226D01*
X44935130Y-90855226D01*
X44953130Y-90879226D01*
X44969130Y-90904226D01*
X44984130Y-90930226D01*
X44998130Y-90957226D01*
X45010130Y-90984226D01*
X45021130Y-91012226D01*
X45030130Y-91040226D01*
X45038130Y-91069226D01*
X45045130Y-91098226D01*
X45050130Y-91128226D01*
X45054130Y-91157226D01*
X45056130Y-91187226D01*
X45057130Y-91217226D01*
X45057130Y-91517226D01*
X45056130Y-91547226D01*
X45054130Y-91577226D01*
X45050130Y-91606226D01*
X45045130Y-91636226D01*
X45038130Y-91665226D01*
X45030130Y-91694226D01*
X45021130Y-91722226D01*
X45010130Y-91750226D01*
X44998130Y-91777226D01*
X44984130Y-91804226D01*
X44969130Y-91830226D01*
X44953130Y-91855226D01*
X44935130Y-91879226D01*
X44917130Y-91903226D01*
X44897130Y-91925226D01*
X44876130Y-91946226D01*
X44854130Y-91967226D01*
X44831130Y-91986226D01*
X44807130Y-92004226D01*
X44783130Y-92021226D01*
X44757130Y-92037226D01*
X44731130Y-92051226D01*
X44704130Y-92064226D01*
X44676130Y-92075226D01*
X44648130Y-92086226D01*
X44619130Y-92095226D01*
X44590130Y-92102226D01*
X44561130Y-92108226D01*
X44532130Y-92112226D01*
X44502130Y-92115226D01*
X44472130Y-92117226D01*
X44442130Y-92117226D01*
X44412130Y-92115226D01*
X44382130Y-92112226D01*
X44353130Y-92108226D01*
X44323130Y-92102226D01*
X44294130Y-92095226D01*
X44266130Y-92086226D01*
X44238130Y-92075226D01*
X44210130Y-92064226D01*
X44183130Y-92051226D01*
X44157130Y-92037226D01*
X44131130Y-92021226D01*
X44107130Y-92004226D01*
X44083130Y-91986226D01*
X44060130Y-91967226D01*
X44038130Y-91946226D01*
X44017130Y-91925226D01*
X43997130Y-91903226D01*
X43979130Y-91879226D01*
X43961130Y-91855226D01*
X43945130Y-91830226D01*
X43930130Y-91804226D01*
X43916130Y-91777226D01*
X43904130Y-91750226D01*
X43893130Y-91722226D01*
X43884130Y-91694226D01*
X43876130Y-91665226D01*
X43869130Y-91636226D01*
X43864130Y-91606226D01*
X43860130Y-91577226D01*
X43858130Y-91547226D01*
X43857130Y-91517226D01*
X43857130Y-91217226D01*
X43858130Y-91187226D01*
X43860130Y-91157226D01*
X43864130Y-91128226D01*
X43869130Y-91098226D01*
X43876130Y-91069226D01*
X43884130Y-91040226D01*
X43893130Y-91012226D01*
X43904130Y-90984226D01*
X43916130Y-90957226D01*
X43930130Y-90930226D01*
X43945130Y-90904226D01*
X43961130Y-90879226D01*
X43979130Y-90855226D01*
X43997130Y-90831226D01*
X44017130Y-90809226D01*
X44038130Y-90787226D01*
X44060130Y-90767226D01*
X44083130Y-90748226D01*
X44107130Y-90730226D01*
X44131130Y-90713226D01*
X44157130Y-90697226D01*
X44183130Y-90683226D01*
X44210130Y-90670226D01*
X44238130Y-90658226D01*
X44266130Y-90648226D01*
X44294130Y-90639226D01*
X44323130Y-90632226D01*
X44353130Y-90626226D01*
X44382130Y-90622226D01*
X44412130Y-90619226D01*
X44442130Y-90617226D01*
X44472130Y-90617226D01*
X44502130Y-90619226D01*
G36*
X44502130Y-90619226D02*
G01*
X44532130Y-90622226D01*
X44561130Y-90626226D01*
X44590130Y-90632226D01*
X44619130Y-90639226D01*
X44648130Y-90648226D01*
X44676130Y-90658226D01*
X44704130Y-90670226D01*
X44731130Y-90683226D01*
X44757130Y-90697226D01*
X44783130Y-90713226D01*
X44807130Y-90730226D01*
X44831130Y-90748226D01*
X44854130Y-90767226D01*
X44876130Y-90787226D01*
X44897130Y-90809226D01*
X44917130Y-90831226D01*
X44935130Y-90855226D01*
X44953130Y-90879226D01*
X44969130Y-90904226D01*
X44984130Y-90930226D01*
X44998130Y-90957226D01*
X45010130Y-90984226D01*
X45021130Y-91012226D01*
X45030130Y-91040226D01*
X45038130Y-91069226D01*
X45045130Y-91098226D01*
X45050130Y-91128226D01*
X45054130Y-91157226D01*
X45056130Y-91187226D01*
X45057130Y-91217226D01*
X45057130Y-91517226D01*
X45056130Y-91547226D01*
X45054130Y-91577226D01*
X45050130Y-91606226D01*
X45045130Y-91636226D01*
X45038130Y-91665226D01*
X45030130Y-91694226D01*
X45021130Y-91722226D01*
X45010130Y-91750226D01*
X44998130Y-91777226D01*
X44984130Y-91804226D01*
X44969130Y-91830226D01*
X44953130Y-91855226D01*
X44935130Y-91879226D01*
X44917130Y-91903226D01*
X44897130Y-91925226D01*
X44876130Y-91946226D01*
X44854130Y-91967226D01*
X44831130Y-91986226D01*
X44807130Y-92004226D01*
X44783130Y-92021226D01*
X44757130Y-92037226D01*
X44731130Y-92051226D01*
X44704130Y-92064226D01*
X44676130Y-92075226D01*
X44648130Y-92086226D01*
X44619130Y-92095226D01*
X44590130Y-92102226D01*
X44561130Y-92108226D01*
X44532130Y-92112226D01*
X44502130Y-92115226D01*
X44472130Y-92117226D01*
X44442130Y-92117226D01*
X44412130Y-92115226D01*
X44382130Y-92112226D01*
X44353130Y-92108226D01*
X44323130Y-92102226D01*
X44294130Y-92095226D01*
X44266130Y-92086226D01*
X44238130Y-92075226D01*
X44210130Y-92064226D01*
X44183130Y-92051226D01*
X44157130Y-92037226D01*
X44131130Y-92021226D01*
X44107130Y-92004226D01*
X44083130Y-91986226D01*
X44060130Y-91967226D01*
X44038130Y-91946226D01*
X44017130Y-91925226D01*
X43997130Y-91903226D01*
X43979130Y-91879226D01*
X43961130Y-91855226D01*
X43945130Y-91830226D01*
X43930130Y-91804226D01*
X43916130Y-91777226D01*
X43904130Y-91750226D01*
X43893130Y-91722226D01*
X43884130Y-91694226D01*
X43876130Y-91665226D01*
X43869130Y-91636226D01*
X43864130Y-91606226D01*
X43860130Y-91577226D01*
X43858130Y-91547226D01*
X43857130Y-91517226D01*
X43857130Y-91217226D01*
X43858130Y-91187226D01*
X43860130Y-91157226D01*
X43864130Y-91128226D01*
X43869130Y-91098226D01*
X43876130Y-91069226D01*
X43884130Y-91040226D01*
X43893130Y-91012226D01*
X43904130Y-90984226D01*
X43916130Y-90957226D01*
X43930130Y-90930226D01*
X43945130Y-90904226D01*
X43961130Y-90879226D01*
X43979130Y-90855226D01*
X43997130Y-90831226D01*
X44017130Y-90809226D01*
X44038130Y-90787226D01*
X44060130Y-90767226D01*
X44083130Y-90748226D01*
X44107130Y-90730226D01*
X44131130Y-90713226D01*
X44157130Y-90697226D01*
X44183130Y-90683226D01*
X44210130Y-90670226D01*
X44238130Y-90658226D01*
X44266130Y-90648226D01*
X44294130Y-90639226D01*
X44323130Y-90632226D01*
X44353130Y-90626226D01*
X44382130Y-90622226D01*
X44412130Y-90619226D01*
X44442130Y-90617226D01*
X44472130Y-90617226D01*
X44502130Y-90619226D01*
G37*
X35852130Y-90619226D02*
X35882130Y-90622226D01*
X35911130Y-90626226D01*
X35941130Y-90632226D01*
X35970130Y-90639226D01*
X35998130Y-90648226D01*
X36026130Y-90658226D01*
X36054130Y-90670226D01*
X36081130Y-90683226D01*
X36107130Y-90697226D01*
X36133130Y-90713226D01*
X36157130Y-90730226D01*
X36181130Y-90748226D01*
X36204130Y-90767226D01*
X36226130Y-90787226D01*
X36247130Y-90809226D01*
X36267130Y-90831226D01*
X36285130Y-90855226D01*
X36303130Y-90879226D01*
X36319130Y-90904226D01*
X36334130Y-90930226D01*
X36348130Y-90957226D01*
X36360130Y-90984226D01*
X36371130Y-91012226D01*
X36380130Y-91040226D01*
X36388130Y-91069226D01*
X36395130Y-91098226D01*
X36400130Y-91128226D01*
X36404130Y-91157226D01*
X36406130Y-91187226D01*
X36407130Y-91217226D01*
X36407130Y-91517226D01*
X36406130Y-91547226D01*
X36404130Y-91577226D01*
X36400130Y-91606226D01*
X36395130Y-91636226D01*
X36388130Y-91665226D01*
X36380130Y-91694226D01*
X36371130Y-91722226D01*
X36360130Y-91750226D01*
X36348130Y-91777226D01*
X36334130Y-91804226D01*
X36319130Y-91830226D01*
X36303130Y-91855226D01*
X36285130Y-91879226D01*
X36267130Y-91903226D01*
X36247130Y-91925226D01*
X36226130Y-91946226D01*
X36204130Y-91967226D01*
X36181130Y-91986226D01*
X36157130Y-92004226D01*
X36133130Y-92021226D01*
X36107130Y-92037226D01*
X36081130Y-92051226D01*
X36054130Y-92064226D01*
X36026130Y-92075226D01*
X35998130Y-92086226D01*
X35970130Y-92095226D01*
X35941130Y-92102226D01*
X35911130Y-92108226D01*
X35882130Y-92112226D01*
X35852130Y-92115226D01*
X35822130Y-92117226D01*
X35792130Y-92117226D01*
X35762130Y-92115226D01*
X35732130Y-92112226D01*
X35703130Y-92108226D01*
X35674130Y-92102226D01*
X35645130Y-92095226D01*
X35616130Y-92086226D01*
X35588130Y-92075226D01*
X35560130Y-92064226D01*
X35533130Y-92051226D01*
X35507130Y-92037226D01*
X35481130Y-92021226D01*
X35457130Y-92004226D01*
X35433130Y-91986226D01*
X35410130Y-91967226D01*
X35388130Y-91946226D01*
X35367130Y-91925226D01*
X35347130Y-91903226D01*
X35329130Y-91879226D01*
X35311130Y-91855226D01*
X35295130Y-91830226D01*
X35280130Y-91804226D01*
X35266130Y-91777226D01*
X35254130Y-91750226D01*
X35243130Y-91722226D01*
X35234130Y-91694226D01*
X35226130Y-91665226D01*
X35219130Y-91636226D01*
X35214130Y-91606226D01*
X35210130Y-91577226D01*
X35208130Y-91547226D01*
X35207130Y-91517226D01*
X35207130Y-91217226D01*
X35208130Y-91187226D01*
X35210130Y-91157226D01*
X35214130Y-91128226D01*
X35219130Y-91098226D01*
X35226130Y-91069226D01*
X35234130Y-91040226D01*
X35243130Y-91012226D01*
X35254130Y-90984226D01*
X35266130Y-90957226D01*
X35280130Y-90930226D01*
X35295130Y-90904226D01*
X35311130Y-90879226D01*
X35329130Y-90855226D01*
X35347130Y-90831226D01*
X35367130Y-90809226D01*
X35388130Y-90787226D01*
X35410130Y-90767226D01*
X35433130Y-90748226D01*
X35457130Y-90730226D01*
X35481130Y-90713226D01*
X35507130Y-90697226D01*
X35533130Y-90683226D01*
X35560130Y-90670226D01*
X35588130Y-90658226D01*
X35616130Y-90648226D01*
X35645130Y-90639226D01*
X35674130Y-90632226D01*
X35703130Y-90626226D01*
X35732130Y-90622226D01*
X35762130Y-90619226D01*
X35792130Y-90617226D01*
X35822130Y-90617226D01*
X35852130Y-90619226D01*
G36*
X35852130Y-90619226D02*
G01*
X35882130Y-90622226D01*
X35911130Y-90626226D01*
X35941130Y-90632226D01*
X35970130Y-90639226D01*
X35998130Y-90648226D01*
X36026130Y-90658226D01*
X36054130Y-90670226D01*
X36081130Y-90683226D01*
X36107130Y-90697226D01*
X36133130Y-90713226D01*
X36157130Y-90730226D01*
X36181130Y-90748226D01*
X36204130Y-90767226D01*
X36226130Y-90787226D01*
X36247130Y-90809226D01*
X36267130Y-90831226D01*
X36285130Y-90855226D01*
X36303130Y-90879226D01*
X36319130Y-90904226D01*
X36334130Y-90930226D01*
X36348130Y-90957226D01*
X36360130Y-90984226D01*
X36371130Y-91012226D01*
X36380130Y-91040226D01*
X36388130Y-91069226D01*
X36395130Y-91098226D01*
X36400130Y-91128226D01*
X36404130Y-91157226D01*
X36406130Y-91187226D01*
X36407130Y-91217226D01*
X36407130Y-91517226D01*
X36406130Y-91547226D01*
X36404130Y-91577226D01*
X36400130Y-91606226D01*
X36395130Y-91636226D01*
X36388130Y-91665226D01*
X36380130Y-91694226D01*
X36371130Y-91722226D01*
X36360130Y-91750226D01*
X36348130Y-91777226D01*
X36334130Y-91804226D01*
X36319130Y-91830226D01*
X36303130Y-91855226D01*
X36285130Y-91879226D01*
X36267130Y-91903226D01*
X36247130Y-91925226D01*
X36226130Y-91946226D01*
X36204130Y-91967226D01*
X36181130Y-91986226D01*
X36157130Y-92004226D01*
X36133130Y-92021226D01*
X36107130Y-92037226D01*
X36081130Y-92051226D01*
X36054130Y-92064226D01*
X36026130Y-92075226D01*
X35998130Y-92086226D01*
X35970130Y-92095226D01*
X35941130Y-92102226D01*
X35911130Y-92108226D01*
X35882130Y-92112226D01*
X35852130Y-92115226D01*
X35822130Y-92117226D01*
X35792130Y-92117226D01*
X35762130Y-92115226D01*
X35732130Y-92112226D01*
X35703130Y-92108226D01*
X35674130Y-92102226D01*
X35645130Y-92095226D01*
X35616130Y-92086226D01*
X35588130Y-92075226D01*
X35560130Y-92064226D01*
X35533130Y-92051226D01*
X35507130Y-92037226D01*
X35481130Y-92021226D01*
X35457130Y-92004226D01*
X35433130Y-91986226D01*
X35410130Y-91967226D01*
X35388130Y-91946226D01*
X35367130Y-91925226D01*
X35347130Y-91903226D01*
X35329130Y-91879226D01*
X35311130Y-91855226D01*
X35295130Y-91830226D01*
X35280130Y-91804226D01*
X35266130Y-91777226D01*
X35254130Y-91750226D01*
X35243130Y-91722226D01*
X35234130Y-91694226D01*
X35226130Y-91665226D01*
X35219130Y-91636226D01*
X35214130Y-91606226D01*
X35210130Y-91577226D01*
X35208130Y-91547226D01*
X35207130Y-91517226D01*
X35207130Y-91217226D01*
X35208130Y-91187226D01*
X35210130Y-91157226D01*
X35214130Y-91128226D01*
X35219130Y-91098226D01*
X35226130Y-91069226D01*
X35234130Y-91040226D01*
X35243130Y-91012226D01*
X35254130Y-90984226D01*
X35266130Y-90957226D01*
X35280130Y-90930226D01*
X35295130Y-90904226D01*
X35311130Y-90879226D01*
X35329130Y-90855226D01*
X35347130Y-90831226D01*
X35367130Y-90809226D01*
X35388130Y-90787226D01*
X35410130Y-90767226D01*
X35433130Y-90748226D01*
X35457130Y-90730226D01*
X35481130Y-90713226D01*
X35507130Y-90697226D01*
X35533130Y-90683226D01*
X35560130Y-90670226D01*
X35588130Y-90658226D01*
X35616130Y-90648226D01*
X35645130Y-90639226D01*
X35674130Y-90632226D01*
X35703130Y-90626226D01*
X35732130Y-90622226D01*
X35762130Y-90619226D01*
X35792130Y-90617226D01*
X35822130Y-90617226D01*
X35852130Y-90619226D01*
G37*
X35852130Y-94569226D02*
X35882130Y-94572226D01*
X35911130Y-94576226D01*
X35941130Y-94582226D01*
X35970130Y-94590226D01*
X35998130Y-94598226D01*
X36026130Y-94609226D01*
X36054130Y-94620226D01*
X36081130Y-94633226D01*
X36107130Y-94648226D01*
X36133130Y-94663226D01*
X36157130Y-94680226D01*
X36181130Y-94698226D01*
X36204130Y-94717226D01*
X36226130Y-94738226D01*
X36247130Y-94759226D01*
X36267130Y-94781226D01*
X36285130Y-94805226D01*
X36303130Y-94829226D01*
X36319130Y-94854226D01*
X36334130Y-94880226D01*
X36348130Y-94907226D01*
X36360130Y-94934226D01*
X36371130Y-94962226D01*
X36380130Y-94990226D01*
X36388130Y-95019226D01*
X36395130Y-95048226D01*
X36400130Y-95078226D01*
X36404130Y-95107226D01*
X36406130Y-95137226D01*
X36407130Y-95167226D01*
X36407130Y-95967226D01*
X36406130Y-95997226D01*
X36404130Y-96027226D01*
X36400130Y-96057226D01*
X36395130Y-96086226D01*
X36388130Y-96115226D01*
X36380130Y-96144226D01*
X36371130Y-96172226D01*
X36360130Y-96200226D01*
X36348130Y-96227226D01*
X36334130Y-96254226D01*
X36319130Y-96280226D01*
X36303130Y-96305226D01*
X36285130Y-96329226D01*
X36267130Y-96353226D01*
X36247130Y-96375226D01*
X36226130Y-96397226D01*
X36204130Y-96417226D01*
X36181130Y-96436226D01*
X36157130Y-96454226D01*
X36133130Y-96471226D01*
X36107130Y-96487226D01*
X36081130Y-96501226D01*
X36054130Y-96514226D01*
X36026130Y-96526226D01*
X35998130Y-96536226D01*
X35970130Y-96545226D01*
X35941130Y-96552226D01*
X35911130Y-96558226D01*
X35882130Y-96562226D01*
X35852130Y-96565226D01*
X35822130Y-96567226D01*
X35792130Y-96567226D01*
X35762130Y-96565226D01*
X35732130Y-96562226D01*
X35703130Y-96558226D01*
X35674130Y-96552226D01*
X35645130Y-96545226D01*
X35616130Y-96536226D01*
X35588130Y-96526226D01*
X35560130Y-96514226D01*
X35533130Y-96501226D01*
X35507130Y-96487226D01*
X35481130Y-96471226D01*
X35457130Y-96454226D01*
X35433130Y-96436226D01*
X35410130Y-96417226D01*
X35388130Y-96397226D01*
X35367130Y-96375226D01*
X35347130Y-96353226D01*
X35329130Y-96329226D01*
X35311130Y-96305226D01*
X35295130Y-96280226D01*
X35280130Y-96254226D01*
X35266130Y-96227226D01*
X35254130Y-96200226D01*
X35243130Y-96172226D01*
X35234130Y-96144226D01*
X35226130Y-96115226D01*
X35219130Y-96086226D01*
X35214130Y-96057226D01*
X35210130Y-96027226D01*
X35208130Y-95997226D01*
X35207130Y-95967226D01*
X35207130Y-95167226D01*
X35208130Y-95137226D01*
X35210130Y-95107226D01*
X35214130Y-95078226D01*
X35219130Y-95048226D01*
X35226130Y-95019226D01*
X35234130Y-94990226D01*
X35243130Y-94962226D01*
X35254130Y-94934226D01*
X35266130Y-94907226D01*
X35280130Y-94880226D01*
X35295130Y-94854226D01*
X35311130Y-94829226D01*
X35329130Y-94805226D01*
X35347130Y-94781226D01*
X35367130Y-94759226D01*
X35388130Y-94738226D01*
X35410130Y-94717226D01*
X35433130Y-94698226D01*
X35457130Y-94680226D01*
X35481130Y-94663226D01*
X35507130Y-94648226D01*
X35533130Y-94633226D01*
X35560130Y-94620226D01*
X35588130Y-94609226D01*
X35616130Y-94598226D01*
X35645130Y-94590226D01*
X35674130Y-94582226D01*
X35703130Y-94576226D01*
X35732130Y-94572226D01*
X35762130Y-94569226D01*
X35792130Y-94567226D01*
X35822130Y-94567226D01*
X35852130Y-94569226D01*
G36*
X35852130Y-94569226D02*
G01*
X35882130Y-94572226D01*
X35911130Y-94576226D01*
X35941130Y-94582226D01*
X35970130Y-94590226D01*
X35998130Y-94598226D01*
X36026130Y-94609226D01*
X36054130Y-94620226D01*
X36081130Y-94633226D01*
X36107130Y-94648226D01*
X36133130Y-94663226D01*
X36157130Y-94680226D01*
X36181130Y-94698226D01*
X36204130Y-94717226D01*
X36226130Y-94738226D01*
X36247130Y-94759226D01*
X36267130Y-94781226D01*
X36285130Y-94805226D01*
X36303130Y-94829226D01*
X36319130Y-94854226D01*
X36334130Y-94880226D01*
X36348130Y-94907226D01*
X36360130Y-94934226D01*
X36371130Y-94962226D01*
X36380130Y-94990226D01*
X36388130Y-95019226D01*
X36395130Y-95048226D01*
X36400130Y-95078226D01*
X36404130Y-95107226D01*
X36406130Y-95137226D01*
X36407130Y-95167226D01*
X36407130Y-95967226D01*
X36406130Y-95997226D01*
X36404130Y-96027226D01*
X36400130Y-96057226D01*
X36395130Y-96086226D01*
X36388130Y-96115226D01*
X36380130Y-96144226D01*
X36371130Y-96172226D01*
X36360130Y-96200226D01*
X36348130Y-96227226D01*
X36334130Y-96254226D01*
X36319130Y-96280226D01*
X36303130Y-96305226D01*
X36285130Y-96329226D01*
X36267130Y-96353226D01*
X36247130Y-96375226D01*
X36226130Y-96397226D01*
X36204130Y-96417226D01*
X36181130Y-96436226D01*
X36157130Y-96454226D01*
X36133130Y-96471226D01*
X36107130Y-96487226D01*
X36081130Y-96501226D01*
X36054130Y-96514226D01*
X36026130Y-96526226D01*
X35998130Y-96536226D01*
X35970130Y-96545226D01*
X35941130Y-96552226D01*
X35911130Y-96558226D01*
X35882130Y-96562226D01*
X35852130Y-96565226D01*
X35822130Y-96567226D01*
X35792130Y-96567226D01*
X35762130Y-96565226D01*
X35732130Y-96562226D01*
X35703130Y-96558226D01*
X35674130Y-96552226D01*
X35645130Y-96545226D01*
X35616130Y-96536226D01*
X35588130Y-96526226D01*
X35560130Y-96514226D01*
X35533130Y-96501226D01*
X35507130Y-96487226D01*
X35481130Y-96471226D01*
X35457130Y-96454226D01*
X35433130Y-96436226D01*
X35410130Y-96417226D01*
X35388130Y-96397226D01*
X35367130Y-96375226D01*
X35347130Y-96353226D01*
X35329130Y-96329226D01*
X35311130Y-96305226D01*
X35295130Y-96280226D01*
X35280130Y-96254226D01*
X35266130Y-96227226D01*
X35254130Y-96200226D01*
X35243130Y-96172226D01*
X35234130Y-96144226D01*
X35226130Y-96115226D01*
X35219130Y-96086226D01*
X35214130Y-96057226D01*
X35210130Y-96027226D01*
X35208130Y-95997226D01*
X35207130Y-95967226D01*
X35207130Y-95167226D01*
X35208130Y-95137226D01*
X35210130Y-95107226D01*
X35214130Y-95078226D01*
X35219130Y-95048226D01*
X35226130Y-95019226D01*
X35234130Y-94990226D01*
X35243130Y-94962226D01*
X35254130Y-94934226D01*
X35266130Y-94907226D01*
X35280130Y-94880226D01*
X35295130Y-94854226D01*
X35311130Y-94829226D01*
X35329130Y-94805226D01*
X35347130Y-94781226D01*
X35367130Y-94759226D01*
X35388130Y-94738226D01*
X35410130Y-94717226D01*
X35433130Y-94698226D01*
X35457130Y-94680226D01*
X35481130Y-94663226D01*
X35507130Y-94648226D01*
X35533130Y-94633226D01*
X35560130Y-94620226D01*
X35588130Y-94609226D01*
X35616130Y-94598226D01*
X35645130Y-94590226D01*
X35674130Y-94582226D01*
X35703130Y-94576226D01*
X35732130Y-94572226D01*
X35762130Y-94569226D01*
X35792130Y-94567226D01*
X35822130Y-94567226D01*
X35852130Y-94569226D01*
G37*
%TO.C,USB2*%
X260955010Y-96666046D02*
X260355010Y-96666046D01*
X260355010Y-95566046D01*
X260955010Y-95566046D01*
X260955010Y-96666046D01*
G36*
X260955010Y-96666046D02*
G01*
X260355010Y-96666046D01*
X260355010Y-95566046D01*
X260955010Y-95566046D01*
X260955010Y-96666046D01*
G37*
X260155010Y-96666046D02*
X259555010Y-96666046D01*
X259555010Y-95566046D01*
X260155010Y-95566046D01*
X260155010Y-96666046D01*
G36*
X260155010Y-96666046D02*
G01*
X259555010Y-96666046D01*
X259555010Y-95566046D01*
X260155010Y-95566046D01*
X260155010Y-96666046D01*
G37*
X259355010Y-96666046D02*
X259055010Y-96666046D01*
X259055010Y-95566046D01*
X259355010Y-95566046D01*
X259355010Y-96666046D01*
G36*
X259355010Y-96666046D02*
G01*
X259055010Y-96666046D01*
X259055010Y-95566046D01*
X259355010Y-95566046D01*
X259355010Y-96666046D01*
G37*
X258855010Y-96666046D02*
X258555010Y-96666046D01*
X258555010Y-95566046D01*
X258855010Y-95566046D01*
X258855010Y-96666046D01*
G36*
X258855010Y-96666046D02*
G01*
X258555010Y-96666046D01*
X258555010Y-95566046D01*
X258855010Y-95566046D01*
X258855010Y-96666046D01*
G37*
X258355010Y-96666046D02*
X258055010Y-96666046D01*
X258055010Y-95566046D01*
X258355010Y-95566046D01*
X258355010Y-96666046D01*
G36*
X258355010Y-96666046D02*
G01*
X258055010Y-96666046D01*
X258055010Y-95566046D01*
X258355010Y-95566046D01*
X258355010Y-96666046D01*
G37*
X257855010Y-96666046D02*
X257555010Y-96666046D01*
X257555010Y-95566046D01*
X257855010Y-95566046D01*
X257855010Y-96666046D01*
G36*
X257855010Y-96666046D02*
G01*
X257555010Y-96666046D01*
X257555010Y-95566046D01*
X257855010Y-95566046D01*
X257855010Y-96666046D01*
G37*
X257355010Y-96666046D02*
X257055010Y-96666046D01*
X257055010Y-95566046D01*
X257355010Y-95566046D01*
X257355010Y-96666046D01*
G36*
X257355010Y-96666046D02*
G01*
X257055010Y-96666046D01*
X257055010Y-95566046D01*
X257355010Y-95566046D01*
X257355010Y-96666046D01*
G37*
X256855010Y-96666046D02*
X256555010Y-96666046D01*
X256555010Y-95566046D01*
X256855010Y-95566046D01*
X256855010Y-96666046D01*
G36*
X256855010Y-96666046D02*
G01*
X256555010Y-96666046D01*
X256555010Y-95566046D01*
X256855010Y-95566046D01*
X256855010Y-96666046D01*
G37*
X256355010Y-96666046D02*
X256055010Y-96666046D01*
X256055010Y-95566046D01*
X256355010Y-95566046D01*
X256355010Y-96666046D01*
G36*
X256355010Y-96666046D02*
G01*
X256055010Y-96666046D01*
X256055010Y-95566046D01*
X256355010Y-95566046D01*
X256355010Y-96666046D01*
G37*
X255855010Y-96666046D02*
X255555010Y-96666046D01*
X255555010Y-95566046D01*
X255855010Y-95566046D01*
X255855010Y-96666046D01*
G36*
X255855010Y-96666046D02*
G01*
X255555010Y-96666046D01*
X255555010Y-95566046D01*
X255855010Y-95566046D01*
X255855010Y-96666046D01*
G37*
X255355010Y-96666046D02*
X254755010Y-96666046D01*
X254755010Y-95566046D01*
X255355010Y-95566046D01*
X255355010Y-96666046D01*
G36*
X255355010Y-96666046D02*
G01*
X254755010Y-96666046D01*
X254755010Y-95566046D01*
X255355010Y-95566046D01*
X255355010Y-96666046D01*
G37*
X254555010Y-96666046D02*
X253955010Y-96666046D01*
X253955010Y-95566046D01*
X254555010Y-95566046D01*
X254555010Y-96666046D01*
G36*
X254555010Y-96666046D02*
G01*
X253955010Y-96666046D01*
X253955010Y-95566046D01*
X254555010Y-95566046D01*
X254555010Y-96666046D01*
G37*
X261825010Y-94568046D02*
X261855010Y-94571046D01*
X261884010Y-94575046D01*
X261913010Y-94581046D01*
X261942010Y-94589046D01*
X261971010Y-94597046D01*
X261999010Y-94608046D01*
X262027010Y-94619046D01*
X262054010Y-94632046D01*
X262080010Y-94647046D01*
X262106010Y-94662046D01*
X262130010Y-94679046D01*
X262154010Y-94697046D01*
X262177010Y-94716046D01*
X262199010Y-94737046D01*
X262220010Y-94758046D01*
X262240010Y-94780046D01*
X262258010Y-94804046D01*
X262276010Y-94828046D01*
X262292010Y-94853046D01*
X262307010Y-94879046D01*
X262321010Y-94906046D01*
X262333010Y-94933046D01*
X262344010Y-94961046D01*
X262353010Y-94989046D01*
X262361010Y-95018046D01*
X262368010Y-95047046D01*
X262373010Y-95077046D01*
X262377010Y-95106046D01*
X262379010Y-95136046D01*
X262380010Y-95166046D01*
X262380010Y-95966046D01*
X262379010Y-95996046D01*
X262377010Y-96026046D01*
X262373010Y-96056046D01*
X262368010Y-96085046D01*
X262361010Y-96114046D01*
X262353010Y-96143046D01*
X262344010Y-96171046D01*
X262333010Y-96199046D01*
X262321010Y-96226046D01*
X262307010Y-96253046D01*
X262292010Y-96279046D01*
X262276010Y-96304046D01*
X262258010Y-96328046D01*
X262240010Y-96352046D01*
X262220010Y-96374046D01*
X262199010Y-96396046D01*
X262177010Y-96416046D01*
X262154010Y-96435046D01*
X262130010Y-96453046D01*
X262106010Y-96470046D01*
X262080010Y-96486046D01*
X262054010Y-96500046D01*
X262027010Y-96513046D01*
X261999010Y-96525046D01*
X261971010Y-96535046D01*
X261942010Y-96544046D01*
X261913010Y-96551046D01*
X261884010Y-96557046D01*
X261855010Y-96561046D01*
X261825010Y-96564046D01*
X261795010Y-96566046D01*
X261765010Y-96566046D01*
X261735010Y-96564046D01*
X261705010Y-96561046D01*
X261676010Y-96557046D01*
X261646010Y-96551046D01*
X261617010Y-96544046D01*
X261589010Y-96535046D01*
X261561010Y-96525046D01*
X261533010Y-96513046D01*
X261506010Y-96500046D01*
X261480010Y-96486046D01*
X261454010Y-96470046D01*
X261430010Y-96453046D01*
X261406010Y-96435046D01*
X261383010Y-96416046D01*
X261361010Y-96396046D01*
X261340010Y-96374046D01*
X261320010Y-96352046D01*
X261302010Y-96328046D01*
X261284010Y-96304046D01*
X261268010Y-96279046D01*
X261253010Y-96253046D01*
X261239010Y-96226046D01*
X261227010Y-96199046D01*
X261216010Y-96171046D01*
X261207010Y-96143046D01*
X261199010Y-96114046D01*
X261192010Y-96085046D01*
X261187010Y-96056046D01*
X261183010Y-96026046D01*
X261181010Y-95996046D01*
X261180010Y-95966046D01*
X261180010Y-95166046D01*
X261181010Y-95136046D01*
X261183010Y-95106046D01*
X261187010Y-95077046D01*
X261192010Y-95047046D01*
X261199010Y-95018046D01*
X261207010Y-94989046D01*
X261216010Y-94961046D01*
X261227010Y-94933046D01*
X261239010Y-94906046D01*
X261253010Y-94879046D01*
X261268010Y-94853046D01*
X261284010Y-94828046D01*
X261302010Y-94804046D01*
X261320010Y-94780046D01*
X261340010Y-94758046D01*
X261361010Y-94737046D01*
X261383010Y-94716046D01*
X261406010Y-94697046D01*
X261430010Y-94679046D01*
X261454010Y-94662046D01*
X261480010Y-94647046D01*
X261506010Y-94632046D01*
X261533010Y-94619046D01*
X261561010Y-94608046D01*
X261589010Y-94597046D01*
X261617010Y-94589046D01*
X261646010Y-94581046D01*
X261676010Y-94575046D01*
X261705010Y-94571046D01*
X261735010Y-94568046D01*
X261765010Y-94566046D01*
X261795010Y-94566046D01*
X261825010Y-94568046D01*
G36*
X261825010Y-94568046D02*
G01*
X261855010Y-94571046D01*
X261884010Y-94575046D01*
X261913010Y-94581046D01*
X261942010Y-94589046D01*
X261971010Y-94597046D01*
X261999010Y-94608046D01*
X262027010Y-94619046D01*
X262054010Y-94632046D01*
X262080010Y-94647046D01*
X262106010Y-94662046D01*
X262130010Y-94679046D01*
X262154010Y-94697046D01*
X262177010Y-94716046D01*
X262199010Y-94737046D01*
X262220010Y-94758046D01*
X262240010Y-94780046D01*
X262258010Y-94804046D01*
X262276010Y-94828046D01*
X262292010Y-94853046D01*
X262307010Y-94879046D01*
X262321010Y-94906046D01*
X262333010Y-94933046D01*
X262344010Y-94961046D01*
X262353010Y-94989046D01*
X262361010Y-95018046D01*
X262368010Y-95047046D01*
X262373010Y-95077046D01*
X262377010Y-95106046D01*
X262379010Y-95136046D01*
X262380010Y-95166046D01*
X262380010Y-95966046D01*
X262379010Y-95996046D01*
X262377010Y-96026046D01*
X262373010Y-96056046D01*
X262368010Y-96085046D01*
X262361010Y-96114046D01*
X262353010Y-96143046D01*
X262344010Y-96171046D01*
X262333010Y-96199046D01*
X262321010Y-96226046D01*
X262307010Y-96253046D01*
X262292010Y-96279046D01*
X262276010Y-96304046D01*
X262258010Y-96328046D01*
X262240010Y-96352046D01*
X262220010Y-96374046D01*
X262199010Y-96396046D01*
X262177010Y-96416046D01*
X262154010Y-96435046D01*
X262130010Y-96453046D01*
X262106010Y-96470046D01*
X262080010Y-96486046D01*
X262054010Y-96500046D01*
X262027010Y-96513046D01*
X261999010Y-96525046D01*
X261971010Y-96535046D01*
X261942010Y-96544046D01*
X261913010Y-96551046D01*
X261884010Y-96557046D01*
X261855010Y-96561046D01*
X261825010Y-96564046D01*
X261795010Y-96566046D01*
X261765010Y-96566046D01*
X261735010Y-96564046D01*
X261705010Y-96561046D01*
X261676010Y-96557046D01*
X261646010Y-96551046D01*
X261617010Y-96544046D01*
X261589010Y-96535046D01*
X261561010Y-96525046D01*
X261533010Y-96513046D01*
X261506010Y-96500046D01*
X261480010Y-96486046D01*
X261454010Y-96470046D01*
X261430010Y-96453046D01*
X261406010Y-96435046D01*
X261383010Y-96416046D01*
X261361010Y-96396046D01*
X261340010Y-96374046D01*
X261320010Y-96352046D01*
X261302010Y-96328046D01*
X261284010Y-96304046D01*
X261268010Y-96279046D01*
X261253010Y-96253046D01*
X261239010Y-96226046D01*
X261227010Y-96199046D01*
X261216010Y-96171046D01*
X261207010Y-96143046D01*
X261199010Y-96114046D01*
X261192010Y-96085046D01*
X261187010Y-96056046D01*
X261183010Y-96026046D01*
X261181010Y-95996046D01*
X261180010Y-95966046D01*
X261180010Y-95166046D01*
X261181010Y-95136046D01*
X261183010Y-95106046D01*
X261187010Y-95077046D01*
X261192010Y-95047046D01*
X261199010Y-95018046D01*
X261207010Y-94989046D01*
X261216010Y-94961046D01*
X261227010Y-94933046D01*
X261239010Y-94906046D01*
X261253010Y-94879046D01*
X261268010Y-94853046D01*
X261284010Y-94828046D01*
X261302010Y-94804046D01*
X261320010Y-94780046D01*
X261340010Y-94758046D01*
X261361010Y-94737046D01*
X261383010Y-94716046D01*
X261406010Y-94697046D01*
X261430010Y-94679046D01*
X261454010Y-94662046D01*
X261480010Y-94647046D01*
X261506010Y-94632046D01*
X261533010Y-94619046D01*
X261561010Y-94608046D01*
X261589010Y-94597046D01*
X261617010Y-94589046D01*
X261646010Y-94581046D01*
X261676010Y-94575046D01*
X261705010Y-94571046D01*
X261735010Y-94568046D01*
X261765010Y-94566046D01*
X261795010Y-94566046D01*
X261825010Y-94568046D01*
G37*
X261825010Y-90618046D02*
X261855010Y-90621046D01*
X261884010Y-90625046D01*
X261913010Y-90631046D01*
X261942010Y-90638046D01*
X261971010Y-90647046D01*
X261999010Y-90657046D01*
X262027010Y-90669046D01*
X262054010Y-90682046D01*
X262080010Y-90696046D01*
X262106010Y-90712046D01*
X262130010Y-90729046D01*
X262154010Y-90747046D01*
X262177010Y-90766046D01*
X262199010Y-90786046D01*
X262220010Y-90808046D01*
X262240010Y-90830046D01*
X262258010Y-90854046D01*
X262276010Y-90878046D01*
X262292010Y-90903046D01*
X262307010Y-90929046D01*
X262321010Y-90956046D01*
X262333010Y-90983046D01*
X262344010Y-91011046D01*
X262353010Y-91039046D01*
X262361010Y-91068046D01*
X262368010Y-91097046D01*
X262373010Y-91127046D01*
X262377010Y-91156046D01*
X262379010Y-91186046D01*
X262380010Y-91216046D01*
X262380010Y-91516046D01*
X262379010Y-91546046D01*
X262377010Y-91576046D01*
X262373010Y-91605046D01*
X262368010Y-91635046D01*
X262361010Y-91664046D01*
X262353010Y-91693046D01*
X262344010Y-91721046D01*
X262333010Y-91749046D01*
X262321010Y-91776046D01*
X262307010Y-91803046D01*
X262292010Y-91829046D01*
X262276010Y-91854046D01*
X262258010Y-91878046D01*
X262240010Y-91902046D01*
X262220010Y-91924046D01*
X262199010Y-91945046D01*
X262177010Y-91966046D01*
X262154010Y-91985046D01*
X262130010Y-92003046D01*
X262106010Y-92020046D01*
X262080010Y-92036046D01*
X262054010Y-92050046D01*
X262027010Y-92063046D01*
X261999010Y-92074046D01*
X261971010Y-92085046D01*
X261942010Y-92094046D01*
X261913010Y-92101046D01*
X261884010Y-92107046D01*
X261855010Y-92111046D01*
X261825010Y-92114046D01*
X261795010Y-92116046D01*
X261765010Y-92116046D01*
X261735010Y-92114046D01*
X261705010Y-92111046D01*
X261676010Y-92107046D01*
X261646010Y-92101046D01*
X261617010Y-92094046D01*
X261589010Y-92085046D01*
X261561010Y-92074046D01*
X261533010Y-92063046D01*
X261506010Y-92050046D01*
X261480010Y-92036046D01*
X261454010Y-92020046D01*
X261430010Y-92003046D01*
X261406010Y-91985046D01*
X261383010Y-91966046D01*
X261361010Y-91945046D01*
X261340010Y-91924046D01*
X261320010Y-91902046D01*
X261302010Y-91878046D01*
X261284010Y-91854046D01*
X261268010Y-91829046D01*
X261253010Y-91803046D01*
X261239010Y-91776046D01*
X261227010Y-91749046D01*
X261216010Y-91721046D01*
X261207010Y-91693046D01*
X261199010Y-91664046D01*
X261192010Y-91635046D01*
X261187010Y-91605046D01*
X261183010Y-91576046D01*
X261181010Y-91546046D01*
X261180010Y-91516046D01*
X261180010Y-91216046D01*
X261181010Y-91186046D01*
X261183010Y-91156046D01*
X261187010Y-91127046D01*
X261192010Y-91097046D01*
X261199010Y-91068046D01*
X261207010Y-91039046D01*
X261216010Y-91011046D01*
X261227010Y-90983046D01*
X261239010Y-90956046D01*
X261253010Y-90929046D01*
X261268010Y-90903046D01*
X261284010Y-90878046D01*
X261302010Y-90854046D01*
X261320010Y-90830046D01*
X261340010Y-90808046D01*
X261361010Y-90786046D01*
X261383010Y-90766046D01*
X261406010Y-90747046D01*
X261430010Y-90729046D01*
X261454010Y-90712046D01*
X261480010Y-90696046D01*
X261506010Y-90682046D01*
X261533010Y-90669046D01*
X261561010Y-90657046D01*
X261589010Y-90647046D01*
X261617010Y-90638046D01*
X261646010Y-90631046D01*
X261676010Y-90625046D01*
X261705010Y-90621046D01*
X261735010Y-90618046D01*
X261765010Y-90616046D01*
X261795010Y-90616046D01*
X261825010Y-90618046D01*
G36*
X261825010Y-90618046D02*
G01*
X261855010Y-90621046D01*
X261884010Y-90625046D01*
X261913010Y-90631046D01*
X261942010Y-90638046D01*
X261971010Y-90647046D01*
X261999010Y-90657046D01*
X262027010Y-90669046D01*
X262054010Y-90682046D01*
X262080010Y-90696046D01*
X262106010Y-90712046D01*
X262130010Y-90729046D01*
X262154010Y-90747046D01*
X262177010Y-90766046D01*
X262199010Y-90786046D01*
X262220010Y-90808046D01*
X262240010Y-90830046D01*
X262258010Y-90854046D01*
X262276010Y-90878046D01*
X262292010Y-90903046D01*
X262307010Y-90929046D01*
X262321010Y-90956046D01*
X262333010Y-90983046D01*
X262344010Y-91011046D01*
X262353010Y-91039046D01*
X262361010Y-91068046D01*
X262368010Y-91097046D01*
X262373010Y-91127046D01*
X262377010Y-91156046D01*
X262379010Y-91186046D01*
X262380010Y-91216046D01*
X262380010Y-91516046D01*
X262379010Y-91546046D01*
X262377010Y-91576046D01*
X262373010Y-91605046D01*
X262368010Y-91635046D01*
X262361010Y-91664046D01*
X262353010Y-91693046D01*
X262344010Y-91721046D01*
X262333010Y-91749046D01*
X262321010Y-91776046D01*
X262307010Y-91803046D01*
X262292010Y-91829046D01*
X262276010Y-91854046D01*
X262258010Y-91878046D01*
X262240010Y-91902046D01*
X262220010Y-91924046D01*
X262199010Y-91945046D01*
X262177010Y-91966046D01*
X262154010Y-91985046D01*
X262130010Y-92003046D01*
X262106010Y-92020046D01*
X262080010Y-92036046D01*
X262054010Y-92050046D01*
X262027010Y-92063046D01*
X261999010Y-92074046D01*
X261971010Y-92085046D01*
X261942010Y-92094046D01*
X261913010Y-92101046D01*
X261884010Y-92107046D01*
X261855010Y-92111046D01*
X261825010Y-92114046D01*
X261795010Y-92116046D01*
X261765010Y-92116046D01*
X261735010Y-92114046D01*
X261705010Y-92111046D01*
X261676010Y-92107046D01*
X261646010Y-92101046D01*
X261617010Y-92094046D01*
X261589010Y-92085046D01*
X261561010Y-92074046D01*
X261533010Y-92063046D01*
X261506010Y-92050046D01*
X261480010Y-92036046D01*
X261454010Y-92020046D01*
X261430010Y-92003046D01*
X261406010Y-91985046D01*
X261383010Y-91966046D01*
X261361010Y-91945046D01*
X261340010Y-91924046D01*
X261320010Y-91902046D01*
X261302010Y-91878046D01*
X261284010Y-91854046D01*
X261268010Y-91829046D01*
X261253010Y-91803046D01*
X261239010Y-91776046D01*
X261227010Y-91749046D01*
X261216010Y-91721046D01*
X261207010Y-91693046D01*
X261199010Y-91664046D01*
X261192010Y-91635046D01*
X261187010Y-91605046D01*
X261183010Y-91576046D01*
X261181010Y-91546046D01*
X261180010Y-91516046D01*
X261180010Y-91216046D01*
X261181010Y-91186046D01*
X261183010Y-91156046D01*
X261187010Y-91127046D01*
X261192010Y-91097046D01*
X261199010Y-91068046D01*
X261207010Y-91039046D01*
X261216010Y-91011046D01*
X261227010Y-90983046D01*
X261239010Y-90956046D01*
X261253010Y-90929046D01*
X261268010Y-90903046D01*
X261284010Y-90878046D01*
X261302010Y-90854046D01*
X261320010Y-90830046D01*
X261340010Y-90808046D01*
X261361010Y-90786046D01*
X261383010Y-90766046D01*
X261406010Y-90747046D01*
X261430010Y-90729046D01*
X261454010Y-90712046D01*
X261480010Y-90696046D01*
X261506010Y-90682046D01*
X261533010Y-90669046D01*
X261561010Y-90657046D01*
X261589010Y-90647046D01*
X261617010Y-90638046D01*
X261646010Y-90631046D01*
X261676010Y-90625046D01*
X261705010Y-90621046D01*
X261735010Y-90618046D01*
X261765010Y-90616046D01*
X261795010Y-90616046D01*
X261825010Y-90618046D01*
G37*
X253175010Y-90618046D02*
X253205010Y-90621046D01*
X253234010Y-90625046D01*
X253264010Y-90631046D01*
X253293010Y-90638046D01*
X253321010Y-90647046D01*
X253349010Y-90657046D01*
X253377010Y-90669046D01*
X253404010Y-90682046D01*
X253430010Y-90696046D01*
X253456010Y-90712046D01*
X253480010Y-90729046D01*
X253504010Y-90747046D01*
X253527010Y-90766046D01*
X253549010Y-90786046D01*
X253570010Y-90808046D01*
X253590010Y-90830046D01*
X253608010Y-90854046D01*
X253626010Y-90878046D01*
X253642010Y-90903046D01*
X253657010Y-90929046D01*
X253671010Y-90956046D01*
X253683010Y-90983046D01*
X253694010Y-91011046D01*
X253703010Y-91039046D01*
X253711010Y-91068046D01*
X253718010Y-91097046D01*
X253723010Y-91127046D01*
X253727010Y-91156046D01*
X253729010Y-91186046D01*
X253730010Y-91216046D01*
X253730010Y-91516046D01*
X253729010Y-91546046D01*
X253727010Y-91576046D01*
X253723010Y-91605046D01*
X253718010Y-91635046D01*
X253711010Y-91664046D01*
X253703010Y-91693046D01*
X253694010Y-91721046D01*
X253683010Y-91749046D01*
X253671010Y-91776046D01*
X253657010Y-91803046D01*
X253642010Y-91829046D01*
X253626010Y-91854046D01*
X253608010Y-91878046D01*
X253590010Y-91902046D01*
X253570010Y-91924046D01*
X253549010Y-91945046D01*
X253527010Y-91966046D01*
X253504010Y-91985046D01*
X253480010Y-92003046D01*
X253456010Y-92020046D01*
X253430010Y-92036046D01*
X253404010Y-92050046D01*
X253377010Y-92063046D01*
X253349010Y-92074046D01*
X253321010Y-92085046D01*
X253293010Y-92094046D01*
X253264010Y-92101046D01*
X253234010Y-92107046D01*
X253205010Y-92111046D01*
X253175010Y-92114046D01*
X253145010Y-92116046D01*
X253115010Y-92116046D01*
X253085010Y-92114046D01*
X253055010Y-92111046D01*
X253026010Y-92107046D01*
X252997010Y-92101046D01*
X252968010Y-92094046D01*
X252939010Y-92085046D01*
X252911010Y-92074046D01*
X252883010Y-92063046D01*
X252856010Y-92050046D01*
X252830010Y-92036046D01*
X252804010Y-92020046D01*
X252780010Y-92003046D01*
X252756010Y-91985046D01*
X252733010Y-91966046D01*
X252711010Y-91945046D01*
X252690010Y-91924046D01*
X252670010Y-91902046D01*
X252652010Y-91878046D01*
X252634010Y-91854046D01*
X252618010Y-91829046D01*
X252603010Y-91803046D01*
X252589010Y-91776046D01*
X252577010Y-91749046D01*
X252566010Y-91721046D01*
X252557010Y-91693046D01*
X252549010Y-91664046D01*
X252542010Y-91635046D01*
X252537010Y-91605046D01*
X252533010Y-91576046D01*
X252531010Y-91546046D01*
X252530010Y-91516046D01*
X252530010Y-91216046D01*
X252531010Y-91186046D01*
X252533010Y-91156046D01*
X252537010Y-91127046D01*
X252542010Y-91097046D01*
X252549010Y-91068046D01*
X252557010Y-91039046D01*
X252566010Y-91011046D01*
X252577010Y-90983046D01*
X252589010Y-90956046D01*
X252603010Y-90929046D01*
X252618010Y-90903046D01*
X252634010Y-90878046D01*
X252652010Y-90854046D01*
X252670010Y-90830046D01*
X252690010Y-90808046D01*
X252711010Y-90786046D01*
X252733010Y-90766046D01*
X252756010Y-90747046D01*
X252780010Y-90729046D01*
X252804010Y-90712046D01*
X252830010Y-90696046D01*
X252856010Y-90682046D01*
X252883010Y-90669046D01*
X252911010Y-90657046D01*
X252939010Y-90647046D01*
X252968010Y-90638046D01*
X252997010Y-90631046D01*
X253026010Y-90625046D01*
X253055010Y-90621046D01*
X253085010Y-90618046D01*
X253115010Y-90616046D01*
X253145010Y-90616046D01*
X253175010Y-90618046D01*
G36*
X253175010Y-90618046D02*
G01*
X253205010Y-90621046D01*
X253234010Y-90625046D01*
X253264010Y-90631046D01*
X253293010Y-90638046D01*
X253321010Y-90647046D01*
X253349010Y-90657046D01*
X253377010Y-90669046D01*
X253404010Y-90682046D01*
X253430010Y-90696046D01*
X253456010Y-90712046D01*
X253480010Y-90729046D01*
X253504010Y-90747046D01*
X253527010Y-90766046D01*
X253549010Y-90786046D01*
X253570010Y-90808046D01*
X253590010Y-90830046D01*
X253608010Y-90854046D01*
X253626010Y-90878046D01*
X253642010Y-90903046D01*
X253657010Y-90929046D01*
X253671010Y-90956046D01*
X253683010Y-90983046D01*
X253694010Y-91011046D01*
X253703010Y-91039046D01*
X253711010Y-91068046D01*
X253718010Y-91097046D01*
X253723010Y-91127046D01*
X253727010Y-91156046D01*
X253729010Y-91186046D01*
X253730010Y-91216046D01*
X253730010Y-91516046D01*
X253729010Y-91546046D01*
X253727010Y-91576046D01*
X253723010Y-91605046D01*
X253718010Y-91635046D01*
X253711010Y-91664046D01*
X253703010Y-91693046D01*
X253694010Y-91721046D01*
X253683010Y-91749046D01*
X253671010Y-91776046D01*
X253657010Y-91803046D01*
X253642010Y-91829046D01*
X253626010Y-91854046D01*
X253608010Y-91878046D01*
X253590010Y-91902046D01*
X253570010Y-91924046D01*
X253549010Y-91945046D01*
X253527010Y-91966046D01*
X253504010Y-91985046D01*
X253480010Y-92003046D01*
X253456010Y-92020046D01*
X253430010Y-92036046D01*
X253404010Y-92050046D01*
X253377010Y-92063046D01*
X253349010Y-92074046D01*
X253321010Y-92085046D01*
X253293010Y-92094046D01*
X253264010Y-92101046D01*
X253234010Y-92107046D01*
X253205010Y-92111046D01*
X253175010Y-92114046D01*
X253145010Y-92116046D01*
X253115010Y-92116046D01*
X253085010Y-92114046D01*
X253055010Y-92111046D01*
X253026010Y-92107046D01*
X252997010Y-92101046D01*
X252968010Y-92094046D01*
X252939010Y-92085046D01*
X252911010Y-92074046D01*
X252883010Y-92063046D01*
X252856010Y-92050046D01*
X252830010Y-92036046D01*
X252804010Y-92020046D01*
X252780010Y-92003046D01*
X252756010Y-91985046D01*
X252733010Y-91966046D01*
X252711010Y-91945046D01*
X252690010Y-91924046D01*
X252670010Y-91902046D01*
X252652010Y-91878046D01*
X252634010Y-91854046D01*
X252618010Y-91829046D01*
X252603010Y-91803046D01*
X252589010Y-91776046D01*
X252577010Y-91749046D01*
X252566010Y-91721046D01*
X252557010Y-91693046D01*
X252549010Y-91664046D01*
X252542010Y-91635046D01*
X252537010Y-91605046D01*
X252533010Y-91576046D01*
X252531010Y-91546046D01*
X252530010Y-91516046D01*
X252530010Y-91216046D01*
X252531010Y-91186046D01*
X252533010Y-91156046D01*
X252537010Y-91127046D01*
X252542010Y-91097046D01*
X252549010Y-91068046D01*
X252557010Y-91039046D01*
X252566010Y-91011046D01*
X252577010Y-90983046D01*
X252589010Y-90956046D01*
X252603010Y-90929046D01*
X252618010Y-90903046D01*
X252634010Y-90878046D01*
X252652010Y-90854046D01*
X252670010Y-90830046D01*
X252690010Y-90808046D01*
X252711010Y-90786046D01*
X252733010Y-90766046D01*
X252756010Y-90747046D01*
X252780010Y-90729046D01*
X252804010Y-90712046D01*
X252830010Y-90696046D01*
X252856010Y-90682046D01*
X252883010Y-90669046D01*
X252911010Y-90657046D01*
X252939010Y-90647046D01*
X252968010Y-90638046D01*
X252997010Y-90631046D01*
X253026010Y-90625046D01*
X253055010Y-90621046D01*
X253085010Y-90618046D01*
X253115010Y-90616046D01*
X253145010Y-90616046D01*
X253175010Y-90618046D01*
G37*
X253175010Y-94568046D02*
X253205010Y-94571046D01*
X253234010Y-94575046D01*
X253264010Y-94581046D01*
X253293010Y-94589046D01*
X253321010Y-94597046D01*
X253349010Y-94608046D01*
X253377010Y-94619046D01*
X253404010Y-94632046D01*
X253430010Y-94647046D01*
X253456010Y-94662046D01*
X253480010Y-94679046D01*
X253504010Y-94697046D01*
X253527010Y-94716046D01*
X253549010Y-94737046D01*
X253570010Y-94758046D01*
X253590010Y-94780046D01*
X253608010Y-94804046D01*
X253626010Y-94828046D01*
X253642010Y-94853046D01*
X253657010Y-94879046D01*
X253671010Y-94906046D01*
X253683010Y-94933046D01*
X253694010Y-94961046D01*
X253703010Y-94989046D01*
X253711010Y-95018046D01*
X253718010Y-95047046D01*
X253723010Y-95077046D01*
X253727010Y-95106046D01*
X253729010Y-95136046D01*
X253730010Y-95166046D01*
X253730010Y-95966046D01*
X253729010Y-95996046D01*
X253727010Y-96026046D01*
X253723010Y-96056046D01*
X253718010Y-96085046D01*
X253711010Y-96114046D01*
X253703010Y-96143046D01*
X253694010Y-96171046D01*
X253683010Y-96199046D01*
X253671010Y-96226046D01*
X253657010Y-96253046D01*
X253642010Y-96279046D01*
X253626010Y-96304046D01*
X253608010Y-96328046D01*
X253590010Y-96352046D01*
X253570010Y-96374046D01*
X253549010Y-96396046D01*
X253527010Y-96416046D01*
X253504010Y-96435046D01*
X253480010Y-96453046D01*
X253456010Y-96470046D01*
X253430010Y-96486046D01*
X253404010Y-96500046D01*
X253377010Y-96513046D01*
X253349010Y-96525046D01*
X253321010Y-96535046D01*
X253293010Y-96544046D01*
X253264010Y-96551046D01*
X253234010Y-96557046D01*
X253205010Y-96561046D01*
X253175010Y-96564046D01*
X253145010Y-96566046D01*
X253115010Y-96566046D01*
X253085010Y-96564046D01*
X253055010Y-96561046D01*
X253026010Y-96557046D01*
X252997010Y-96551046D01*
X252968010Y-96544046D01*
X252939010Y-96535046D01*
X252911010Y-96525046D01*
X252883010Y-96513046D01*
X252856010Y-96500046D01*
X252830010Y-96486046D01*
X252804010Y-96470046D01*
X252780010Y-96453046D01*
X252756010Y-96435046D01*
X252733010Y-96416046D01*
X252711010Y-96396046D01*
X252690010Y-96374046D01*
X252670010Y-96352046D01*
X252652010Y-96328046D01*
X252634010Y-96304046D01*
X252618010Y-96279046D01*
X252603010Y-96253046D01*
X252589010Y-96226046D01*
X252577010Y-96199046D01*
X252566010Y-96171046D01*
X252557010Y-96143046D01*
X252549010Y-96114046D01*
X252542010Y-96085046D01*
X252537010Y-96056046D01*
X252533010Y-96026046D01*
X252531010Y-95996046D01*
X252530010Y-95966046D01*
X252530010Y-95166046D01*
X252531010Y-95136046D01*
X252533010Y-95106046D01*
X252537010Y-95077046D01*
X252542010Y-95047046D01*
X252549010Y-95018046D01*
X252557010Y-94989046D01*
X252566010Y-94961046D01*
X252577010Y-94933046D01*
X252589010Y-94906046D01*
X252603010Y-94879046D01*
X252618010Y-94853046D01*
X252634010Y-94828046D01*
X252652010Y-94804046D01*
X252670010Y-94780046D01*
X252690010Y-94758046D01*
X252711010Y-94737046D01*
X252733010Y-94716046D01*
X252756010Y-94697046D01*
X252780010Y-94679046D01*
X252804010Y-94662046D01*
X252830010Y-94647046D01*
X252856010Y-94632046D01*
X252883010Y-94619046D01*
X252911010Y-94608046D01*
X252939010Y-94597046D01*
X252968010Y-94589046D01*
X252997010Y-94581046D01*
X253026010Y-94575046D01*
X253055010Y-94571046D01*
X253085010Y-94568046D01*
X253115010Y-94566046D01*
X253145010Y-94566046D01*
X253175010Y-94568046D01*
G36*
X253175010Y-94568046D02*
G01*
X253205010Y-94571046D01*
X253234010Y-94575046D01*
X253264010Y-94581046D01*
X253293010Y-94589046D01*
X253321010Y-94597046D01*
X253349010Y-94608046D01*
X253377010Y-94619046D01*
X253404010Y-94632046D01*
X253430010Y-94647046D01*
X253456010Y-94662046D01*
X253480010Y-94679046D01*
X253504010Y-94697046D01*
X253527010Y-94716046D01*
X253549010Y-94737046D01*
X253570010Y-94758046D01*
X253590010Y-94780046D01*
X253608010Y-94804046D01*
X253626010Y-94828046D01*
X253642010Y-94853046D01*
X253657010Y-94879046D01*
X253671010Y-94906046D01*
X253683010Y-94933046D01*
X253694010Y-94961046D01*
X253703010Y-94989046D01*
X253711010Y-95018046D01*
X253718010Y-95047046D01*
X253723010Y-95077046D01*
X253727010Y-95106046D01*
X253729010Y-95136046D01*
X253730010Y-95166046D01*
X253730010Y-95966046D01*
X253729010Y-95996046D01*
X253727010Y-96026046D01*
X253723010Y-96056046D01*
X253718010Y-96085046D01*
X253711010Y-96114046D01*
X253703010Y-96143046D01*
X253694010Y-96171046D01*
X253683010Y-96199046D01*
X253671010Y-96226046D01*
X253657010Y-96253046D01*
X253642010Y-96279046D01*
X253626010Y-96304046D01*
X253608010Y-96328046D01*
X253590010Y-96352046D01*
X253570010Y-96374046D01*
X253549010Y-96396046D01*
X253527010Y-96416046D01*
X253504010Y-96435046D01*
X253480010Y-96453046D01*
X253456010Y-96470046D01*
X253430010Y-96486046D01*
X253404010Y-96500046D01*
X253377010Y-96513046D01*
X253349010Y-96525046D01*
X253321010Y-96535046D01*
X253293010Y-96544046D01*
X253264010Y-96551046D01*
X253234010Y-96557046D01*
X253205010Y-96561046D01*
X253175010Y-96564046D01*
X253145010Y-96566046D01*
X253115010Y-96566046D01*
X253085010Y-96564046D01*
X253055010Y-96561046D01*
X253026010Y-96557046D01*
X252997010Y-96551046D01*
X252968010Y-96544046D01*
X252939010Y-96535046D01*
X252911010Y-96525046D01*
X252883010Y-96513046D01*
X252856010Y-96500046D01*
X252830010Y-96486046D01*
X252804010Y-96470046D01*
X252780010Y-96453046D01*
X252756010Y-96435046D01*
X252733010Y-96416046D01*
X252711010Y-96396046D01*
X252690010Y-96374046D01*
X252670010Y-96352046D01*
X252652010Y-96328046D01*
X252634010Y-96304046D01*
X252618010Y-96279046D01*
X252603010Y-96253046D01*
X252589010Y-96226046D01*
X252577010Y-96199046D01*
X252566010Y-96171046D01*
X252557010Y-96143046D01*
X252549010Y-96114046D01*
X252542010Y-96085046D01*
X252537010Y-96056046D01*
X252533010Y-96026046D01*
X252531010Y-95996046D01*
X252530010Y-95966046D01*
X252530010Y-95166046D01*
X252531010Y-95136046D01*
X252533010Y-95106046D01*
X252537010Y-95077046D01*
X252542010Y-95047046D01*
X252549010Y-95018046D01*
X252557010Y-94989046D01*
X252566010Y-94961046D01*
X252577010Y-94933046D01*
X252589010Y-94906046D01*
X252603010Y-94879046D01*
X252618010Y-94853046D01*
X252634010Y-94828046D01*
X252652010Y-94804046D01*
X252670010Y-94780046D01*
X252690010Y-94758046D01*
X252711010Y-94737046D01*
X252733010Y-94716046D01*
X252756010Y-94697046D01*
X252780010Y-94679046D01*
X252804010Y-94662046D01*
X252830010Y-94647046D01*
X252856010Y-94632046D01*
X252883010Y-94619046D01*
X252911010Y-94608046D01*
X252939010Y-94597046D01*
X252968010Y-94589046D01*
X252997010Y-94581046D01*
X253026010Y-94575046D01*
X253055010Y-94571046D01*
X253085010Y-94568046D01*
X253115010Y-94566046D01*
X253145010Y-94566046D01*
X253175010Y-94568046D01*
G37*
%TD*%
D11*
%TO.C,USB1*%
X43332130Y-96117226D03*
X42532130Y-96117226D03*
D12*
X41882130Y-96117226D03*
X41382130Y-96117226D03*
X40882130Y-96117226D03*
X40382130Y-96117226D03*
X39882130Y-96117226D03*
X39382130Y-96117226D03*
X38882130Y-96117226D03*
X38382130Y-96117226D03*
D11*
X37732130Y-96117226D03*
X36932130Y-96117226D03*
%TD*%
%TO.C,USB2*%
X260655010Y-96116046D03*
X259855010Y-96116046D03*
D12*
X259205010Y-96116046D03*
X258705010Y-96116046D03*
X258205010Y-96116046D03*
X257705010Y-96116046D03*
X257205010Y-96116046D03*
X256705010Y-96116046D03*
X256205010Y-96116046D03*
X255705010Y-96116046D03*
D11*
X255055010Y-96116046D03*
X254255010Y-96116046D03*
%TD*%
M02*
